<svg width="425" height="387" viewBox="0 0 425 387" fill="none" xmlns="http://www.w3.org/2000/svg">
<path d="M287.752 375.167L294.557 374.779C295.994 374.698 296.877 373.17 296.23 371.884L293.166 365.795L296.903 371.495C297.693 372.699 299.458 372.699 300.248 371.496L303.988 365.798L300.921 371.885C300.273 373.171 301.155 374.699 302.593 374.782L309.397 375.172L302.592 375.559C301.155 375.641 300.272 377.169 300.919 378.455L303.983 384.543L300.246 378.844C299.456 377.64 297.692 377.639 296.901 378.843L293.161 384.541L296.228 378.454C296.876 377.168 295.994 375.64 294.557 375.557L287.752 375.167Z" fill="#53C888"/>
<path d="M287.783 263.152L294.588 262.765C296.025 262.683 296.908 261.155 296.261 259.869L293.197 253.781L296.935 259.481C297.724 260.684 299.489 260.685 300.279 259.481L304.02 253.784L300.952 259.87C300.304 261.156 301.186 262.685 302.624 262.767L309.429 263.158L302.624 263.545C301.186 263.627 300.303 265.155 300.951 266.441L304.015 272.529L300.277 266.829C299.487 265.626 297.723 265.625 296.933 266.829L293.192 272.526L296.259 266.44C296.907 265.154 296.025 263.625 294.588 263.543L287.783 263.152Z" fill="#53C888"/>
<path d="M245.044 225.803L251.849 225.416C253.286 225.334 254.169 223.806 253.522 222.52L250.458 216.431L254.195 222.131C254.985 223.335 256.75 223.336 257.54 222.132L261.28 216.434L258.213 222.521C257.565 223.807 258.447 225.335 259.885 225.418L266.689 225.808L259.884 226.195C258.447 226.277 257.564 227.805 258.211 229.091L261.275 235.18L257.538 229.48C256.748 228.276 254.984 228.276 254.193 229.479L250.453 235.177L253.52 229.09C254.168 227.804 253.286 226.276 251.849 226.193L245.044 225.803Z" fill="#53C888"/>
<path d="M245.033 263.141L251.838 262.754C253.275 262.672 254.158 261.144 253.511 259.858L250.447 253.77L254.185 259.469C254.974 260.673 256.739 260.674 257.529 259.47L261.27 253.773L258.202 259.859C257.554 261.145 258.436 262.674 259.874 262.756L266.679 263.147L259.874 263.534C258.436 263.616 257.553 265.144 258.201 266.43L261.265 272.518L257.527 266.818C256.737 265.614 254.973 265.614 254.183 266.818L250.442 272.515L253.509 266.429C254.157 265.143 253.275 263.614 251.838 263.532L245.033 263.141Z" fill="#53C888"/>
<path d="M330.514 337.84L337.318 337.453C338.756 337.372 339.639 335.844 338.991 334.557L335.927 328.469L339.665 334.169C340.455 335.373 342.219 335.373 343.009 334.17L346.75 328.472L343.683 334.559C343.035 335.844 343.917 337.373 345.354 337.455L352.159 337.846L345.354 338.233C343.917 338.315 343.034 339.843 343.681 341.129L346.745 347.217L343.007 341.518C342.218 340.314 340.453 340.313 339.663 341.517L335.922 347.215L338.99 341.128C339.638 339.842 338.756 338.314 337.318 338.231L330.514 337.84Z" fill="#53C888"/>
<path d="M245.015 337.817L251.82 337.43C253.258 337.348 254.141 335.82 253.493 334.534L250.429 328.446L254.167 334.145C254.957 335.349 256.721 335.35 257.511 334.146L261.252 328.448L258.185 334.535C257.537 335.821 258.419 337.349 259.856 337.432L266.661 337.823L259.856 338.21C258.419 338.291 257.536 339.819 258.183 341.106L261.247 347.194L257.509 341.494C256.72 340.29 254.955 340.29 254.165 341.493L250.424 347.191L253.492 341.104C254.14 339.819 253.258 338.29 251.82 338.208L245.015 337.817Z" fill="#53C888"/>
<path d="M245.003 375.156L251.808 374.769C253.245 374.687 254.128 373.159 253.481 371.873L250.417 365.785L254.154 371.484C254.944 372.688 256.708 372.689 257.499 371.485L261.239 365.787L258.172 371.874C257.524 373.16 258.406 374.688 259.844 374.771L266.648 375.162L259.843 375.549C258.406 375.63 257.523 377.159 258.17 378.445L261.234 384.533L257.497 378.833C256.707 377.629 254.943 377.629 254.152 378.832L250.412 384.53L253.479 378.443C254.127 377.158 253.245 375.629 251.808 375.547L245.003 375.156Z" fill="#53C888"/>
<path d="M330.504 375.177L337.309 374.79C338.746 374.708 339.629 373.18 338.982 371.894L335.918 365.806L339.655 371.506C340.445 372.71 342.209 372.71 343 371.506L346.74 365.809L343.673 371.896C343.025 373.181 343.907 374.71 345.344 374.792L352.149 375.183L345.344 375.57C343.907 375.652 343.024 377.18 343.671 378.466L346.735 384.554L342.998 378.855C342.208 377.651 340.444 377.65 339.653 378.854L335.913 384.551L338.98 378.465C339.628 377.179 338.746 375.65 337.308 375.568L330.504 375.177Z" fill="#53C888"/>
<path d="M330.542 225.826L337.347 225.439C338.784 225.357 339.667 223.829 339.02 222.543L335.956 216.454L339.693 222.154C340.483 223.358 342.248 223.358 343.038 222.155L346.778 216.457L343.711 222.544C343.063 223.83 343.945 225.358 345.383 225.441L352.187 225.831L345.382 226.218C343.945 226.3 343.062 227.828 343.709 229.114L346.774 235.203L343.036 229.503C342.246 228.299 340.482 228.299 339.691 229.502L335.951 235.2L339.018 229.113C339.666 227.827 338.784 226.299 337.347 226.216L330.542 225.826Z" fill="#53C888"/>
<path d="M330.532 263.164L337.337 262.777C338.774 262.695 339.657 261.167 339.01 259.881L335.946 253.792L339.684 259.492C340.473 260.696 342.238 260.696 343.028 259.493L346.769 253.795L343.701 259.882C343.053 261.168 343.935 262.696 345.373 262.779L352.178 263.169L345.373 263.556C343.935 263.638 343.052 265.166 343.7 266.452L346.764 272.541L343.026 266.841C342.237 265.637 340.472 265.636 339.682 266.84L335.941 272.538L339.008 266.451C339.656 265.165 338.774 263.637 337.337 263.554L330.532 263.164Z" fill="#53C888"/>
<path d="M287.771 300.49L294.576 300.103C296.014 300.021 296.896 298.493 296.249 297.207L293.185 291.119L296.923 296.819C297.712 298.023 299.477 298.023 300.267 296.819L304.008 291.122L300.941 297.209C300.293 298.494 301.175 300.023 302.612 300.105L309.417 300.496L302.612 300.883C301.174 300.965 300.292 302.493 300.939 303.779L304.003 309.867L300.265 304.168C299.476 302.964 297.711 302.963 296.921 304.167L293.18 309.864L296.247 303.778C296.895 302.492 296.013 300.963 294.576 300.881L287.771 300.49Z" fill="#53C888"/>
<path d="M287.792 225.814L294.597 225.427C296.034 225.345 296.917 223.817 296.27 222.531L293.206 216.443L296.943 222.142C297.733 223.346 299.498 223.347 300.288 222.143L304.028 216.445L300.961 222.532C300.313 223.818 301.195 225.346 302.633 225.429L309.437 225.819L302.632 226.207C301.195 226.288 300.312 227.816 300.959 229.102L304.024 235.191L300.286 229.491C299.496 228.287 297.732 228.287 296.941 229.49L293.201 235.188L296.268 229.101C296.916 227.816 296.034 226.287 294.597 226.205L287.792 225.814Z" fill="#53C888"/>
<path d="M287.765 337.828L294.569 337.441C296.007 337.359 296.89 335.831 296.242 334.545L293.178 328.456L296.916 334.156C297.706 335.36 299.47 335.36 300.26 334.157L304.001 328.459L300.934 334.546C300.286 335.832 301.168 337.36 302.605 337.443L309.41 337.833L302.605 338.22C301.168 338.302 300.285 339.83 300.932 341.116L303.996 347.205L300.258 341.505C299.469 340.301 297.704 340.301 296.914 341.504L293.173 347.202L296.241 341.115C296.889 339.829 296.007 338.301 294.569 338.218L287.765 337.828Z" fill="#53C888"/>
<path d="M245.022 300.479L251.827 300.092C253.265 300.01 254.147 298.482 253.5 297.196L250.436 291.108L254.174 296.807C254.963 298.011 256.728 298.012 257.518 296.808L261.259 291.111L258.192 297.197C257.544 298.483 258.426 300.011 259.863 300.094L266.668 300.485L259.863 300.872C258.425 300.954 257.543 302.482 258.19 303.768L261.254 309.856L257.516 304.156C256.727 302.952 254.962 302.952 254.172 304.155L250.431 309.853L253.498 303.766C254.146 302.481 253.264 300.952 251.827 300.87L245.022 300.479Z" fill="#53C888"/>
<path d="M330.521 300.502L337.326 300.115C338.764 300.033 339.646 298.505 338.999 297.219L335.935 291.13L339.673 296.83C340.462 298.034 342.227 298.034 343.017 296.831L346.758 291.133L343.691 297.22C343.043 298.506 343.925 300.034 345.362 300.117L352.167 300.507L345.362 300.894C343.924 300.976 343.042 302.504 343.689 303.79L346.753 309.879L343.015 304.179C342.226 302.975 340.461 302.974 339.671 304.178L335.93 309.876L338.997 303.789C339.645 302.503 338.763 300.975 337.326 300.892L330.521 300.502Z" fill="#53C888"/>
<path d="M373.263 337.851L380.067 337.464C381.505 337.382 382.388 335.854 381.74 334.568L378.676 328.48L382.414 334.179C383.204 335.383 384.968 335.384 385.758 334.18L389.499 328.483L386.432 334.569C385.784 335.855 386.666 337.384 388.103 337.466L394.908 337.857L388.103 338.244C386.666 338.326 385.783 339.854 386.43 341.14L389.494 347.228L385.757 341.528C384.967 340.324 383.202 340.324 382.412 341.528L378.671 347.225L381.739 341.138C382.387 339.853 381.505 338.324 380.067 338.242L373.263 337.851Z" fill="#53C888"/>
<path d="M373.252 375.189L380.057 374.802C381.494 374.721 382.377 373.193 381.73 371.907L378.666 365.818L382.403 371.518C383.193 372.722 384.958 372.722 385.748 371.519L389.488 365.821L386.421 371.908C385.773 373.193 386.655 374.722 388.093 374.804L394.897 375.195L388.092 375.582C386.655 375.664 385.772 377.192 386.419 378.478L389.483 384.566L385.746 378.867C384.956 377.663 383.192 377.662 382.401 378.866L378.661 384.564L381.728 378.477C382.376 377.191 381.494 375.663 380.057 375.58L373.252 375.189Z" fill="#53C888"/>
<path d="M373.291 225.836L380.096 225.449C381.533 225.368 382.416 223.84 381.769 222.553L378.705 216.465L382.442 222.165C383.232 223.369 384.997 223.369 385.787 222.166L389.527 216.468L386.46 222.555C385.812 223.84 386.694 225.369 388.132 225.451L394.936 225.842L388.131 226.229C386.694 226.311 385.811 227.839 386.458 229.125L389.523 235.213L385.785 229.514C384.995 228.31 383.231 228.309 382.44 229.513L378.7 235.211L381.767 229.124C382.415 227.838 381.533 226.31 380.096 226.227L373.291 225.836Z" fill="#53C888"/>
<path d="M373.281 263.173L380.086 262.786C381.523 262.704 382.406 261.176 381.759 259.89L378.695 253.802L382.433 259.502C383.222 260.706 384.987 260.706 385.777 259.503L389.518 253.805L386.45 259.892C385.803 261.177 386.684 262.706 388.122 262.788L394.927 263.179L388.122 263.566C386.684 263.648 385.801 265.176 386.449 266.462L389.513 272.55L385.775 266.851C384.986 265.647 383.221 265.646 382.431 266.85L378.69 272.548L381.757 266.461C382.405 265.175 381.523 263.647 380.086 263.564L373.281 263.173Z" fill="#53C888"/>
<path d="M373.27 300.512L380.075 300.125C381.513 300.043 382.395 298.515 381.748 297.229L378.684 291.141L382.422 296.841C383.211 298.045 384.976 298.045 385.766 296.841L389.507 291.144L386.44 297.23C385.792 298.516 386.674 300.045 388.111 300.127L394.916 300.518L388.111 300.905C386.673 300.987 385.791 302.515 386.438 303.801L389.502 309.889L385.764 304.19C384.975 302.986 383.21 302.985 382.42 304.189L378.679 309.886L381.747 303.8C382.394 302.514 381.512 300.985 380.075 300.903L373.27 300.512Z" fill="#53C888"/>
<path d="M416.014 337.861L422.818 337.474C424.256 337.392 425.139 335.864 424.491 334.578L421.427 328.49L425.165 334.189C425.955 335.393 427.719 335.394 428.509 334.19L432.25 328.492L429.183 334.579C428.535 335.865 429.417 337.393 430.854 337.476L437.659 337.866L430.854 338.254C429.417 338.335 428.534 339.863 429.181 341.149L432.245 347.238L428.507 341.538C427.718 340.334 425.953 340.334 425.163 341.537L421.422 347.235L424.49 341.148C425.138 339.863 424.256 338.334 422.818 338.252L416.014 337.861Z" fill="#53C888"/>
<path d="M416.002 375.201L422.807 374.814C424.244 374.732 425.127 373.204 424.48 371.918L421.416 365.83L425.153 371.529C425.943 372.733 427.708 372.734 428.498 371.53L432.238 365.832L429.171 371.919C428.523 373.205 429.405 374.733 430.843 374.816L437.647 375.207L430.842 375.594C429.405 375.675 428.522 377.203 429.169 378.49L432.233 384.578L428.496 378.878C427.706 377.674 425.942 377.674 425.151 378.877L421.411 384.575L424.478 378.488C425.126 377.203 424.244 375.674 422.807 375.592L416.002 375.201Z" fill="#53C888"/>
<path d="M416.041 225.846L422.846 225.459C424.283 225.377 425.166 223.849 424.519 222.563L421.455 216.475L425.192 222.175C425.982 223.379 427.747 223.379 428.537 222.175L432.277 216.478L429.21 222.564C428.562 223.85 429.444 225.379 430.882 225.461L437.686 225.852L430.881 226.239C429.444 226.321 428.561 227.849 429.208 229.135L432.273 235.223L428.535 229.524C427.745 228.32 425.981 228.319 425.19 229.523L421.45 235.22L424.517 229.134C425.165 227.848 424.283 226.319 422.846 226.237L416.041 225.846Z" fill="#53C888"/>
<path d="M416.031 263.185L422.836 262.798C424.273 262.716 425.156 261.188 424.509 259.902L421.445 253.813L425.183 259.513C425.972 260.717 427.737 260.718 428.527 259.514L432.268 253.816L429.2 259.903C428.553 261.189 429.434 262.717 430.872 262.8L437.677 263.19L430.872 263.578C429.434 263.659 428.551 265.187 429.199 266.473L432.263 272.562L428.525 266.862C427.736 265.658 425.971 265.658 425.181 266.861L421.44 272.559L424.507 266.472C425.155 265.186 424.273 263.658 422.836 263.575L416.031 263.185Z" fill="#53C888"/>
<path d="M416.02 300.524L422.825 300.137C424.263 300.056 425.145 298.528 424.498 297.241L421.434 291.153L425.172 296.853C425.961 298.057 427.726 298.057 428.516 296.854L432.257 291.156L429.19 297.243C428.542 298.528 429.424 300.057 430.861 300.139L437.666 300.53L430.861 300.917C429.423 300.999 428.541 302.527 429.188 303.813L432.252 309.901L428.514 304.202C427.725 302.998 425.96 302.997 425.17 304.201L421.429 309.899L424.497 303.812C425.144 302.526 424.262 300.998 422.825 300.915L416.02 300.524Z" fill="#53C888"/>
<path d="M407.5 153.02C407.5 215.674 356.043 266.52 292.5 266.52C228.957 266.52 177.5 215.674 177.5 153.02C177.5 90.3654 228.957 39.5195 292.5 39.5195C356.043 39.5195 407.5 90.3654 407.5 153.02Z" stroke="#BEBEBE" stroke-width="5"/>
<path d="M188.5 20.1097C188.5 29.6675 180.156 37.6999 169.5 37.6999C158.844 37.6999 150.5 29.6675 150.5 20.1097C150.5 10.5519 158.844 2.51953 169.5 2.51953C180.156 2.51953 188.5 10.5519 188.5 20.1097Z" stroke="#BEBEBE" stroke-width="5"/>
<path d="M37.7933 301.933C58.6659 301.933 75.5865 294.315 75.5865 284.917C75.5865 275.518 58.6659 267.9 37.7933 267.9C16.9206 267.9 0 275.518 0 284.917C0 294.315 16.9206 301.933 37.7933 301.933Z" fill="#6F6C6B"/>
<path d="M24.332 251.032L290.315 187.809L380.286 200.511C382.203 204.517 380.102 209.294 375.855 210.594L173.983 272.393" fill="#6F6C6B"/>
<path d="M179.56 260.424L55.7211 247.382C50.1125 246.79 49.4592 238.883 54.8891 237.379L243.03 185.244C243.646 185.071 244.293 185.022 244.928 185.084L368.767 198.125C374.375 198.717 375.029 206.624 369.599 208.128L181.458 260.263C180.842 260.436 180.195 260.485 179.56 260.424Z" fill="#060B1C"/>
<path d="M51.1997 233.558V242.23L59.2366 243.222V238.39L51.1997 233.558Z" fill="#060B1C"/>
<path d="M373.343 193.818C373.331 194.218 373.343 203.888 373.343 203.888H365.467L369.405 194.644L373.343 193.818Z" fill="#060B1C"/>
<path d="M54.8898 227.956C49.4537 229.459 50.1071 237.367 55.7218 237.959L179.561 251C180.196 251.068 180.843 251.012 181.459 250.84L221.798 239.66L71.3704 223.382L54.8898 227.949V227.956Z" fill="#0D183D"/>
<path d="M213.509 183.999L71.3711 223.389L221.798 239.666L363.092 200.517L213.509 183.999Z" fill="#7AB4EF"/>
<path d="M369.601 198.711C375.037 197.207 374.384 189.3 368.769 188.708L244.93 175.667C244.295 175.599 243.648 175.654 243.032 175.827L213.51 184.006L363.093 200.517L369.595 198.717L369.601 198.711Z" fill="#0D183D"/>
<path d="M118.981 240.061C123.89 240.061 127.869 238.438 127.869 236.437C127.869 234.435 123.89 232.813 118.981 232.813C114.073 232.813 110.094 234.435 110.094 236.437C110.094 238.438 114.073 240.061 118.981 240.061Z" fill="#060B1C"/>
<path d="M33.0304 92.0238C33.0304 92.0238 31.428 91.0253 28.6915 90.8651C25.955 90.7049 13.2401 92.8743 9.9366 96.8188C6.63924 100.763 2.36808 110.421 3.49596 110.982C4.62384 111.543 5.6716 110.982 5.6716 110.982C5.6716 110.982 -3.58565 125.897 1.56686 133.608C6.71936 141.324 13.7209 137.342 19.9951 134.138C26.2755 130.939 32.0566 123.691 33.0304 121.842C34.0042 119.993 33.0304 92.0176 33.0304 92.0176V92.0238Z" fill="#7AB2F6"/>
<path d="M26.9899 52.012C26.9899 52.012 30.1209 47.0937 34.7372 48.2093C39.3597 49.3248 42.7864 53.7254 43.828 60.8009C44.8696 67.8825 45.0977 73.3925 41.8188 74.9579C38.5399 76.5234 38.2441 76.0735 38.2441 76.0735C38.2441 76.0735 41.5969 89.6327 42.4906 89.5588C43.3843 89.4848 47.6308 88.4432 47.6308 88.4432C47.6308 88.4432 44.9498 97.0841 40.5492 97.1643C36.1486 97.2444 29.7449 92.7698 29.7449 92.7698C29.7449 92.7698 32.8019 92.548 33.0238 92.0241C33.2457 91.5002 30.3428 74.2923 30.3428 74.2923L28.4075 72.129C28.4075 72.129 26.916 73.2322 24.161 72.6036C21.406 71.9749 20.2103 64.7515 24.6849 64.8995L26.9961 52.0059L26.9899 52.012Z" fill="#F2C9AD"/>
<path d="M38.2746 76.2092C38.2746 76.2092 33.9727 76.2092 32.1606 75.2477C32.1606 75.2477 32.6044 76.9735 35.2176 78.8533C37.8309 80.7331 39.6552 81.485 39.6552 81.485L38.2746 76.2092Z" fill="#060B1C"/>
<path d="M35.9087 59.5068L40.0319 66.9582L37.9734 66.2803" stroke="#060B1C" stroke-miterlimit="10"/>
<path d="M33.1665 62.6011C33.1665 63.1559 32.7165 63.606 32.1616 63.606C31.6068 63.606 31.1567 63.1559 31.1567 62.6011C31.1567 62.0462 31.6068 61.5962 32.1616 61.5962C32.7165 61.5962 33.1665 62.0462 33.1665 62.6011Z" fill="#060B1C"/>
<path d="M39.9776 59.7165C39.9776 60.2714 39.5275 60.7215 38.9727 60.7215C38.4178 60.7215 37.9678 60.2714 37.9678 59.7165C37.9678 59.1617 38.4178 58.7116 38.9727 58.7116C39.5275 58.7116 39.9776 59.1617 39.9776 59.7165Z" fill="#060B1C"/>
<path d="M35.2164 66.9581C35.2164 68.2092 34.1994 69.2262 32.9483 69.2262C31.6971 69.2262 30.6802 68.2092 30.6802 66.9581C30.6802 65.7069 31.6971 64.69 32.9483 64.69C34.1994 64.69 35.2164 65.7069 35.2164 66.9581Z" fill="#E16A43"/>
<path d="M43.667 63.2295C43.667 64.3944 42.724 65.3436 41.553 65.3436C40.3819 65.3436 39.439 64.4006 39.439 63.2295C39.439 62.0585 40.3819 61.1155 41.553 61.1155C42.724 61.1155 43.667 62.0585 43.667 63.2295Z" fill="#E16A43"/>
<path d="M36.2959 68.8442C36.2959 68.8442 37.4176 70.0461 38.6195 69.9289C39.8213 69.8118 40.339 69.5591 40.339 69.5591C40.339 69.5591 39.4392 70.459 38.5208 70.5145C37.6025 70.5638 36.3637 69.4112 36.2959 68.8442Z" fill="#060B1C"/>
<path d="M24.6786 64.8991C24.6786 64.8991 27.3719 64.7204 29.8249 62.6002C32.2779 60.4801 33.3195 53.2135 32.6847 50.8961C32.0499 48.5787 31.6431 48.3076 31.6431 48.3076C31.6431 48.3076 38.9774 48.5171 41.264 53.8915C43.5567 59.2659 44.4319 65.5648 44.4689 66.6557C44.5059 67.7466 44.4689 70.5077 44.4689 70.5077C44.4689 70.5077 49.5721 72.6464 52.4812 67.5124C55.3902 62.3783 52.5736 58.064 48.6661 55.6111C44.7586 53.1581 44.4689 49.1643 41.5475 45.6635C38.6261 42.1689 32.5861 41.4848 28.0499 43.9809C23.5137 46.4771 23.6925 52.3815 23.6925 52.3815C23.6925 52.3815 23.5137 49.9717 22.8727 49.8854C22.2379 49.7929 23.2795 52.2028 23.2795 52.2028C23.2795 52.2028 14.7249 57.5895 15.2426 64.6773C15.7665 71.765 16.2349 73.0717 13.8312 76.6833C11.4214 80.295 9.17176 87.6725 16.0808 89.8728C22.9898 92.0731 31.8095 83.2657 31.8095 83.2657L30.6693 74.0701L28.395 72.1163C28.395 72.1163 23.9267 74.8528 22.5153 70.7234C21.1039 66.5879 23.4213 65.1272 24.6724 64.893L24.6786 64.8991Z" fill="#060B1C"/>
<path d="M47.629 88.4495C47.629 88.4495 55.3269 84.9488 59.1173 87.1737C62.9078 89.3987 73.5024 102.212 73.5024 102.212C73.5024 102.212 64.6273 112.024 60.5657 113.719L56.4979 115.42L53.6752 130.594C53.6752 130.594 45.1144 134.384 38.4457 133.472C31.777 132.554 23.925 126.15 23.925 126.15L25.1022 120.394C25.1022 120.394 22.7478 120.653 15.8141 119.611C8.88039 118.563 8.09766 115.032 8.09766 115.032C8.09766 115.032 15.4196 94.7607 20.7817 93.3185C26.1438 91.8763 29.7308 92.77 29.7308 92.77C29.7308 92.77 35.7955 97.374 40.3193 96.3262C44.8432 95.2784 47.6105 88.4495 47.6105 88.4495H47.629Z" fill="#592F0F"/>
<path d="M51.5503 131.426V138.311C51.5503 138.311 45.3439 141.38 38.4595 140.357C31.5689 139.334 23.1006 134.489 23.1006 134.489L26.059 127.722C26.059 127.722 30.7307 132.443 40.2284 132.536C49.726 132.628 51.9386 131.284 51.9386 131.284" fill="#F2C9AD"/>
<path d="M51.5508 138.31C51.5508 138.31 57.9113 162.834 55.218 176.405C52.5246 189.971 42.0778 238.92 40.0563 248.084C38.0409 257.249 35.8406 277.237 37.856 281.452C39.8714 285.668 42.6202 286.217 43.3536 288.417C44.0871 290.617 44.0871 291.536 44.0871 291.536C44.0871 291.536 39.9207 287.868 37.0547 284.75C34.1888 281.631 34.0039 280.349 34.0039 280.349C34.0039 280.349 31.2551 293.181 28.5063 294.1C25.7574 295.018 26.8545 294.1 26.8545 294.1C26.8545 294.1 31.2551 281.816 30.7066 280.534C30.158 279.252 13.474 238.735 13.6589 229.755C13.8438 220.769 18.4231 217.471 14.5772 200.424C10.7252 183.376 6.50949 166.322 10.7252 153.675C14.9409 141.028 23.0949 134.501 23.0949 134.501C23.0949 134.501 33.0918 141.219 41.708 140.572C50.3243 139.925 51.5508 138.316 51.5508 138.316V138.31Z" fill="#060B1C"/>
<path d="M48.1967 88.2091C48.1967 88.2091 55.9686 95.6913 57.5834 104.468C59.192 113.238 56.3384 116.345 56.3384 116.345L56.209 117.041C56.209 117.041 56.0179 106.964 53.1397 101.411C50.2614 95.8577 44.3755 89.2137 44.3755 89.2137L48.2029 88.2153L48.1967 88.2091Z" fill="#7AB2F6"/>
<path d="M23.0941 92.8196C23.0941 92.8196 27.5563 99.6362 27.1557 107.525C26.755 115.414 23.9323 120.419 23.9323 120.419H25.4607C25.4607 120.419 31.2542 114.927 30.9337 106.157C30.6133 97.3866 27.7042 92.5238 27.7042 92.5238C27.7042 92.5238 24.2589 92.1971 23.0879 92.8196H23.0941Z" fill="#7AB2F6"/>
<path d="M52.6548 119.821L49.0308 127.05C48.4268 128.252 49.2773 129.676 50.6209 129.713L55.909 129.879C56.6732 129.904 57.3758 129.448 57.6655 128.745L63.3481 115.007C63.8473 113.793 62.9598 112.462 61.647 112.462H56.9074C56.1617 112.462 55.4899 112.912 55.2064 113.602L52.6548 119.821Z" fill="#060B1C"/>
<path d="M10.8723 118.027C10.8723 118.027 5.31917 140.843 8.11114 145.219C10.9031 149.602 33.6764 133.639 39.0262 129.355C44.3759 125.072 48.5608 122.446 48.5608 122.446C48.5608 122.446 51.1863 123.71 52.5484 123.611C53.9105 123.512 56.8319 122.834 56.6347 122.249C56.4375 121.663 52.4498 120.69 52.647 119.814C52.8443 118.939 53.8119 117.029 53.8119 117.029C53.8119 117.029 52.4745 116.603 51.9259 117.478C51.3774 118.354 22.0833 131.198 21.695 130.421C21.3067 129.645 23.0879 120.388 23.0879 120.388L10.8661 118.021L10.8723 118.027Z" fill="#F2C9AD"/>
<path d="M21.7009 130.428L10.6748 134.49L22.0892 126.145L21.7009 130.428Z" fill="#060B1C"/>
<path d="M69.8546 106.428C69.8546 106.428 81.8977 137.318 80.0487 141.676C78.1936 146.033 70.7853 140.474 66.5203 134.496C62.2553 128.517 59.9133 123.315 59.9133 123.315C59.9133 123.315 57.7314 121.109 57.7314 119.747C57.7314 118.385 57.8855 117.349 58.0704 117.171C58.2615 116.992 59.1921 118.329 59.5496 118.989C59.9071 119.648 61.1397 120.228 61.1397 120.228L62.0766 118.089C62.0766 118.089 62.4032 119.063 62.2491 119.648C62.0951 120.234 61.8978 120.684 61.8978 120.684L68.1597 127.204L63.1182 112.147L69.8546 106.434V106.428Z" fill="#F2C9AD"/>
<path d="M60.2772 123.303C60.2772 123.303 58.1015 125.731 57.7317 124.825C57.3619 123.919 57.3928 119.019 57.7317 118.095C58.0707 117.171 58.8719 117.035 58.8719 117.035L60.2772 123.309V123.303Z" fill="#F2C9AD"/>
<path d="M69.885 106.015L71.2224 110.021L63.1177 112.141L69.885 106.015Z" fill="#060B1C"/>
<path d="M35.168 170.92C36.3267 178.858 35.6672 230.821 35.168 239.665C34.6688 248.51 34.0093 273.662 34.0093 273.662" stroke="#1B307D" stroke-miterlimit="10"/>
<path d="M30.9526 172.412L44.3701 167.407" stroke="#1B307D" stroke-miterlimit="10"/>
<path d="M116.178 221.922C124.306 221.922 130.896 215.332 130.896 207.204C130.896 199.075 124.306 192.486 116.178 192.486C108.049 192.486 101.46 199.075 101.46 207.204C101.46 215.332 108.049 221.922 116.178 221.922Z" fill="#060B1C"/>
<path d="M118.421 211.991C121.071 210.756 122.219 207.606 120.983 204.956C119.748 202.306 116.598 201.159 113.948 202.394C111.298 203.629 110.151 206.779 111.386 209.429C112.621 212.079 115.771 213.226 118.421 211.991Z" fill="#C8C1A5"/>
<path d="M321.718 187.808H281.293C281.293 187.808 289.343 172.184 297.09 169.54C304.837 166.89 319.42 167.703 321.718 172.239C324.017 176.776 321.718 187.814 321.718 187.814V187.808Z" fill="#2E5534"/>
<path d="M253.866 201.7H214.057C214.057 201.7 212.707 184.326 223.752 181.417C234.796 178.508 253.471 175.894 253.872 177.349C254.272 178.804 253.872 201.7 253.872 201.7H253.866Z" fill="#2E5534"/>
<path d="M202.699 195.475C219.34 182.532 240.295 179.451 252.621 160.961C259.53 151.032 263.703 140.492 265.17 129.349H172.221C171.63 129.59 170.779 129.935 169.497 130.409C167.266 131.235 165.337 132.72 163.969 134.662L141.195 167.025C139.932 168.819 138.194 170.224 136.172 171.081L95.1309 188.443V203.265C95.1309 206.951 98.0029 209.996 101.682 210.211L186.113 215.093C187.241 215.191 188.369 215.124 189.478 214.896L193.127 214.15C193.429 207.025 197.355 200.067 202.705 195.481L202.699 195.475Z" fill="#53C888"/>
<path d="M219.103 169.768H149.033C146.481 169.768 144.965 166.877 146.389 164.72L166.272 134.613C166.863 133.719 167.855 133.177 168.916 133.177H237.229C239.781 133.177 241.297 136.067 239.873 138.224L221.747 168.332C221.156 169.226 220.163 169.768 219.103 169.768Z" fill="#0D183D"/>
<path d="M141.719 160.985H134.748C133.036 160.985 131.648 162.373 131.648 164.085V164.856C131.648 166.568 133.036 167.956 134.748 167.956H141.719C143.431 167.956 144.819 166.568 144.819 164.856V164.085C144.819 162.373 143.431 160.985 141.719 160.985Z" fill="#2E5534"/>
<path d="M112.437 198.883H102.304C100.24 198.883 98.5693 197.213 98.5693 195.148C98.5693 193.083 100.24 191.413 102.304 191.413H112.437C114.501 191.413 116.172 193.09 116.172 195.148C116.172 197.213 114.501 198.883 112.437 198.883Z" fill="#FDFCD7"/>
<path d="M171.746 198.883H161.614C159.549 198.883 157.879 197.213 157.879 195.148C157.879 193.083 159.549 191.413 161.614 191.413H171.746C173.811 191.413 175.481 193.09 175.481 195.148C175.481 197.213 173.811 198.883 171.746 198.883Z" fill="#FDFCD7"/>
<path d="M153.053 192.356H122.489V193.41H153.053V192.356Z" fill="#00103B"/>
<path d="M153.053 194.624H122.489V195.678H153.053V194.624Z" fill="#00103B"/>
<path d="M153.053 196.886H122.489V197.94H153.053V196.886Z" fill="#00103B"/>
<path d="M153.053 199.155H122.489V200.209H153.053V199.155Z" fill="#00103B"/>
<path d="M153.053 201.422H122.489V202.476H153.053V201.422Z" fill="#00103B"/>
<path d="M172.714 205.022H161.429C160.726 205.022 160.153 204.449 160.153 203.746C160.153 203.043 160.726 202.47 161.429 202.47H172.714C173.416 202.47 173.989 203.043 173.989 203.746C173.989 204.449 173.416 205.022 172.714 205.022Z" fill="#2E5534"/>
<path d="M114.903 205.022H103.618C102.915 205.022 102.342 204.449 102.342 203.746C102.342 203.043 102.915 202.47 103.618 202.47H114.903C115.606 202.47 116.179 203.043 116.179 203.746C116.179 204.449 115.606 205.022 114.903 205.022Z" fill="#2E5534"/>
<path d="M149.651 206H126.349C124.5 206 123 207.254 123 208.8V212.2C123 213.746 124.5 215 126.349 215H149.651C151.5 215 153 213.746 153 212.2V208.8C153 207.254 151.5 206 149.651 206Z" fill="#FAEE60"/>
<path d="M126.091 213L128.128 210.221V210.76L126.203 208.1H127.001L128.527 210.193L128.212 210.2L129.731 208.1H130.494L128.583 210.718V210.214L130.62 213H129.815L128.191 210.767H128.499L126.896 213H126.091ZM132.416 213V211.124L132.577 211.558L130.47 208.1H131.219L132.99 211.019H132.584L134.362 208.1H135.055L132.955 211.558L133.109 211.124V213H132.416ZM136.948 213V211.124L137.109 211.558L135.002 208.1H135.751L137.522 211.019H137.116L138.894 208.1H139.587L137.487 211.558L137.641 211.124V213H136.948ZM139.442 213L141.479 210.221V210.76L139.554 208.1H140.352L141.878 210.193L141.563 210.2L143.082 208.1H143.845L141.934 210.718V210.214L143.971 213H143.166L141.542 210.767H141.85L140.247 213H139.442ZM145.767 213V211.124L145.928 211.558L143.821 208.1H144.57L146.341 211.019H145.935L147.713 208.1H148.406L146.306 211.558L146.46 211.124V213H145.767Z" fill="black"/>
<path d="M339.272 173.411C338.65 167.438 333.615 162.902 327.605 162.902H320.481C316.055 162.902 312.006 160.412 310.009 156.462L299.384 135.445C298.971 134.625 298.465 133.861 297.874 133.164L297.43 132.641C296.185 131.168 294.607 130.058 292.863 129.356H249.862L249.27 129.528L225.776 169.774C225.776 169.774 189.394 185.306 185.985 190.23C182.811 194.816 183.249 212.424 183.323 214.846L186.109 215.087C187.237 215.185 188.364 215.118 189.474 214.89L217.905 209.071C217.665 207.882 217.535 206.649 217.535 205.392C217.535 195.26 225.751 187.044 235.883 187.044C244.758 187.044 252.161 193.343 253.862 201.713L285.794 195.173C285.652 194.255 285.578 193.318 285.578 192.363C285.578 182.23 293.794 174.015 303.926 174.015C312.493 174.015 319.686 179.882 321.707 187.82L329.947 186.132C335.858 184.924 339.889 179.42 339.26 173.417L339.272 173.411Z" fill="#31965E"/>
<path d="M236.46 161.072L251.955 135.063C252.651 133.892 253.896 133.146 255.264 133.091L290.389 131.636C291.874 131.574 293.279 132.332 294.037 133.614L304.823 151.833C306.284 154.305 304.78 157.466 301.945 157.892L240.54 167.137C237.163 167.642 234.716 163.999 236.466 161.066L236.46 161.072Z" fill="#0D183D"/>
<path d="M274.841 131.636L272 165.854H274.176L277.282 131.636H274.841Z" fill="#2E5534"/>
<path d="M241.6 162.372H234.629C232.917 162.372 231.529 163.76 231.529 165.472V166.243C231.529 167.955 232.917 169.343 234.629 169.343H241.6C243.312 169.343 244.7 167.955 244.7 166.243V165.472C244.7 163.76 243.312 162.372 241.6 162.372Z" fill="#2E5534"/>
<path d="M268.3 168.221L257.31 169.528C256.565 169.614 255.961 169.09 255.955 168.357C255.955 167.623 256.559 166.951 257.304 166.865L268.293 165.558C269.039 165.472 269.643 165.996 269.643 166.73C269.643 167.463 269.039 168.135 268.293 168.221H268.3Z" fill="#2E5534"/>
<path d="M302.58 163.044L291.591 164.351C290.845 164.437 290.241 163.913 290.241 163.18C290.241 162.446 290.845 161.774 291.591 161.688L302.58 160.382C303.326 160.295 303.93 160.819 303.936 161.553C303.936 162.286 303.332 162.958 302.586 163.044H302.58Z" fill="#2E5534"/>
<path d="M303.936 208.129C312.065 208.129 318.654 201.539 318.654 193.411C318.654 185.282 312.065 178.693 303.936 178.693C295.808 178.693 289.218 185.282 289.218 193.411C289.218 201.539 295.808 208.129 303.936 208.129Z" fill="#060B1C"/>
<path d="M307.678 197.152C309.746 195.084 309.746 191.732 307.678 189.664C305.611 187.597 302.258 187.597 300.191 189.664C298.123 191.732 298.123 195.084 300.191 197.152C302.258 199.219 305.611 199.219 307.678 197.152Z" fill="#C8C1A5"/>
<path d="M235.881 221.922C244.01 221.922 250.599 215.332 250.599 207.204C250.599 199.075 244.01 192.486 235.881 192.486C227.753 192.486 221.164 199.075 221.164 207.204C221.164 215.332 227.753 221.922 235.881 221.922Z" fill="#060B1C"/>
<path d="M239.628 210.948C241.696 208.88 241.696 205.528 239.628 203.46C237.561 201.393 234.209 201.393 232.141 203.46C230.074 205.528 230.074 208.88 232.141 210.948C234.209 213.015 237.561 213.015 239.628 210.948Z" fill="#C8C1A5"/>
<path d="M183.322 214.84L183.698 199.684C183.698 199.684 183.679 191.222 187.673 188.646C191.667 186.07 225.774 169.768 225.774 169.768L249.269 129.521" stroke="#0D183D" stroke-miterlimit="10"/>
<path d="M277.238 132.178L272.936 179.444C272.936 179.444 271.05 180.973 269.657 185.053C268.264 189.133 267.796 198.846 267.796 198.846" stroke="#0D183D" stroke-miterlimit="10"/>
<path d="M210.913 101.657C209.304 101.657 207.985 102.976 207.985 104.585C207.985 106.194 209.304 107.512 210.913 107.512H262.826V101.651H210.913V101.657Z" fill="#2B523D"/>
<path d="M286.284 101.658H262.827V107.519H286.284C287.893 107.519 289.212 106.2 289.212 104.591C289.212 102.983 287.893 101.664 286.284 101.664V101.658Z" fill="white"/>
<path d="M321.736 127.987C336.811 127.987 349.033 115.765 349.033 100.69C349.033 85.6138 336.811 73.3925 321.736 73.3925C306.66 73.3925 294.438 85.6138 294.438 100.69C294.438 115.765 306.66 127.987 321.736 127.987Z" fill="#55B6F2"/>
<path d="M319.331 125.331V142.237L327.528 125.331H319.331Z" fill="#55B6F2"/>
<path d="M329.032 84.9304L311.757 84.2895C311.757 84.2895 307.036 105.43 307.677 111.118C308.318 116.807 312.231 119.057 318.327 116.912C324.422 114.767 329.032 105.109 329.032 105.109C329.032 105.109 332.36 104.893 333.649 102.748C334.937 100.604 334.462 96.4188 330.943 96.4188V87.2971L329.032 84.9366V84.9304Z" fill="#F2C9AD"/>
<path d="M316.151 91.9382L313.144 102.89L316.848 100.998" stroke="#060B1C" stroke-miterlimit="10"/>
<path d="M313.569 95.5377C313.569 96.0987 313.113 96.5611 312.546 96.5611C311.979 96.5611 311.522 96.1049 311.522 95.5377C311.522 94.9705 311.979 94.5143 312.546 94.5143C313.113 94.5143 313.569 94.9705 313.569 95.5377Z" fill="#060B1C"/>
<path d="M322.396 95.5377C322.396 96.0987 321.94 96.5611 321.373 96.5611C320.805 96.5611 320.349 96.1049 320.349 95.5377C320.349 94.9705 320.805 94.5143 321.373 94.5143C321.94 94.5143 322.396 94.9705 322.396 95.5377Z" fill="#060B1C"/>
<path d="M311.758 84.2891C311.758 84.2891 312.318 87.6665 317.89 87.9747C323.462 88.2829 326.827 88.9547 327.012 89.9963C327.197 91.0379 325.496 89.6265 325.15 90.9762C324.805 92.3198 325.693 93.6696 327.024 93.608C328.355 93.5463 326.395 94.1565 326.457 95.8082C326.519 97.46 327.357 98.0085 327.486 98.0085C327.616 98.0085 329.366 96.5478 330.679 96.554C331.992 96.554 332.423 96.7204 332.423 96.7204C332.423 96.7204 335.449 93.8483 334.593 89.8668C333.736 85.8915 330.673 84.1165 326.211 81.4848C321.742 78.853 314.414 74.9332 311.53 77.6266C308.645 80.3199 307.727 84.4308 311.092 87.3645L311.751 84.2829L311.758 84.2891Z" fill="#060B1C"/>
<path d="M322.981 100.999C322.981 102.114 322.075 103.02 320.959 103.02C319.843 103.02 318.938 102.114 318.938 100.999C318.938 99.8831 319.843 98.9771 320.959 98.9771C322.075 98.9771 322.981 99.8831 322.981 100.999Z" fill="#E16A43"/>
<path d="M312.984 99.7155C312.984 100.831 312.078 101.737 310.962 101.737C309.847 101.737 308.941 100.831 308.941 99.7155C308.941 98.5999 309.847 97.6939 310.962 97.6939C312.078 97.6939 312.984 98.5999 312.984 99.7155Z" fill="#E16A43"/>
<path d="M328.48 94.5143C328.48 94.5143 323.087 105.01 321.848 105.688C320.609 106.366 316.554 104.678 312.991 104.591C309.429 104.505 307.623 105.849 307.623 105.849C307.623 105.849 305.62 114.243 309.429 116.53C313.238 118.816 318.175 118.644 321.848 115.685C325.521 112.727 327.974 106.878 328.48 103.574C328.985 100.271 329.497 95.5374 329.497 95.5374L328.48 94.5143Z" fill="#060B1C"/>
<path d="M317.674 106.829L310.962 106.305C310.962 106.305 311.387 109.251 314.321 109.325C317.248 109.399 317.68 106.829 317.68 106.829H317.674Z" fill="white"/>
<path d="M329.496 105.054L328.072 125.128C328.072 125.128 319.08 124.437 316.855 124.363C314.624 124.289 315.006 124.363 315.006 124.363V118.095C315.006 118.095 319.69 118.539 322.988 114.638C326.291 110.736 328.165 105.06 328.165 105.06H329.496V105.054Z" fill="#F2C9AD"/>
<path d="M315 119.451H328.472L328.269 125.127L321.736 124.659L315 124.357V119.451Z" fill="white"/>
<path d="M315 118.089C315 118.089 318.747 118.489 322.395 114.822C326.044 111.155 328.472 104.831 328.472 104.831C328.472 104.831 328.06 113.405 325.631 116.24C323.209 119.075 315 119.445 315 119.445V118.082V118.089Z" fill="#E16A43"/>
<path d="M369.789 36H283.211C277.019 36 272 39.5803 272 43.9968V44.0032C272 48.4197 277.019 52 283.211 52H369.789C375.981 52 381 48.4197 381 44.0032V43.9968C381 39.5803 375.981 36 369.789 36Z" fill="#E16A43"/>
<path d="M306.26 51.6241V58.7427L313.57 51.6241L309.915 48.3822L306.26 51.6241Z" fill="#E16A43"/>
<path d="M275.13 48L278.04 44.03V44.8L275.29 41H276.43L278.61 43.99L278.16 44L280.33 41H281.42L278.69 44.74V44.02L281.6 48H280.45L278.13 44.81H278.57L276.28 48H275.13ZM284.166 48V45.32L284.396 45.94L281.386 41H282.456L284.986 45.17H284.406L286.946 41H287.936L284.936 45.94L285.156 45.32V48H284.166ZM287.728 48L290.638 44.03V44.8L287.888 41H289.028L291.208 43.99L290.758 44L292.928 41H294.018L291.288 44.74V44.02L294.198 48H293.048L290.728 44.81H291.168L288.878 48H287.728ZM296.763 48V45.32L296.993 45.94L293.983 41H295.053L297.583 45.17H297.003L299.543 41H300.533L297.533 45.94L297.753 45.32V48H296.763ZM303.238 48V45.32L303.468 45.94L300.458 41H301.528L304.058 45.17H303.478L306.018 41H307.008L304.008 45.94L304.228 45.32V48H303.238ZM309.713 48V45.32L309.943 45.94L306.933 41H308.003L310.533 45.17H309.953L312.493 41H313.483L310.483 45.94L310.703 45.32V48H309.713ZM317.043 48V42.7H318.003V48H317.043ZM317.523 41.68C317.336 41.68 317.179 41.62 317.053 41.5C316.933 41.38 316.873 41.2333 316.873 41.06C316.873 40.88 316.933 40.73 317.053 40.61C317.179 40.49 317.336 40.43 317.523 40.43C317.709 40.43 317.863 40.49 317.983 40.61C318.109 40.7233 318.173 40.8667 318.173 41.04C318.173 41.22 318.113 41.3733 317.993 41.5C317.873 41.62 317.716 41.68 317.523 41.68ZM321.356 48.06C320.916 48.06 320.496 48 320.096 47.88C319.702 47.76 319.392 47.6133 319.166 47.44L319.566 46.68C319.792 46.8333 320.072 46.9633 320.406 47.07C320.739 47.1767 321.079 47.23 321.426 47.23C321.872 47.23 322.192 47.1667 322.386 47.04C322.586 46.9133 322.686 46.7367 322.686 46.51C322.686 46.3433 322.626 46.2133 322.506 46.12C322.386 46.0267 322.226 45.9567 322.026 45.91C321.832 45.8633 321.616 45.8233 321.376 45.79C321.136 45.75 320.896 45.7033 320.656 45.65C320.416 45.59 320.196 45.51 319.996 45.41C319.796 45.3033 319.636 45.16 319.516 44.98C319.396 44.7933 319.336 44.5467 319.336 44.24C319.336 43.92 319.426 43.64 319.606 43.4C319.786 43.16 320.039 42.9767 320.366 42.85C320.699 42.7167 321.092 42.65 321.546 42.65C321.892 42.65 322.242 42.6933 322.596 42.78C322.956 42.86 323.249 42.9767 323.476 43.13L323.066 43.89C322.826 43.73 322.576 43.62 322.316 43.56C322.056 43.5 321.796 43.47 321.536 43.47C321.116 43.47 320.802 43.54 320.596 43.68C320.389 43.8133 320.286 43.9867 320.286 44.2C320.286 44.38 320.346 44.52 320.466 44.62C320.592 44.7133 320.752 44.7867 320.946 44.84C321.146 44.8933 321.366 44.94 321.606 44.98C321.846 45.0133 322.086 45.06 322.326 45.12C322.566 45.1733 322.782 45.25 322.976 45.35C323.176 45.45 323.336 45.59 323.456 45.77C323.582 45.95 323.646 46.19 323.646 46.49C323.646 46.81 323.552 47.0867 323.366 47.32C323.179 47.5533 322.916 47.7367 322.576 47.87C322.236 47.9967 321.829 48.06 321.356 48.06ZM329.351 48.06C328.818 48.06 328.404 47.9167 328.111 47.63C327.818 47.3433 327.671 46.9333 327.671 46.4V41.54H328.631V46.36C328.631 46.6467 328.701 46.8667 328.841 47.02C328.988 47.1733 329.194 47.25 329.461 47.25C329.761 47.25 330.011 47.1667 330.211 47L330.511 47.69C330.364 47.8167 330.188 47.91 329.981 47.97C329.781 48.03 329.571 48.06 329.351 48.06ZM326.771 43.49V42.7H330.151V43.49H326.771ZM334.502 42.65C334.935 42.65 335.315 42.7333 335.642 42.9C335.975 43.0667 336.235 43.32 336.422 43.66C336.608 44 336.702 44.43 336.702 44.95V48H335.742V45.06C335.742 44.5467 335.615 44.16 335.362 43.9C335.115 43.64 334.765 43.51 334.312 43.51C333.972 43.51 333.675 43.5767 333.422 43.71C333.168 43.8433 332.972 44.04 332.832 44.3C332.698 44.56 332.632 44.8833 332.632 45.27V48H331.672V40.58H332.632V44.13L332.442 43.75C332.615 43.4033 332.882 43.1333 333.242 42.94C333.602 42.7467 334.022 42.65 334.502 42.65ZM340.838 48.06C340.272 48.06 339.772 47.9433 339.338 47.71C338.912 47.4767 338.578 47.1567 338.338 46.75C338.105 46.3433 337.988 45.8767 337.988 45.35C337.988 44.8233 338.102 44.3567 338.328 43.95C338.562 43.5433 338.878 43.2267 339.278 43C339.685 42.7667 340.142 42.65 340.648 42.65C341.162 42.65 341.615 42.7633 342.008 42.99C342.402 43.2167 342.708 43.5367 342.928 43.95C343.155 44.3567 343.268 44.8333 343.268 45.38C343.268 45.42 343.265 45.4667 343.258 45.52C343.258 45.5733 343.255 45.6233 343.248 45.67H338.738V44.98H342.748L342.358 45.22C342.365 44.88 342.295 44.5767 342.148 44.31C342.002 44.0433 341.798 43.8367 341.538 43.69C341.285 43.5367 340.988 43.46 340.648 43.46C340.315 43.46 340.018 43.5367 339.758 43.69C339.498 43.8367 339.295 44.0467 339.148 44.32C339.002 44.5867 338.928 44.8933 338.928 45.24V45.4C338.928 45.7533 339.008 46.07 339.168 46.35C339.335 46.6233 339.565 46.8367 339.858 46.99C340.152 47.1433 340.488 47.22 340.868 47.22C341.182 47.22 341.465 47.1667 341.718 47.06C341.978 46.9533 342.205 46.7933 342.398 46.58L342.928 47.2C342.688 47.48 342.388 47.6933 342.028 47.84C341.675 47.9867 341.278 48.06 340.838 48.06ZM349.557 48.06C349.024 48.06 348.55 47.9433 348.137 47.71C347.724 47.4767 347.397 47.1567 347.157 46.75C346.917 46.3367 346.797 45.87 346.797 45.35C346.797 44.8233 346.917 44.3567 347.157 43.95C347.397 43.5433 347.724 43.2267 348.137 43C348.55 42.7667 349.024 42.65 349.557 42.65C350.084 42.65 350.554 42.7667 350.967 43C351.387 43.2267 351.714 43.5433 351.947 43.95C352.187 44.35 352.307 44.8167 352.307 45.35C352.307 45.8767 352.187 46.3433 351.947 46.75C351.714 47.1567 351.387 47.4767 350.967 47.71C350.554 47.9433 350.084 48.06 349.557 48.06ZM349.557 47.22C349.897 47.22 350.2 47.1433 350.467 46.99C350.74 46.8367 350.954 46.62 351.107 46.34C351.26 46.0533 351.337 45.7233 351.337 45.35C351.337 44.97 351.26 44.6433 351.107 44.37C350.954 44.09 350.74 43.8733 350.467 43.72C350.2 43.5667 349.897 43.49 349.557 43.49C349.217 43.49 348.914 43.5667 348.647 43.72C348.38 43.8733 348.167 44.09 348.007 44.37C347.847 44.6433 347.767 44.97 347.767 45.35C347.767 45.7233 347.847 46.0533 348.007 46.34C348.167 46.62 348.38 46.8367 348.647 46.99C348.914 47.1433 349.217 47.22 349.557 47.22ZM354.608 48L352.638 42.7H353.548L355.298 47.5H354.868L356.688 42.7H357.498L359.278 47.5H358.858L360.648 42.7H361.508L359.528 48H358.608L356.938 43.62H357.218L355.528 48H354.608ZM365.312 42.65C365.746 42.65 366.126 42.7333 366.452 42.9C366.786 43.0667 367.046 43.32 367.232 43.66C367.419 44 367.512 44.43 367.512 44.95V48H366.552V45.06C366.552 44.5467 366.426 44.16 366.172 43.9C365.926 43.64 365.576 43.51 365.122 43.51C364.782 43.51 364.486 43.5767 364.232 43.71C363.979 43.8433 363.782 44.04 363.642 44.3C363.509 44.56 363.442 44.8833 363.442 45.27V48H362.482V42.7H363.402V44.13L363.252 43.75C363.426 43.4033 363.692 43.1333 364.052 42.94C364.412 42.7467 364.832 42.65 365.312 42.65ZM371.649 48.06C371.082 48.06 370.582 47.9433 370.149 47.71C369.722 47.4767 369.389 47.1567 369.149 46.75C368.916 46.3433 368.799 45.8767 368.799 45.35C368.799 44.8233 368.912 44.3567 369.139 43.95C369.372 43.5433 369.689 43.2267 370.089 43C370.496 42.7667 370.952 42.65 371.459 42.65C371.972 42.65 372.426 42.7633 372.819 42.99C373.212 43.2167 373.519 43.5367 373.739 43.95C373.966 44.3567 374.079 44.8333 374.079 45.38C374.079 45.42 374.076 45.4667 374.069 45.52C374.069 45.5733 374.066 45.6233 374.059 45.67H369.549V44.98H373.559L373.169 45.22C373.176 44.88 373.106 44.5767 372.959 44.31C372.812 44.0433 372.609 43.8367 372.349 43.69C372.096 43.5367 371.799 43.46 371.459 43.46C371.126 43.46 370.829 43.5367 370.569 43.69C370.309 43.8367 370.106 44.0467 369.959 44.32C369.812 44.5867 369.739 44.8933 369.739 45.24V45.4C369.739 45.7533 369.819 46.07 369.979 46.35C370.146 46.6233 370.376 46.8367 370.669 46.99C370.962 47.1433 371.299 47.22 371.679 47.22C371.992 47.22 372.276 47.1667 372.529 47.06C372.789 46.9533 373.016 46.7933 373.209 46.58L373.739 47.2C373.499 47.48 373.199 47.6933 372.839 47.84C372.486 47.9867 372.089 48.06 371.649 48.06ZM375.412 48V42.7H376.332V44.14L376.242 43.78C376.389 43.4133 376.635 43.1333 376.982 42.94C377.329 42.7467 377.755 42.65 378.262 42.65V43.58C378.222 43.5733 378.182 43.57 378.142 43.57C378.109 43.57 378.075 43.57 378.042 43.57C377.529 43.57 377.122 43.7233 376.822 44.03C376.522 44.3367 376.372 44.78 376.372 45.36V48H375.412Z" fill="white"/>
</svg>
