<svg width="384" height="466" viewBox="0 0 384 466" fill="none" xmlns="http://www.w3.org/2000/svg">
<path d="M243.5 194.05C243.5 260.642 189.978 314.589 124 314.589C58.0219 314.589 4.5 260.642 4.5 194.05C4.5 127.457 58.0219 73.5098 124 73.5098C189.978 73.5098 243.5 127.457 243.5 194.05Z" stroke="#BEBEBE" stroke-width="5"/>
<path d="M-2.75948 155.51L-2.45288 160.875C-2.37073 162.312 -0.84247 163.194 0.443418 162.547L5.24305 160.13L0.750016 163.078C-0.453728 163.868 -0.453728 165.632 0.750016 166.422L5.24305 169.37L0.443418 166.953C-0.84247 166.306 -2.37073 167.188 -2.45288 168.625L-2.75948 173.991L-3.06608 168.625C-3.14822 167.188 -4.67648 166.306 -5.96237 166.953L-10.762 169.37L-6.26897 166.422C-5.06523 165.632 -5.06523 163.868 -6.26897 163.078L-10.762 160.13L-5.96237 162.547C-4.67648 163.194 -3.14822 162.312 -3.06608 160.875L-2.75948 155.51Z" fill="#53C888"/>
<path d="M92.8797 155.51L93.1863 160.875C93.2684 162.312 94.7967 163.194 96.0826 162.547L100.882 160.13L96.3892 163.078C95.1854 163.868 95.1854 165.632 96.3892 166.422L100.882 169.37L96.0826 166.953C94.7967 166.306 93.2684 167.188 93.1863 168.625L92.8797 173.991L92.5731 168.625C92.4909 167.188 90.9627 166.306 89.6768 166.953L84.8772 169.37L89.3702 166.422C90.5739 165.632 90.5739 163.868 89.3702 163.078L84.8772 160.13L89.6768 162.547C90.9627 163.194 92.4909 162.312 92.5731 160.875L92.8797 155.51Z" fill="#53C888"/>
<path d="M124.76 119.01L125.066 124.375C125.148 125.812 126.677 126.695 127.962 126.047L132.762 123.63L128.269 126.578C127.065 127.368 127.065 129.133 128.269 129.922L132.762 132.871L127.962 130.454C126.677 129.806 125.148 130.688 125.066 132.126L124.76 137.491L124.453 132.126C124.371 130.688 122.843 129.806 121.557 130.454L116.757 132.871L121.25 129.922C122.454 129.133 122.454 127.368 121.25 126.578L116.757 123.63L121.557 126.047C122.843 126.695 124.371 125.812 124.453 124.375L124.76 119.01Z" fill="#53C888"/>
<path d="M92.8797 119.01L93.1863 124.375C93.2684 125.812 94.7967 126.695 96.0826 126.047L100.882 123.63L96.3892 126.578C95.1854 127.368 95.1854 129.133 96.3892 129.922L100.882 132.871L96.0826 130.454C94.7967 129.806 93.2684 130.688 93.1863 132.126L92.8797 137.491L92.5731 132.126C92.4909 130.688 90.9627 129.806 89.6768 130.454L84.8772 132.871L89.3702 129.922C90.5739 129.133 90.5739 127.368 89.3702 126.578L84.8772 123.63L89.6768 126.047C90.9627 126.695 92.4909 125.812 92.5731 124.375L92.8797 119.01Z" fill="#53C888"/>
<path d="M29.1204 192.01L29.427 197.375C29.5091 198.813 31.0374 199.695 32.3233 199.048L37.1229 196.631L32.6299 199.579C31.4262 200.368 31.4262 202.133 32.6299 202.923L37.1229 205.871L32.3233 203.454C31.0374 202.806 29.5091 203.689 29.427 205.126L29.1204 210.491L28.8138 205.126C28.7317 203.689 27.2034 202.806 25.9175 203.454L21.1179 205.871L25.6109 202.923C26.8147 202.133 26.8147 200.368 25.6109 199.579L21.1179 196.631L25.9175 199.048C27.2034 199.695 28.7317 198.813 28.8138 197.375L29.1204 192.01Z" fill="#53C888"/>
<path d="M29.1204 119.01L29.427 124.375C29.5091 125.812 31.0374 126.695 32.3233 126.047L37.1229 123.63L32.6299 126.578C31.4262 127.368 31.4262 129.133 32.6299 129.922L37.1229 132.871L32.3233 130.454C31.0374 129.806 29.5091 130.688 29.427 132.126L29.1204 137.491L28.8138 132.126C28.7317 130.688 27.2034 129.806 25.9175 130.454L21.1179 132.871L25.6109 129.922C26.8147 129.133 26.8147 127.368 25.6109 126.578L21.1179 123.63L25.9175 126.047C27.2034 126.695 28.7317 125.812 28.8138 124.375L29.1204 119.01Z" fill="#53C888"/>
<path d="M-2.75948 119.01L-2.45288 124.375C-2.37073 125.812 -0.84247 126.695 0.443418 126.047L5.24305 123.63L0.750016 126.578C-0.453728 127.368 -0.453728 129.133 0.750016 129.922L5.24305 132.871L0.443418 130.454C-0.84247 129.806 -2.37073 130.688 -2.45288 132.126L-2.75948 137.491L-3.06608 132.126C-3.14822 130.688 -4.67648 129.806 -5.96237 130.454L-10.762 132.871L-6.26897 129.922C-5.06523 129.133 -5.06523 127.368 -6.26897 126.578L-10.762 123.63L-5.96237 126.047C-4.67648 126.695 -3.14822 125.812 -3.06608 124.375L-2.75948 119.01Z" fill="#53C888"/>
<path d="M-2.75948 192.01L-2.45288 197.375C-2.37073 198.813 -0.84247 199.695 0.443418 199.048L5.24305 196.631L0.750016 199.579C-0.453728 200.368 -0.453728 202.133 0.750016 202.923L5.24305 205.871L0.443418 203.454C-0.84247 202.806 -2.37073 203.689 -2.45288 205.126L-2.75948 210.491L-3.06608 205.126C-3.14822 203.689 -4.67648 202.806 -5.96237 203.454L-10.762 205.871L-6.26897 202.923C-5.06523 202.133 -5.06523 200.368 -6.26897 199.579L-10.762 196.631L-5.96237 199.048C-4.67648 199.695 -3.14822 198.813 -3.06608 197.375L-2.75948 192.01Z" fill="#53C888"/>
<path d="M124.76 192.01L125.066 197.375C125.148 198.813 126.677 199.695 127.962 199.048L132.762 196.631L128.269 199.579C127.065 200.368 127.065 202.133 128.269 202.923L132.762 205.871L127.962 203.454C126.677 202.806 125.148 203.689 125.066 205.126L124.76 210.491L124.453 205.126C124.371 203.689 122.843 202.806 121.557 203.454L116.757 205.871L121.25 202.923C122.454 202.133 122.454 200.368 121.25 199.579L116.757 196.631L121.557 199.048C122.843 199.695 124.371 198.813 124.453 197.375L124.76 192.01Z" fill="#53C888"/>
<path d="M92.8797 192.01L93.1863 197.375C93.2684 198.813 94.7967 199.695 96.0826 199.048L100.882 196.631L96.3892 199.579C95.1854 200.368 95.1854 202.133 96.3892 202.923L100.882 205.871L96.0826 203.454C94.7967 202.806 93.2684 203.689 93.1863 205.126L92.8797 210.491L92.5731 205.126C92.4909 203.689 90.9627 202.806 89.6768 203.454L84.8772 205.871L89.3702 202.923C90.5739 202.133 90.5739 200.368 89.3702 199.579L84.8772 196.631L89.6768 199.048C90.9627 199.695 92.4909 198.813 92.5731 197.375L92.8797 192.01Z" fill="#53C888"/>
<path d="M61.0003 155.51L61.3069 160.875C61.389 162.312 62.9173 163.194 64.2032 162.547L69.0028 160.13L64.5098 163.078C63.306 163.868 63.306 165.632 64.5098 166.422L69.0028 169.37L64.2032 166.953C62.9173 166.306 61.389 167.188 61.3069 168.625L61.0003 173.991L60.6937 168.625C60.6115 167.188 59.0833 166.306 57.7974 166.953L52.9978 169.37L57.4908 166.422C58.6945 165.632 58.6945 163.868 57.4908 163.078L52.9978 160.13L57.7974 162.547C59.0833 163.194 60.6115 162.312 60.6937 160.875L61.0003 155.51Z" fill="#53C888"/>
<path d="M124.76 155.51L125.066 160.875C125.148 162.312 126.677 163.194 127.962 162.547L132.762 160.13L128.269 163.078C127.065 163.868 127.065 165.632 128.269 166.422L132.762 169.37L127.962 166.953C126.677 166.306 125.148 167.188 125.066 168.625L124.76 173.991L124.453 168.625C124.371 167.188 122.843 166.306 121.557 166.953L116.757 169.37L121.25 166.422C122.454 165.632 122.454 163.868 121.25 163.078L116.757 160.13L121.557 162.547C122.843 163.194 124.371 162.312 124.453 160.875L124.76 155.51Z" fill="#53C888"/>
<path d="M29.1204 155.51L29.427 160.875C29.5091 162.312 31.0374 163.194 32.3233 162.547L37.1229 160.13L32.6299 163.078C31.4262 163.868 31.4262 165.632 32.6299 166.422L37.1229 169.37L32.3233 166.953C31.0374 166.306 29.5091 167.188 29.427 168.625L29.1204 173.991L28.8138 168.625C28.7317 167.188 27.2034 166.306 25.9175 166.953L21.1179 169.37L25.6109 166.422C26.8147 165.632 26.8147 163.868 25.6109 163.078L21.1179 160.13L25.9175 162.547C27.2034 163.194 28.7317 162.312 28.8138 160.875L29.1204 155.51Z" fill="#53C888"/>
<path d="M61.0003 119.01L61.3069 124.375C61.389 125.812 62.9173 126.695 64.2032 126.047L69.0028 123.63L64.5098 126.578C63.306 127.368 63.306 129.133 64.5098 129.922L69.0028 132.871L64.2032 130.454C62.9173 129.806 61.389 130.688 61.3069 132.126L61.0003 137.491L60.6937 132.126C60.6115 130.688 59.0833 129.806 57.7974 130.454L52.9978 132.871L57.4908 129.922C58.6945 129.133 58.6945 127.368 57.4908 126.578L52.9978 123.63L57.7974 126.047C59.0833 126.695 60.6115 125.812 60.6937 124.375L61.0003 119.01Z" fill="#53C888"/>
<path d="M61.0003 192.01L61.3069 197.375C61.389 198.813 62.9173 199.695 64.2032 199.048L69.0028 196.631L64.5098 199.579C63.306 200.368 63.306 202.133 64.5098 202.923L69.0028 205.871L64.2032 203.454C62.9173 202.806 61.389 203.689 61.3069 205.126L61.0003 210.491L60.6937 205.126C60.6115 203.689 59.0833 202.806 57.7974 203.454L52.9978 205.871L57.4908 202.923C58.6945 202.133 58.6945 200.368 57.4908 199.579L52.9978 196.631L57.7974 199.048C59.0833 199.695 60.6115 198.813 60.6937 197.375L61.0003 192.01Z" fill="#53C888"/>
<path d="M29.1204 228.509L29.427 233.874C29.5091 235.312 31.0374 236.194 32.3233 235.547L37.1229 233.13L32.6299 236.078C31.4262 236.867 31.4262 238.632 32.6299 239.422L37.1229 242.37L32.3233 239.953C31.0374 239.305 29.5091 240.188 29.427 241.625L29.1204 246.99L28.8138 241.625C28.7317 240.188 27.2034 239.305 25.9175 239.953L21.1179 242.37L25.6109 239.422C26.8147 238.632 26.8147 236.867 25.6109 236.078L21.1179 233.13L25.9175 235.547C27.2034 236.194 28.7317 235.312 28.8138 233.874L29.1204 228.509Z" fill="#53C888"/>
<path d="M-2.75948 228.509L-2.45288 233.874C-2.37073 235.312 -0.84247 236.194 0.443418 235.547L5.24305 233.13L0.750016 236.078C-0.453728 236.867 -0.453728 238.632 0.750016 239.422L5.24305 242.37L0.443418 239.953C-0.84247 239.305 -2.37073 240.188 -2.45288 241.625L-2.75948 246.99L-3.06608 241.625C-3.14822 240.188 -4.67648 239.305 -5.96237 239.953L-10.762 242.37L-6.26897 239.422C-5.06523 238.632 -5.06523 236.867 -6.26897 236.078L-10.762 233.13L-5.96237 235.547C-4.67648 236.194 -3.14822 235.312 -3.06608 233.874L-2.75948 228.509Z" fill="#53C888"/>
<path d="M124.76 228.509L125.066 233.874C125.148 235.312 126.677 236.194 127.962 235.547L132.762 233.13L128.269 236.078C127.065 236.867 127.065 238.632 128.269 239.422L132.762 242.37L127.962 239.953C126.677 239.305 125.148 240.188 125.066 241.625L124.76 246.99L124.453 241.625C124.371 240.188 122.843 239.305 121.557 239.953L116.757 242.37L121.25 239.422C122.454 238.632 122.454 236.867 121.25 236.078L116.757 233.13L121.557 235.547C122.843 236.194 124.371 235.312 124.453 233.874L124.76 228.509Z" fill="#53C888"/>
<path d="M92.8797 228.509L93.1863 233.874C93.2684 235.312 94.7967 236.194 96.0826 235.547L100.882 233.13L96.3892 236.078C95.1854 236.867 95.1854 238.632 96.3892 239.422L100.882 242.37L96.0826 239.953C94.7967 239.305 93.2684 240.188 93.1863 241.625L92.8797 246.99L92.5731 241.625C92.4909 240.188 90.9627 239.305 89.6768 239.953L84.8772 242.37L89.3702 239.422C90.5739 238.632 90.5739 236.867 89.3702 236.078L84.8772 233.13L89.6768 235.547C90.9627 236.194 92.4909 235.312 92.5731 233.874L92.8797 228.509Z" fill="#53C888"/>
<path d="M61.0003 228.509L61.3069 233.874C61.389 235.312 62.9173 236.194 64.2032 235.547L69.0028 233.13L64.5098 236.078C63.306 236.867 63.306 238.632 64.5098 239.422L69.0028 242.37L64.2032 239.953C62.9173 239.305 61.389 240.188 61.3069 241.625L61.0003 246.99L60.6937 241.625C60.6115 240.188 59.0833 239.305 57.7974 239.953L52.9978 242.37L57.4908 239.422C58.6945 238.632 58.6945 236.867 57.4908 236.078L52.9978 233.13L57.7974 235.547C59.0833 236.194 60.6115 235.312 60.6937 233.874L61.0003 228.509Z" fill="#53C888"/>
<path d="M29.1204 265.01L29.427 270.375C29.5091 271.812 31.0374 272.694 32.3233 272.047L37.1229 269.63L32.6299 272.578C31.4262 273.368 31.4262 275.132 32.6299 275.922L37.1229 278.87L32.3233 276.453C31.0374 275.806 29.5091 276.688 29.427 278.125L29.1204 283.491L28.8138 278.125C28.7317 276.688 27.2034 275.806 25.9175 276.453L21.1179 278.87L25.6109 275.922C26.8147 275.132 26.8147 273.368 25.6109 272.578L21.1179 269.63L25.9175 272.047C27.2034 272.694 28.7317 271.812 28.8138 270.375L29.1204 265.01Z" fill="#53C888"/>
<path d="M-2.75948 265.01L-2.45288 270.375C-2.37073 271.812 -0.84247 272.694 0.443418 272.047L5.24305 269.63L0.750016 272.578C-0.453728 273.368 -0.453728 275.132 0.750016 275.922L5.24305 278.87L0.443418 276.453C-0.84247 275.806 -2.37073 276.688 -2.45288 278.125L-2.75948 283.491L-3.06608 278.125C-3.14822 276.688 -4.67648 275.806 -5.96237 276.453L-10.762 278.87L-6.26897 275.922C-5.06523 275.132 -5.06523 273.368 -6.26897 272.578L-10.762 269.63L-5.96237 272.047C-4.67648 272.694 -3.14822 271.812 -3.06608 270.375L-2.75948 265.01Z" fill="#53C888"/>
<path d="M124.76 265.01L125.066 270.375C125.148 271.812 126.677 272.694 127.962 272.047L132.762 269.63L128.269 272.578C127.065 273.368 127.065 275.132 128.269 275.922L132.762 278.87L127.962 276.453C126.677 275.806 125.148 276.688 125.066 278.125L124.76 283.491L124.453 278.125C124.371 276.688 122.843 275.806 121.557 276.453L116.757 278.87L121.25 275.922C122.454 275.132 122.454 273.368 121.25 272.578L116.757 269.63L121.557 272.047C122.843 272.694 124.371 271.812 124.453 270.375L124.76 265.01Z" fill="#53C888"/>
<path d="M92.8797 265.01L93.1863 270.375C93.2684 271.812 94.7967 272.694 96.0826 272.047L100.882 269.63L96.3892 272.578C95.1854 273.368 95.1854 275.132 96.3892 275.922L100.882 278.87L96.0826 276.453C94.7967 275.806 93.2684 276.688 93.1863 278.125L92.8797 283.491L92.5731 278.125C92.4909 276.688 90.9627 275.806 89.6768 276.453L84.8772 278.87L89.3702 275.922C90.5739 275.132 90.5739 273.368 89.3702 272.578L84.8772 269.63L89.6768 272.047C90.9627 272.694 92.4909 271.812 92.5731 270.375L92.8797 265.01Z" fill="#53C888"/>
<path d="M61.0003 265.01L61.3069 270.375C61.389 271.812 62.9173 272.694 64.2032 272.047L69.0028 269.63L64.5098 272.578C63.306 273.368 63.306 275.132 64.5098 275.922L69.0028 278.87L64.2032 276.453C62.9173 275.806 61.389 276.688 61.3069 278.125L61.0003 283.491L60.6937 278.125C60.6115 276.688 59.0833 275.806 57.7974 276.453L52.9978 278.87L57.4908 275.922C58.6945 275.132 58.6945 273.368 57.4908 272.578L52.9978 269.63L57.7974 272.047C59.0833 272.694 60.6115 271.812 60.6937 270.375L61.0003 265.01Z" fill="#53C888"/>
<path d="M-2.75948 338.01L-2.45288 343.375C-2.37073 344.813 -0.84247 345.695 0.443418 345.048L5.24305 342.631L0.750016 345.579C-0.453728 346.368 -0.453728 348.133 0.750016 348.923L5.24305 351.871L0.443418 349.454C-0.84247 348.806 -2.37073 349.689 -2.45288 351.126L-2.75948 356.491L-3.06608 351.126C-3.14822 349.689 -4.67648 348.806 -5.96237 349.454L-10.762 351.871L-6.26897 348.923C-5.06523 348.133 -5.06523 346.368 -6.26897 345.579L-10.762 342.631L-5.96237 345.048C-4.67648 345.695 -3.14822 344.813 -3.06608 343.375L-2.75948 338.01Z" fill="#53C888"/>
<path d="M92.8797 338.01L93.1863 343.375C93.2684 344.813 94.7967 345.695 96.0826 345.048L100.882 342.631L96.3892 345.579C95.1854 346.368 95.1854 348.133 96.3892 348.923L100.882 351.871L96.0826 349.454C94.7967 348.806 93.2684 349.689 93.1863 351.126L92.8797 356.491L92.5731 351.126C92.4909 349.689 90.9627 348.806 89.6768 349.454L84.8772 351.871L89.3702 348.923C90.5739 348.133 90.5739 346.368 89.3702 345.579L84.8772 342.631L89.6768 345.048C90.9627 345.695 92.4909 344.813 92.5731 343.375L92.8797 338.01Z" fill="#53C888"/>
<path d="M124.76 301.51L125.066 306.875C125.148 308.313 126.677 309.195 127.962 308.547L132.762 306.13L128.269 309.078C127.065 309.868 127.065 311.633 128.269 312.423L132.762 315.371L127.962 312.954C126.677 312.306 125.148 313.189 125.066 314.626L124.76 319.991L124.453 314.626C124.371 313.189 122.843 312.306 121.557 312.954L116.757 315.371L121.25 312.423C122.454 311.633 122.454 309.868 121.25 309.078L116.757 306.13L121.557 308.547C122.843 309.195 124.371 308.313 124.453 306.875L124.76 301.51Z" fill="#53C888"/>
<path d="M92.8797 301.51L93.1863 306.875C93.2684 308.313 94.7967 309.195 96.0826 308.547L100.882 306.13L96.3892 309.078C95.1854 309.868 95.1854 311.633 96.3892 312.423L100.882 315.371L96.0826 312.954C94.7967 312.306 93.2684 313.189 93.1863 314.626L92.8797 319.991L92.5731 314.626C92.4909 313.189 90.9627 312.306 89.6768 312.954L84.8772 315.371L89.3702 312.423C90.5739 311.633 90.5739 309.868 89.3702 309.078L84.8772 306.13L89.6768 308.547C90.9627 309.195 92.4909 308.313 92.5731 306.875L92.8797 301.51Z" fill="#53C888"/>
<path d="M29.1204 374.51L29.427 379.875C29.5091 381.312 31.0374 382.195 32.3233 381.547L37.1229 379.13L32.6299 382.078C31.4262 382.868 31.4262 384.633 32.6299 385.422L37.1229 388.371L32.3233 385.954C31.0374 385.306 29.5091 386.188 29.427 387.626L29.1204 392.991L28.8138 387.626C28.7317 386.188 27.2034 385.306 25.9175 385.954L21.1179 388.371L25.6109 385.422C26.8147 384.633 26.8147 382.868 25.6109 382.078L21.1179 379.13L25.9175 381.547C27.2034 382.195 28.7317 381.312 28.8138 379.875L29.1204 374.51Z" fill="#53C888"/>
<path d="M29.1204 301.51L29.427 306.875C29.5091 308.313 31.0374 309.195 32.3233 308.547L37.1229 306.13L32.6299 309.078C31.4262 309.868 31.4262 311.633 32.6299 312.423L37.1229 315.371L32.3233 312.954C31.0374 312.306 29.5091 313.189 29.427 314.626L29.1204 319.991L28.8138 314.626C28.7317 313.189 27.2034 312.306 25.9175 312.954L21.1179 315.371L25.6109 312.423C26.8147 311.633 26.8147 309.868 25.6109 309.078L21.1179 306.13L25.9175 308.547C27.2034 309.195 28.7317 308.313 28.8138 306.875L29.1204 301.51Z" fill="#53C888"/>
<path d="M-2.75948 301.51L-2.45288 306.875C-2.37073 308.313 -0.84247 309.195 0.443418 308.547L5.24305 306.13L0.750016 309.078C-0.453728 309.868 -0.453728 311.633 0.750016 312.423L5.24305 315.371L0.443418 312.954C-0.84247 312.306 -2.37073 313.189 -2.45288 314.626L-2.75948 319.991L-3.06608 314.626C-3.14822 313.189 -4.67648 312.306 -5.96237 312.954L-10.762 315.371L-6.26897 312.423C-5.06523 311.633 -5.06523 309.868 -6.26897 309.078L-10.762 306.13L-5.96237 308.547C-4.67648 309.195 -3.14822 308.313 -3.06608 306.875L-2.75948 301.51Z" fill="#53C888"/>
<path d="M-2.75948 374.51L-2.45288 379.875C-2.37073 381.312 -0.84247 382.195 0.443418 381.547L5.24305 379.13L0.750016 382.078C-0.453728 382.868 -0.453728 384.633 0.750016 385.422L5.24305 388.371L0.443418 385.954C-0.84247 385.306 -2.37073 386.188 -2.45288 387.626L-2.75948 392.991L-3.06608 387.626C-3.14822 386.188 -4.67648 385.306 -5.96237 385.954L-10.762 388.371L-6.26897 385.422C-5.06523 384.633 -5.06523 382.868 -6.26897 382.078L-10.762 379.13L-5.96237 381.547C-4.67648 382.195 -3.14822 381.312 -3.06608 379.875L-2.75948 374.51Z" fill="#53C888"/>
<path d="M124.76 374.51L125.066 379.875C125.148 381.312 126.677 382.195 127.962 381.547L132.762 379.13L128.269 382.078C127.065 382.868 127.065 384.633 128.269 385.422L132.762 388.371L127.962 385.954C126.677 385.306 125.148 386.188 125.066 387.626L124.76 392.991L124.453 387.626C124.371 386.188 122.843 385.306 121.557 385.954L116.757 388.371L121.25 385.422C122.454 384.633 122.454 382.868 121.25 382.078L116.757 379.13L121.557 381.547C122.843 382.195 124.371 381.312 124.453 379.875L124.76 374.51Z" fill="#53C888"/>
<path d="M92.8797 374.51L93.1863 379.875C93.2684 381.312 94.7967 382.195 96.0826 381.547L100.882 379.13L96.3892 382.078C95.1854 382.868 95.1854 384.633 96.3892 385.422L100.882 388.371L96.0826 385.954C94.7967 385.306 93.2684 386.188 93.1863 387.626L92.8797 392.991L92.5731 387.626C92.4909 386.188 90.9627 385.306 89.6768 385.954L84.8772 388.371L89.3702 385.422C90.5739 384.633 90.5739 382.868 89.3702 382.078L84.8772 379.13L89.6768 381.547C90.9627 382.195 92.4909 381.312 92.5731 379.875L92.8797 374.51Z" fill="#53C888"/>
<path d="M61.0003 338.01L61.3069 343.375C61.389 344.813 62.9173 345.695 64.2032 345.048L69.0028 342.631L64.5098 345.579C63.306 346.368 63.306 348.133 64.5098 348.923L69.0028 351.871L64.2032 349.454C62.9173 348.806 61.389 349.689 61.3069 351.126L61.0003 356.491L60.6937 351.126C60.6115 349.689 59.0833 348.806 57.7974 349.454L52.9978 351.871L57.4908 348.923C58.6945 348.133 58.6945 346.368 57.4908 345.579L52.9978 342.631L57.7974 345.048C59.0833 345.695 60.6115 344.813 60.6937 343.375L61.0003 338.01Z" fill="#53C888"/>
<path d="M124.76 338.01L125.066 343.375C125.148 344.813 126.677 345.695 127.962 345.048L132.762 342.631L128.269 345.579C127.065 346.368 127.065 348.133 128.269 348.923L132.762 351.871L127.962 349.454C126.677 348.806 125.148 349.689 125.066 351.126L124.76 356.491L124.453 351.126C124.371 349.689 122.843 348.806 121.557 349.454L116.757 351.871L121.25 348.923C122.454 348.133 122.454 346.368 121.25 345.579L116.757 342.631L121.557 345.048C122.843 345.695 124.371 344.813 124.453 343.375L124.76 338.01Z" fill="#53C888"/>
<path d="M29.1204 338.01L29.427 343.375C29.5091 344.813 31.0374 345.695 32.3233 345.048L37.1229 342.631L32.6299 345.579C31.4262 346.368 31.4262 348.133 32.6299 348.923L37.1229 351.871L32.3233 349.454C31.0374 348.806 29.5091 349.689 29.427 351.126L29.1204 356.491L28.8138 351.126C28.7317 349.689 27.2034 348.806 25.9175 349.454L21.1179 351.871L25.6109 348.923C26.8147 348.133 26.8147 346.368 25.6109 345.579L21.1179 342.631L25.9175 345.048C27.2034 345.695 28.7317 344.813 28.8138 343.375L29.1204 338.01Z" fill="#53C888"/>
<path d="M61.0003 301.51L61.3069 306.875C61.389 308.313 62.9173 309.195 64.2032 308.547L69.0028 306.13L64.5098 309.078C63.306 309.868 63.306 311.633 64.5098 312.423L69.0028 315.371L64.2032 312.954C62.9173 312.306 61.389 313.189 61.3069 314.626L61.0003 319.991L60.6937 314.626C60.6115 313.189 59.0833 312.306 57.7974 312.954L52.9978 315.371L57.4908 312.423C58.6945 311.633 58.6945 309.868 57.4908 309.078L52.9978 306.13L57.7974 308.547C59.0833 309.195 60.6115 308.313 60.6937 306.875L61.0003 301.51Z" fill="#53C888"/>
<path d="M61.0003 374.51L61.3069 379.875C61.389 381.312 62.9173 382.195 64.2032 381.547L69.0028 379.13L64.5098 382.078C63.306 382.868 63.306 384.633 64.5098 385.422L69.0028 388.371L64.2032 385.954C62.9173 385.306 61.389 386.188 61.3069 387.626L61.0003 392.991L60.6937 387.626C60.6115 386.188 59.0833 385.306 57.7974 385.954L52.9978 388.371L57.4908 385.422C58.6945 384.633 58.6945 382.868 57.4908 382.078L52.9978 379.13L57.7974 381.547C59.0833 382.195 60.6115 381.312 60.6937 379.875L61.0003 374.51Z" fill="#53C888"/>
<path d="M29.1204 411.01L29.427 416.375C29.5091 417.812 31.0374 418.694 32.3233 418.047L37.1229 415.63L32.6299 418.578C31.4262 419.368 31.4262 421.132 32.6299 421.922L37.1229 424.87L32.3233 422.453C31.0374 421.806 29.5091 422.688 29.427 424.125L29.1204 429.491L28.8138 424.125C28.7317 422.688 27.2034 421.806 25.9175 422.453L21.1179 424.87L25.6109 421.922C26.8147 421.132 26.8147 419.368 25.6109 418.578L21.1179 415.63L25.9175 418.047C27.2034 418.694 28.7317 417.812 28.8138 416.375L29.1204 411.01Z" fill="#53C888"/>
<path d="M-2.75948 411.01L-2.45288 416.375C-2.37073 417.812 -0.84247 418.694 0.443418 418.047L5.24305 415.63L0.750016 418.578C-0.453728 419.368 -0.453728 421.132 0.750016 421.922L5.24305 424.87L0.443418 422.453C-0.84247 421.806 -2.37073 422.688 -2.45288 424.125L-2.75948 429.491L-3.06608 424.125C-3.14822 422.688 -4.67648 421.806 -5.96237 422.453L-10.762 424.87L-6.26897 421.922C-5.06523 421.132 -5.06523 419.368 -6.26897 418.578L-10.762 415.63L-5.96237 418.047C-4.67648 418.694 -3.14822 417.812 -3.06608 416.375L-2.75948 411.01Z" fill="#53C888"/>
<path d="M124.76 411.01L125.066 416.375C125.148 417.812 126.677 418.694 127.962 418.047L132.762 415.63L128.269 418.578C127.065 419.368 127.065 421.132 128.269 421.922L132.762 424.87L127.962 422.453C126.677 421.806 125.148 422.688 125.066 424.125L124.76 429.491L124.453 424.125C124.371 422.688 122.843 421.806 121.557 422.453L116.757 424.87L121.25 421.922C122.454 421.132 122.454 419.368 121.25 418.578L116.757 415.63L121.557 418.047C122.843 418.694 124.371 417.812 124.453 416.375L124.76 411.01Z" fill="#53C888"/>
<path d="M92.8797 411.01L93.1863 416.375C93.2684 417.812 94.7967 418.694 96.0826 418.047L100.882 415.63L96.3892 418.578C95.1854 419.368 95.1854 421.132 96.3892 421.922L100.882 424.87L96.0826 422.453C94.7967 421.806 93.2684 422.688 93.1863 424.125L92.8797 429.491L92.5731 424.125C92.4909 422.688 90.9627 421.806 89.6768 422.453L84.8772 424.87L89.3702 421.922C90.5739 421.132 90.5739 419.368 89.3702 418.578L84.8772 415.63L89.6768 418.047C90.9627 418.694 92.4909 417.812 92.5731 416.375L92.8797 411.01Z" fill="#53C888"/>
<path d="M61.0003 411.01L61.3069 416.375C61.389 417.812 62.9173 418.694 64.2032 418.047L69.0028 415.63L64.5098 418.578C63.306 419.368 63.306 421.132 64.5098 421.922L69.0028 424.87L64.2032 422.453C62.9173 421.806 61.389 422.688 61.3069 424.125L61.0003 429.491L60.6937 424.125C60.6115 422.688 59.0833 421.806 57.7974 422.453L52.9978 424.87L57.4908 421.922C58.6945 421.132 58.6945 419.368 57.4908 418.578L52.9978 415.63L57.7974 418.047C59.0833 418.694 60.6115 417.812 60.6937 416.375L61.0003 411.01Z" fill="#53C888"/>
<path d="M29.1204 447.51L29.427 452.875C29.5091 454.312 31.0374 455.195 32.3233 454.547L37.1229 452.13L32.6299 455.078C31.4262 455.868 31.4262 457.633 32.6299 458.422L37.1229 461.371L32.3233 458.954C31.0374 458.306 29.5091 459.188 29.427 460.626L29.1204 465.991L28.8138 460.626C28.7317 459.188 27.2034 458.306 25.9175 458.954L21.1179 461.371L25.6109 458.422C26.8147 457.633 26.8147 455.868 25.6109 455.078L21.1179 452.13L25.9175 454.547C27.2034 455.195 28.7317 454.312 28.8138 452.875L29.1204 447.51Z" fill="#53C888"/>
<path d="M-2.75948 447.51L-2.45288 452.875C-2.37073 454.312 -0.84247 455.195 0.443418 454.547L5.24305 452.13L0.750016 455.078C-0.453728 455.868 -0.453728 457.633 0.750016 458.422L5.24305 461.371L0.443418 458.954C-0.84247 458.306 -2.37073 459.188 -2.45288 460.626L-2.75948 465.991L-3.06608 460.626C-3.14822 459.188 -4.67648 458.306 -5.96237 458.954L-10.762 461.371L-6.26897 458.422C-5.06523 457.633 -5.06523 455.868 -6.26897 455.078L-10.762 452.13L-5.96237 454.547C-4.67648 455.195 -3.14822 454.312 -3.06608 452.875L-2.75948 447.51Z" fill="#53C888"/>
<path d="M124.76 447.51L125.066 452.875C125.148 454.312 126.677 455.195 127.962 454.547L132.762 452.13L128.269 455.078C127.065 455.868 127.065 457.633 128.269 458.422L132.762 461.371L127.962 458.954C126.677 458.306 125.148 459.188 125.066 460.626L124.76 465.991L124.453 460.626C124.371 459.188 122.843 458.306 121.557 458.954L116.757 461.371L121.25 458.422C122.454 457.633 122.454 455.868 121.25 455.078L116.757 452.13L121.557 454.547C122.843 455.195 124.371 454.312 124.453 452.875L124.76 447.51Z" fill="#53C888"/>
<path d="M92.8797 447.51L93.1863 452.875C93.2684 454.312 94.7967 455.195 96.0826 454.547L100.882 452.13L96.3892 455.078C95.1854 455.868 95.1854 457.633 96.3892 458.422L100.882 461.371L96.0826 458.954C94.7967 458.306 93.2684 459.188 93.1863 460.626L92.8797 465.991L92.5731 460.626C92.4909 459.188 90.9627 458.306 89.6768 458.954L84.8772 461.371L89.3702 458.422C90.5739 457.633 90.5739 455.868 89.3702 455.078L84.8772 452.13L89.6768 454.547C90.9627 455.195 92.4909 454.312 92.5731 452.875L92.8797 447.51Z" fill="#53C888"/>
<path d="M61.0003 447.51L61.3069 452.875C61.389 454.312 62.9173 455.195 64.2032 454.547L69.0028 452.13L64.5098 455.078C63.306 455.868 63.306 457.633 64.5098 458.422L69.0028 461.371L64.2032 458.954C62.9173 458.306 61.389 459.188 61.3069 460.626L61.0003 465.991L60.6937 460.626C60.6115 459.188 59.0833 458.306 57.7974 458.954L52.9978 461.371L57.4908 458.422C58.6945 457.633 58.6945 455.868 57.4908 455.078L52.9978 452.13L57.7974 454.547C59.0833 455.195 60.6115 454.312 60.6937 452.875L61.0003 447.51Z" fill="#53C888"/>
<path d="M261.5 22.5098C261.5 33.3593 251.855 42.5098 239.5 42.5098C227.145 42.5098 217.5 33.3593 217.5 22.5098C217.5 11.6602 227.145 2.50977 239.5 2.50977C251.855 2.50977 261.5 11.6602 261.5 22.5098Z" stroke="#BEBEBE" stroke-width="5"/>
<path d="M316.434 260.652C310.177 267.101 304.579 270.892 300.293 273.754C258.49 301.666 210.705 293.621 195.931 290.872C172.095 286.435 151.974 283.306 134.686 267.687C95.404 232.197 97.3146 158.163 127.331 112.301C130.89 106.863 160.861 62.4371 208.75 56.177C209.921 56.0239 210.795 55.9367 211.56 55.8556C218.969 55.0712 264.876 50.9315 302.309 82.2929C307.667 86.7821 316.291 94.8795 324.287 107.229C353.526 152.386 353.618 222.324 316.434 260.652Z" fill="url(#paint0_linear_376_8999)"/>
<path d="M336.193 100.382C336.1 100.382 336.009 100.338 335.952 100.257C335.728 99.9371 335.5 99.6212 335.268 99.3089C335.171 99.1784 335.199 98.994 335.329 98.8971C335.46 98.8011 335.644 98.8278 335.741 98.9583C335.976 99.2752 336.207 99.5952 336.434 99.9192C336.527 100.052 336.495 100.236 336.361 100.329C336.31 100.365 336.251 100.382 336.193 100.382Z" fill="#7BA990"/>
<path d="M300.807 169.059C300.645 169.059 300.514 168.929 300.512 168.768C300.511 168.605 300.642 168.472 300.804 168.471C301.601 168.464 302.405 168.434 303.195 168.383C303.356 168.375 303.497 168.496 303.508 168.658C303.518 168.82 303.395 168.96 303.233 168.971C302.432 169.022 301.617 169.052 300.809 169.059L300.807 169.059ZM296.896 168.916C296.888 168.916 296.88 168.916 296.872 168.915C296.069 168.849 295.258 168.76 294.461 168.65C294.3 168.627 294.188 168.479 294.21 168.318C294.232 168.157 294.381 168.042 294.542 168.067C295.328 168.175 296.128 168.263 296.92 168.328C297.082 168.342 297.202 168.484 297.189 168.646C297.176 168.8 297.048 168.916 296.896 168.916ZM307.104 168.544C306.961 168.544 306.836 168.44 306.813 168.295C306.789 168.134 306.898 167.984 307.059 167.959C307.841 167.838 308.632 167.692 309.412 167.527C309.571 167.492 309.728 167.594 309.761 167.753C309.795 167.912 309.693 168.069 309.535 168.102C308.744 168.27 307.941 168.418 307.149 168.541C307.134 168.543 307.119 168.544 307.104 168.544ZM313.262 167.127C313.136 167.127 313.02 167.046 312.981 166.919C312.933 166.764 313.02 166.599 313.176 166.551C313.935 166.318 314.698 166.061 315.443 165.787C315.595 165.731 315.765 165.81 315.821 165.962C315.877 166.115 315.798 166.284 315.646 166.34C314.891 166.617 314.118 166.878 313.348 167.114C313.32 167.123 313.291 167.127 313.262 167.127ZM319.153 164.846C319.043 164.846 318.937 164.784 318.887 164.678C318.818 164.53 318.88 164.355 319.027 164.286C319.744 163.947 320.461 163.583 321.16 163.204C321.304 163.126 321.482 163.179 321.559 163.322C321.637 163.465 321.584 163.643 321.441 163.721C320.732 164.106 320.005 164.474 319.279 164.818C319.238 164.837 319.195 164.846 319.153 164.846ZM324.652 161.736C324.557 161.736 324.464 161.691 324.407 161.605C324.317 161.47 324.354 161.287 324.489 161.197C325.148 160.759 325.804 160.295 326.44 159.819C326.57 159.722 326.754 159.748 326.852 159.878C326.949 160.008 326.923 160.192 326.792 160.29C326.148 160.772 325.483 161.243 324.815 161.687C324.765 161.721 324.709 161.736 324.652 161.736ZM329.637 157.864C329.557 157.864 329.477 157.832 329.419 157.767C329.31 157.646 329.32 157.46 329.44 157.352C330.03 156.82 330.612 156.266 331.171 155.703C331.286 155.588 331.472 155.587 331.587 155.702C331.703 155.816 331.703 156.003 331.589 156.118C331.022 156.688 330.432 157.25 329.834 157.789C329.778 157.839 329.707 157.864 329.637 157.864ZM334.01 153.309C333.943 153.309 333.877 153.287 333.822 153.241C333.697 153.137 333.68 152.952 333.783 152.827C334.29 152.216 334.787 151.583 335.259 150.945C335.356 150.814 335.54 150.787 335.671 150.883C335.801 150.98 335.829 151.164 335.732 151.295C335.253 151.941 334.75 152.583 334.236 153.203C334.178 153.273 334.094 153.309 334.01 153.309ZM337.681 148.169C337.629 148.169 337.576 148.155 337.528 148.126C337.389 148.041 337.345 147.86 337.43 147.721C337.843 147.045 338.243 146.347 338.62 145.646C338.697 145.503 338.875 145.449 339.019 145.526C339.162 145.603 339.216 145.782 339.139 145.925C338.757 146.635 338.351 147.343 337.932 148.028C337.877 148.119 337.78 148.169 337.681 148.169ZM340.577 142.554C340.538 142.554 340.499 142.546 340.461 142.53C340.312 142.466 340.243 142.293 340.307 142.144C340.619 141.413 340.915 140.665 341.187 139.919C341.242 139.766 341.411 139.687 341.564 139.743C341.717 139.798 341.795 139.967 341.74 140.12C341.464 140.876 341.164 141.635 340.848 142.375C340.8 142.487 340.691 142.554 340.577 142.554ZM342.636 136.58C342.611 136.58 342.586 136.576 342.56 136.57C342.403 136.528 342.31 136.367 342.352 136.21C342.555 135.442 342.74 134.658 342.902 133.88C342.935 133.721 343.09 133.62 343.249 133.652C343.408 133.685 343.511 133.84 343.478 134C343.315 134.788 343.127 135.582 342.92 136.361C342.885 136.492 342.766 136.58 342.636 136.58ZM343.81 130.37C343.799 130.37 343.788 130.369 343.777 130.368C343.615 130.349 343.499 130.203 343.518 130.042C343.608 129.252 343.678 128.449 343.724 127.656C343.733 127.494 343.872 127.372 344.035 127.38C344.197 127.389 344.321 127.528 344.311 127.69C344.264 128.494 344.194 129.308 344.102 130.109C344.085 130.259 343.958 130.37 343.81 130.37ZM344.069 124.052C343.911 124.052 343.78 123.926 343.775 123.767C343.75 122.974 343.701 122.171 343.632 121.379C343.617 121.216 343.737 121.074 343.899 121.06C344.063 121.043 344.204 121.165 344.218 121.327C344.289 122.13 344.337 122.944 344.363 123.748C344.368 123.91 344.241 124.046 344.078 124.051C344.075 124.052 344.072 124.052 344.069 124.052ZM343.407 117.768C343.267 117.768 343.143 117.668 343.117 117.525C342.977 116.744 342.813 115.956 342.63 115.183C342.593 115.025 342.69 114.866 342.849 114.829C343.008 114.79 343.165 114.889 343.203 115.047C343.388 115.831 343.554 116.63 343.697 117.421C343.725 117.581 343.619 117.734 343.459 117.763C343.441 117.766 343.424 117.768 343.407 117.768ZM341.848 111.644C341.724 111.644 341.61 111.566 341.568 111.443C341.318 110.688 341.043 109.931 340.753 109.194C340.693 109.042 340.767 108.872 340.918 108.812C341.07 108.753 341.241 108.827 341.3 108.978C341.595 109.725 341.873 110.492 342.127 111.257C342.178 111.412 342.095 111.578 341.941 111.629C341.91 111.639 341.878 111.644 341.848 111.644ZM339.43 105.807C339.322 105.807 339.219 105.747 339.167 105.645C338.81 104.934 338.429 104.225 338.035 103.537C337.954 103.396 338.003 103.216 338.144 103.136C338.285 103.055 338.464 103.104 338.545 103.244C338.945 103.942 339.331 104.66 339.693 105.381C339.766 105.526 339.707 105.703 339.562 105.776C339.52 105.797 339.474 105.807 339.43 105.807Z" fill="#7BA990"/>
<path d="M290.63 167.937C290.608 167.937 290.585 167.935 290.563 167.929C290.178 167.84 289.795 167.746 289.413 167.646C289.256 167.605 289.162 167.445 289.203 167.287C289.244 167.13 289.404 167.036 289.562 167.077C289.939 167.175 290.317 167.268 290.696 167.356C290.855 167.393 290.953 167.551 290.916 167.71C290.885 167.845 290.764 167.937 290.63 167.937Z" fill="#7BA990"/>
<path d="M263.333 148.363C263.234 148.363 263.138 148.314 263.082 148.224C262.875 147.888 262.672 147.549 262.474 147.207C262.392 147.066 262.44 146.886 262.581 146.805C262.722 146.723 262.901 146.771 262.983 146.912C263.179 147.249 263.379 147.583 263.583 147.915C263.668 148.053 263.626 148.234 263.487 148.319C263.439 148.349 263.386 148.363 263.333 148.363Z" fill="#7BA990"/>
<path d="M260.945 143.941C260.835 143.941 260.728 143.878 260.678 143.771C260.344 143.054 260.024 142.318 259.728 141.582C259.667 141.431 259.74 141.26 259.891 141.199C260.042 141.139 260.213 141.211 260.274 141.362C260.566 142.088 260.881 142.815 261.212 143.522C261.28 143.669 261.217 143.844 261.07 143.913C261.029 143.932 260.987 143.941 260.945 143.941ZM258.72 138.134C258.594 138.134 258.477 138.053 258.438 137.925C258.387 137.758 258.337 137.589 258.288 137.421C258.114 136.825 257.952 136.221 257.805 135.624C257.766 135.467 257.862 135.307 258.02 135.268C258.177 135.229 258.337 135.326 258.376 135.484C258.521 136.072 258.682 136.669 258.853 137.256C258.901 137.423 258.951 137.589 259.001 137.754C259.049 137.91 258.961 138.074 258.805 138.121C258.777 138.13 258.748 138.134 258.72 138.134ZM257.331 132.072C257.189 132.072 257.064 131.968 257.041 131.823C256.919 131.04 256.818 130.244 256.739 129.456C256.722 129.294 256.84 129.15 257.002 129.134C257.165 129.122 257.308 129.235 257.324 129.397C257.402 130.175 257.503 130.96 257.623 131.733C257.648 131.893 257.538 132.044 257.377 132.069C257.362 132.071 257.346 132.072 257.331 132.072ZM256.818 125.875C256.657 125.875 256.526 125.745 256.524 125.584C256.522 125.426 256.521 125.267 256.522 125.109C256.522 124.475 256.536 123.831 256.564 123.194C256.571 123.031 256.714 122.908 256.87 122.913C257.033 122.92 257.159 123.058 257.151 123.22C257.124 123.848 257.11 124.484 257.11 125.109C257.11 125.265 257.111 125.421 257.112 125.577C257.114 125.74 256.984 125.873 256.821 125.875C256.821 125.875 256.819 125.875 256.818 125.875ZM257.198 119.665C257.185 119.665 257.172 119.664 257.159 119.662C256.998 119.641 256.885 119.493 256.906 119.332C257.011 118.545 257.14 117.751 257.287 116.974C257.318 116.814 257.471 116.71 257.631 116.74C257.791 116.77 257.896 116.924 257.865 117.084C257.72 117.851 257.593 118.633 257.489 119.41C257.47 119.557 257.343 119.665 257.198 119.665ZM258.461 113.574C258.435 113.574 258.408 113.571 258.381 113.563C258.224 113.519 258.133 113.356 258.178 113.2C258.394 112.437 258.633 111.671 258.891 110.921C258.943 110.767 259.11 110.686 259.264 110.738C259.418 110.791 259.5 110.958 259.447 111.112C259.194 111.851 258.957 112.608 258.744 113.36C258.707 113.49 258.589 113.574 258.461 113.574ZM260.576 107.726C260.536 107.726 260.496 107.718 260.457 107.701C260.309 107.635 260.242 107.461 260.308 107.313C260.63 106.587 260.976 105.863 261.335 105.159C261.409 105.014 261.586 104.957 261.731 105.031C261.876 105.105 261.933 105.282 261.859 105.427C261.505 106.121 261.163 106.836 260.846 107.552C260.797 107.661 260.689 107.726 260.576 107.726ZM263.497 102.237C263.444 102.237 263.39 102.223 263.341 102.192C263.204 102.106 263.162 101.924 263.248 101.787C263.67 101.115 264.114 100.446 264.57 99.8002C264.664 99.6675 264.847 99.6358 264.98 99.7293C265.113 99.8229 265.145 100.007 265.051 100.139C264.601 100.777 264.163 101.436 263.747 102.099C263.691 102.188 263.595 102.237 263.497 102.237ZM267.165 97.2176C267.098 97.2176 267.03 97.1949 266.975 97.148C266.851 97.0431 266.835 96.8575 266.94 96.7333C267.45 96.1299 267.985 95.5314 268.529 94.9546C268.641 94.8365 268.827 94.8308 268.945 94.9425C269.063 95.0541 269.069 95.2403 268.957 95.3586C268.42 95.9276 267.893 96.5178 267.39 97.1132C267.331 97.1822 267.248 97.2176 267.165 97.2176ZM271.506 92.77C271.425 92.77 271.344 92.7367 271.286 92.6711C271.178 92.5496 271.189 92.3636 271.311 92.2557C271.903 91.7295 272.518 91.2137 273.136 90.7224C273.263 90.6218 273.448 90.6425 273.549 90.7698C273.65 90.8971 273.629 91.0821 273.502 91.1833C272.892 91.6678 272.286 92.1766 271.701 92.6958C271.645 92.7456 271.576 92.77 271.506 92.77ZM276.437 88.9882C276.342 88.9882 276.248 88.9416 276.191 88.8557C276.102 88.7201 276.14 88.5376 276.275 88.4483C276.937 88.0123 277.619 87.5891 278.303 87.1905C278.443 87.1092 278.624 87.1564 278.706 87.2969C278.787 87.4371 278.74 87.6172 278.599 87.6992C277.925 88.0923 277.252 88.5095 276.599 88.9396C276.549 88.9724 276.493 88.9882 276.437 88.9882ZM281.861 85.9495C281.751 85.9495 281.645 85.8869 281.595 85.7803C281.526 85.6331 281.589 85.4579 281.736 85.3889C282.451 85.0532 283.187 84.7319 283.922 84.434C284.073 84.3728 284.245 84.4455 284.305 84.5964C284.366 84.747 284.294 84.9184 284.143 84.9794C283.417 85.2734 282.691 85.5903 281.986 85.9216C281.946 85.9406 281.903 85.9495 281.861 85.9495ZM287.661 83.7136C287.535 83.7136 287.419 83.6323 287.38 83.5056C287.333 83.3502 287.42 83.1855 287.575 83.1381C287.77 83.0786 287.966 83.02 288.162 82.9628C288.725 82.7984 289.301 82.6427 289.875 82.4995C290.033 82.4633 290.192 82.5565 290.232 82.714C290.271 82.8717 290.175 83.0315 290.017 83.0709C289.451 83.2119 288.882 83.3657 288.326 83.5278C288.133 83.5843 287.94 83.6419 287.748 83.7008C287.719 83.7097 287.69 83.7136 287.661 83.7136ZM308.465 82.5287C308.447 82.5287 308.429 82.527 308.411 82.5238C307.64 82.3792 306.858 82.2545 306.086 82.1528C305.925 82.1316 305.811 81.9838 305.832 81.8226C305.854 81.6614 306.002 81.5488 306.163 81.5695C306.945 81.6724 307.738 81.7988 308.519 81.945C308.679 81.9752 308.784 82.1289 308.754 82.2884C308.728 82.4301 308.604 82.5287 308.465 82.5287ZM293.72 82.3143C293.578 82.3143 293.453 82.2108 293.43 82.0658C293.405 81.9054 293.514 81.7546 293.675 81.7293C294.459 81.606 295.255 81.5029 296.042 81.4227C296.201 81.4106 296.348 81.5238 296.364 81.6856C296.381 81.8474 296.263 81.9919 296.101 82.0082C295.325 82.087 294.54 82.189 293.766 82.3108C293.751 82.3131 293.736 82.3143 293.72 82.3143ZM302.287 81.823C302.283 81.823 302.279 81.823 302.275 81.8227C301.496 81.7899 300.705 81.7785 299.92 81.7886H299.917C299.756 81.7886 299.625 81.6593 299.622 81.498C299.62 81.3355 299.751 81.2021 299.913 81.2001C300.709 81.1904 301.51 81.2019 302.299 81.2349C302.462 81.2418 302.588 81.3788 302.581 81.5412C302.574 81.6991 302.444 81.823 302.287 81.823Z" fill="#7BA990"/>
<path d="M313.364 83.7453C313.335 83.7453 313.306 83.741 313.277 83.7321C312.905 83.6169 312.532 83.5059 312.156 83.4005C312 83.3563 311.909 83.194 311.953 83.0373C311.997 82.8813 312.16 82.7911 312.316 82.8339C312.696 82.941 313.075 83.0531 313.451 83.1701C313.606 83.2184 313.693 83.383 313.645 83.5381C313.606 83.6646 313.49 83.7453 313.364 83.7453Z" fill="#7BA990"/>
<path d="M314.327 94.6202C314.135 94.5065 313.891 94.5275 313.721 94.6722L308.868 98.8027C306.028 97.9131 303.025 97.4698 299.963 97.5362L296.453 92.2224C296.33 92.036 296.102 91.9483 295.885 92.0039L288.482 93.9081C288.266 93.9638 288.108 94.1506 288.09 94.3732L287.58 100.721C284.866 102.141 282.45 103.978 280.391 106.127L274.147 104.851C273.928 104.807 273.705 104.906 273.592 105.098L269.703 111.68C269.59 111.872 269.611 112.115 269.755 112.285L273.886 117.139C272.996 119.979 272.553 122.981 272.619 126.043L267.305 129.554C267.119 129.677 267.031 129.905 267.087 130.121L268.991 137.525C269.047 137.741 269.234 137.898 269.456 137.916L275.805 138.427C277.224 141.141 279.061 143.557 281.21 145.615L279.934 151.859C279.89 152.078 279.989 152.301 280.181 152.415L286.763 156.303C286.955 156.417 287.198 156.396 287.368 156.251L292.222 152.121C295.062 153.01 298.064 153.453 301.126 153.387L304.637 158.701C304.76 158.887 304.988 158.975 305.204 158.92L312.608 157.015C312.824 156.96 312.981 156.773 312.999 156.55L313.51 150.202C316.224 148.783 318.64 146.946 320.698 144.796L326.942 146.072C327.161 146.117 327.384 146.018 327.498 145.825L331.386 139.244C331.5 139.052 331.479 138.808 331.334 138.638L327.204 133.785C328.094 130.945 328.537 127.942 328.47 124.88L333.784 121.369C333.97 121.246 334.058 121.019 334.003 120.802L332.098 113.399C332.043 113.183 331.856 113.025 331.633 113.007L325.285 112.497C323.866 109.782 322.029 107.367 319.879 105.308L321.155 99.0643C321.2 98.8454 321.101 98.6223 320.908 98.5086L314.327 94.6202Z" fill="#7BA990"/>
<path d="M300.557 132.689C297.994 132.689 295.508 131.326 294.198 128.921C293.273 127.226 293.065 125.272 293.61 123.42C294.156 121.567 295.39 120.038 297.085 119.114C300.585 117.207 304.985 118.502 306.892 122.002C308.8 125.502 307.505 129.901 304.005 131.809C302.909 132.406 301.725 132.689 300.557 132.689ZM297.508 119.889C294.435 121.564 293.298 125.426 294.973 128.499C296.647 131.571 300.51 132.71 303.582 131.034C306.655 129.359 307.792 125.497 306.117 122.424C304.443 119.352 300.58 118.215 297.508 119.889Z" fill="#B8FFD8"/>
<path d="M300.477 144.497C292.065 144.497 284.373 138.827 282.183 130.313C281.779 128.743 281.579 127.153 281.58 125.574C281.58 122.237 282.472 118.949 284.213 116.001C286.78 111.657 290.883 108.573 295.769 107.316C296.942 107.015 298.141 106.825 299.34 106.752C299.408 106.748 299.476 106.744 299.544 106.741C299.612 106.737 299.68 106.734 299.747 106.731L299.782 107.614C298.51 107.664 297.234 107.851 295.989 108.172C291.332 109.369 287.42 112.309 284.973 116.45C283.313 119.26 282.463 122.395 282.463 125.575C282.463 127.081 282.653 128.597 283.038 130.093C285.125 138.209 292.459 143.614 300.477 143.614C301.958 143.614 303.461 143.43 304.959 143.044C313.076 140.957 318.482 133.622 318.481 125.603C318.48 124.123 318.296 122.621 317.911 121.123C317.098 117.962 315.447 115.086 313.137 112.805L313.757 112.177C316.181 114.57 317.913 117.587 318.766 120.903C319.17 122.474 319.363 124.051 319.363 125.603C319.365 134.015 313.694 141.709 305.179 143.9C303.607 144.303 302.03 144.497 300.477 144.497Z" fill="#B8FFD8"/>
<path d="M328.578 257.859C328.578 259.941 326.873 261.644 324.789 261.644H119.913C117.83 261.644 116.125 259.941 116.125 257.859L114.42 140.122C114.42 138.041 116.873 133.977 121.368 134.282L321.595 129.101C324.21 129.033 326.738 130.04 328.589 131.885C330.44 133.731 331.453 136.254 331.392 138.866L328.578 257.859Z" fill="url(#paint1_linear_376_8999)"/>
<path d="M324.838 254.228C324.838 256.199 323.225 257.812 321.254 257.812H124.854C122.883 257.812 121.27 256.199 121.27 254.228L119.661 147.345C119.851 140.914 125.49 138.602 128.908 138.738C128.908 138.738 285.404 134.54 320.808 133.59C322.645 133.541 324.42 134.248 325.721 135.546C327.022 136.844 327.738 138.619 327.692 140.456L324.838 254.228Z" fill="url(#paint2_linear_376_8999)"/>
<g opacity="0.56">
<path d="M123.392 203.196C123.244 203.196 123.124 203.078 123.121 202.93L122.994 194.262C122.992 194.112 123.111 193.989 123.261 193.987C123.262 193.987 123.264 193.987 123.265 193.987C123.412 193.987 123.533 194.106 123.535 194.254L123.663 202.922C123.665 203.071 123.545 203.194 123.396 203.196H123.392Z" fill="white"/>
<path d="M123.08 181.955C122.933 181.955 122.812 181.837 122.81 181.689L122.322 148.49C122.332 146.279 123.013 144.512 124.347 143.234C126.774 140.909 130.571 141.027 130.733 141.032L192.017 139.387C192.172 139.392 192.29 139.501 192.294 139.651C192.299 139.8 192.181 139.925 192.031 139.929L130.732 141.573C130.561 141.565 126.984 141.457 124.721 143.625C123.498 144.797 122.873 146.433 122.864 148.488L123.351 181.681C123.353 181.83 123.234 181.953 123.084 181.955C123.083 181.955 123.082 181.955 123.08 181.955Z" fill="white"/>
</g>
<path opacity="0.13" d="M129.922 248.298C130.128 239.465 130.051 161.238 129.544 154.482C129.037 147.726 139.56 146.458 155.714 145.698C171.869 144.938 308.171 141.928 311.68 141.643C319.569 141.003 321.202 152.794 320.413 178.392C319.82 197.623 318.837 229.302 318.385 243.871C318.25 248.209 314.705 251.651 310.365 251.663C277.565 251.753 151.852 252.113 143.483 252.362C133.853 252.649 129.841 251.801 129.922 248.298Z" fill="white"/>
<path d="M344.313 271.418H104.543C104.056 271.418 103.658 271.019 103.658 270.532V261.958C103.658 261.471 104.056 261.073 104.543 261.073H344.313C344.8 261.073 345.199 261.471 345.199 261.958V270.532C345.199 271.019 344.8 271.418 344.313 271.418Z" fill="#5C4C41"/>
<g opacity="0.56">
<path d="M179.632 199.198C179.632 198.355 178.783 197.671 177.736 197.671H162.961C161.914 197.671 161.065 198.355 161.065 199.198V251.066C161.065 251.909 161.914 252.592 162.961 252.592H177.736C178.783 252.592 179.632 251.909 179.632 251.066V199.198Z" fill="white"/>
<path d="M155.249 227.269C155.249 226.872 154.219 226.482 153.172 226.482H138.215C137.168 226.482 136.234 226.872 136.234 227.269V251.667C136.234 252.064 137.168 252.592 138.215 252.592H153.172C154.219 252.592 155.249 252.064 155.249 251.667V227.269Z" fill="white"/>
<path d="M226.022 192.809H211.079C210.031 192.809 209.161 193.574 209.161 194.494V250.882C209.161 251.803 210.031 252.772 211.079 252.772H226.022C227.07 252.772 228.399 251.803 228.399 250.882V194.494C228.399 193.574 227.07 192.809 226.022 192.809Z" fill="white"/>
<path d="M203.345 182.271C203.345 181.428 202.496 180.745 201.448 180.745H186.674C185.626 180.745 184.777 181.428 184.777 182.271V251.066C184.777 251.909 185.626 252.592 186.674 252.592H201.448C202.496 252.592 203.345 251.909 203.345 251.066V182.271Z" fill="white"/>
<path d="M310.945 152.644C310.945 151.758 309.885 151.033 308.838 151.033H293.881C292.834 151.033 291.931 151.758 291.931 152.644V250.839C291.931 251.725 292.834 252.592 293.881 252.592H308.838C309.885 252.592 310.945 251.725 310.945 250.839V152.644Z" fill="white"/>
<path d="M256.586 170.927C256.586 170.084 255.737 169.4 254.689 169.4H239.915C238.868 169.4 238.019 170.084 238.019 170.927V251.066C238.019 251.909 238.868 252.592 239.915 252.592H254.689C255.737 252.592 256.586 251.909 256.586 251.066V170.927Z" fill="white"/>
<path d="M284.549 157.782C284.549 156.939 283.7 156.255 282.652 156.255H267.878C266.831 156.255 265.981 156.939 265.981 157.782V251.246C265.981 252.089 266.831 252.772 267.878 252.772H282.652C283.7 252.772 284.549 252.089 284.549 251.246L284.549 157.782Z" fill="white"/>
</g>
<path d="M283.574 294.11H342.557C344.438 294.11 345.962 292.858 345.962 291.313V218.75C345.962 217.208 344.443 215.956 342.566 215.952L283.111 215.821C281.219 215.817 279.686 217.08 279.696 218.633L280.168 291.328C280.178 292.867 281.7 294.11 283.574 294.11Z" fill="#5C4C41"/>
<path d="M286.464 219.402L339.205 219.668C341.111 219.678 342.648 220.954 342.639 222.52L342.271 287.648C342.262 289.19 340.756 290.445 338.878 290.473L287.634 291.241C285.721 291.27 284.143 290.015 284.116 288.443L282.988 222.28C282.96 220.69 284.528 219.392 286.464 219.402Z" fill="#B8FFD8"/>
<path opacity="0.6" d="M291.256 224.816V225.115C291.256 225.584 291.719 225.964 292.29 225.964H332.926C333.497 225.964 333.96 225.584 333.96 225.115V224.816C333.96 224.347 333.497 223.967 332.926 223.967H292.29C291.719 223.967 291.256 224.347 291.256 224.816Z" fill="#64A8E3"/>
<path opacity="0.61" d="M289.515 289.097C287.863 289.097 286.501 288.001 286.472 286.641L285.319 233.374V233.374C285.289 231.998 286.628 230.857 288.303 230.83L336.287 230.063C337.103 230.054 337.871 230.298 338.457 230.761C339.043 231.224 339.374 231.847 339.389 232.515L340.626 286.075C340.641 286.746 340.337 287.381 339.768 287.863C339.199 288.345 338.436 288.615 337.619 288.623L289.552 289.097C289.539 289.096 289.527 289.097 289.515 289.097ZM336.347 231.029C336.335 231.029 336.322 231.029 336.31 231.029L288.326 231.797C287.298 231.813 286.477 232.513 286.496 233.357L287.649 286.624C287.667 287.464 288.524 288.134 289.538 288.13L337.605 287.656C338.106 287.651 338.574 287.486 338.923 287.19C339.272 286.895 339.459 286.505 339.449 286.094L338.213 232.533C338.203 232.124 338 231.741 337.64 231.458C337.29 231.181 336.832 231.029 336.347 231.029Z" fill="#64A8E3"/>
<path opacity="0.61" d="M338.878 236.388H286.529C286.204 236.388 285.941 236.172 285.941 235.905C285.941 235.638 286.204 235.422 286.529 235.422H338.878C339.203 235.422 339.467 235.638 339.467 235.905C339.467 236.172 339.203 236.388 338.878 236.388Z" fill="#64A8E3"/>
<path d="M237.294 296.755H299.676C301.666 296.755 303.278 296.024 303.278 295.123V252.801C303.278 251.901 301.672 251.172 299.686 251.169L236.804 251.093C234.804 251.09 233.182 251.827 233.193 252.733L233.692 295.132C233.702 296.03 235.312 296.755 237.294 296.755Z" fill="#5C4C41"/>
<path d="M240.351 253.181L296.131 253.337C298.147 253.342 299.772 254.087 299.763 255L299.374 292.986C299.365 293.885 297.771 294.617 295.786 294.633L241.588 295.081C239.564 295.098 237.896 294.366 237.867 293.449L236.674 254.86C236.645 253.933 238.303 253.176 240.351 253.181Z" fill="#B8FFD8"/>
<path opacity="0.6" d="M243.207 256.114V256.288C243.207 256.561 243.697 256.783 244.3 256.783H287.279C287.883 256.783 288.372 256.561 288.372 256.288V256.114C288.372 255.84 287.883 255.618 287.279 255.618H244.3C243.697 255.618 243.207 255.84 243.207 256.114Z" fill="#2E70EB"/>
<path opacity="0.61" d="M243.576 293.989C241.739 293.989 240.28 293.296 240.245 292.403L239.026 261.336C239.011 260.963 239.26 260.598 239.728 260.307C240.346 259.923 241.282 259.697 242.296 259.688L293.046 259.241C294.89 259.227 296.402 259.934 296.44 260.824L297.748 292.063C297.763 292.437 297.513 292.804 297.042 293.096C296.417 293.482 295.474 293.707 294.453 293.712L243.615 293.989C243.602 293.989 243.589 293.989 243.576 293.989ZM293.108 260.121C293.094 260.121 293.081 260.121 293.068 260.122L242.318 260.569C241.703 260.574 241.131 260.705 240.788 260.918C240.652 261.003 240.49 261.141 240.497 261.315L241.717 292.383C241.733 292.782 242.593 293.114 243.602 293.108L294.44 292.832C295.06 292.828 295.637 292.698 295.983 292.484C296.121 292.399 296.283 292.26 296.276 292.085L294.968 260.846C294.951 260.449 294.104 260.121 293.108 260.121Z" fill="#2E70EB"/>
<path opacity="0.61" d="M295.787 263.247H240.42C240.014 263.247 239.684 263.05 239.684 262.807C239.684 262.563 240.014 262.366 240.42 262.366H295.787C296.193 262.366 296.523 262.563 296.523 262.807C296.523 263.05 296.193 263.247 295.787 263.247Z" fill="#2E70EB"/>
<path d="M216.571 287.671H125.323C124.507 287.671 123.846 288.333 123.846 289.148C123.846 289.964 124.507 290.625 125.323 290.625H216.571C217.386 290.625 218.048 289.964 218.048 289.148C218.048 288.332 217.386 287.671 216.571 287.671Z" fill="#414141"/>
<path d="M203.646 272.654H138.248C136.276 272.654 134.678 274.252 134.678 276.224V287.671H207.216V276.224C207.216 274.252 205.618 272.654 203.646 272.654Z" fill="#8B8C9C"/>
<path d="M198.808 266.275H143.086C141.114 266.275 139.516 267.874 139.516 269.845V272.654H202.378V269.845C202.378 267.874 200.779 266.275 198.808 266.275Z" fill="#525252"/>
<path d="M187.732 266.275H154.162V247.859C154.162 247.638 154.34 247.459 154.561 247.459H187.333C187.553 247.459 187.732 247.638 187.732 247.859L187.732 266.275Z" fill="#8E8E94"/>
<path d="M149.713 275.773H143.852V287.671H149.713V275.773Z" fill="#47464C"/>
<path d="M154.162 275.773H151.807V287.671H154.162V275.773Z" fill="#47464C"/>
<path d="M157.481 275.773H155.126V287.671H157.481V275.773Z" fill="#47464C"/>
<path d="M160.801 275.773H158.445V287.671H160.801V275.773Z" fill="#47464C"/>
<path d="M116.203 193.63C115.386 194.383 115.314 195.65 116.043 196.49L161.98 250.132C162.74 251.008 164.074 251.083 164.927 250.298L168.835 246.699L118.243 191.752L116.203 193.63Z" fill="#5A5A5A"/>
<path d="M122.494 176.395C120.93 174.765 118.35 174.685 116.688 176.215L112.568 180.009C110.906 181.539 110.773 184.117 112.269 185.81L167.081 248.314L178.57 237.735C179.502 236.877 179.545 235.42 178.664 234.51L122.494 176.395Z" fill="#8E8E94"/>
<path d="M126.425 189.492L125.994 189.889C124.66 191.117 124.574 193.195 125.803 194.529L154.727 225.944C155.956 227.278 158.033 227.364 159.368 226.135L159.799 225.739C161.133 224.51 161.219 222.432 159.99 221.098L131.066 189.683C129.837 188.349 127.759 188.263 126.425 189.492Z" fill="#CECECE"/>
<path d="M126.812 189.141L125.597 190.259L158.968 226.508L160.183 225.39L126.812 189.141Z" fill="#94A5C8"/>
<path d="M171.327 258.056C179.415 258.056 185.971 251.5 185.971 243.413C185.971 235.325 179.415 228.769 171.327 228.769C163.24 228.769 156.684 235.325 156.684 243.413C156.684 251.5 163.24 258.056 171.327 258.056Z" fill="#D8D8FF"/>
<path d="M171.328 254.598C177.505 254.598 182.513 249.59 182.513 243.413C182.513 237.235 177.505 232.227 171.328 232.227C165.15 232.227 160.142 237.235 160.142 243.413C160.142 249.59 165.15 254.598 171.328 254.598Z" fill="#94A5C8"/>
<path d="M115.574 179.884L118.464 183.023C119.095 183.708 120.167 183.736 120.833 183.085L161.146 143.194C161.784 142.57 161.811 141.552 161.206 140.895L159.699 139.257L115.574 179.884Z" fill="#5A5A5A"/>
<path d="M161.971 126.926L165.017 130.235C166.245 131.569 166.181 133.641 164.872 134.897L116.871 181.293L108.376 172.066C107.687 171.318 107.749 170.149 108.514 169.478L157.312 126.686C158.671 125.485 160.742 125.592 161.971 126.926Z" fill="#8E8E94"/>
<path d="M148.068 138.139L121.691 162.425C120.524 163.5 120.449 165.317 121.523 166.484C122.598 167.651 124.415 167.726 125.582 166.652L151.96 142.365C153.127 141.29 153.202 139.473 152.127 138.306C151.052 137.139 149.235 137.064 148.068 138.139Z" fill="#CECECE"/>
<path d="M121.081 165.999L121.979 166.974L152.584 138.798L151.686 137.823L121.081 165.999Z" fill="#94A5C8"/>
<path d="M113.797 188.848C120.291 188.848 125.556 183.583 125.556 177.089C125.556 170.595 120.291 165.33 113.797 165.33C107.302 165.33 102.038 170.595 102.038 177.089C102.038 183.583 107.302 188.848 113.797 188.848Z" fill="#D8D8FF"/>
<path d="M122.527 179.204C123.69 174.382 120.724 169.529 115.901 168.366C111.079 167.203 106.226 170.169 105.063 174.991C103.9 179.814 106.866 184.666 111.688 185.829C116.511 186.993 121.363 184.026 122.527 179.204Z" fill="#94A5C8"/>
<path d="M198.047 146.627L196.212 149.643C195.472 150.86 194.134 151.406 193.201 150.873L158.763 131.41L163.879 123C164.294 122.317 165.051 122.027 165.556 122.357L197.754 143.388C198.657 143.971 198.787 145.411 198.047 146.627Z" fill="#5E5F63"/>
<path d="M163.393 136.864C168.49 136.864 172.623 132.731 172.623 127.633C172.623 122.535 168.49 118.403 163.393 118.403C158.295 118.403 154.162 122.535 154.162 127.633C154.162 132.731 158.295 136.864 163.393 136.864Z" fill="#D8D8FF"/>
<path d="M166.232 134.084C169.797 132.519 171.418 128.359 169.852 124.794C168.286 121.228 164.127 119.607 160.561 121.173C156.996 122.739 155.375 126.898 156.941 130.464C158.506 134.029 162.666 135.65 166.232 134.084Z" fill="#94A5C8"/>
<path d="M202.385 144.398L198.877 142.282C198.844 142.263 198.802 142.273 198.782 142.306L192.597 152.563C192.577 152.595 192.588 152.638 192.62 152.657L196.128 154.772C196.161 154.792 196.203 154.782 196.223 154.749L202.408 144.492C202.428 144.46 202.417 144.417 202.385 144.398Z" fill="#EAEAEA"/>
<path d="M206.77 148.465L214.482 142.898L225.168 155.894L223.548 157.807L213.886 147.443L207.918 151.812L206.77 148.465Z" fill="#4A4A4A"/>
<path d="M201.859 156.686L200.671 166.123L217.2 169.269L218.102 166.93L204.374 163.421L205.346 156.089L201.859 156.686Z" fill="#4A4A4A"/>
<path d="M199.369 156.44C200.956 157.74 203.17 158.187 205.232 157.424C208.325 156.279 209.905 152.843 208.759 149.75C208.18 148.184 207.014 147.007 205.602 146.374L199.369 156.44Z" fill="url(#paint3_linear_376_8999)"/>
<path d="M195.976 154.345L195 155.963C194.824 156.255 194.935 156.644 195.247 156.832L198.247 158.641C198.559 158.829 198.955 158.745 199.131 158.454L206.909 145.555C207.085 145.263 206.975 144.874 206.662 144.685L203.663 142.876C203.35 142.688 202.955 142.772 202.779 143.064L201.885 144.546L195.976 154.345Z" fill="#B7B7B7"/>
<path d="M218.047 116.022C230.151 116.022 239.963 106.209 239.963 94.1054C239.963 82.0013 230.151 72.1891 218.047 72.1891C205.943 72.1891 196.131 82.0013 196.131 94.1054C196.131 106.209 205.943 116.022 218.047 116.022Z" fill="#640002"/>
<path d="M218.047 115.293C229.749 115.293 239.235 105.807 239.235 94.1054C239.235 82.4038 229.749 72.9178 218.047 72.9178C206.346 72.9178 196.86 82.4038 196.86 94.1054C196.86 105.807 206.346 115.293 218.047 115.293Z" fill="#A40000"/>
<path d="M198.516 93.2913C198.512 93.2913 198.508 93.2913 198.504 93.291C198.381 93.2845 198.286 93.1791 198.292 93.0558C198.336 92.2234 198.433 91.3875 198.58 90.571C198.602 90.4495 198.717 90.3686 198.84 90.3904C198.962 90.4125 199.042 90.5288 199.02 90.6505C198.876 91.4484 198.782 92.2655 198.739 93.0789C198.733 93.1986 198.634 93.2913 198.516 93.2913Z" fill="#B8FFD8"/>
<path d="M200.576 85.5278C200.542 85.5278 200.508 85.5202 200.476 85.5038C200.365 85.448 200.321 85.3133 200.377 85.2032C203.764 78.4921 210.535 74.323 218.047 74.323C219.245 74.323 220.446 74.431 221.616 74.6444C221.738 74.6665 221.818 74.783 221.796 74.9047C221.774 75.0264 221.658 75.1077 221.536 75.0845C220.392 74.8762 219.219 74.7707 218.047 74.7707C210.705 74.7707 204.087 78.8455 200.776 85.4047C200.737 85.4828 200.658 85.5278 200.576 85.5278Z" fill="#B8FFD8"/>
<path d="M231.188 107.248C238.191 100.245 238.191 88.8905 231.188 81.8874C224.184 74.8843 212.83 74.8843 205.827 81.8874C198.824 88.8905 198.824 100.245 205.827 107.248C212.83 114.251 224.184 114.251 231.188 107.248Z" fill="#B8FFD8"/>
<path d="M217.524 85.0913C214.777 82.6095 210.506 82.8602 208.024 85.6074C205.542 88.3547 205.721 92.6333 208.469 95.1152C210.889 97.3012 214.601 97.243 216.944 95.5469L218.795 97.2188C218.816 97.7149 218.956 98.3181 219.378 98.6988L225.546 104.271C226.326 104.975 227.5 104.724 228.205 103.944L228.246 103.899C228.95 103.119 228.933 102.089 228.153 101.384L221.985 95.8125C221.564 95.4318 220.95 95.3535 220.691 95.1196L218.84 93.4477C220.29 90.9456 219.944 87.2774 217.524 85.0913ZM209.723 94.1913C207.604 92.2773 207.438 89.0082 209.352 86.8896C211.266 84.771 214.535 84.605 216.654 86.519C218.772 88.4329 218.938 91.702 217.024 93.8207C215.11 95.9393 211.841 96.1053 209.723 94.1913Z" fill="#D2A533"/>
<path d="M210.926 92.5312C210.91 92.5488 210.893 92.5655 210.874 92.5811C210.65 92.7704 210.316 92.7422 210.127 92.5186C208.892 91.058 208.929 88.8847 210.213 87.4635C210.409 87.2461 210.744 87.2291 210.962 87.4255C211.179 87.6219 211.196 87.9572 211 88.1746C210.07 89.2036 210.043 90.7766 210.937 91.8337C211.11 92.0388 211.101 92.3372 210.926 92.5312Z" fill="#D2A533"/>
<path d="M165.861 108.747C178.371 108.747 188.512 98.6056 188.512 86.0954C188.512 73.5852 178.371 63.4437 165.861 63.4437C153.35 63.4437 143.209 73.5852 143.209 86.0954C143.209 98.6056 153.35 108.747 165.861 108.747Z" fill="#83008A"/>
<path d="M165.861 107.994C177.955 107.994 187.759 98.1896 187.759 86.0954C187.759 74.0012 177.955 64.1969 165.861 64.1969C153.767 64.1969 143.962 74.0012 143.962 86.0954C143.962 98.1896 153.767 107.994 165.861 107.994Z" fill="#904FFF"/>
<path d="M145.674 85.2541C145.67 85.2541 145.666 85.2541 145.662 85.2538C145.534 85.2471 145.436 85.1381 145.443 85.0107C145.488 84.1504 145.588 83.2864 145.74 82.4425C145.763 82.3169 145.882 82.2333 146.009 82.2559C146.134 82.2787 146.218 82.399 146.195 82.5247C146.046 83.3494 145.949 84.194 145.905 85.0346C145.898 85.1582 145.796 85.2541 145.674 85.2541Z" fill="#B8FFD8"/>
<path d="M147.803 77.23C147.768 77.23 147.733 77.2221 147.699 77.2052C147.585 77.1476 147.54 77.0084 147.597 76.8945C151.098 69.9582 158.097 65.6492 165.861 65.6492C167.099 65.6492 168.34 65.7608 169.549 65.9814C169.675 66.0042 169.758 66.1247 169.735 66.2505C169.713 66.3763 169.592 66.4604 169.466 66.4364C168.284 66.2211 167.072 66.112 165.861 66.112C158.272 66.112 151.432 70.3236 148.01 77.1028C147.969 77.1835 147.888 77.23 147.803 77.23Z" fill="#B8FFD8"/>
<path d="M179.442 99.6784C186.681 92.4404 186.681 80.7051 179.442 73.4671C172.204 66.229 160.469 66.229 153.231 73.4671C145.993 80.7052 145.993 92.4404 153.231 99.6784C160.469 106.916 172.204 106.916 179.442 99.6784Z" fill="#B8FFD8"/>
<path d="M158.708 86.386C158.708 86.0271 158.417 85.7361 158.058 85.7361H154.946C154.587 85.7361 154.296 86.0271 154.296 86.386V92.5177C154.296 92.8766 154.587 93.1676 154.946 93.1676H158.058C158.417 93.1676 158.708 92.8766 158.708 92.5177V86.386Z" fill="url(#paint4_linear_376_8999)"/>
<path d="M164.746 83.1347C164.746 82.7758 164.455 82.4848 164.097 82.4848H160.984C160.625 82.4848 160.334 82.7757 160.334 83.1347V92.5177C160.334 92.8766 160.625 93.1676 160.984 93.1676H164.097C164.455 93.1676 164.746 92.8766 164.746 92.5177V83.1347Z" fill="url(#paint5_linear_376_8999)"/>
<path d="M170.785 79.6512C170.785 79.2923 170.494 79.0013 170.135 79.0013H167.022C166.663 79.0013 166.372 79.2922 166.372 79.6512V92.2855C166.372 92.6444 166.663 92.9354 167.022 92.9354H170.135C170.494 92.9354 170.785 92.6445 170.785 92.2855V79.6512Z" fill="url(#paint6_linear_376_8999)"/>
<path d="M176.823 76.8643C176.823 76.5054 176.532 76.2144 176.173 76.2144H173.06C172.701 76.2144 172.41 76.5054 172.41 76.8643V92.2854C172.41 92.6443 172.701 92.9353 173.06 92.9353H176.173C176.532 92.9353 176.823 92.6444 176.823 92.2854V76.8643Z" fill="url(#paint7_linear_376_8999)"/>
<path d="M270.197 211.401C283.626 211.401 294.512 200.515 294.512 187.086C294.512 173.657 283.626 162.771 270.197 162.771C256.768 162.771 245.882 173.657 245.882 187.086C245.882 200.515 256.768 211.401 270.197 211.401Z" fill="#60FF78"/>
<path d="M270.197 210.593C283.18 210.593 293.704 200.068 293.704 187.086C293.704 174.104 283.18 163.579 270.197 163.579C257.215 163.579 246.69 174.104 246.69 187.086C246.69 200.068 257.215 210.593 270.197 210.593Z" fill="#00B53C"/>
<path d="M248.528 186.183C248.523 186.183 248.519 186.183 248.515 186.183C248.378 186.175 248.273 186.058 248.28 185.922C248.328 184.998 248.435 184.071 248.599 183.165C248.623 183.03 248.751 182.94 248.887 182.965C249.022 182.989 249.112 183.118 249.087 183.253C248.928 184.138 248.823 185.045 248.776 185.947C248.769 186.08 248.659 186.183 248.528 186.183Z" fill="#B8FFD8"/>
<path d="M250.814 177.57C250.776 177.57 250.738 177.561 250.702 177.543C250.579 177.481 250.53 177.332 250.592 177.209C254.35 169.764 261.863 165.138 270.197 165.138C271.526 165.138 272.858 165.258 274.156 165.495C274.291 165.519 274.381 165.649 274.356 165.784C274.332 165.919 274.203 166.009 274.067 165.983C272.799 165.752 271.497 165.635 270.197 165.635C262.051 165.635 254.709 170.156 251.035 177.433C250.992 177.52 250.904 177.57 250.814 177.57Z" fill="#B8FFD8"/>
<path d="M284.775 201.667C292.544 193.897 292.544 181.3 284.775 173.53C277.005 165.761 264.408 165.761 256.638 173.53C248.869 181.3 248.869 193.897 256.638 201.667C264.408 209.436 277.005 209.436 284.775 201.667Z" fill="#B8FFD8"/>
<path d="M280.344 178.78V197.821C280.344 199.082 279.456 200.378 278.194 200.378H262.2C260.938 200.378 259.653 199.082 259.653 197.821V177.256C259.653 175.995 260.938 174.95 262.2 174.95H276.678L280.344 178.78Z" fill="#C0D200"/>
<path d="M264.707 182.842C264.707 183.56 264.124 184.143 263.406 184.143C262.687 184.143 262.104 183.56 262.104 182.842C262.104 182.123 262.687 181.541 263.406 181.541C264.124 181.541 264.707 182.123 264.707 182.842Z" fill="#B8FFD8"/>
<path d="M278.1 183.344C278.1 183.94 277.617 184.423 277.021 184.423H266.964C266.368 184.423 265.885 183.94 265.885 183.344V183.009C265.885 182.413 266.368 181.93 266.964 181.93H277.021C277.617 181.93 278.1 182.413 278.1 183.009V183.344Z" fill="#B8FFD8"/>
<path d="M264.707 187.411C264.707 188.13 264.124 188.713 263.406 188.713C262.687 188.713 262.104 188.13 262.104 187.411C262.104 186.693 262.687 186.11 263.406 186.11C264.124 186.11 264.707 186.693 264.707 187.411Z" fill="#B8FFD8"/>
<path d="M278.1 188.081C278.1 188.676 277.617 189.16 277.021 189.16H266.964C266.368 189.16 265.885 188.676 265.885 188.081V187.746C265.885 187.15 266.368 186.667 266.964 186.667H277.021C277.617 186.667 278.1 187.15 278.1 187.746V188.081Z" fill="#B8FFD8"/>
<path d="M263.503 193.28C264.22 193.229 264.759 192.607 264.709 191.89C264.658 191.173 264.035 190.633 263.318 190.684C262.602 190.735 262.062 191.358 262.113 192.074C262.164 192.791 262.786 193.331 263.503 193.28Z" fill="#B8FFD8"/>
<path d="M278.101 192.318C278.101 192.914 277.617 193.398 277.022 193.398H266.964C266.368 193.398 265.885 192.914 265.885 192.318V191.984C265.885 191.388 266.368 190.905 266.964 190.905H277.022C277.617 190.905 278.101 191.388 278.101 191.984V192.318Z" fill="#B8FFD8"/>
<path d="M280.479 178.939H278.194C277.354 178.939 276.854 178.097 276.854 177.256V174.964L276.77 175.051L280.479 178.939Z" fill="#7A7E7D"/>
<path d="M261.148 155.637C273.747 155.637 283.961 145.423 283.961 132.824C283.961 120.225 273.747 110.011 261.148 110.011C248.549 110.011 238.335 120.225 238.335 132.824C238.335 145.423 248.549 155.637 261.148 155.637Z" fill="#BDDD1D"/>
<path d="M261.148 154.878C273.329 154.878 283.202 145.004 283.202 132.824C283.202 120.644 273.329 110.77 261.148 110.77C248.968 110.77 239.094 120.644 239.094 132.824C239.094 145.004 248.968 154.878 261.148 154.878Z" fill="#C9B929"/>
<path d="M242.962 123.896C242.927 123.896 242.891 123.888 242.858 123.871C242.743 123.813 242.697 123.672 242.755 123.558C246.281 116.572 253.329 112.233 261.148 112.233C262.395 112.233 263.645 112.345 264.862 112.567C264.989 112.59 265.073 112.711 265.05 112.838C265.027 112.965 264.906 113.05 264.779 113.025C263.589 112.809 262.367 112.699 261.148 112.699C253.505 112.699 246.617 116.94 243.17 123.768C243.13 123.849 243.048 123.896 242.962 123.896Z" fill="#B8FFD8"/>
<path d="M274.825 146.504C282.115 139.214 282.115 127.396 274.825 120.106C267.536 112.817 255.717 112.817 248.428 120.106C241.138 127.396 241.138 139.214 248.428 146.504C255.717 153.793 267.536 153.793 274.825 146.504Z" fill="#B8FFD8"/>
<path d="M266.502 126.668C266.502 129.481 264.222 132.517 261.409 132.517C258.597 132.517 256.316 129.481 256.316 126.668C256.316 123.855 258.597 121.86 261.409 121.86C264.222 121.86 266.502 123.855 266.502 126.668Z" fill="#53CE84"/>
<path d="M255.089 143.346H267.522C268.83 143.346 269.989 142.5 270.388 141.254L271.057 139.163C271.547 137.632 270.75 135.974 269.241 135.422C264.181 133.572 258.949 133.81 253.59 135.593C252.088 136.093 251.255 137.699 251.669 139.226L252.185 141.125C252.54 142.436 253.731 143.346 255.089 143.346Z" fill="#53CE84"/>
<defs>
<linearGradient id="paint0_linear_376_8999" x1="367.321" y1="333.036" x2="197.836" y2="152.616" gradientUnits="userSpaceOnUse">
<stop stop-color="#58585B"/>
<stop offset="1" stop-color="#727272"/>
</linearGradient>
<linearGradient id="paint1_linear_376_8999" x1="257.535" y1="118.565" x2="173.68" y2="305.694" gradientUnits="userSpaceOnUse">
<stop stop-color="#5C4C41"/>
<stop offset="1" stop-color="#362A21"/>
</linearGradient>
<linearGradient id="paint2_linear_376_8999" x1="311.541" y1="97.8809" x2="44.6375" y2="402.731" gradientUnits="userSpaceOnUse">
<stop stop-color="#9BFEC8"/>
<stop offset="1" stop-color="#21ADD0"/>
</linearGradient>
<linearGradient id="paint3_linear_376_8999" x1="202.442" y1="151.387" x2="208.261" y2="154.927" gradientUnits="userSpaceOnUse">
<stop stop-color="#6C6C74"/>
<stop offset="1" stop-color="#88888D"/>
</linearGradient>
<linearGradient id="paint4_linear_376_8999" x1="153.827" y1="66.399" x2="159.585" y2="116.026" gradientUnits="userSpaceOnUse">
<stop stop-color="#4F52FF"/>
<stop offset="1" stop-color="#4042E2"/>
</linearGradient>
<linearGradient id="paint5_linear_376_8999" x1="159.983" y1="65.7837" x2="165.72" y2="115.237" gradientUnits="userSpaceOnUse">
<stop stop-color="#4F52FF"/>
<stop offset="1" stop-color="#4042E2"/>
</linearGradient>
<linearGradient id="paint6_linear_376_8999" x1="166.133" y1="64.8956" x2="171.86" y2="114.254" gradientUnits="userSpaceOnUse">
<stop stop-color="#4F52FF"/>
<stop offset="1" stop-color="#4042E2"/>
</linearGradient>
<linearGradient id="paint7_linear_376_8999" x1="172.24" y1="64.089" x2="177.986" y2="113.621" gradientUnits="userSpaceOnUse">
<stop stop-color="#4F52FF"/>
<stop offset="1" stop-color="#4042E2"/>
</linearGradient>
</defs>
</svg>
