<svg width="142" height="204" viewBox="0 0 142 204" fill="none" xmlns="http://www.w3.org/2000/svg">
<path d="M10.3841 129.357L14.2509 130.86L26.7094 126.35C26.7094 126.35 29.2745 128.493 30.7907 130.001C31.9269 131.132 32.8117 131.604 33.5832 133.009C33.8907 133.569 34.4233 133.904 34.2276 134.512C34.063 135.023 33.6531 135.174 33.1535 135.371C32.5294 135.618 32.1005 135.458 31.4351 135.371C29.8723 135.167 27.9982 133.653 27.3538 134.083C26.7094 134.512 26.6419 135.535 26.2798 136.875C25.9176 138.216 28.4945 141.906 27.3538 144.823C27.0392 145.627 27.0544 146.374 26.2798 146.756C25.6779 147.053 25.2055 146.944 24.5613 146.756C23.3644 146.406 23.1548 145.396 22.4133 144.393C21.03 142.523 19.8356 139.023 19.8356 139.023C19.8356 139.023 20.6656 141.74 20.9096 143.534C21.0796 144.784 21.4336 145.533 21.1244 146.756C20.9678 147.375 21.0151 147.911 20.48 148.26C20.1217 148.493 19.8337 148.475 19.406 148.475C18.9782 148.475 18.7206 148.438 18.332 148.26C17.6292 147.937 17.4661 147.404 17.0431 146.756C16.4467 145.843 16.3759 145.19 15.9691 144.178C15.068 141.937 13.821 138.379 13.821 138.379C13.821 138.379 14.2404 142.341 13.821 144.823C13.6921 145.585 14.0439 146.341 13.3914 146.756C13.0996 146.942 12.8781 146.971 12.5322 146.971C12.1863 146.971 11.9856 146.904 11.673 146.756C10.853 146.368 10.8002 145.629 10.3841 144.823C9.73931 143.573 9.56795 142.768 9.31012 141.386C8.91022 139.242 8.77665 137.986 8.88066 135.801C8.94497 134.45 8.99106 133.679 9.31012 132.364C9.60428 131.152 10.3841 129.357 10.3841 129.357Z" fill="#C0C0C0"/>
<path d="M13.8212 69.2114C13.8212 69.2114 27.4753 54.4974 38.7386 49.0197C50.7675 43.1696 72.2483 41.9311 72.2483 41.9311C72.2483 41.9311 80.9679 54.5615 85.1366 63.4116C91.4024 76.7137 95.8766 99.499 95.8766 99.499L48.8342 127.209C48.8342 127.209 36.0556 112.583 29.502 102.077C21.9755 90.011 13.8212 69.2114 13.8212 69.2114Z" fill="#CACACA"/>
<path d="M30.5759 46.4419C19.3125 51.9197 5.65845 66.6336 5.65845 66.6336C5.65845 66.6336 13.8127 87.4332 21.3393 99.4989C27.8929 110.005 40.6714 124.631 40.6714 124.631L48.8344 127.209C48.8344 127.209 36.0555 112.583 29.5019 102.077C21.9753 90.0109 13.8211 69.2113 13.8211 69.2113C13.8211 69.2113 27.4751 54.4973 38.7385 49.0196C50.7672 43.1696 72.2482 41.931 72.2482 41.931C72.2482 41.931 80.968 54.5614 85.1365 63.4116C90.9245 75.699 95.1837 96.0782 95.7996 99.1156L95.8768 99.0693C95.8768 99.0693 93.0902 78.2867 87.7142 66.204C83.145 55.9347 72.2482 41.931 72.2482 41.931L64.0856 39.3533C64.0856 39.3533 42.6046 40.5919 30.5759 46.4419Z" fill="#ACAAAA"/>
<path d="M5.65845 66.6337C5.65845 66.6337 13.8127 87.4333 21.3393 99.499C27.8929 110.005 40.6713 124.631 40.6713 124.631L48.8344 127.209C48.8344 127.209 36.0555 112.583 29.5019 102.077C21.9753 90.011 13.8211 69.2114 13.8211 69.2114L5.65845 66.6337Z" fill="#BBB8B8"/>
<path d="M19.8356 139.024C19.8356 139.024 21.03 142.523 22.4132 144.394C23.1548 145.396 23.3643 146.407 24.5613 146.757C25.2054 146.945 25.6779 147.053 26.2797 146.757C26.8816 146.46 26.4261 145.829 26.0654 145.468C25.7046 145.107 25.2265 145.494 24.7765 145.253C24.0149 144.846 24.1572 144.054 23.7025 143.32C23.1633 142.449 22.7128 142.057 22.1989 141.172C21.8223 140.523 21.938 139.906 21.3396 139.453C20.8525 139.085 19.8356 139.024 19.8356 139.024Z" fill="#D6D6D6"/>
<path d="M13.8204 138.379C13.8204 138.379 15.0674 141.938 15.9685 144.179C16.3753 145.19 16.4461 145.843 17.0425 146.756C17.4655 147.404 17.6286 147.937 18.3314 148.26C18.72 148.438 18.9776 148.475 19.4054 148.475C19.8331 148.475 19.6444 147.961 19.6206 147.615C19.5755 146.962 19.7933 146.855 19.4058 146.327C18.8272 145.538 18.512 145.685 18.0498 144.823C17.4824 143.764 16.9205 142.468 16.3981 141.386C15.9903 140.542 16.3861 139.931 15.7541 139.238C15.392 138.841 14.6421 138.467 13.8204 138.379Z" fill="#D6D6D6"/>
<path d="M9.31012 132.365C8.99106 133.679 8.94497 134.45 8.88066 135.801C8.77665 137.986 8.91022 139.242 9.31012 141.386C9.56795 142.769 9.73931 143.574 10.3841 144.823C10.8002 145.63 10.853 146.368 11.673 146.757C11.9856 146.905 12.1863 146.971 12.5322 146.971C12.5322 146.971 11.5852 144.128 11.2436 142.246C10.9724 140.751 10.7179 139.895 10.814 138.379C10.9067 136.917 11.1156 136.082 11.673 134.727C12.3634 133.049 14.2509 130.861 14.2509 130.861L10.3841 129.357C10.3841 129.357 9.60428 131.153 9.31012 132.365Z" fill="#D6D6D6"/>
<path d="M26.9955 61.6607C26.9523 61.3464 27.221 61.0822 27.537 61.1108C29.1603 61.2576 30.4341 61.2243 32.2946 61.0488C36.1035 60.6895 38.182 59.8619 41.746 58.4712C43.46 57.8023 44.4025 57.3724 46.0422 56.5379C49.1328 54.965 50.7769 53.8806 53.5604 51.8122C56.2163 49.8385 57.9285 48.8836 59.9604 46.3426C60.1117 46.1534 60.3782 46.0923 60.5854 46.2179C63.2297 47.8201 63.2819 50.581 64.5155 52.6714C64.5155 52.6714 59.4393 54.5547 56.5676 57.1823C53.4578 60.0279 51.3089 61.0866 47.331 62.7673C43.5858 64.3496 40.839 65.0488 36.8055 65.5597C33.2944 66.0045 29.5021 68.1374 29.5021 68.1374C28.1626 65.5635 27.3238 64.0459 26.9955 61.6607Z" fill="url(#paint0_linear_201_1982)"/>
<path d="M95.2328 158.141C95.4048 157.149 95.2328 155.564 95.2328 155.564L110.269 159.43L109.195 163.082C109.195 163.082 114.823 169.141 115.639 174.037C116.069 176.615 114.844 182.414 111.128 182.414C104.47 182.414 101.834 179.402 98.0252 174.896C94.6261 170.875 91.4368 167.504 92.8699 162.437C93.391 160.595 94.9055 160.028 95.2328 158.141Z" fill="#C0C0C0"/>
<path d="M109.195 163.081L110.269 159.43H104.899C104.899 159.43 103.871 161.36 104.04 162.652C104.258 164.315 105.249 165.119 106.617 166.089C108.047 167.101 109.475 166.379 110.914 167.377C112.237 168.296 112.56 169.284 113.491 170.599C114.406 171.891 115.639 174.036 115.639 174.036C114.823 169.14 109.195 163.081 109.195 163.081Z" fill="#9C9C9C"/>
<path d="M95.2328 158.141C94.9055 160.028 93.391 160.595 92.8699 162.437C91.4368 167.504 94.6261 170.875 98.0252 174.896C101.834 179.402 104.47 182.414 111.128 182.414C111.128 182.414 106.501 181.293 104.04 179.622C101.337 177.786 100.187 176.163 98.455 173.392C97.3215 171.579 96.5304 170.545 96.0921 168.452C95.714 166.646 95.5005 165.474 96.0921 163.726C96.5397 162.404 97.468 161.999 98.0252 160.719C98.545 159.525 98.8846 157.497 98.8846 157.497L95.2328 155.564C95.2328 155.564 95.4048 157.149 95.2328 158.141Z" fill="#D6D6D6"/>
<path d="M27.2252 62.982C28.5133 63.4116 31.3246 63.6086 33.4125 63.4116C37.2214 63.0523 39.4707 62.4395 43.0348 61.0487C44.7487 60.3799 45.6913 59.9499 47.3309 59.1155C50.4216 57.5425 52.4952 56.2433 55.2787 54.1749C58.0467 52.118 61.2498 49.8788 62.3246 47.7307C62.7542 48.1603 63.2161 49.423 63.7001 51.1676C63.7001 51.1676 60.5571 56.4879 57.6855 59.1155C54.5756 61.961 52.4267 63.0198 48.4489 64.7004C44.7037 66.2828 41.9568 66.982 37.9234 67.4929C34.4122 67.9377 28.9015 66.6337 28.9015 66.6337C28.4711 66.6337 27.4392 64.2708 27.2252 62.982Z" fill="url(#paint1_linear_201_1982)"/>
<path d="M112.417 43.6496C112.417 43.6496 113.893 43.5243 114.78 43.22C115.774 42.879 116.296 42.5535 117.143 41.9312C118.099 41.2287 118.445 40.615 119.291 39.7831C121.83 37.2862 125.95 33.5538 125.95 33.5538C125.95 33.5538 126.748 33.1975 127.239 33.339C127.642 33.4553 127.833 33.6579 128.098 33.9834C128.334 34.2745 128.453 34.4748 128.528 34.8426C128.628 35.3428 128.433 35.6357 128.313 36.1314C127.768 38.3695 125.091 40.9755 125.52 41.2867L125.95 41.5016C126.379 41.5016 128.437 39.4536 130.246 38.4943C131.142 38.0195 131.627 37.6721 132.609 37.4203C133.506 37.1901 134.192 36.7052 134.972 37.2055C135.481 37.5321 135.672 37.9107 135.831 38.4943C135.963 38.9799 135.889 39.2832 135.831 39.7831C135.51 42.5531 130.224 43.8644 130.676 44.7236C130.816 44.9914 130.835 45.2328 131.105 45.3681C131.535 45.5828 133.219 45.3946 134.542 45.1533C136.291 44.8343 137.067 43.797 138.838 43.6496C139.423 43.6009 139.786 43.4607 140.342 43.6496C140.962 43.8604 141.497 44.0823 141.631 44.7236C141.739 45.243 141.449 45.5436 141.201 46.0125C140.757 46.8513 140.232 47.1482 139.483 47.7309C138.298 48.6522 137.436 48.8845 136.046 49.4494C134.028 50.2691 132.583 49.9027 130.676 50.953C129.779 51.4468 128.528 51.4327 128.528 52.4566C128.528 53.9603 132.816 54.6092 133.253 57.1824C133.38 57.9267 133.694 58.5029 133.253 59.1156C132.834 59.6972 132.242 59.643 131.535 59.76C129.781 60.0502 128.946 58.7508 127.239 58.2564C125.421 57.73 124.395 57.3858 122.513 57.1824C120.762 56.993 118.002 57.1824 118.002 57.1824L117.358 46.8717L112.417 43.6496Z" fill="#C0C0C0"/>
<path d="M138.838 43.6496C137.066 43.7969 136.29 44.8342 134.542 45.1532C134.112 45.368 134.111 45.369 133.897 45.5828L133.897 45.5828C133.683 45.7967 133.408 45.9307 133.468 46.2273C133.527 46.5239 133.827 46.5552 134.112 46.6569C134.764 46.8896 135.184 46.4746 135.831 46.2273C136.356 46.0261 136.583 45.7529 137.119 45.5828C137.606 45.4286 137.903 45.4431 138.408 45.368C139.077 45.2686 139.465 45.2911 140.127 45.1532C140.725 45.0288 141.764 45.365 141.63 44.7236C141.497 44.0822 140.962 43.8604 140.341 43.6496C139.785 43.4606 139.423 43.6009 138.838 43.6496Z" fill="#D6D6D6"/>
<path d="M130.246 38.4944C128.527 39.5684 127.453 40.4276 127.453 40.4276C127.453 40.4276 126.979 40.8241 127.238 41.2868C127.577 41.8902 128.297 41.9215 128.957 41.7165C129.472 41.4883 129.736 41.3098 130.246 41.072C130.825 40.8022 131.201 40.7537 131.75 40.4276C132.517 39.9724 132.714 39.3993 133.468 38.924C133.944 38.624 134.446 38.7485 134.757 38.2795C134.994 37.9231 135.752 37.7058 134.972 37.2055C134.192 36.7052 133.507 37.1902 132.609 37.4203C131.627 37.6721 131.106 37.9573 130.246 38.4944Z" fill="#D6D6D6"/>
<path d="M114.78 43.22C113.893 43.5243 113.213 43.153 112.417 43.6496C110.463 44.8695 115.086 47.2519 117.358 46.8717C118.621 46.6604 118.985 45.6846 120.15 45.1533C120.802 44.8558 121.289 44.9307 121.869 44.5088C122.398 44.1232 122.725 43.8379 122.943 43.22C123.288 42.2415 122.14 41.6678 122.298 40.6423C122.491 39.3988 123.484 39.0771 124.231 38.0647C124.909 37.1466 125.159 36.5237 125.95 35.7018C126.695 34.928 128.362 34.3089 128.098 33.9834C127.833 33.6579 127.642 33.4553 127.239 33.339C126.748 33.1975 125.95 33.5538 125.95 33.5538C125.95 33.5538 121.83 37.2862 119.291 39.7831C118.445 40.615 118.099 41.2288 117.143 41.9312C116.296 42.5536 115.774 42.879 114.78 43.22Z" fill="#D6D6D6"/>
<path d="M70.0523 183.405C70.7909 182.365 72.0169 180.795 72.0169 180.795L79.8753 182.1L84.922 180.266L88.3886 172.748C88.3886 172.748 89.2255 174.855 89.6983 176.228C90.1622 177.574 90.5727 178.3 90.7898 179.708C91.222 182.51 90.652 184.214 89.6983 186.885C88.2866 190.839 86.3166 192.588 83.3679 195.585C80.515 198.484 75.0729 201.892 75.0729 201.892C75.0729 201.892 69.1302 204.747 66.3414 202.762C64.8406 201.694 64.2588 200.605 63.7219 198.847C62.8067 195.851 64.3275 193.936 65.4682 191.018C66.7307 187.787 68.0424 186.235 70.0523 183.405Z" fill="#C0C0C0"/>
<path d="M89.6982 176.228C89.2253 174.855 88.3884 172.748 88.3884 172.748C88.3884 172.748 83.7779 177.242 84.9218 180.266C85.5308 181.876 87.3409 181.87 87.9292 183.488C88.8272 185.957 87.2265 187.611 85.996 189.932C85.0137 191.785 84.1778 192.67 82.7739 194.228C81.1836 195.993 80.4668 196.764 78.9074 198.31C77.4517 199.752 75.0728 201.892 75.0728 201.892C75.0728 201.892 80.5149 198.484 83.3678 195.585C86.3164 192.588 88.2864 190.839 89.6982 186.885C90.6518 184.214 91.2219 182.51 90.7896 179.708C90.5725 178.3 90.162 177.574 89.6982 176.228Z" fill="#9C9C9C"/>
<path d="M70.0526 183.405C68.0428 186.235 66.7311 187.787 65.4686 191.018C64.3279 193.937 62.8083 195.851 63.7222 198.848C64.2589 200.607 65.1599 202.176 66.3417 202.763C66.2352 202.089 66.0182 202.444 65.8046 201.102C65.5911 199.761 65.2988 198.48 65.4686 196.806C65.6734 194.785 66.2387 193.708 67.0935 191.866C68.0098 189.89 68.4784 188.644 70.0526 187.14C70.7511 186.472 71.221 186.183 72.0172 185.636C74.7908 183.73 80.409 184.775 79.8756 182.1C79.2672 179.049 72.0172 180.795 72.0172 180.795C72.0172 180.795 70.7912 182.365 70.0526 183.405Z" fill="#D6D6D6"/>
<path d="M27.8451 65.0576C33.2152 65.0576 34.615 65.1079 38.7386 64.2709C42.8982 63.4265 45.23 62.6854 49.0493 60.834C52.5461 59.1388 54.4681 57.9833 57.4267 55.4638C59.9573 53.3088 61.9376 51.1677 63.2265 49.2345C64.0857 50.3085 64.043 50.7989 64.9449 51.3825C65.2599 51.5863 65.4476 51.6955 65.8041 51.8121C67.3439 52.316 68.0981 50.6982 69.6706 50.3085C71.6316 49.8225 72.8114 50.0304 74.826 49.8789C79.183 49.5511 81.6381 49.5534 85.9958 49.2345C89.8589 48.9517 92.0584 49.025 95.8769 48.3752C102.024 47.3293 104.901 43.9614 111.128 43.6495C112.385 43.5866 113.122 43.3764 114.35 43.6495C117.077 44.2559 118.064 46.1256 119.72 48.3752C120.899 49.9767 121.766 50.9229 122.083 52.8862C122.453 55.1767 122.341 56.956 120.794 58.6859C119.059 60.6278 116.757 59.409 114.35 60.4044C111.638 61.5259 110.716 63.4235 107.906 64.2709C106.043 64.8326 104.849 64.4289 102.965 64.9153C99.5871 65.7875 98.2597 67.7068 95.0177 68.9966C92.7253 69.9086 91.4282 70.4757 89.0031 70.9298C87.2638 71.2556 86.2584 71.2495 84.4922 71.3594C81.1432 71.5679 80.8404 70.5002 76.7592 71.3594C76.7592 72.4335 76.7823 72.8221 77.4036 73.7223C78.7581 75.6847 79.804 76.5675 81.2701 78.448C86.5634 85.2373 87.2363 90.8095 93.2992 96.9213C94.0461 97.6742 94.666 97.9218 95.2593 98.8009C96.0814 100.019 95.5964 101.144 96.3602 102.399C97.6115 104.455 99.2987 104.782 101.422 105.916C102.996 106.758 104.1 106.786 105.624 107.715C107.444 108.826 108.213 109.816 109.732 111.313C110.989 112.553 111.54 113.397 112.793 114.643C114.553 116.393 116.063 116.861 117.572 118.831C118.896 120.559 119.519 121.689 120.15 123.772C120.666 125.475 120.889 126.506 120.794 128.283C120.683 130.377 119.87 131.423 119.291 133.438C117.992 137.957 117.669 140.617 116.069 145.038C114.471 149.451 112.471 151.496 111.128 155.993C110.487 158.138 111.415 159.988 109.839 161.578C108.419 163.01 106.915 163.044 104.899 163.081C102.905 163.118 101.739 162.69 99.9582 161.793C98.7216 161.169 98.0016 160.766 97.0583 159.752C95.9205 158.529 94.3575 157.651 94.1585 155.993C93.5141 150.623 94.4882 148.776 95.6621 144.393C96.2426 142.226 97.6046 141.265 97.7028 139.023C97.7816 137.223 97.52 136.134 96.7361 134.512C92.6548 132.149 90.2919 132.149 82.559 130.646C82.1293 130.646 80.8405 130.646 79.9812 134.727C79.5516 137.52 80.3154 140.259 81.2701 143.964C82.1536 147.392 82.402 149.38 83.4182 152.771C84.7822 157.323 86.1194 159.679 87.7143 164.156C88.4889 166.33 89.3254 167.455 89.6475 169.74C89.8817 171.402 89.9234 172.382 89.6475 174.037C89.1541 176.997 88.449 178.841 86.6403 181.34C85.7005 182.638 85.2712 183.611 83.8478 184.347C82.2762 185.161 81.1061 184.74 79.3369 184.777C77.6574 184.811 76.6911 184.875 75.0408 184.562C73.6593 184.3 72.7646 184.282 71.6039 183.488C70.5223 182.748 70.2325 181.966 69.4558 180.91C67.0316 177.616 66.1231 175.301 64.5153 171.459C62.4557 166.537 61.8051 163.564 60.6488 158.356C60.1674 156.188 60.0552 154.939 59.5748 152.771C58.6326 148.518 59.0594 147.585 56.9971 143.749C55.8012 141.524 53.7953 139.093 52.8084 136.768C51.8569 134.526 52.2722 132.831 51.1973 130.646C49.8093 127.824 49.9085 130.646 46.6864 124.202C43.7968 118.422 40.2418 116.039 38.5238 109.81C38.2262 108.731 38.1106 108.112 37.8794 107.017C37.5972 105.681 37.5002 104.92 37.235 103.58C36.4998 99.8672 36.1609 95.6325 35.0869 94.1288C34.6698 94.0849 34.4318 94.1076 34.0129 94.1288C30.5759 94.3035 33.4256 106.992 30.1464 114.321C29.5335 115.69 28.8296 116.312 28.4279 117.757C27.8666 119.778 28.8692 121.077 28.4279 123.128C27.9385 125.402 27.385 126.75 25.8503 128.498C24.4992 130.037 23.5011 130.87 21.5542 131.505C19.4806 132.181 18.1401 131.716 15.9692 131.505C14.1022 131.324 12.8645 131.59 11.2435 130.646C9.85849 129.839 9.06439 129.119 8.45101 127.639C7.7768 126.011 8.6406 124.879 8.45101 123.128C8.27572 121.508 7.85041 120.654 7.59179 119.046C7.36379 117.629 6.9678 116.817 7.16218 115.395C7.30582 114.343 7.77388 113.849 8.0214 112.817C8.39526 111.258 8.41618 110.338 8.45101 108.736C8.49492 106.716 7.92162 105.598 8.0214 103.58C8.0841 102.312 8.28702 101.617 8.45101 100.358C8.89862 96.9224 8.55246 94.8767 9.52504 91.5512C9.87509 90.3542 10.0612 89.669 10.5991 88.5439C11.1514 87.3886 11.607 86.8167 12.3175 85.7514C13.1833 84.4533 13.8261 83.8351 14.6804 82.5293C16.5289 79.7039 16.7614 77.662 18.5469 74.7963C19.4082 73.4139 19.8502 72.5965 20.9097 71.3594C22.7336 69.2301 23.7729 67.5211 26.4947 66.8485C26.99 66.7261 27.4074 66.9786 27.7835 66.6337C28.2207 66.2328 27.6843 65.6286 27.8451 65.0576Z" fill="url(#paint2_linear_201_1982)"/>
<path d="M95.2606 98.8009C94.6673 97.9219 94.0474 97.6743 93.3005 96.9214C87.2375 90.8096 86.5646 85.2374 81.2713 78.4481C79.8052 76.5676 78.7593 75.6848 77.4048 73.7224C76.7835 72.8222 76.7604 71.3595 76.7604 71.3595C76.7604 71.3595 74.6098 70.9 73.5377 70.0706C71.1398 68.2158 72.0335 62.5524 71.6044 62.5525C67.0366 62.5529 72.2778 69.6603 73.1087 74.152C73.6085 76.854 73.8106 78.3974 74.6123 81.0258C76.0465 85.7277 77.3023 88.2896 79.9825 92.4105C83.0591 97.1409 84.7144 100.413 89.6487 103.151C93.7788 105.442 103.546 107.051 101.423 105.916C99.3 104.782 97.6127 104.455 96.3615 102.399C95.5976 101.144 96.0826 100.019 95.2606 98.8009Z" fill="url(#paint3_linear_201_1982)"/>
<path d="M76.7592 71.3595C80.8404 70.5003 81.1432 71.568 84.4922 71.3595C87.8412 71.151 80.8509 70.5087 78.9072 69.2114C77.4756 68.2559 76.8285 67.4907 75.6851 66.2041C74.4479 64.8119 71.6038 62.5525 71.6038 62.5525C71.6038 62.5525 71.5158 64.9572 71.8189 66.2041C72.17 67.6486 72.0178 68.7647 73.1077 69.8558C74.143 70.8923 76.7592 71.3595 76.7592 71.3595Z" fill="url(#paint4_linear_201_1982)"/>
<path d="M82.5593 130.646C90.2923 132.15 92.6551 132.15 96.7365 134.512C97.5203 136.135 97.782 137.224 97.7031 139.023C97.6049 141.265 96.2429 142.226 95.6625 144.394C94.4886 148.776 93.5144 150.623 94.1588 155.993C94.3578 157.651 95.9209 158.529 97.0587 159.752C98.1965 160.975 98.6429 158.877 98.6697 157.926C98.6975 156.944 97.5451 156.847 97.0587 155.993C96.0516 154.225 96.1674 152.867 96.3069 150.838C96.4907 148.164 97.8185 146.935 98.6697 144.394C99.698 141.323 101.574 139.638 101.033 136.446C100.592 133.85 99.5836 132.372 97.5957 130.646C95.132 128.507 92.9089 127.954 89.6479 128.068C86.7041 128.172 83.2033 129.142 82.5593 130.646Z" fill="#B26F34"/>
<path d="M50.1108 80.5963L50.97 79.9519C50.97 79.9519 51.2677 83.3557 51.1848 85.5368C51.1014 87.7308 51.1627 89.0163 50.5404 91.1218C49.7204 93.8957 48.0276 94.907 46.8887 97.5659C46.1888 99.1999 45.385 101.862 45.385 101.862C45.385 101.862 44.0407 96.1926 44.7406 94.5587C45.8796 91.8997 47.5724 90.8884 48.3923 88.1145C49.0147 86.009 48.9533 84.7235 49.0367 82.5296C50.1108 80.5963 50.1108 80.5963 50.1108 80.5963Z" fill="#D18643"/>
<path d="M27.7835 66.6337C27.4074 66.9786 26.9901 66.7261 26.4947 66.8485C23.7729 67.5212 22.7336 69.2301 20.9097 71.3595C19.8502 72.5965 19.4082 73.4139 18.5469 74.7964C16.7614 77.662 16.5289 79.704 14.6804 82.5294C13.8261 83.8351 13.1833 84.4533 12.3175 85.7514C11.607 86.8167 11.1514 87.3887 10.5991 88.5439C10.0612 89.669 9.87509 90.3543 9.52504 91.5512C8.55246 94.8767 8.89862 96.9224 8.45101 100.358C8.28702 101.617 8.0841 102.312 8.0214 103.58C7.92162 105.598 8.49492 106.716 8.45101 108.736C8.41618 110.338 8.39526 111.259 8.0214 112.817C7.77388 113.849 7.30582 114.343 7.16218 115.395C6.9678 116.817 7.36379 117.629 7.59179 119.046C7.85041 120.654 8.27572 121.508 8.45101 123.128C8.6406 124.879 7.7768 126.011 8.45101 127.639C9.06439 129.119 9.85849 129.839 11.2435 130.646C12.8645 131.59 14.1022 131.324 15.9692 131.505C17.8362 131.686 16.2759 122.957 17.0432 117.543C18.0084 110.732 19.035 106.977 20.9097 100.358C22.7461 93.8751 23.9028 90.2527 26.4947 84.033C29.4242 77.0033 42.332 69.5617 35.3017 66.6337H27.7835Z" fill="#E5A064"/>
<path d="M75.0409 184.562C76.6912 184.875 79.337 184.777 79.337 184.777C83.6099 183.311 76.6173 178.27 75.0409 174.036C73.6151 170.208 72.7796 168.068 71.604 164.155C70.6554 160.999 70.9657 158.923 69.4559 155.993C68.2494 153.651 66.6094 152.949 65.3746 150.623C63.2075 146.539 63.4386 143.626 63.0117 139.023C62.6477 135.097 63.0117 132.87 63.0117 128.927C63.0117 125.823 63.2799 124.072 63.0117 120.979C62.7841 118.355 63.6774 116.298 61.9377 114.32C60.5482 112.741 59.0978 98.8021 56.9972 98.6856C54.5856 98.5518 53.1418 99.4008 51.1974 100.834C47.7826 103.35 43.4644 117.757 46.6865 124.202C49.9086 130.646 49.8094 127.824 51.1974 130.646C52.2723 132.831 51.857 134.526 52.8085 136.768C53.7954 139.093 55.8013 141.524 56.9972 143.749C59.0595 147.585 58.6327 148.518 59.5749 152.771C60.0553 154.939 60.1675 156.187 60.6489 158.356L60.6824 158.507C61.818 163.622 62.4757 166.585 64.5154 171.459C66.1232 175.301 66.9557 177.579 69.4559 180.91C70.2425 181.958 70.5224 182.748 71.604 183.488C72.7647 184.282 73.6594 184.3 75.0409 184.562Z" fill="#E5A064"/>
<path d="M52.2209 65.7855L52.952 65.3339C52.952 65.3339 56.8051 70.2325 58.9686 73.581C63.0079 79.8326 63.9686 84.0747 67.5619 90.5929C69.5069 94.1211 70.7783 95.9972 72.7178 99.5284C75.5641 104.711 77.903 107.352 79.5918 113.018C81.1087 118.107 81.3105 126.508 81.3105 126.508L80.5795 126.959C80.5795 126.959 80.3777 118.559 78.8608 113.47C77.1719 107.803 74.833 105.162 71.9868 99.9799C70.0473 96.4487 68.7759 94.5726 66.8309 91.0444C63.2376 84.5262 62.2769 80.2842 58.2376 74.0325C56.0741 70.684 52.2209 65.7855 52.2209 65.7855Z" fill="url(#paint5_linear_201_1982)"/>
<path d="M64.5154 51.1678C64.5154 51.1678 65.1631 51.5771 65.5895 51.7263C66.4487 52.027 66.415 51.8972 66.8783 51.8121C67.7375 51.5974 68.1174 50.8851 69.0263 50.5233C69.5937 50.2974 69.9322 50.2187 70.53 50.0937C71.6006 49.8697 72.231 49.9493 73.3225 49.8789C75.3333 49.7492 76.4648 49.7543 78.4778 49.6641C80.2397 49.5851 81.2281 49.551 82.9887 49.4492C85.3396 49.3134 86.6532 49.1691 89.0033 49.0196C90.429 48.929 92.655 48.8048 92.655 48.8048C93.0457 49.2098 93.1303 49.5569 93.2994 50.0937C93.9782 52.248 92.7663 53.8846 91.1514 55.4638C89.3302 57.2446 87.4524 57.1056 84.922 57.397C81.6453 57.7744 79.8257 56.6594 76.5446 56.323C70.6102 55.7147 61.2933 55.4638 61.2933 55.4638L63.2266 53.3157L64.5154 51.1678Z" fill="#E49046"/>
<path d="M27.9986 66.2043C27.9986 66.2043 41.2232 66.9327 48.9415 63.8414C56.3706 60.8659 64.6437 51.1679 64.6437 51.1679C64.8357 51.3189 64.9485 51.3972 65.1593 51.5245C65.1593 51.5245 56.7855 61.3797 49.4791 64.4858C41.5589 67.8528 27.7833 66.6339 27.7833 66.6339C27.9363 66.4914 27.9678 66.3945 27.9986 66.2043Z" fill="url(#paint6_linear_201_1982)"/>
<path d="M27.9986 66.2043C27.9986 66.2043 41.2232 66.9327 48.9415 63.8414C56.3706 60.8659 64.6437 51.1679 64.6437 51.1679C64.8357 51.3189 64.9485 51.3972 65.1593 51.5245C65.1593 51.5245 56.7855 61.3797 49.4791 64.4858C41.5589 67.8528 27.7833 66.6339 27.7833 66.6339C27.9363 66.4914 27.9678 66.3945 27.9986 66.2043Z" fill="url(#paint7_linear_201_1982)"/>
<path d="M33.3689 79.9519H33.7985C33.7985 79.9519 35.6741 84.5726 35.7318 87.6849C35.7789 90.2259 34.6577 94.1033 34.6577 94.1033C34.2414 94.1173 34.411 94.1162 34.2281 94.1162C34.2281 94.1162 35.3833 90.098 35.3022 87.4701C35.2085 84.44 33.3689 79.9519 33.3689 79.9519Z" fill="url(#paint8_linear_201_1982)"/>
<path d="M0.92766 25.4333C1.52431 22.6212 2.21716 21.0768 3.68445 18.5595C5.06701 16.1875 6.11471 14.9808 8.04937 12.9745C10.7801 10.1427 12.6242 8.7543 16.09 6.74517C19.4346 4.80632 21.533 4.00512 25.2793 2.87867C29.3664 1.64974 31.7869 1.10572 36.0767 0.945419C39.4938 0.817728 41.4523 0.966649 44.8066 1.58984C46.8132 1.96264 47.9747 2.13729 49.8607 2.87867C51.6764 3.59245 52.6539 4.13152 54.2256 5.24153C58.2372 8.07467 59.3346 10.9155 61.577 15.1226C62.7438 17.3115 63.2591 18.6078 64.1041 20.9223C64.976 23.3106 65.5159 24.6598 65.942 27.1517C66.5509 30.7136 66.9469 32.9057 65.942 36.3883C65.1267 39.2138 64.0739 40.6583 62.2662 43.0473C60.6525 45.1802 59.5732 46.2983 57.4419 47.9879C54.8012 50.0811 52.9059 50.7442 49.8607 52.284C46.1182 54.1763 44.0322 55.3612 39.9822 56.5801C34.1242 58.343 30.3657 59.77 24.3604 58.5133C21.222 57.8566 19.504 57.1034 16.7792 55.5061C14.6185 54.2394 13.5552 53.3002 11.7251 51.6395C7.8482 48.1217 5.86487 45.7357 3.68445 41.1141C1.00566 35.4361 -0.363899 31.5206 0.92766 25.4333Z" fill="url(#paint9_linear_201_1982)"/>
<path d="M4.76203 38.3214L15.2873 55.5059C15.2873 55.5059 12.1199 55.6627 10.3468 54.8614C8.34607 53.9573 7.55335 52.7731 6.26549 50.9949C5.01096 49.2628 4.43619 48.1255 3.90262 46.0544C3.21199 43.3737 4.76203 38.3214 4.76203 38.3214Z" fill="#B7B6B2"/>
<path d="M59.5751 16.5842C59.5751 16.5842 63.9475 18.1144 65.1227 18.9892C66.1231 19.7337 66.5798 20.3139 67.2707 21.352C68.3588 22.9868 68.7026 24.135 68.9892 26.0777C69.1973 27.4885 69.1973 28.3186 68.9892 29.7294C68.7026 31.6721 65.1227 37.6352 65.1227 37.6352L59.5751 16.5842Z" fill="#B7B7C3"/>
<g filter="url(#filter0_f_201_1982)">
<path d="M63.8341 20.953L64.7884 20.2779C64.7884 20.2779 65.7226 21.757 66.2198 22.7533C66.8977 24.112 67.2081 24.9114 67.6511 26.3538C67.8649 27.0499 68.2367 27.4367 68.1283 28.1541C68.0223 28.8555 67.174 29.7294 67.174 29.7294C67.174 29.7294 66.6892 27.5089 66.2198 26.1288C65.5059 24.0301 63.8341 20.953 63.8341 20.953Z" fill="#62635E" fill-opacity="0.5"/>
</g>
<path d="M4.33249 28.8701C4.89038 26.058 5.53821 24.5137 6.91016 21.9963C8.20289 19.6244 9.18251 18.4176 10.9915 16.4114C13.5448 13.5796 15.269 12.1911 18.5097 10.182C21.637 8.24316 23.599 7.44196 27.1019 6.31551C30.9235 5.08658 33.1866 4.54257 37.1978 4.38226C40.3928 4.25457 42.2241 4.40349 45.3604 5.02668C47.2366 5.39949 48.3227 5.57413 50.0861 6.31551C51.7838 7.02929 52.6978 7.56837 54.1674 8.67837C57.9183 11.5115 58.9444 14.3523 61.0412 18.5594C62.1321 20.7483 62.614 22.0446 63.404 24.3592C64.2193 26.7475 64.7241 28.0966 65.1225 30.5885C65.6919 34.1505 66.0621 36.3426 65.1225 39.8252C64.3602 42.6506 63.3758 44.0952 61.6856 46.4842C60.1767 48.617 59.1675 49.7352 57.1747 51.4247C54.7056 53.5179 52.9334 54.181 50.0861 55.7208C46.5868 57.6132 44.6363 58.7981 40.8494 60.0169C35.3721 61.7799 31.8578 63.2069 26.2427 61.9502C23.3082 61.2934 21.7018 60.5402 19.1541 58.9429C17.1338 57.6762 16.1395 56.737 14.4284 55.0764C10.8034 51.5585 8.94891 49.1726 6.91016 44.5509C4.40542 38.8729 3.12485 34.9574 4.33249 28.8701Z" fill="url(#paint10_linear_201_1982)"/>
<path d="M12.4954 32.7366C14.4285 29.5146 15.1896 28.4099 17.4359 26.0777C20.0083 23.4069 21.7795 22.1943 24.9541 20.2779C28.0388 18.4157 29.9452 17.6428 33.3315 16.4114C38.0571 14.693 40.42 14.2633 44.2866 14.2634C47.019 14.2634 48.85 15.964 50.516 18.1298C52.6639 20.9223 53.1503 21.5621 54.8121 24.7888C56.1387 27.3647 57.6045 31.6626 57.6045 31.6626C57.6045 31.6626 58.6134 35.3138 57.6045 37.2475C55.0269 42.1881 50.4525 46.142 44.2866 49.7063C37.8519 53.4259 35.9091 54.8616 26.0281 54.432C21.3023 53.358 14.0784 46.3963 12.4954 38.1068C12.1635 36.3686 11.5849 34.254 12.4954 32.7366Z" fill="url(#paint11_linear_201_1982)"/>
<path d="M21.7318 22.2114C24.8435 19.8922 26.9724 18.801 30.5388 17.2709C34.0019 15.7851 36.0356 14.9408 39.7755 14.4784C41.1101 14.3133 43.2124 14.2636 43.2124 14.2636C43.2124 14.2636 35.2217 22.6281 32.4721 29.2999C29.4389 36.6599 29.6796 49.4917 29.6796 49.4917L20.6578 50.3509C20.6578 50.3509 12.6663 36.6336 13.9989 31.0184C14.4284 29.2086 15.6458 27.8224 17.2209 26.0779C18.7697 24.3623 19.8786 23.5925 21.7318 22.2114Z" fill="url(#paint12_linear_201_1982)"/>
<path fill-rule="evenodd" clip-rule="evenodd" d="M16.7788 25.7228C14.4487 28.1546 13.6591 29.3065 11.6541 32.6661C10.8142 34.0732 11.196 35.9726 11.5329 37.6506C11.5748 37.8595 11.6159 38.065 11.6541 38.2656C13.2962 46.9091 20.7896 54.1681 25.692 55.2879C35.4539 55.7146 37.7463 54.3769 43.7092 50.8979L44.6318 50.3604C51.0277 46.644 55.7728 42.5212 58.4465 37.3697C59.4933 35.3534 58.4465 31.5462 58.4465 31.5462C58.4465 31.5462 56.9261 27.0648 55.55 24.3789C53.8261 21.0144 53.3218 20.3473 51.0936 17.4356C49.3655 15.1772 47.4662 13.404 44.6318 13.404C40.6206 13.404 38.1696 13.8519 33.2677 15.6437C29.7553 16.9277 27.7775 17.7336 24.5777 19.6753C21.2847 21.6736 19.4475 22.938 16.7788 25.7228ZM17.4354 26.0775C15.1892 28.4097 14.4281 29.5144 12.4949 32.7364C11.6856 34.0856 12.0531 35.9068 12.3778 37.5157C12.4181 37.7164 12.458 37.9139 12.4949 38.1066C14.0782 46.3961 21.3019 53.3579 26.0276 54.4318C35.4384 54.8411 37.6489 53.5581 43.3971 50.2216C43.6841 50.0549 43.9798 49.8831 44.2861 49.7061C50.4521 46.1419 55.0264 42.1879 57.6041 37.2474C58.6131 35.3137 57.6041 31.6624 57.6041 31.6624C57.6041 31.6624 56.1382 27.3646 54.8116 24.7886C53.1498 21.5619 52.6635 20.9222 50.5155 18.1296C48.8495 15.9638 47.0186 14.2632 44.2861 14.2632C40.4196 14.2632 38.0567 14.6928 33.331 16.4112C29.9449 17.6426 28.0385 18.4155 24.9536 20.2777C21.7793 22.1941 20.008 23.4068 17.4354 26.0775Z" fill="url(#paint13_linear_201_1982)"/>
<path d="M109.598 134.956C111.405 133.253 113.424 129.787 113.424 129.787C113.424 129.787 112.999 131.131 112.659 131.963C111.874 133.885 111.165 134.781 109.598 136.045C108.037 137.304 105.261 137.949 105.261 137.949C105.261 137.949 108.086 136.381 109.598 134.956Z" fill="#AC7341"/>
<defs>
<filter id="filter0_f_201_1982" x="59.8341" y="16.2779" width="12.3136" height="17.4515" filterUnits="userSpaceOnUse" color-interpolation-filters="sRGB">
<feFlood flood-opacity="0" result="BackgroundImageFix"/>
<feBlend mode="normal" in="SourceGraphic" in2="BackgroundImageFix" result="shape"/>
<feGaussianBlur stdDeviation="2" result="effect1_foregroundBlur_201_1982"/>
</filter>
<linearGradient id="paint0_linear_201_1982" x1="55.9232" y1="48.5901" x2="26.9244" y2="64.4857" gradientUnits="userSpaceOnUse">
<stop stop-color="#778186"/>
<stop offset="1" stop-color="#474B4C"/>
</linearGradient>
<linearGradient id="paint1_linear_201_1982" x1="56.3528" y1="49.8788" x2="28.428" y2="64.9152" gradientUnits="userSpaceOnUse">
<stop stop-color="#C1C1C1"/>
<stop offset="1" stop-color="#929292"/>
</linearGradient>
<linearGradient id="paint2_linear_201_1982" x1="85.3514" y1="48.8048" x2="59.1451" y2="189.073" gradientUnits="userSpaceOnUse">
<stop stop-color="#D4853F"/>
<stop offset="1" stop-color="#D79962"/>
</linearGradient>
<linearGradient id="paint3_linear_201_1982" x1="85.3516" y1="48.8048" x2="59.1454" y2="189.073" gradientUnits="userSpaceOnUse">
<stop stop-color="#A25D21"/>
<stop offset="1" stop-color="#D79962"/>
</linearGradient>
<linearGradient id="paint4_linear_201_1982" x1="85.3517" y1="48.8049" x2="59.1454" y2="189.073" gradientUnits="userSpaceOnUse">
<stop stop-color="#995316"/>
<stop offset="1" stop-color="#D79962"/>
</linearGradient>
<linearGradient id="paint5_linear_201_1982" x1="64.3005" y1="90.907" x2="68.167" y2="88.9737" gradientUnits="userSpaceOnUse">
<stop stop-color="#6A4222"/>
<stop offset="1" stop-color="#D58947"/>
</linearGradient>
<linearGradient id="paint6_linear_201_1982" x1="42.8201" y1="62.3378" x2="44.109" y2="66.4191" gradientUnits="userSpaceOnUse">
<stop stop-color="#D48845"/>
<stop offset="1" stop-color="#4E3219"/>
</linearGradient>
<linearGradient id="paint7_linear_201_1982" x1="61.9378" y1="53.1011" x2="64.7303" y2="52.8863" gradientUnits="userSpaceOnUse">
<stop stop-color="#D48641" stop-opacity="0"/>
<stop offset="1" stop-color="#4E3219"/>
</linearGradient>
<linearGradient id="paint8_linear_201_1982" x1="33.5837" y1="80.5963" x2="35.0188" y2="94.1592" gradientUnits="userSpaceOnUse">
<stop stop-color="#D58A49"/>
<stop offset="1" stop-color="#281709"/>
</linearGradient>
<linearGradient id="paint9_linear_201_1982" x1="3.01383" y1="21.9543" x2="53.9228" y2="30.117" gradientUnits="userSpaceOnUse">
<stop stop-color="#9F9F9F"/>
<stop offset="1" stop-color="#787877"/>
</linearGradient>
<linearGradient id="paint10_linear_201_1982" x1="3.87292" y1="29.6873" x2="43.1824" y2="30.7613" gradientUnits="userSpaceOnUse">
<stop stop-color="#CBCBCB"/>
<stop offset="1" stop-color="#828380"/>
</linearGradient>
<linearGradient id="paint11_linear_201_1982" x1="13.3545" y1="34.8847" x2="57.1748" y2="35.9587" gradientUnits="userSpaceOnUse">
<stop stop-color="#1B0A5D"/>
<stop offset="0.390625" stop-color="#1B0A5D"/>
<stop offset="0.970597" stop-color="#010005"/>
</linearGradient>
<linearGradient id="paint12_linear_201_1982" x1="43.4271" y1="16.6264" x2="20.2281" y2="33.3812" gradientUnits="userSpaceOnUse">
<stop stop-color="#FFF9FF" stop-opacity="0.36"/>
<stop offset="1" stop-color="#1B0A5D" stop-opacity="0"/>
</linearGradient>
<linearGradient id="paint13_linear_201_1982" x1="11.1763" y1="34.4129" x2="58.8632" y2="34.4129" gradientUnits="userSpaceOnUse">
<stop stop-color="#5B5C59"/>
<stop offset="1" stop-color="#3F403E"/>
</linearGradient>
</defs>
</svg>
