<svg width="354" height="264" viewBox="0 0 354 264" fill="none" xmlns="http://www.w3.org/2000/svg">
<g opacity="0.11">
<path d="M64.8359 204.226C3.72017 216.528 3.72146 236.472 64.8392 248.774C125.957 261.075 225.047 261.075 286.164 248.774C347.28 236.472 347.278 216.528 286.161 204.226C225.042 191.925 125.952 191.925 64.8359 204.226Z" fill="#A5A5A5"/>
</g>
<path d="M130.273 201.915L131.309 211.217L129.534 213.666L129.715 215.284L134.455 213.733L136.59 212.676L134.373 199.554L130.273 201.915Z" fill="#F3D6AE"/>
<path d="M131.309 211.217L125.042 217.443L125.514 219.847L130.569 219.284L137.197 214.451L137.219 210.968L136.544 210.429C136.544 210.429 130.411 214.183 129.984 214.026C129.557 213.869 131.309 211.217 131.309 211.217Z" fill="#787A7B"/>
<path d="M160.134 202.149L161.204 211.447L163.482 213.438L163.668 215.055L158.7 214.603L156.384 214.05L153.277 201.3L160.134 202.149Z" fill="#F3D6AE"/>
<path d="M161.204 211.447L168.706 216.113L168.783 218.562L163.729 219.144L156.189 215.916L155.389 212.526L155.926 211.85C155.926 211.85 162.743 214.137 163.124 213.888C163.505 213.64 161.204 211.447 161.204 211.447Z" fill="#787A7B"/>
<path d="M125.14 160.479L129.197 205.587H137.927L141.562 128.674L121.814 116.825L125.14 160.479Z" fill="#273140"/>
<path d="M139.276 129.298L146.967 161.518L152.372 204.548H161.518L159.647 151.748L157.153 114.954L139.276 129.298Z" fill="#273140"/>
<path d="M119.112 81.0709C119.112 81.0709 112.668 85.4362 112.044 88.5544C111.42 91.6725 113.083 101.027 115.578 108.302C118.072 115.578 119.735 135.326 117.241 141.978C124.517 139.484 135.95 135.742 146.551 135.742C157.153 135.742 161.726 123.269 161.726 123.269C161.726 123.269 145.512 88.1386 138.652 82.7339C131.792 77.3292 129.298 77.9528 119.112 81.0709Z" fill="#A0A4A9"/>
<path d="M127.311 78.1235L128.29 77.989L130.041 105.334L122.501 94.9742L119.268 82.9474L119.94 80.9633L127.311 78.1235Z" fill="#C5CCCC"/>
<path d="M127.112 78.0876L128.021 78.251L129.825 106.413L134.711 93.6794L132.228 91.8253L135.214 85.1345L128.068 76.9453L127.112 78.0876Z" fill="#273140"/>
<path d="M120.704 80.9352L119.923 81.1646L123.09 93.3827L130.115 105.739L119.392 95.9541L120.426 92.257L115.914 90.614L119.246 80.3032L120.704 80.9352Z" fill="#273140"/>
<path d="M126.2 64.4976C121.703 57.5499 112.382 62.8843 111.992 70.1605C111.738 74.9069 116.566 79.787 121.452 79.92C121.515 80.0886 121.57 80.2472 121.605 80.3846C121.784 81.092 122.044 81.7686 122.325 82.45C122.43 82.7041 126.24 80.9427 126.664 80.7444C126.812 80.675 126.976 80.5894 127.028 80.4376C127.127 80.1464 126.681 79.4716 126.582 79.1999C126.466 78.879 126.35 78.558 126.233 78.2371C128.215 76.577 129.056 73.8796 128.861 71.3945C128.666 68.8979 127.552 66.5853 126.2 64.4976Z" fill="#F3D6AE"/>
<path d="M117.955 59.2567C117.553 59.936 117.531 60.7499 117.557 61.5194C117.573 61.979 117.605 62.4505 117.806 62.8596C118.606 64.4916 120.294 63.9771 121.755 64.2047C123.556 64.4854 125.275 65.3983 126.549 66.6252C128.544 68.5462 128.627 71.6339 128.67 74.2881C128.685 75.2233 128.6 76.6406 129.481 77.2594C130.377 77.8882 131.958 77.3646 132.691 76.7449C133.36 76.1787 133.814 75.3262 134.617 74.978C135.466 74.6094 136.761 74.7021 136.972 73.7863C137.031 73.5314 136.973 73.2522 137.066 73.009C137.382 72.1869 138.804 72.7051 139.372 72.0399C139.721 71.6308 139.558 70.9841 139.287 70.5077C139.016 70.031 138.646 69.5718 138.617 69.0261C138.592 68.557 138.827 68.1229 138.925 67.666C139.12 66.7634 138.724 65.7492 137.968 65.2152C136.563 64.2226 134.509 64.9865 133.045 64.0883C132.282 63.6204 131.824 62.786 131.387 61.9971C130.95 61.2084 130.456 60.3848 129.663 59.9739C128.683 59.466 127.55 59.8745 126.548 59.2324C125.959 58.8551 125.489 58.2905 124.859 57.9914C124.029 57.597 122.572 57.497 121.642 57.4216C120.167 57.3023 118.717 57.971 117.955 59.2567Z" fill="#363636"/>
<path d="M114.62 72.9522C115.193 75.4639 117.106 77.8586 116.5 80.345C115.889 82.8542 113.091 83.9734 110.65 84.7018C110.249 84.8216 105.206 86.4762 105.102 86.4713C101.751 86.3118 103.013 83.4629 102.146 81.8475C100.9 79.5251 97.9203 82.3267 97.251 79.9785C97.7322 79.7665 97.833 79.088 97.6461 78.5835C97.4593 78.0788 97.0743 77.6773 96.7953 77.2173C96.1095 76.0867 96.1264 74.5646 96.8367 73.4743C98.254 71.2987 101.773 71.1831 102.864 68.8178C103.54 67.3508 102.983 65.6051 103.126 63.9836C103.402 60.8485 106.415 59.4595 108.455 57.5684C110.609 55.5722 112.772 54.2346 115.771 53.9999C119.489 53.709 123.045 56.6856 122.516 60.4479C121.839 65.2733 114.684 66.6465 114.467 71.4291C114.444 71.9425 114.505 72.4497 114.62 72.9522Z" fill="#363636"/>
<path d="M223.912 76.2976H134.816V195.194H223.912V76.2976Z" fill="#647380"/>
<g opacity="0.26">
<path d="M141.463 190.086H142.797L221.477 192.526L219.419 80.084L215.762 81.136L141.463 190.086Z" fill="black"/>
</g>
<path d="M219.419 80.084H139.31V190.086H219.419V80.084Z" fill="#FFFFF0"/>
<path d="M189.629 69.6238H189.089V69.2598C189.089 65.8309 185.896 63.051 181.958 63.051H176.771C172.832 63.051 169.639 65.8307 169.639 69.2598V69.6238H169.099C165.161 69.6238 161.968 72.4035 161.968 75.8326V82.7691H196.76V75.8326C196.76 72.4035 193.568 69.6238 189.629 69.6238ZM183.948 69.7668H174.781C173.844 69.7668 173.078 69.0002 173.078 68.0633C173.078 67.1264 173.844 66.3598 174.781 66.3598H183.948C184.884 66.3598 185.651 67.1264 185.651 68.0633C185.651 69.0002 184.884 69.7668 183.948 69.7668Z" fill="#C6D1D1"/>
<g opacity="0.12">
<path d="M196.76 79.5029H161.969V82.7688H196.76V79.5029Z" fill="black"/>
</g>
<path d="M169.103 180.311H146.973V180.882H169.103V180.311Z" fill="#CBCCCE"/>
<path d="M169.103 176.153H146.973V176.725H169.103V176.153Z" fill="#CBCCCE"/>
<path d="M202.94 176.111C201.87 175.713 200.686 175.814 199.698 176.32C199.55 176.242 199.397 176.171 199.237 176.111C197.638 175.515 195.779 176.035 194.71 177.361C193.666 178.656 193.527 180.513 194.377 181.946C195.239 183.401 196.948 184.153 198.604 183.848C198.998 183.776 199.367 183.644 199.706 183.465C200.492 183.867 201.407 184.013 202.306 183.848C204.209 183.498 205.537 181.792 205.576 179.892C205.541 178.213 204.528 176.703 202.94 176.111ZM198.995 183.067C197.676 183.541 196.169 183.14 195.263 182.071C194.343 180.985 194.215 179.389 194.941 178.168C195.663 176.952 197.113 176.301 198.502 176.58C198.691 176.617 198.872 176.671 199.046 176.738C198.814 176.919 198.601 177.127 198.413 177.361C197.368 178.656 197.23 180.512 198.079 181.946C198.335 182.378 198.666 182.747 199.047 183.045C199.029 183.052 199.013 183.06 198.995 183.067ZM201.219 179.892C201.196 181.034 200.629 182.095 199.699 182.713C199.428 182.537 199.179 182.324 198.965 182.071C198.046 180.985 197.917 179.39 198.643 178.168C198.909 177.721 199.274 177.351 199.697 177.075C200.615 177.689 201.196 178.739 201.219 179.892ZM202.698 183.067C201.927 183.344 201.091 183.32 200.349 183.04C201.273 182.288 201.848 181.132 201.873 179.892C201.848 178.648 201.283 177.498 200.347 176.744C200.93 176.52 201.573 176.453 202.205 176.579C203.79 176.897 204.89 178.297 204.922 179.892C204.893 181.299 204.04 182.583 202.698 183.067Z" fill="#CBCCCE"/>
<path d="M156.349 95.5513C156.3 95.5513 156.22 95.5513 156.109 95.5513C155.997 95.5513 155.883 95.5513 155.765 95.5513C155.647 95.5513 155.532 95.5513 155.421 95.5513C155.31 95.5513 155.229 95.5513 155.181 95.5513L155.16 95.5409L155.191 95.3532L155.243 95.3116C155.327 95.3116 155.424 95.3064 155.535 95.296C155.646 95.2854 155.733 95.2595 155.796 95.2177C155.852 95.1761 155.904 95.11 155.952 95.0198C156.001 94.9294 156.036 94.7938 156.057 94.613C156.064 94.5088 156.069 94.3523 156.072 94.1436C156.076 93.9351 156.077 93.6256 156.077 93.2152V90.607C156.077 90.468 156.077 90.3098 156.077 90.1325C156.077 89.9551 156.07 89.7797 156.056 89.6055C156.043 89.418 156.009 89.282 155.957 89.1987C155.905 89.1155 155.851 89.0528 155.796 89.011C155.733 88.9763 155.669 88.9503 155.603 88.9328C155.537 88.9156 155.417 88.9068 155.243 88.9068L155.191 88.8648L155.16 88.6767L155.181 88.6387C155.229 88.6387 155.294 88.6416 155.374 88.6474C155.454 88.6532 155.537 88.659 155.624 88.6647C155.711 88.6705 155.8 88.6763 155.89 88.6821C155.98 88.6879 156.064 88.6906 156.14 88.6906H156.515C156.592 88.6906 156.679 88.6906 156.776 88.6906C156.873 88.6906 156.972 88.6906 157.073 88.6906C157.174 88.6906 157.266 88.6906 157.35 88.6906C157.433 88.6906 157.499 88.6906 157.548 88.6906C158.298 88.6906 158.837 88.8349 159.164 89.1234C159.491 89.412 159.654 89.7926 159.654 90.2651C159.654 90.4736 159.628 90.658 159.576 90.8176C159.524 90.9777 159.452 91.1184 159.362 91.24C159.271 91.3616 159.171 91.466 159.06 91.5527C158.948 91.6398 158.83 91.7144 158.705 91.7769C159.212 91.8682 159.603 92.0609 159.878 92.3553C160.153 92.6496 160.29 93.056 160.29 93.5746C160.29 93.9251 160.227 94.2249 160.103 94.4735C159.977 94.7225 159.802 94.9256 159.576 95.0834C159.35 95.2412 159.081 95.3586 158.768 95.4355C158.455 95.5129 158.111 95.5513 157.735 95.5513H156.349ZM157.308 91.6726C157.53 91.6726 157.742 91.6589 157.944 91.631C158.145 91.6032 158.326 91.5304 158.486 91.4119C158.639 91.3146 158.764 91.1739 158.861 90.9897C158.959 90.8056 159.007 90.5881 159.007 90.338C159.007 89.9697 158.903 89.688 158.695 89.4935C158.486 89.2989 158.191 89.2016 157.808 89.2016H156.87C156.856 89.4034 156.847 89.5735 156.844 89.7125C156.84 89.8516 156.835 89.9732 156.828 90.0776C156.821 90.1817 156.817 90.2757 156.817 90.359C156.817 90.4424 156.817 90.5224 156.817 90.5989V91.2452C156.817 91.4053 156.824 91.5165 156.838 91.5788C156.852 91.6414 156.904 91.6726 156.995 91.6726H157.308ZM156.818 92.0584C156.818 92.2532 156.818 92.4825 156.818 92.7465C156.818 93.0109 156.819 93.2697 156.823 93.5233C156.826 93.7771 156.83 94.0047 156.833 94.2062C156.837 94.408 156.842 94.5435 156.849 94.6128C156.863 94.8005 156.901 94.9152 156.964 94.9568C157.026 94.9986 157.11 95.0196 157.214 95.0196H157.85C158.017 95.0196 158.199 94.9988 158.397 94.9568C158.595 94.9152 158.781 94.8421 158.955 94.7379C159.129 94.6336 159.275 94.4876 159.393 94.3001C159.511 94.1124 159.57 93.8725 159.57 93.5807C159.57 93.3304 159.525 93.1096 159.435 92.9184C159.344 92.7273 159.219 92.5689 159.059 92.444C158.9 92.3189 158.714 92.2235 158.501 92.1571C158.289 92.0913 158.058 92.0582 157.808 92.0582H156.818V92.0584Z" fill="#3C6084"/>
<path d="M157.735 95.6556H155.156L155.045 95.5999L155.095 95.2971L155.207 95.2079H155.243C155.324 95.2079 155.418 95.2029 155.526 95.1927C155.619 95.1838 155.691 95.1632 155.738 95.1314C155.777 95.1023 155.82 95.0472 155.861 94.9707C155.903 94.8921 155.934 94.7678 155.953 94.6013C155.96 94.5034 155.965 94.3485 155.968 94.1421C155.972 93.934 155.973 93.6251 155.973 93.2156V90.1328C155.973 89.9609 155.967 89.7863 155.953 89.614C155.937 89.4015 155.899 89.3011 155.869 89.2542C155.824 89.1822 155.778 89.1284 155.733 89.0943C155.691 89.0721 155.634 89.0488 155.576 89.0336C155.537 89.0234 155.447 89.0112 155.243 89.0112H155.206L155.095 88.9211L155.051 88.6586L155.119 88.5349H155.18C155.231 88.5349 155.298 88.5378 155.381 88.5439C155.461 88.5497 155.544 88.5555 155.63 88.5611L155.896 88.5786C155.984 88.5842 156.065 88.5869 156.14 88.5869H157.547C158.32 88.5869 158.887 88.7411 159.232 89.0457C159.581 89.3533 159.757 89.7639 159.757 90.2653C159.757 90.4841 159.729 90.6808 159.674 90.8502C159.619 91.0196 159.542 91.1718 159.445 91.3023C159.349 91.4316 159.241 91.5435 159.123 91.6351C159.079 91.6699 159.033 91.7029 158.986 91.7341C159.39 91.8439 159.714 92.0287 159.953 92.285C160.245 92.5976 160.393 93.0319 160.393 93.5752C160.393 93.9407 160.327 94.2587 160.195 94.5208C160.062 94.784 159.874 95.0019 159.635 95.1692C159.399 95.3336 159.116 95.4575 158.792 95.5371C158.474 95.6157 158.118 95.6556 157.735 95.6556ZM155.281 95.4478H157.735C158.101 95.4478 158.44 95.4097 158.743 95.3351C159.041 95.2615 159.302 95.1484 159.516 94.9985C159.727 94.8514 159.893 94.6591 160.01 94.4273C160.127 94.1945 160.186 93.9076 160.186 93.575C160.186 93.0859 160.057 92.6995 159.802 92.4265C159.544 92.1503 159.169 91.9663 158.687 91.8796L158.379 91.8241L158.659 91.6842C158.777 91.625 158.89 91.5532 158.995 91.4711C159.098 91.3909 159.194 91.2924 159.278 91.1782C159.362 91.066 159.429 90.9338 159.477 90.7856C159.525 90.6371 159.55 90.4621 159.55 90.2653C159.55 89.8198 159.401 89.4718 159.095 89.2016C158.789 88.9315 158.269 88.7948 157.548 88.7948H156.14C156.062 88.7948 155.976 88.7921 155.883 88.786L155.617 88.7686C155.53 88.7629 155.447 88.7571 155.367 88.7513C155.334 88.7488 155.304 88.7472 155.277 88.7457L155.287 88.8033C155.448 88.8047 155.56 88.8143 155.63 88.8326C155.704 88.8523 155.777 88.8816 155.847 88.9203C155.924 88.9775 155.987 89.0502 156.046 89.1438C156.108 89.2425 156.145 89.3909 156.161 89.598C156.175 89.7753 156.182 89.9553 156.182 90.1326V93.2154C156.182 93.6266 156.18 93.9367 156.177 94.1454C156.173 94.3566 156.168 94.5146 156.161 94.62C156.138 94.8206 156.1 94.9657 156.045 95.069C155.988 95.1738 155.927 95.2497 155.859 95.3008C155.777 95.3561 155.676 95.3873 155.546 95.3997C155.45 95.4087 155.363 95.4139 155.287 95.4153L155.281 95.4478ZM157.85 95.1241H157.214C157.089 95.1241 156.986 95.0971 156.906 95.0439C156.813 94.9821 156.762 94.8478 156.745 94.621C156.738 94.5512 156.733 94.4113 156.729 94.2086C156.726 94.007 156.722 93.7794 156.719 93.5253C156.715 93.2711 156.714 93.0119 156.714 92.7471V91.9551H157.808C158.068 91.9551 158.312 91.99 158.532 92.0586C158.755 92.1282 158.954 92.2305 159.123 92.3629C159.295 92.4972 159.432 92.6695 159.529 92.8747C159.625 93.0792 159.674 93.3171 159.674 93.5813C159.674 93.8916 159.609 94.1523 159.481 94.3562C159.355 94.5568 159.196 94.7154 159.009 94.8279C158.825 94.9378 158.626 95.0156 158.419 95.0592C158.215 95.1021 158.023 95.1241 157.85 95.1241ZM156.922 92.1627V92.7469C156.922 93.0104 156.923 93.269 156.927 93.5222C156.93 93.7758 156.934 94.0035 156.937 94.2047C156.941 94.4019 156.946 94.536 156.952 94.6028C156.97 94.8337 157.019 94.8692 157.021 94.8707C157.066 94.9008 157.131 94.916 157.214 94.916H157.85C158.009 94.916 158.186 94.8956 158.376 94.8555C158.561 94.8164 158.738 94.7472 158.902 94.6493C159.06 94.5539 159.196 94.418 159.305 94.2452C159.412 94.0754 159.466 93.8517 159.466 93.5813C159.466 93.3478 159.424 93.1399 159.34 92.9635C159.257 92.7876 159.141 92.6406 158.995 92.5263C158.846 92.4095 158.669 92.319 158.47 92.2569C158.269 92.1943 158.047 92.1627 157.808 92.1627H156.922ZM157.308 91.7769H156.995C156.797 91.7769 156.748 91.6543 156.737 91.6015C156.721 91.5314 156.714 91.415 156.714 91.2454V90.359C156.714 90.2738 156.717 90.1773 156.725 90.0705C156.731 89.9678 156.736 89.8474 156.74 89.71C156.743 89.5697 156.752 89.3982 156.766 89.1947L156.773 89.0978H157.808C158.216 89.0978 158.538 89.2055 158.765 89.4175C158.995 89.6319 159.111 89.9418 159.111 90.3384C159.111 90.6049 159.058 90.8404 158.953 91.0385C158.847 91.2381 158.709 91.3934 158.542 91.5C158.374 91.6241 158.176 91.7042 157.958 91.7343C157.753 91.7626 157.534 91.7769 157.308 91.7769ZM156.967 89.3057C156.957 89.4639 156.951 89.6003 156.948 89.7154C156.944 89.8562 156.939 89.979 156.932 90.0844C156.925 90.1863 156.922 90.2779 156.922 90.359V91.2454C156.922 91.4345 156.932 91.5189 156.94 91.5564C156.941 91.5599 156.953 91.569 156.995 91.569H157.308C157.525 91.569 157.734 91.5553 157.93 91.5285C158.113 91.5031 158.279 91.436 158.424 91.3287C158.567 91.2377 158.681 91.1088 158.769 90.9417C158.858 90.7737 158.903 90.5708 158.903 90.3386C158.903 89.9969 158.812 89.7456 158.624 89.5699C158.436 89.3949 158.161 89.3059 157.808 89.3059H156.967V89.3057Z" fill="#3C6084"/>
<path d="M168.245 88.6802L168.214 88.8679L168.173 88.9095C168.061 88.9095 167.955 88.9147 167.855 88.9251C167.754 88.9355 167.672 88.965 167.61 89.0138C167.554 89.0625 167.501 89.1251 167.453 89.2014C167.404 89.2778 167.373 89.4134 167.359 89.608C167.352 89.6913 167.347 89.7749 167.344 89.8582C167.34 89.9416 167.337 90.0426 167.333 90.1607C167.33 90.2788 167.328 90.4214 167.328 90.5881C167.328 90.755 167.328 90.9602 167.328 91.2034V93.2052C167.328 93.5461 167.278 93.864 167.177 94.1594C167.076 94.455 166.921 94.7119 166.713 94.931C166.504 95.1501 166.242 95.322 165.926 95.4469C165.609 95.5723 165.239 95.6346 164.815 95.6346C164.329 95.6346 163.917 95.5721 163.58 95.4469C163.243 95.3218 162.97 95.1499 162.761 94.931C162.553 94.7119 162.402 94.455 162.308 94.1594C162.214 93.864 162.167 93.5461 162.167 93.2052V91.2034C162.167 90.9602 162.167 90.755 162.167 90.5881C162.167 90.4214 162.167 90.279 162.167 90.1607C162.167 90.0426 162.165 89.9416 162.162 89.8582C162.158 89.7749 162.153 89.6913 162.146 89.608C162.132 89.4204 162.099 89.2866 162.047 89.2065C161.995 89.1267 161.941 89.0625 161.885 89.0136C161.823 88.965 161.743 88.9353 161.645 88.9249C161.548 88.9145 161.444 88.9093 161.333 88.9093L161.281 88.8677L161.249 88.68L161.27 88.6696C161.319 88.6696 161.399 88.6696 161.51 88.6696C161.621 88.6696 161.736 88.6696 161.854 88.6696C161.972 88.6696 162.087 88.6696 162.198 88.6696C162.309 88.6696 162.389 88.6696 162.438 88.6696H162.636C162.684 88.6696 162.764 88.6696 162.876 88.6696C162.987 88.6696 163.101 88.6696 163.22 88.6696C163.338 88.6696 163.453 88.6696 163.564 88.6696C163.675 88.6696 163.755 88.6696 163.803 88.6696L163.824 88.68L163.793 88.8677L163.752 88.9093C163.64 88.9093 163.534 88.9145 163.434 88.9249C163.333 88.9353 163.251 88.9648 163.189 89.0136C163.133 89.0623 163.081 89.1249 163.032 89.2011C162.984 89.2776 162.952 89.4132 162.938 89.6077C162.931 89.7052 162.926 89.7955 162.923 89.879C162.919 89.9624 162.916 90.0599 162.912 90.1709C162.909 90.2821 162.907 90.4178 162.907 90.5775C162.907 90.7375 162.907 90.9425 162.907 91.1926V92.9129C162.907 93.6636 163.075 94.2024 163.413 94.5292C163.75 94.8557 164.217 95.0191 164.815 95.0191C165.413 95.0191 165.882 94.8557 166.223 94.5292C166.564 94.2024 166.734 93.6636 166.734 92.9129V91.1926C166.734 90.9425 166.734 90.7375 166.734 90.5775C166.734 90.4176 166.732 90.2821 166.729 90.1709C166.725 90.0599 166.722 89.9624 166.718 89.879C166.715 89.7957 166.709 89.7052 166.703 89.6077C166.689 89.4132 166.656 89.2776 166.603 89.2011C166.551 89.1249 166.497 89.0623 166.442 89.0136C166.386 88.965 166.308 88.9353 166.207 88.9249C166.107 88.9145 166 88.9093 165.889 88.9093L165.837 88.8677L165.806 88.68L165.827 88.6384C165.876 88.6384 165.948 88.6434 166.046 88.654C166.143 88.6644 166.246 88.6696 166.354 88.6696C166.461 88.6696 166.564 88.6696 166.661 88.6696C166.759 88.6696 166.831 88.6696 166.88 88.6696H167.11C167.158 88.6696 167.235 88.6696 167.339 88.6696C167.443 88.6696 167.553 88.6696 167.667 88.6696C167.782 88.6696 167.892 88.6696 167.996 88.6696C168.1 88.6696 168.176 88.6696 168.225 88.6696L168.245 88.6802Z" fill="#3C6084"/>
<path d="M164.815 95.7387C164.318 95.7387 163.89 95.6734 163.543 95.5445C163.193 95.4144 162.904 95.2321 162.686 95.0026C162.467 94.7729 162.306 94.4997 162.208 94.1908C162.112 93.8869 162.063 93.5552 162.063 93.2053V90.1608C162.063 90.0444 162.061 89.9448 162.058 89.8625C162.054 89.7806 162.049 89.6985 162.042 89.6162C162.027 89.4048 161.989 89.3077 161.96 89.2634C161.913 89.1919 161.865 89.1343 161.817 89.0919C161.774 89.0593 161.711 89.0366 161.634 89.0283C161.54 89.0183 161.439 89.0133 161.333 89.0133H161.296L161.185 88.9239L161.134 88.6211L161.246 88.5656H163.828L163.94 88.6211L163.89 88.9177L163.795 89.0133H163.752C163.645 89.0133 163.542 89.0183 163.444 89.0283C163.364 89.0366 163.299 89.0593 163.252 89.0956C163.209 89.1337 163.163 89.189 163.12 89.257C163.093 89.2994 163.057 89.396 163.042 89.6151C163.035 89.7116 163.03 89.8008 163.026 89.8833C163.023 89.9664 163.02 90.0635 163.016 90.1741C163.012 90.2845 163.011 90.4192 163.011 90.5774V92.9128C163.011 93.6308 163.171 94.1495 163.485 94.4544C163.8 94.7602 164.248 94.9153 164.815 94.9153C165.382 94.9153 165.832 94.7602 166.151 94.454C166.468 94.1491 166.63 93.6306 166.63 92.9128V90.5774C166.63 90.4188 166.628 90.2843 166.625 90.1739C166.621 90.0635 166.617 89.9664 166.614 89.8833C166.611 89.8008 166.605 89.7116 166.599 89.6151C166.583 89.3969 166.546 89.3014 166.517 89.2597C166.47 89.1909 166.422 89.1343 166.373 89.0917C166.334 89.0576 166.275 89.0362 166.196 89.0281C166.099 89.0181 165.996 89.0131 165.889 89.0131H165.853L165.741 88.9239L165.697 88.6633L165.762 88.5342H165.827C165.877 88.5342 165.954 88.5392 166.057 88.5504C166.15 88.5604 166.25 88.5654 166.353 88.5654H168.249L168.361 88.6209L168.311 88.9177L168.215 89.0131H168.173C168.066 89.0131 167.963 89.0181 167.865 89.0281C167.785 89.0364 167.72 89.0591 167.673 89.0954C167.63 89.1337 167.584 89.1892 167.541 89.2567C167.514 89.2989 167.478 89.3954 167.463 89.6149C167.456 89.6981 167.451 89.7802 167.448 89.8621C167.444 89.9452 167.44 90.0456 167.437 90.1631C167.433 90.2805 167.432 90.4221 167.432 90.5876V93.2047C167.432 93.555 167.379 93.8871 167.275 94.1923C167.17 94.5008 167.006 94.7733 166.788 95.0022C166.57 95.2311 166.293 95.4131 165.964 95.5431C165.637 95.6732 165.25 95.7387 164.815 95.7387ZM161.376 88.8059C161.474 88.8071 161.568 88.8125 161.656 88.8219C161.773 88.8343 161.871 88.8711 161.949 88.9318C162.016 88.9907 162.077 89.0628 162.134 89.1499C162.196 89.2455 162.234 89.3929 162.25 89.6004C162.257 89.6843 162.262 89.7692 162.266 89.854C162.269 89.9388 162.271 90.0411 162.271 90.1608V93.2053C162.271 93.534 162.316 93.8443 162.407 94.1281C162.495 94.4068 162.64 94.6527 162.836 94.8596C163.033 95.0658 163.295 95.2308 163.616 95.3497C163.939 95.4701 164.343 95.531 164.815 95.531C165.224 95.531 165.585 95.4703 165.887 95.3506C166.188 95.2317 166.44 95.0664 166.637 94.8596C166.834 94.6527 166.983 94.4058 167.078 94.1262C167.175 93.8427 167.224 93.5329 167.224 93.2055V90.5884C167.224 90.4204 167.225 90.277 167.229 90.1579C167.232 90.0396 167.236 89.9379 167.239 89.8542C167.243 89.7696 167.248 89.6846 167.255 89.5997C167.27 89.3869 167.306 89.238 167.365 89.1457C167.418 89.0616 167.478 88.9907 167.541 88.9356C167.623 88.8711 167.724 88.8341 167.844 88.8219C167.931 88.8127 168.024 88.8075 168.119 88.8061L168.124 88.7739H166.353C166.242 88.7739 166.135 88.7684 166.034 88.7576C165.992 88.7533 165.954 88.7495 165.922 88.747L165.932 88.8059C166.03 88.8071 166.126 88.8123 166.217 88.8219C166.339 88.8346 166.438 88.8726 166.51 88.9358C166.572 88.9898 166.632 89.0597 166.689 89.1428C166.752 89.2355 166.79 89.3852 166.806 89.6006C166.812 89.6993 166.818 89.7906 166.821 89.875C166.825 89.9585 166.828 90.0564 166.832 90.1676C166.835 90.2801 166.837 90.4167 166.837 90.5778V92.9133C166.837 93.6899 166.654 94.259 166.294 94.6045C165.935 94.949 165.437 95.1236 164.815 95.1236C164.192 95.1236 163.696 94.9488 163.34 94.6043C162.983 94.2586 162.803 93.6899 162.803 92.9133V90.5778C162.803 90.4167 162.804 90.2799 162.808 90.1676C162.811 90.0564 162.815 89.9585 162.818 89.875C162.822 89.7906 162.827 89.6991 162.834 89.6008C162.849 89.3873 162.885 89.2385 162.944 89.1457C162.998 89.0607 163.057 88.99 163.12 88.9354C163.202 88.8709 163.303 88.8339 163.422 88.8217C163.51 88.8125 163.603 88.8073 163.698 88.8059L163.703 88.7736H161.369L161.376 88.8059Z" fill="#3C6084"/>
<path d="M170.164 90.2234C170.164 90.418 170.199 90.5797 170.268 90.7082C170.338 90.8368 170.444 90.9497 170.586 91.047C170.728 91.1445 170.91 91.233 171.128 91.3129C171.347 91.3929 171.606 91.4781 171.905 91.5681C172.162 91.6515 172.416 91.7457 172.666 91.8496C172.916 91.9539 173.14 92.088 173.339 92.2512C173.537 92.4146 173.695 92.6127 173.813 92.8453C173.931 93.0783 173.99 93.3615 173.99 93.6953C173.99 94.0497 173.921 94.3503 173.782 94.5971C173.642 94.844 173.458 95.0438 173.229 95.1968C173 95.3496 172.734 95.4608 172.431 95.5302C172.129 95.5996 171.811 95.6346 171.477 95.6346C171.046 95.6346 170.653 95.5859 170.299 95.4886C169.944 95.3913 169.625 95.2695 169.34 95.1236L169.298 94.9881L169.475 93.8726H169.736L169.788 93.9352C169.823 94.3593 169.993 94.6702 170.299 94.8683C170.605 95.0664 171.022 95.1656 171.55 95.1656C172.092 95.1656 172.5 95.0421 172.775 94.7954C173.05 94.5488 173.187 94.2273 173.187 93.8308C173.187 93.5876 173.135 93.3843 173.031 93.2209C172.926 93.0575 172.789 92.9185 172.619 92.8037C172.448 92.689 172.254 92.5936 172.035 92.5171C171.816 92.4406 171.595 92.3643 171.373 92.2876C171.095 92.1972 170.836 92.0982 170.596 91.9903C170.356 91.8824 170.148 91.7556 169.97 91.6097C169.793 91.4638 169.654 91.29 169.553 91.0884C169.453 90.8867 169.402 90.647 169.402 90.3689C169.402 90.0423 169.459 89.7661 169.574 89.5399C169.689 89.3142 169.847 89.1298 170.048 88.9874C170.25 88.845 170.484 88.7423 170.752 88.6799C171.02 88.6174 171.31 88.5862 171.623 88.5862C171.998 88.5862 172.353 88.6209 172.686 88.6903C173.02 88.76 173.291 88.8433 173.499 88.9406L173.541 89.0554L173.395 89.9833H173.103L173.051 89.9313C173.037 89.7507 172.978 89.6046 172.874 89.4933C172.77 89.3823 172.646 89.2952 172.504 89.2327C172.361 89.1701 172.208 89.1285 172.045 89.1075C171.882 89.0865 171.738 89.0763 171.612 89.0763C171.16 89.0763 170.806 89.1755 170.549 89.3736C170.292 89.5717 170.164 89.855 170.164 90.2234Z" fill="#3C6084"/>
<path d="M171.478 95.7386C171.039 95.7386 170.634 95.6883 170.272 95.589C169.913 95.4904 169.583 95.3651 169.293 95.2163L169.253 95.1961L169.192 94.9955L169.387 93.7686H169.785L169.889 93.894L169.892 93.9266C169.924 94.3203 170.076 94.5997 170.356 94.781C170.643 94.967 171.045 95.0616 171.55 95.0616C172.064 95.0616 172.452 94.9458 172.706 94.718C172.96 94.4899 173.084 94.1997 173.084 93.8308C173.084 93.609 173.036 93.4225 172.943 93.2768C172.847 93.1261 172.719 92.996 172.561 92.8901C172.4 92.7812 172.211 92.6887 172.001 92.6153C171.782 92.539 171.562 92.4628 171.339 92.3861C171.061 92.2956 170.796 92.1942 170.554 92.0855C170.307 91.9745 170.088 91.8414 169.905 91.6903C169.717 91.5354 169.567 91.3488 169.461 91.1353C169.353 90.9201 169.299 90.6624 169.299 90.3693C169.299 90.0275 169.36 89.7327 169.482 89.4931C169.604 89.253 169.775 89.0545 169.989 88.9027C170.201 88.7528 170.45 88.6439 170.729 88.5786C171.003 88.5146 171.304 88.4822 171.623 88.4822C172.004 88.4822 172.369 88.5179 172.708 88.5886C173.048 88.6595 173.329 88.7464 173.544 88.8464L173.583 88.8647L173.649 89.0449L173.485 90.0872H173.061L172.952 89.9778L172.949 89.9396C172.936 89.7814 172.887 89.6587 172.799 89.5644C172.705 89.4642 172.592 89.3846 172.463 89.3278C172.33 89.2698 172.186 89.2301 172.033 89.2106C171.875 89.1902 171.734 89.18 171.613 89.18C171.187 89.18 170.85 89.2727 170.613 89.4556C170.381 89.6344 170.268 89.8855 170.268 90.2229C170.268 90.3994 170.298 90.5457 170.36 90.6582C170.421 90.7717 170.517 90.8733 170.645 90.9607C170.779 91.0527 170.954 91.1382 171.164 91.2149C171.383 91.2949 171.642 91.3801 171.935 91.4685C172.194 91.5525 172.453 91.6483 172.706 91.7535C172.964 91.8612 173.199 92.0015 173.405 92.1709C173.613 92.3424 173.781 92.5534 173.906 92.7983C174.031 93.0452 174.094 93.3468 174.094 93.6952C174.094 94.0663 174.02 94.3868 173.872 94.6479C173.726 94.9082 173.529 95.1219 173.287 95.2832C173.048 95.4426 172.768 95.5597 172.455 95.6316C172.146 95.7029 171.817 95.7386 171.478 95.7386ZM169.426 95.051C169.695 95.1849 169.998 95.2984 170.327 95.3886C170.671 95.483 171.058 95.5308 171.478 95.5308C171.802 95.5308 172.114 95.4965 172.408 95.4291C172.697 95.363 172.954 95.2555 173.172 95.1104C173.386 94.9674 173.561 94.7776 173.692 94.5463C173.821 94.3166 173.887 94.0305 173.887 93.6954C173.887 93.3799 173.831 93.1099 173.72 92.8926C173.609 92.6735 173.458 92.4848 173.273 92.3316C173.083 92.1753 172.865 92.0456 172.626 91.946C172.379 91.8429 172.125 91.7491 171.873 91.6672C171.579 91.5785 171.315 91.4918 171.093 91.4107C170.867 91.3284 170.677 91.2348 170.527 91.133C170.372 91.0266 170.254 90.9004 170.177 90.7576C170.099 90.6145 170.06 90.4347 170.06 90.2235C170.06 89.8228 170.203 89.5095 170.486 89.2914C170.761 89.0798 171.14 88.9728 171.613 88.9728C171.743 88.9728 171.893 88.9836 172.059 89.0048C172.232 89.027 172.396 89.0717 172.546 89.1378C172.701 89.2058 172.837 89.3016 172.95 89.4226C173.062 89.5415 173.129 89.6951 173.151 89.8797H173.307L173.435 89.0661L173.418 89.0177C173.222 88.9318 172.97 88.8561 172.666 88.7925C172.341 88.725 171.99 88.6907 171.623 88.6907C171.32 88.6907 171.035 88.7212 170.777 88.7819C170.524 88.8408 170.299 88.9389 170.109 89.073C169.922 89.205 169.774 89.3781 169.667 89.5879C169.56 89.798 169.507 90.061 169.507 90.3699C169.507 90.6303 169.554 90.8569 169.647 91.0428C169.74 91.2301 169.872 91.3941 170.037 91.5304C170.206 91.6699 170.409 91.793 170.639 91.8965C170.874 92.0023 171.132 92.1008 171.405 92.1896C171.629 92.2667 171.85 92.343 172.07 92.4197C172.296 92.4989 172.501 92.5993 172.677 92.718C172.858 92.8403 173.007 92.9908 173.119 93.1654C173.233 93.345 173.291 93.5689 173.291 93.8312C173.291 94.2565 173.141 94.607 172.845 94.8731C172.552 95.1364 172.116 95.2699 171.55 95.2699C171.004 95.2699 170.564 95.1643 170.243 94.956C169.918 94.7454 169.731 94.4164 169.688 93.9771L169.687 93.9769H169.564L169.404 94.9809L169.426 95.051Z" fill="#3C6084"/>
<path d="M177.702 88.68L177.671 88.8677L177.629 88.9093C177.518 88.9093 177.412 88.9145 177.311 88.9249C177.211 88.9353 177.129 88.9648 177.066 89.0137C177.011 89.0623 176.959 89.1249 176.91 89.2012C176.861 89.2777 176.83 89.4132 176.816 89.6078C176.809 89.7053 176.804 89.7955 176.8 89.8791C176.797 89.9624 176.794 90.0599 176.79 90.1709C176.786 90.2821 176.785 90.4179 176.785 90.5775C176.785 90.7376 176.785 90.9425 176.785 91.1926V93.1113C176.785 93.3616 176.785 93.5649 176.785 93.7212C176.785 93.8775 176.786 94.0078 176.79 94.1122C176.794 94.2166 176.797 94.3051 176.8 94.3781C176.804 94.451 176.809 94.5292 176.816 94.6126C176.83 94.8071 176.861 94.9429 176.91 95.0194C176.958 95.0959 177.011 95.1584 177.066 95.2069C177.129 95.2555 177.21 95.285 177.311 95.2956C177.412 95.306 177.518 95.3112 177.629 95.3112L177.671 95.3528L177.702 95.5405L177.681 95.5509C177.633 95.5509 177.552 95.5509 177.441 95.5509C177.33 95.5509 177.216 95.5509 177.097 95.5509C176.979 95.5509 176.865 95.5509 176.753 95.5509C176.642 95.5509 176.562 95.5509 176.514 95.5509H176.316C176.267 95.5509 176.187 95.5509 176.076 95.5509C175.965 95.5509 175.85 95.5509 175.732 95.5509C175.614 95.5509 175.499 95.5509 175.388 95.5509C175.277 95.5509 175.196 95.5509 175.148 95.5509L175.127 95.5405L175.158 95.3528L175.211 95.3112C175.322 95.3112 175.426 95.306 175.523 95.2956C175.621 95.285 175.701 95.2557 175.763 95.2069C175.819 95.1584 175.872 95.0959 175.925 95.0194C175.977 94.9429 176.01 94.8071 176.024 94.6126C176.024 94.5641 176.025 94.5067 176.029 94.4406C176.032 94.3747 176.036 94.2931 176.039 94.1956C176.043 94.0983 176.045 93.9802 176.045 93.8411C176.045 93.7021 176.045 93.5283 176.045 93.3196V91.203C176.045 90.9598 176.045 90.7546 176.045 90.5877C176.045 90.421 176.043 90.2786 176.039 90.1603C176.036 90.0422 176.032 89.9412 176.029 89.8579C176.025 89.7745 176.02 89.6909 176.013 89.6076C175.999 89.4269 175.968 89.2947 175.919 89.2116C175.871 89.1282 175.819 89.0621 175.763 89.0135C175.701 88.9648 175.62 88.9351 175.523 88.9247C175.426 88.9143 175.322 88.9091 175.211 88.9091L175.158 88.8675L175.127 88.6798L175.148 88.6694C175.196 88.6694 175.277 88.6694 175.388 88.6694C175.499 88.6694 175.614 88.6694 175.732 88.6694C175.85 88.6694 175.965 88.6694 176.076 88.6694C176.187 88.6694 176.267 88.6694 176.316 88.6694H176.514C176.562 88.6694 176.642 88.6694 176.753 88.6694C176.865 88.6694 176.979 88.6694 177.097 88.6694C177.216 88.6694 177.33 88.6694 177.441 88.6694C177.552 88.6694 177.633 88.6694 177.681 88.6694L177.702 88.68Z" fill="#3C6084"/>
<path d="M177.706 95.6553H175.123L175.012 95.5995L175.062 95.2967L175.174 95.2075H175.21C175.316 95.2075 175.418 95.2025 175.512 95.1925C175.589 95.1842 175.652 95.1616 175.699 95.1252C175.743 95.0861 175.792 95.0298 175.838 94.9612C175.867 94.9194 175.904 94.824 175.92 94.6053C175.92 94.5627 175.921 94.5038 175.925 94.4354C175.928 94.37 175.931 94.2889 175.935 94.192C175.939 94.096 175.94 93.9792 175.94 93.8416V90.5883C175.94 90.4229 175.938 90.2813 175.935 90.1641C175.931 90.0466 175.928 89.946 175.924 89.8628C175.921 89.7807 175.916 89.6988 175.909 89.6167C175.893 89.4118 175.857 89.312 175.829 89.2646C175.786 89.1916 175.741 89.1334 175.694 89.0923C175.652 89.0596 175.589 89.037 175.512 89.0286C175.418 89.0187 175.316 89.0137 175.21 89.0137H175.174L175.062 88.9245L175.012 88.6216L175.123 88.5659H177.706L177.817 88.6214L177.768 88.9181L177.672 89.0137H177.629C177.523 89.0137 177.419 89.0187 177.322 89.0286C177.241 89.037 177.177 89.0596 177.13 89.096C177.087 89.1345 177.04 89.1897 176.998 89.2573C176.971 89.2995 176.935 89.396 176.92 89.6157C176.913 89.7119 176.908 89.8011 176.904 89.8836C176.901 89.9668 176.897 90.0639 176.894 90.1744C176.89 90.2848 176.889 90.4195 176.889 90.5777V93.7214C176.889 93.8763 176.89 94.0054 176.894 94.1087C176.897 94.2126 176.901 94.3007 176.904 94.3733C176.908 94.445 176.913 94.5221 176.919 94.604C176.935 94.825 176.971 94.9213 176.998 94.9637C177.04 95.0314 177.087 95.0869 177.135 95.1287C177.177 95.1613 177.241 95.184 177.322 95.1925C177.419 95.2025 177.523 95.2075 177.629 95.2075H177.672L177.768 95.3031L177.817 95.5998L177.706 95.6553ZM175.248 95.4474H177.581L177.576 95.4152C177.481 95.4137 177.389 95.4085 177.301 95.3994C177.18 95.3867 177.08 95.3499 177.002 95.2894C176.935 95.2308 176.876 95.1599 176.822 95.0755C176.764 94.9838 176.728 94.8348 176.712 94.6207C176.705 94.5373 176.7 94.4577 176.697 94.3835C176.693 94.3101 176.69 94.2211 176.686 94.1162C176.682 94.011 176.681 93.8794 176.681 93.7216V90.5779C176.681 90.4168 176.683 90.28 176.686 90.1678C176.69 90.0566 176.693 89.9587 176.697 89.8751C176.7 89.7907 176.705 89.6992 176.712 89.6009C176.728 89.3866 176.764 89.2378 176.822 89.1457C176.876 89.0617 176.935 88.991 176.998 88.9357C177.08 88.8711 177.181 88.8341 177.301 88.8218C177.389 88.8127 177.481 88.8075 177.576 88.806L177.581 88.7738H175.248L175.253 88.8058C175.351 88.8071 175.445 88.8125 175.534 88.8218C175.651 88.8343 175.749 88.8711 175.827 88.9318C175.895 88.9919 175.955 89.0671 176.009 89.1596C176.066 89.2575 176.101 89.4016 176.117 89.5999C176.124 89.6843 176.129 89.7691 176.133 89.8541C176.136 89.9377 176.139 90.0391 176.143 90.1576C176.147 90.2767 176.148 90.4204 176.148 90.5881V93.8413C176.148 93.9819 176.147 94.1012 176.143 94.1995C176.139 94.2978 176.136 94.3799 176.132 94.4465C176.129 94.5105 176.128 94.566 176.128 94.613C176.112 94.8358 176.074 94.9857 176.011 95.0782C175.954 95.1613 175.894 95.231 175.832 95.2854C175.75 95.3497 175.651 95.3867 175.534 95.3994C175.446 95.4087 175.351 95.4141 175.253 95.4154L175.248 95.4474Z" fill="#3C6084"/>
<path d="M185.741 88.6802L185.72 88.8638L185.668 88.9047C185.557 88.9047 185.451 88.9099 185.35 88.9203C185.249 88.9307 185.171 88.9602 185.115 89.0091C185.06 89.0579 185.009 89.1203 184.964 89.197C184.919 89.2735 184.89 89.4092 184.876 89.6038C184.869 89.7013 184.863 89.7917 184.86 89.8753C184.856 89.9586 184.853 90.0559 184.849 90.1673C184.846 90.2786 184.844 90.4143 184.844 90.5742C184.844 90.734 184.844 90.9396 184.844 91.1897V93.0262C184.844 93.4158 184.846 93.7359 184.849 93.9862C184.853 94.2367 184.856 94.4506 184.86 94.6279C184.864 94.8052 184.87 94.9636 184.881 95.1027C184.891 95.2418 184.903 95.395 184.917 95.5617L184.834 95.5931H184.188L184.083 95.4675L180.371 89.8896C180.371 89.9593 180.37 90.0287 180.366 90.0981C180.363 90.1678 180.361 90.253 180.361 90.3538C180.361 90.4546 180.361 90.571 180.361 90.703C180.361 90.8352 180.361 90.9986 180.361 91.193V93.1117C180.361 93.195 180.361 93.3046 180.361 93.4401C180.361 93.5756 180.363 93.7164 180.366 93.8623C180.37 94.0082 180.373 94.1492 180.377 94.2847C180.38 94.42 180.385 94.5298 180.392 94.6129C180.406 94.7869 180.436 94.9173 180.481 95.0042C180.526 95.091 180.583 95.1588 180.653 95.2075C180.709 95.2492 180.782 95.2771 180.872 95.2908C180.962 95.3047 181.077 95.3116 181.216 95.3116L181.268 95.3532L181.299 95.5409L181.279 95.5513C181.23 95.5513 181.155 95.5513 181.054 95.5513C180.954 95.5513 180.847 95.5513 180.736 95.5513C180.625 95.5513 180.519 95.5513 180.418 95.5513C180.318 95.5513 180.243 95.5513 180.194 95.5513H179.996C179.948 95.5513 179.868 95.5513 179.757 95.5513C179.645 95.5513 179.53 95.5513 179.413 95.5513C179.294 95.5513 179.18 95.5513 179.069 95.5513C178.957 95.5513 178.877 95.5513 178.829 95.5513L178.808 95.5409L178.839 95.3532L178.891 95.3116C179.016 95.3116 179.122 95.3064 179.209 95.296C179.296 95.2854 179.374 95.2561 179.444 95.2072C179.492 95.1723 179.543 95.1152 179.595 95.0351C179.647 94.9551 179.683 94.8142 179.704 94.6125C179.711 94.5639 179.716 94.5065 179.72 94.4404C179.723 94.3743 179.725 94.2926 179.725 94.1951C179.725 94.0976 179.725 93.9793 179.725 93.8403C179.725 93.7012 179.725 93.5272 179.725 93.3185V91.2005C179.725 90.9571 179.725 90.7517 179.725 90.5848C179.725 90.4178 179.725 90.2752 179.725 90.1567C179.725 90.0387 179.723 89.9376 179.72 89.8543C179.716 89.7709 179.711 89.6872 179.704 89.6038C179.69 89.4579 179.659 89.3342 179.61 89.2334C179.562 89.1328 179.506 89.0577 179.444 89.0091C179.381 88.9604 179.303 88.9307 179.209 88.9203C179.115 88.9099 179.009 88.9047 178.891 88.9047L178.839 88.8638L178.808 88.6802L178.828 88.6386C178.877 88.6386 178.948 88.6415 179.042 88.6474C179.136 88.6532 179.231 88.659 179.329 88.6646C179.426 88.6704 179.522 88.6763 179.616 88.6821C179.709 88.6879 179.781 88.6906 179.829 88.6906H180.194C180.25 88.6906 180.328 88.6906 180.429 88.6906C180.529 88.6906 180.611 88.6802 180.674 88.6594L180.726 88.6906C180.754 88.7881 180.811 88.9218 180.898 89.0922C180.985 89.2625 181.089 89.4518 181.211 89.6603C181.332 89.8688 181.465 90.0915 181.607 90.3276C181.75 90.5642 181.894 90.797 182.04 91.0263C182.568 91.8744 183.029 92.5658 183.421 93.1011C183.814 93.6363 184.066 93.9839 184.177 94.1438C184.177 94.0953 184.179 94.05 184.182 94.0082C184.186 93.9667 184.188 93.9178 184.188 93.8623C184.188 93.8064 184.188 93.7367 184.188 93.6534C184.188 93.57 184.188 93.4584 184.188 93.3193V91.2007C184.188 90.9573 184.188 90.7521 184.188 90.585C184.188 90.418 184.186 90.2754 184.182 90.157C184.179 90.0387 184.176 89.9378 184.172 89.8545C184.168 89.7711 184.163 89.6874 184.156 89.6038C184.143 89.4092 184.111 89.2735 184.062 89.197C184.014 89.1203 183.962 89.0577 183.906 89.0091C183.844 88.9604 183.762 88.9307 183.661 88.9203C183.56 88.9099 183.454 88.9047 183.343 88.9047L183.301 88.8638L183.27 88.6802L183.291 88.6386C183.34 88.6386 183.409 88.6415 183.5 88.6474C183.59 88.6532 183.682 88.659 183.776 88.6646C183.87 88.6704 183.962 88.6763 184.052 88.6821C184.143 88.6879 184.212 88.6906 184.261 88.6906H184.751C184.799 88.6906 184.869 88.6906 184.959 88.6906C185.05 88.6906 185.144 88.6873 185.241 88.6802C185.338 88.6734 185.432 88.6665 185.522 88.6592C185.613 88.6526 185.682 88.6455 185.731 88.6384L185.741 88.6802Z" fill="#3C6084"/>
<path d="M184.853 95.6971H184.139L184.003 95.5339L180.466 90.2196C180.465 90.2608 180.465 90.3055 180.465 90.3539V93.4402C180.465 93.5749 180.467 93.7148 180.47 93.8601L180.48 94.2821C180.484 94.4151 180.489 94.5226 180.496 94.6043C180.508 94.7644 180.534 94.8824 180.573 94.9562C180.61 95.0282 180.657 95.0839 180.712 95.1223C180.757 95.1558 180.814 95.1772 180.887 95.1882C180.972 95.2013 181.082 95.208 181.216 95.208H181.252L181.364 95.2972L181.414 95.6L181.303 95.6557H178.803L178.692 95.6L178.742 95.2972L178.854 95.208H178.891C179.01 95.208 179.113 95.203 179.196 95.1932C179.267 95.1847 179.328 95.1616 179.384 95.1223C179.409 95.1042 179.452 95.0639 179.507 94.9789C179.537 94.9336 179.577 94.8317 179.601 94.602C179.607 94.5521 179.612 94.4977 179.616 94.4349C179.619 94.3704 179.621 94.2906 179.621 94.1954V90.157C179.621 90.0404 179.619 89.9411 179.616 89.8587C179.612 89.7768 179.607 89.6947 179.601 89.6124C179.588 89.4806 179.56 89.3678 179.517 89.2786C179.475 89.1929 179.429 89.1297 179.38 89.0913C179.333 89.0547 179.271 89.032 179.197 89.0239C179.107 89.0139 179.004 89.009 178.891 89.009H178.855L178.743 88.921L178.699 88.6645L178.764 88.535H178.828C178.878 88.535 178.952 88.5379 179.048 88.5439L179.622 88.5787C179.713 88.5843 179.782 88.587 179.829 88.587H180.429C180.518 88.587 180.59 88.5782 180.641 88.561L180.687 88.546L180.815 88.6229L180.826 88.6624C180.852 88.7535 180.907 88.8824 180.991 89.0453C181.077 89.215 181.182 89.4045 181.301 89.6085C181.422 89.8166 181.554 90.0388 181.696 90.2743C181.838 90.5102 181.982 90.7424 182.127 90.9709C182.651 91.8117 183.114 92.5077 183.505 93.0401C183.754 93.3789 183.947 93.6443 184.084 93.8339V90.5853C184.084 90.4196 184.082 90.2778 184.079 90.1604C184.075 90.0427 184.072 89.9423 184.068 89.8592C184.065 89.7773 184.059 89.6949 184.053 89.6126C184.037 89.3919 184.002 89.2956 183.975 89.2534C183.932 89.1854 183.885 89.1295 183.838 89.0877C183.796 89.0553 183.731 89.0325 183.651 89.0241C183.553 89.0142 183.45 89.0092 183.343 89.0092H183.301L183.205 88.9148L183.162 88.6645L183.227 88.5352H183.292C183.342 88.5352 183.413 88.5381 183.507 88.5442L184.059 88.5789C184.147 88.5845 184.214 88.5872 184.261 88.5872H184.96C185.047 88.5872 185.139 88.5839 185.234 88.577C185.331 88.5701 185.424 88.5633 185.515 88.5562C185.602 88.5496 185.67 88.5429 185.717 88.536L185.81 88.5229L185.847 88.6739L185.819 88.9192L185.705 89.0092H185.669C185.562 89.0092 185.459 89.0144 185.361 89.0241C185.283 89.0322 185.223 89.0537 185.184 89.0877C185.137 89.1289 185.093 89.1838 185.054 89.2503C185.029 89.2931 184.995 89.3904 184.98 89.6116C184.973 89.708 184.968 89.7974 184.965 89.88C184.961 89.9633 184.957 90.06 184.954 90.171C184.95 90.2814 184.949 90.4158 184.949 90.5745V93.0265C184.949 93.4155 184.951 93.7352 184.954 93.985C184.957 94.2353 184.961 94.449 184.965 94.6259C184.968 94.8016 184.975 94.9579 184.985 95.0953C184.995 95.234 185.007 95.387 185.021 95.5533L185.028 95.6316L184.853 95.6971ZM184.236 95.4892H184.807C184.796 95.3535 184.786 95.2269 184.777 95.1107C184.767 94.9697 184.76 94.8095 184.756 94.6299C184.752 94.4526 184.749 94.2382 184.745 93.9875C184.742 93.7368 184.74 93.4163 184.74 93.0261V90.574C184.74 90.4129 184.742 90.276 184.745 90.1639C184.749 90.0521 184.752 89.9542 184.756 89.8706C184.76 89.7864 184.765 89.6947 184.772 89.5962C184.787 89.3833 184.82 89.2353 184.875 89.1439C184.925 89.0582 184.983 88.9865 185.047 88.9308C185.119 88.8676 185.217 88.8294 185.339 88.8169C185.43 88.8075 185.525 88.8023 185.622 88.8009L185.628 88.7545C185.598 88.7574 185.565 88.7599 185.529 88.7628C185.439 88.7699 185.345 88.7768 185.247 88.7838C185.148 88.7911 185.051 88.7944 184.958 88.7944H184.26C184.21 88.7944 184.138 88.7917 184.045 88.7857L183.492 88.751C183.452 88.7483 183.417 88.7464 183.386 88.7452L183.395 88.8013C183.49 88.8027 183.583 88.8079 183.671 88.8171C183.791 88.8294 183.891 88.8664 183.969 88.9271C184.037 88.9857 184.096 89.0566 184.149 89.1414C184.208 89.233 184.244 89.3821 184.259 89.5964C184.266 89.6804 184.271 89.7654 184.275 89.8502C184.279 89.934 184.282 90.0352 184.286 90.1539C184.289 90.2733 184.291 90.4171 184.291 90.5851V93.8624C184.291 93.9212 184.289 93.9728 184.285 94.0169C184.282 94.0564 184.28 94.0988 184.28 94.1439V94.475L184.091 94.2033C183.981 94.0449 183.727 93.6949 183.337 93.1627C182.943 92.626 182.477 91.9258 181.951 91.0813C181.805 90.8518 181.66 90.6183 181.517 90.3811C181.374 90.1446 181.242 89.9215 181.121 89.7126C180.999 89.5054 180.893 89.3122 180.805 89.1393C180.729 88.9917 180.676 88.8718 180.643 88.7749C180.582 88.788 180.511 88.7944 180.428 88.7944H179.829C179.778 88.7944 179.705 88.7917 179.608 88.7857L179.035 88.751C178.993 88.7483 178.956 88.7464 178.923 88.745L178.933 88.8011C179.037 88.8023 179.134 88.8075 179.22 88.8171C179.333 88.8296 179.429 88.8666 179.507 88.9271C179.582 88.9853 179.648 89.0732 179.703 89.1881C179.757 89.2998 179.792 89.4361 179.807 89.5939C179.814 89.68 179.819 89.765 179.823 89.8498C179.827 89.9346 179.828 90.0369 179.828 90.1568V94.1952C179.828 94.2948 179.827 94.3781 179.823 94.4459C179.819 94.5158 179.814 94.5758 179.807 94.6272C179.784 94.8438 179.743 94.997 179.681 95.092C179.622 95.183 179.564 95.2483 179.504 95.2917C179.419 95.3506 179.325 95.3865 179.221 95.3992C179.14 95.409 179.043 95.4144 178.933 95.4154L178.928 95.4474H181.178L181.173 95.4154C181.046 95.4142 180.942 95.4069 180.856 95.3936C180.748 95.3772 180.659 95.3425 180.59 95.2905C180.51 95.2348 180.441 95.1541 180.388 95.0523C180.336 94.9521 180.304 94.8111 180.289 94.6211C180.281 94.5372 180.276 94.4255 180.273 94.2875L180.262 93.8649C180.258 93.7181 180.257 93.5766 180.257 93.4402V90.3539C180.257 90.2512 180.259 90.1643 180.262 90.0932C180.266 90.0255 180.267 89.9579 180.267 89.8897V89.5459L184.17 95.41L184.236 95.4892Z" fill="#3C6084"/>
<path d="M189.797 88.6699C189.888 88.6699 190.025 88.6699 190.209 88.6699C190.393 88.6699 190.579 88.6699 190.767 88.6699C190.954 88.6699 191.123 88.6699 191.273 88.6699C191.422 88.6699 191.514 88.6699 191.549 88.6699L191.601 88.7637L191.559 89.8985H191.299L191.257 89.8565C191.243 89.6945 191.224 89.5675 191.2 89.4761C191.175 89.3846 191.106 89.3177 190.991 89.2755C190.876 89.2333 190.705 89.2121 190.475 89.2121C190.246 89.2121 189.923 89.2121 189.506 89.2121H188.505L188.484 89.6137C188.477 89.7234 188.471 89.8161 188.468 89.8916C188.464 89.9671 188.461 90.06 188.458 90.1697C188.454 90.2795 188.452 90.4117 188.452 90.5659C188.452 90.7204 188.452 91.0929 188.452 91.6831C188.661 91.6831 188.87 91.6831 189.078 91.6831C189.287 91.6831 189.476 91.6831 189.646 91.6831C189.817 91.6831 189.961 91.6708 190.079 91.6461C190.197 91.6215 190.277 91.5845 190.319 91.5355C190.374 91.4793 190.423 91.423 190.465 91.3665C190.506 91.3101 190.527 91.2293 190.527 91.1237L190.579 91.0723L190.757 91.0517L190.798 91.0723C190.784 91.2318 190.772 91.3704 190.762 91.4883C190.751 91.6061 190.746 91.7415 190.746 91.8938C190.746 92.0603 190.751 92.2146 190.762 92.3568C190.772 92.4992 190.784 92.6534 190.798 92.8197L190.757 92.8407L190.569 92.8197L190.527 92.7885C190.527 92.6757 190.506 92.5715 190.465 92.4761C190.423 92.3809 190.374 92.3013 190.319 92.2379C190.277 92.1957 190.197 92.1637 190.079 92.1427C189.961 92.1215 189.818 92.1109 189.651 92.1109C189.485 92.1109 189.297 92.1109 189.088 92.1109C188.88 92.1109 188.668 92.1109 188.452 92.1109V93.1184C188.452 93.3677 188.452 93.5706 188.452 93.7263C188.452 93.8819 188.454 94.0204 188.457 94.1416C188.461 94.2628 188.466 94.3738 188.473 94.4742C188.48 94.5746 188.49 94.6906 188.504 94.8222C188.504 94.9544 188.574 95.0203 188.713 95.0203H189.599C190.016 95.0203 190.345 95.0115 190.584 94.9941C190.824 94.9768 191.007 94.9402 191.132 94.8847C191.257 94.829 191.345 94.7438 191.398 94.6293C191.45 94.5147 191.5 94.3636 191.549 94.1757L191.59 94.1341H191.862L191.674 95.4485L191.59 95.552C191.556 95.552 191.476 95.552 191.351 95.552C191.226 95.552 191.085 95.552 190.929 95.552C190.772 95.552 190.616 95.552 190.459 95.552C190.303 95.552 190.179 95.552 190.089 95.552H187.983C187.934 95.552 187.854 95.552 187.743 95.552C187.632 95.552 187.517 95.552 187.399 95.552C187.281 95.552 187.166 95.552 187.055 95.552C186.944 95.552 186.864 95.552 186.815 95.552L186.794 95.5416L186.826 95.3539L186.878 95.3123C186.989 95.3123 187.093 95.3071 187.19 95.2967C187.288 95.2861 187.368 95.2568 187.43 95.208C187.486 95.1595 187.54 95.097 187.592 95.0205C187.644 94.944 187.677 94.8082 187.691 94.6137C187.691 94.5652 187.693 94.5079 187.696 94.4418C187.7 94.3759 187.703 94.2942 187.707 94.1967C187.71 94.0994 187.712 93.9813 187.712 93.8422C187.712 93.7032 187.712 93.5294 187.712 93.3207V91.2041C187.712 90.9609 187.712 90.7557 187.712 90.5888C187.712 90.4221 187.712 90.2797 187.712 90.1614C187.712 90.0433 187.71 89.9423 187.707 89.859C187.703 89.7756 187.698 89.692 187.691 89.6087C187.677 89.4212 187.644 89.2873 187.592 89.2073C187.54 89.1275 187.486 89.0632 187.43 89.0144C187.368 88.9657 187.288 88.936 187.19 88.9256C187.093 88.9152 186.989 88.91 186.878 88.91L186.826 88.8684L186.794 88.6807L186.815 88.6703C186.864 88.6703 186.944 88.6703 187.055 88.6703C187.166 88.6703 187.286 88.6703 187.415 88.6703C187.543 88.6703 187.668 88.6703 187.79 88.6703C187.912 88.6703 188.011 88.6703 188.087 88.6703H189.797V88.6699Z" fill="#3C6084"/>
<path d="M191.64 95.6552H186.79L186.679 95.5995L186.73 95.2966L186.841 95.2075H186.878C186.984 95.2075 187.085 95.2025 187.179 95.1925C187.257 95.1842 187.32 95.1615 187.366 95.1251C187.411 95.0861 187.459 95.0297 187.506 94.9611C187.534 94.9193 187.571 94.8239 187.587 94.6052C187.587 94.5626 187.589 94.5038 187.592 94.4354C187.596 94.3699 187.599 94.2889 187.603 94.192C187.606 94.096 187.608 93.9791 187.608 93.8415V90.1609C187.608 90.0445 187.606 89.9449 187.603 89.8626C187.599 89.7807 187.594 89.6988 187.587 89.6165C187.572 89.4049 187.534 89.3078 187.505 89.2635C187.458 89.192 187.41 89.1344 187.362 89.092C187.32 89.0594 187.257 89.0367 187.179 89.0284C187.085 89.0184 186.984 89.0134 186.878 89.0134H186.841L186.73 88.9243L186.679 88.6214L186.79 88.5657H191.61L191.706 88.7382L191.659 90.0021H191.255L191.157 89.9027L191.153 89.8651C191.14 89.7094 191.122 89.5874 191.099 89.5026C191.089 89.466 191.064 89.4128 190.955 89.3726C190.852 89.3348 190.691 89.3159 190.475 89.3159H188.603L188.587 89.619C188.58 89.7291 188.575 89.8212 188.571 89.8961C188.568 89.9711 188.565 90.0636 188.561 90.1728C188.557 90.2817 188.556 90.4128 188.556 90.5658V91.579H189.646C189.809 91.579 189.947 91.5672 190.057 91.5443C190.186 91.5175 190.227 91.4821 190.239 91.4682C190.297 91.4094 190.342 91.3564 190.381 91.3048C190.409 91.2668 190.423 91.2061 190.423 91.1238V91.0803L190.531 90.9733L190.774 90.945L190.908 91.0103L190.865 91.4975C190.855 91.6125 190.85 91.7457 190.85 91.8937C190.85 92.0559 190.855 92.2093 190.865 92.349C190.876 92.491 190.887 92.6448 190.902 92.8107L190.907 92.8809L190.775 92.947L190.529 92.9196L190.423 92.8402V92.7882C190.423 92.6899 190.405 92.5991 190.369 92.5176C190.332 92.4323 190.289 92.361 190.24 92.306C190.233 92.2985 190.191 92.2679 190.06 92.2446C189.948 92.2245 189.81 92.2143 189.651 92.2143H188.556V93.7257C188.556 93.8802 188.558 94.0176 188.561 94.1379C188.565 94.2577 188.57 94.3674 188.577 94.4664C188.583 94.5658 188.594 94.6803 188.607 94.8104C188.608 94.8878 188.623 94.9156 188.713 94.9156H189.599C190.012 94.9156 190.341 94.9069 190.577 94.8896C190.803 94.8734 190.976 94.8395 191.09 94.789C191.192 94.7437 191.261 94.6772 191.303 94.5855C191.352 94.477 191.401 94.33 191.448 94.1488L191.455 94.1215L191.547 94.0294H191.981L191.773 95.4908L191.64 95.6552ZM186.915 95.4473H191.541L191.575 95.4047L191.742 94.2373H191.64C191.593 94.4138 191.543 94.5597 191.492 94.6716C191.43 94.8096 191.322 94.9131 191.174 94.979C191.036 95.0401 190.846 95.0788 190.592 95.0971C190.351 95.1145 190.017 95.1235 189.599 95.1235H188.713C188.517 95.1235 188.4 95.0106 188.4 94.8214C188.387 94.6994 188.376 94.5824 188.369 94.4805C188.362 94.3791 188.357 94.2666 188.353 94.144C188.35 94.022 188.348 93.8825 188.348 93.7255V92.0062H189.651C189.822 92.0062 189.972 92.0176 190.097 92.0397C190.238 92.0648 190.335 92.1056 190.393 92.1644C190.459 92.2401 190.514 92.3292 190.56 92.434C190.599 92.5228 190.622 92.6192 190.629 92.7215L190.686 92.7277C190.676 92.5991 190.666 92.4779 190.658 92.3642C190.647 92.2193 190.642 92.0609 190.642 91.8935C190.642 91.7395 190.648 91.6 190.658 91.4788L190.686 91.1643L190.63 91.1708C190.624 91.2776 190.597 91.362 190.548 91.4279C190.504 91.4873 190.452 91.548 190.392 91.6079C190.34 91.6701 190.243 91.7175 190.1 91.7472C189.974 91.7736 189.826 91.7865 189.646 91.7865H188.348V90.5654C188.348 90.4097 188.35 90.2765 188.353 90.1657C188.357 90.0555 188.36 89.9622 188.364 89.8863C188.368 89.8102 188.373 89.7171 188.38 89.6065L188.406 89.1076H190.475C190.719 89.1076 190.899 89.1303 191.027 89.1774C191.175 89.2317 191.266 89.323 191.3 89.4487C191.323 89.5362 191.341 89.6495 191.356 89.794H191.459L191.496 88.7883L191.488 88.7733H186.915L186.921 88.8054C187.019 88.8066 187.113 88.812 187.201 88.8214C187.318 88.8338 187.416 88.8706 187.494 88.9313C187.561 88.9902 187.622 89.0623 187.679 89.1494C187.741 89.245 187.779 89.3924 187.795 89.5998C187.802 89.6836 187.807 89.7686 187.811 89.8535C187.814 89.9383 187.816 90.0405 187.816 90.1603V93.8409C187.816 93.9814 187.814 94.1007 187.811 94.1991C187.807 94.2974 187.803 94.3795 187.8 94.446C187.797 94.51 187.795 94.5655 187.795 94.6125C187.779 94.8354 187.741 94.9852 187.678 95.0777C187.621 95.1609 187.561 95.2305 187.499 95.285C187.417 95.3492 187.318 95.3862 187.202 95.3989C187.113 95.4083 187.019 95.4137 186.921 95.4149L186.915 95.4473Z" fill="#3C6084"/>
<path d="M193.947 90.2234C193.947 90.418 193.982 90.5797 194.051 90.7082C194.121 90.8368 194.227 90.9497 194.369 91.047C194.512 91.1445 194.693 91.233 194.911 91.3129C195.13 91.3929 195.389 91.4781 195.688 91.5681C195.945 91.6515 196.199 91.7457 196.449 91.8496C196.699 91.9539 196.923 92.088 197.122 92.2512C197.32 92.4146 197.478 92.6127 197.596 92.8453C197.714 93.0783 197.773 93.3615 197.773 93.6953C197.773 94.0497 197.704 94.3503 197.565 94.5971C197.426 94.844 197.241 95.0438 197.012 95.1968C196.783 95.3496 196.517 95.4608 196.214 95.5302C195.912 95.5996 195.594 95.6346 195.26 95.6346C194.829 95.6346 194.437 95.5859 194.082 95.4886C193.728 95.3913 193.408 95.2695 193.123 95.1236L193.081 94.9881L193.259 93.8726H193.519L193.571 93.9352C193.606 94.3593 193.776 94.6702 194.082 94.8683C194.388 95.0664 194.805 95.1656 195.334 95.1656C195.876 95.1656 196.284 95.0421 196.559 94.7954C196.833 94.5488 196.971 94.2273 196.971 93.8308C196.971 93.5876 196.918 93.3843 196.814 93.2209C196.71 93.0575 196.573 92.9185 196.403 92.8037C196.232 92.689 196.037 92.5936 195.819 92.5171C195.599 92.4406 195.379 92.3643 195.156 92.2876C194.878 92.1972 194.619 92.0982 194.38 91.9903C194.14 91.8824 193.931 91.7556 193.754 91.6097C193.577 91.4638 193.438 91.29 193.337 91.0884C193.236 90.8867 193.186 90.647 193.186 90.3689C193.186 90.0423 193.243 89.7661 193.358 89.5399C193.472 89.3142 193.631 89.1298 193.832 88.9874C194.034 88.845 194.268 88.7423 194.536 88.6799C194.803 88.6174 195.094 88.5862 195.406 88.5862C195.782 88.5862 196.136 88.6209 196.47 88.6903C196.803 88.76 197.075 88.8433 197.283 88.9406L197.325 89.0554L197.179 89.9833H196.887L196.835 89.9313C196.821 89.7507 196.762 89.6046 196.657 89.4933C196.553 89.3823 196.43 89.2952 196.287 89.2327C196.145 89.1701 195.992 89.1285 195.829 89.1075C195.665 89.0865 195.521 89.0763 195.396 89.0763C194.944 89.0763 194.589 89.1755 194.332 89.3736C194.075 89.5719 193.947 89.855 193.947 90.2234Z" fill="#3C6084"/>
<path d="M195.261 95.7386C194.823 95.7386 194.417 95.6883 194.055 95.589C193.696 95.4904 193.366 95.3651 193.076 95.2163L193.037 95.1961L192.975 94.9955L193.17 93.7686H193.568L193.673 93.894L193.675 93.9266C193.707 94.3203 193.859 94.5997 194.139 94.781C194.426 94.967 194.828 95.0616 195.334 95.0616C195.847 95.0616 196.236 94.9458 196.489 94.718C196.743 94.4899 196.867 94.1997 196.867 93.8308C196.867 93.609 196.82 93.4225 196.727 93.2768C196.631 93.1261 196.502 92.996 196.344 92.8901C196.183 92.7812 195.994 92.6887 195.784 92.6153C195.565 92.539 195.345 92.4628 195.123 92.3861C194.844 92.2956 194.579 92.1942 194.337 92.0855C194.09 91.9745 193.872 91.8414 193.688 91.6903C193.5 91.5354 193.351 91.3488 193.244 91.1353C193.137 90.9201 193.082 90.6624 193.082 90.3693C193.082 90.0275 193.144 89.7327 193.265 89.4931C193.388 89.253 193.558 89.0545 193.773 88.9027C193.985 88.7528 194.234 88.6439 194.513 88.5786C194.787 88.5146 195.088 88.4822 195.407 88.4822C195.788 88.4822 196.153 88.5179 196.492 88.5886C196.832 88.6595 197.113 88.7464 197.328 88.8464L197.367 88.8647L197.432 89.0449L197.269 90.0872H196.844L196.735 89.9776L196.732 89.9394C196.72 89.7812 196.671 89.6585 196.582 89.5642C196.488 89.464 196.375 89.3843 196.246 89.3276C196.114 89.2696 195.969 89.2299 195.816 89.2104C195.658 89.19 195.517 89.1798 195.397 89.1798C194.97 89.1798 194.634 89.2725 194.396 89.4554C194.164 89.6342 194.051 89.8853 194.051 90.2227C194.051 90.3992 194.082 90.5455 194.143 90.658C194.204 90.7715 194.3 90.8731 194.428 90.9605C194.563 91.0525 194.737 91.138 194.947 91.2147C195.166 91.2947 195.426 91.3799 195.719 91.4683C195.978 91.5523 196.237 91.6481 196.49 91.7533C196.748 91.861 196.983 92.0013 197.188 92.1707C197.396 92.3422 197.565 92.5532 197.689 92.7981C197.814 93.045 197.878 93.3466 197.878 93.695C197.878 94.0661 197.803 94.3866 197.656 94.6477C197.509 94.908 197.312 95.1217 197.07 95.283C196.832 95.4424 196.551 95.5595 196.238 95.6314C195.929 95.7029 195.6 95.7386 195.261 95.7386ZM193.21 95.051C193.478 95.1849 193.781 95.2984 194.11 95.3886C194.454 95.483 194.841 95.5308 195.261 95.5308C195.585 95.5308 195.898 95.4965 196.191 95.4291C196.48 95.363 196.737 95.2555 196.955 95.1104C197.169 94.9674 197.344 94.7776 197.475 94.5463C197.604 94.3166 197.67 94.0305 197.67 93.6954C197.67 93.3799 197.614 93.1099 197.503 92.8926C197.392 92.6735 197.241 92.4848 197.056 92.3316C196.866 92.1753 196.648 92.0456 196.409 91.946C196.162 91.8429 195.908 91.7491 195.656 91.6672C195.362 91.5785 195.098 91.4918 194.876 91.4107C194.65 91.3284 194.46 91.2348 194.31 91.133C194.155 91.0266 194.037 90.9004 193.96 90.7576C193.882 90.6145 193.843 90.4347 193.843 90.2235C193.843 89.8228 193.986 89.5095 194.269 89.2914C194.544 89.0798 194.923 88.9728 195.396 88.9728C195.526 88.9728 195.676 88.9836 195.842 89.0048C196.015 89.027 196.179 89.0717 196.33 89.1378C196.484 89.2058 196.62 89.3016 196.733 89.4226C196.845 89.5415 196.913 89.6951 196.934 89.8797H197.09L197.218 89.0661L197.201 89.0177C197.005 88.9318 196.753 88.8561 196.449 88.7925C196.124 88.725 195.773 88.6907 195.407 88.6907C195.103 88.6907 194.818 88.7212 194.56 88.7819C194.307 88.8408 194.082 88.9389 193.892 89.073C193.705 89.205 193.557 89.3781 193.45 89.5879C193.344 89.798 193.29 90.061 193.29 90.3699C193.29 90.6303 193.337 90.8569 193.43 91.0428C193.523 91.2301 193.655 91.3941 193.82 91.5304C193.989 91.6699 194.192 91.793 194.422 91.8965C194.657 92.0023 194.915 92.1008 195.188 92.1896C195.412 92.2667 195.633 92.343 195.853 92.4197C196.079 92.4989 196.284 92.5993 196.46 92.718C196.641 92.8403 196.79 92.9908 196.902 93.1654C197.016 93.345 197.074 93.5689 197.074 93.8312C197.074 94.2565 196.924 94.607 196.628 94.8731C196.335 95.1364 195.899 95.2699 195.333 95.2699C194.787 95.2699 194.347 95.1643 194.026 94.956C193.701 94.7454 193.514 94.4164 193.471 93.9771L193.47 93.9769H193.347L193.187 94.9809L193.21 95.051Z" fill="#3C6084"/>
<path d="M199.9 90.2234C199.9 90.418 199.935 90.5797 200.005 90.7082C200.074 90.8368 200.18 90.9497 200.323 91.047C200.465 91.1445 200.646 91.233 200.865 91.3129C201.084 91.3929 201.343 91.4781 201.642 91.5681C201.899 91.6515 202.152 91.7457 202.403 91.8496C202.653 91.9539 202.877 92.088 203.075 92.2512C203.273 92.4146 203.431 92.6127 203.549 92.8453C203.668 93.0783 203.727 93.3615 203.727 93.6953C203.727 94.0497 203.657 94.3503 203.518 94.5971C203.379 94.844 203.195 95.0438 202.966 95.1968C202.736 95.3496 202.47 95.4608 202.168 95.5302C201.865 95.5996 201.547 95.6346 201.214 95.6346C200.783 95.6346 200.39 95.5859 200.036 95.4886C199.681 95.3913 199.361 95.2695 199.076 95.1236L199.035 94.9881L199.212 93.8726H199.473L199.525 93.9352C199.56 94.3593 199.73 94.6702 200.036 94.8683C200.342 95.0664 200.759 95.1656 201.287 95.1656C201.829 95.1656 202.237 95.0421 202.512 94.7954C202.787 94.5488 202.924 94.2273 202.924 93.8308C202.924 93.5876 202.872 93.3843 202.768 93.2209C202.663 93.0575 202.526 92.9185 202.356 92.8037C202.186 92.689 201.991 92.5936 201.772 92.5171C201.553 92.4406 201.332 92.3643 201.11 92.2876C200.832 92.1972 200.573 92.0982 200.333 91.9903C200.093 91.8824 199.885 91.7556 199.708 91.6097C199.53 91.4638 199.391 91.29 199.29 91.0884C199.19 90.8867 199.139 90.647 199.139 90.3689C199.139 90.0423 199.197 89.7661 199.311 89.5399C199.426 89.3142 199.584 89.1298 199.786 88.9874C199.987 88.845 200.222 88.7423 200.49 88.6799C200.757 88.6174 201.048 88.5862 201.36 88.5862C201.736 88.5862 202.09 88.6209 202.424 88.6903C202.757 88.76 203.029 88.8433 203.237 88.9406L203.279 89.0554L203.133 89.9833H202.841L202.789 89.9313C202.775 89.7507 202.716 89.6046 202.612 89.4933C202.507 89.3823 202.384 89.2952 202.242 89.2327C202.099 89.1701 201.946 89.1285 201.783 89.1075C201.619 89.0865 201.475 89.0763 201.35 89.0763C200.898 89.0763 200.544 89.1755 200.286 89.3736C200.029 89.5719 199.9 89.855 199.9 90.2234Z" fill="#3C6084"/>
<path d="M201.214 95.7386C200.776 95.7386 200.371 95.6883 200.009 95.589C199.649 95.4904 199.32 95.3651 199.029 95.2163L198.99 95.1961L198.929 94.9955L199.124 93.7686H199.522L199.626 93.894L199.629 93.9266C199.661 94.3203 199.813 94.5997 200.093 94.781C200.38 94.967 200.782 95.0616 201.287 95.0616C201.8 95.0616 202.189 94.9458 202.443 94.718C202.697 94.4899 202.82 94.1997 202.82 93.8308C202.82 93.609 202.773 93.4225 202.68 93.2768C202.584 93.1261 202.456 92.996 202.298 92.8901C202.136 92.7812 201.948 92.6887 201.738 92.6153C201.519 92.539 201.299 92.4628 201.076 92.3861C200.798 92.2956 200.533 92.1942 200.291 92.0855C200.044 91.9745 199.825 91.8414 199.642 91.6903C199.454 91.5354 199.304 91.3488 199.197 91.1353C199.09 90.9201 199.036 90.6624 199.036 90.3693C199.036 90.0275 199.097 89.7327 199.219 89.4931C199.341 89.253 199.511 89.0545 199.726 88.9027C199.938 88.7528 200.187 88.6439 200.466 88.5786C200.74 88.5146 201.041 88.4822 201.36 88.4822C201.741 88.4822 202.106 88.5179 202.445 88.5886C202.785 88.6595 203.066 88.7464 203.281 88.8464L203.32 88.8647L203.386 89.0449L203.222 90.0872H202.798L202.689 89.9776L202.686 89.9394C202.673 89.7812 202.624 89.6585 202.536 89.5642C202.442 89.464 202.329 89.3843 202.2 89.3276C202.067 89.2696 201.923 89.2299 201.77 89.2104C201.612 89.19 201.471 89.1798 201.35 89.1798C200.924 89.1798 200.588 89.2725 200.35 89.4554C200.118 89.6342 200.005 89.8853 200.005 90.2227C200.005 90.3992 200.036 90.5455 200.097 90.658C200.158 90.7715 200.254 90.8731 200.382 90.9605C200.517 91.0525 200.691 91.138 200.901 91.2147C201.12 91.2947 201.38 91.3799 201.672 91.4683C201.932 91.5523 202.19 91.6481 202.443 91.7533C202.701 91.861 202.937 92.0013 203.142 92.1707C203.35 92.3422 203.518 92.5532 203.643 92.7981C203.768 93.045 203.831 93.3466 203.831 93.695C203.831 94.0661 203.757 94.3866 203.61 94.6477C203.463 94.908 203.266 95.1217 203.024 95.283C202.785 95.4424 202.505 95.5595 202.192 95.6314C201.882 95.7029 201.554 95.7386 201.214 95.7386ZM199.163 95.051C199.432 95.1849 199.734 95.2984 200.064 95.3886C200.408 95.483 200.795 95.5308 201.214 95.5308C201.538 95.5308 201.851 95.4965 202.145 95.4291C202.434 95.363 202.69 95.2555 202.908 95.1104C203.123 94.9674 203.298 94.7776 203.428 94.5463C203.558 94.3166 203.623 94.0305 203.623 93.6954C203.623 93.3799 203.567 93.1099 203.457 92.8926C203.346 92.6735 203.195 92.4848 203.009 92.3316C202.82 92.1753 202.602 92.0456 202.363 91.946C202.115 91.8429 201.862 91.7491 201.61 91.6672C201.315 91.5785 201.052 91.4918 200.829 91.4107C200.603 91.3284 200.413 91.2348 200.264 91.133C200.108 91.0266 199.991 90.9004 199.913 90.7576C199.836 90.6145 199.796 90.4347 199.796 90.2235C199.796 89.8228 199.94 89.5095 200.223 89.2914C200.497 89.0798 200.876 88.9728 201.35 88.9728C201.479 88.9728 201.629 88.9836 201.796 89.0048C201.968 89.027 202.132 89.0717 202.283 89.1378C202.438 89.2058 202.574 89.3016 202.687 89.4226C202.799 89.5415 202.866 89.6951 202.888 89.8797H203.044L203.172 89.0661L203.154 89.0177C202.959 88.9318 202.706 88.8561 202.402 88.7925C202.078 88.725 201.727 88.6907 201.36 88.6907C201.057 88.6907 200.772 88.7212 200.513 88.7819C200.26 88.8408 200.036 88.9389 199.846 89.073C199.659 89.205 199.511 89.3781 199.404 89.5879C199.297 89.798 199.243 90.061 199.243 90.3699C199.243 90.6303 199.29 90.8569 199.384 91.0428C199.477 91.2301 199.608 91.3941 199.774 91.5304C199.943 91.6699 200.146 91.793 200.376 91.8965C200.611 92.0023 200.869 92.1008 201.142 92.1896C201.366 92.2667 201.587 92.343 201.807 92.4197C202.033 92.4989 202.238 92.5993 202.414 92.718C202.595 92.8403 202.744 92.9908 202.856 93.1654C202.97 93.345 203.028 93.5689 203.028 93.8312C203.028 94.2565 202.878 94.607 202.582 94.8731C202.289 95.1364 201.853 95.2699 201.287 95.2699C200.741 95.2699 200.301 95.1643 199.98 94.956C199.655 94.7454 199.468 94.4164 199.425 93.9771L199.424 93.9769H199.301L199.141 94.9809L199.163 95.051Z" fill="#3C6084"/>
<path d="M167.521 100.405C167.521 100.598 167.572 100.756 167.673 100.878C167.774 101.001 167.905 101.091 168.065 101.15C168.225 101.209 168.401 101.26 168.594 101.302C168.787 101.344 168.98 101.391 169.173 101.443C169.366 101.495 169.542 101.562 169.703 101.644C169.863 101.727 169.993 101.853 170.095 102.022C170.196 102.191 170.247 102.401 170.247 102.65C170.247 103.022 170.107 103.347 169.83 103.624C169.552 103.902 169.172 104.041 168.69 104.041C168.208 104.041 167.816 103.933 167.514 103.716C167.213 103.5 167.063 103.208 167.063 102.841H167.585C167.604 103.067 167.701 103.254 167.875 103.402C168.049 103.55 168.309 103.624 168.655 103.624C169.001 103.624 169.276 103.535 169.481 103.356C169.685 103.177 169.788 102.955 169.788 102.689C169.788 102.423 169.694 102.223 169.505 102.089C169.317 101.955 169.09 101.862 168.824 101.81C168.558 101.758 168.292 101.698 168.026 101.63C167.761 101.562 167.534 101.429 167.345 101.231C167.157 101.034 167.063 100.746 167.063 100.37C167.063 99.9933 167.203 99.6826 167.483 99.4379C167.763 99.1932 168.133 99.0708 168.592 99.0708C169.05 99.0708 169.412 99.1768 169.675 99.3884C169.939 99.6003 170.099 99.8825 170.155 100.236H169.598C169.579 100.038 169.48 99.8649 169.301 99.7167C169.122 99.5684 168.877 99.4944 168.567 99.4944C168.256 99.4944 168.004 99.572 167.812 99.7273C167.618 99.8828 167.521 100.109 167.521 100.405Z" fill="#647380"/>
<path d="M172.971 103.992H172.477V102.072L170.917 99.1208H171.447L172.717 101.62L173.988 99.1208H174.524L172.971 102.072V103.992H172.971Z" fill="#647380"/>
<path d="M175.654 100.405C175.654 100.598 175.704 100.756 175.806 100.878C175.907 101.001 176.037 101.091 176.198 101.15C176.358 101.209 176.534 101.26 176.727 101.302C176.92 101.344 177.113 101.391 177.306 101.443C177.499 101.495 177.675 101.562 177.836 101.644C177.996 101.727 178.126 101.853 178.227 102.022C178.328 102.191 178.379 102.401 178.379 102.65C178.379 103.022 178.24 103.347 177.963 103.624C177.685 103.902 177.305 104.041 176.822 104.041C176.34 104.041 175.948 103.933 175.647 103.716C175.346 103.5 175.195 103.208 175.195 102.841H175.718C175.736 103.067 175.833 103.254 176.007 103.402C176.181 103.55 176.441 103.624 176.787 103.624C177.133 103.624 177.408 103.535 177.613 103.356C177.818 103.177 177.92 102.955 177.92 102.689C177.92 102.423 177.826 102.223 177.638 102.089C177.45 101.955 177.223 101.862 176.957 101.81C176.691 101.758 176.425 101.698 176.159 101.63C175.893 101.562 175.666 101.429 175.478 101.231C175.29 101.034 175.196 100.746 175.196 100.37C175.196 99.9933 175.336 99.6826 175.616 99.4379C175.896 99.1932 176.265 99.0708 176.724 99.0708C177.183 99.0708 177.544 99.1768 177.808 99.3884C178.071 99.6003 178.231 99.8825 178.288 100.236H177.73C177.711 100.038 177.612 99.8649 177.433 99.7167C177.255 99.5684 177.01 99.4944 176.699 99.4944C176.389 99.4944 176.137 99.572 175.944 99.7273C175.75 99.8828 175.654 100.109 175.654 100.405Z" fill="#647380"/>
<path d="M179.29 99.5231V99.1208H182.332V99.5231H181.055V103.992H180.567V99.5231H179.29Z" fill="#647380"/>
<path d="M185.827 99.1206V99.5228H183.843V101.344H185.615V101.739H183.843V103.596H185.827V103.992H183.349V99.1206H185.827Z" fill="#647380"/>
<path d="M191.75 99.1206V103.992H191.255V100.243L189.484 103.992H189.194L187.422 100.257V103.992H186.928V99.1206H187.387L189.342 103.279L191.291 99.1206H191.75Z" fill="#647380"/>
<path d="M167.784 144.973L163.919 148.838C167.784 152.392 172.875 154.632 178.486 154.851V149.389C174.382 149.178 170.655 147.544 167.784 144.973Z" fill="#B1CFDF"/>
<path d="M178.486 114.61V109.148C172.679 109.375 167.428 111.767 163.518 115.539L167.381 119.402C170.301 116.616 174.186 114.832 178.486 114.61Z" fill="#53C888"/>
<path d="M162.026 133.169H156.554C156.838 138.808 159.164 143.908 162.808 147.745L166.671 143.881C164.013 141.036 162.3 137.3 162.026 133.169Z" fill="#B1CFDF"/>
<path d="M191.277 119.276L195.141 115.412C191.186 111.657 185.89 109.302 180.045 109.139V114.603C184.382 114.762 188.313 116.507 191.277 119.276Z" fill="#53C888"/>
<path d="M196.799 131.61H202.262C202.164 125.794 199.897 120.508 196.234 116.524L192.369 120.389C195.048 123.379 196.704 127.302 196.799 131.61Z" fill="#53C888"/>
<path d="M166.301 120.528L162.433 116.659C158.842 120.627 156.625 125.861 156.529 131.61H161.992C162.086 127.368 163.694 123.501 166.301 120.528Z" fill="#B1CFDF"/>
<path d="M180.045 149.397V154.861C185.693 154.703 190.828 152.499 194.736 148.963L190.867 145.094C187.955 147.648 184.186 149.244 180.045 149.397Z" fill="#53C888"/>
<path d="M196.765 133.169C196.487 137.365 194.723 141.153 191.993 144.014L195.856 147.877C199.572 144.025 201.95 138.873 202.237 133.169H196.765Z" fill="#53C888"/>
<path d="M181.42 121.868L181.206 120.876C180.863 120.832 180.516 120.804 180.166 120.792C179.816 120.781 179.468 120.786 179.123 120.808L178.844 121.784C178.527 122.893 177.114 123.223 176.339 122.368L175.655 121.612C175.015 121.879 174.401 122.208 173.819 122.597L174.066 123.582C174.347 124.702 173.287 125.694 172.188 125.341L171.221 125.03C170.795 125.584 170.426 126.176 170.118 126.797L170.827 127.529C171.63 128.358 171.208 129.747 170.08 129.99L169.088 130.204C169.044 130.547 169.016 130.894 169.004 131.244C168.993 131.594 168.998 131.942 169.02 132.288L169.996 132.566C171.105 132.883 171.435 134.296 170.579 135.071L169.824 135.756C170.091 136.395 170.42 137.01 170.809 137.591L171.794 137.344C172.914 137.064 173.906 138.123 173.552 139.222L173.241 140.189C173.796 140.616 174.388 140.984 175.009 141.292L175.741 140.583C176.57 139.781 177.959 140.202 178.202 141.33L178.416 142.322C178.759 142.366 179.106 142.395 179.456 142.406C179.806 142.417 180.154 142.412 180.5 142.391L180.778 141.415C181.095 140.305 182.508 139.975 183.283 140.831L183.968 141.586C184.607 141.32 185.222 140.991 185.803 140.602L185.556 139.616C185.276 138.496 186.335 137.505 187.434 137.858L188.401 138.169C188.827 137.614 189.196 137.022 189.504 136.402L188.795 135.669C187.992 134.84 188.414 133.451 189.542 133.208L190.534 132.994C190.578 132.651 190.606 132.304 190.618 131.954C190.629 131.604 190.624 131.256 190.602 130.911L189.627 130.632C188.517 130.315 188.187 128.902 189.043 128.127L189.798 127.443C189.532 126.803 189.202 126.189 188.813 125.607L187.828 125.854C186.708 126.135 185.716 125.075 186.07 123.976L186.381 123.009C185.826 122.583 185.234 122.214 184.613 121.906L183.881 122.615C183.052 123.418 181.663 122.997 181.42 121.868ZM184.236 131.744C184.155 134.188 182.109 136.104 179.666 136.023C177.222 135.943 175.307 133.897 175.387 131.454C175.467 129.01 177.513 127.094 179.956 127.175C182.4 127.255 184.316 129.301 184.236 131.744Z" fill="#A0A4A9"/>
<path d="M113.08 86.5796L109.922 90.2236L105.196 120.256L109.193 124.964L136.645 120.348L134.944 114.517H114.294L117.938 102.856L113.08 86.5796Z" fill="#A0A4A9"/>
<path d="M135.298 115.324L139.196 112.452L145.512 114.882L145.026 117.797H138.843C138.843 117.797 138.043 118.531 136.19 118.893L135.298 115.324Z" fill="#F3D6AE"/>
<path d="M144.888 76.2978L148.422 73.3796L155.074 74.2111L156.114 82.3182H151.125L148.214 76.3591L144.888 76.2978Z" fill="#F3D6AE"/>
<path d="M279.164 219.648L285.463 224.299L285.53 225.777L283.261 226.538L274.79 224.783L273.925 220.215L279.164 219.648Z" fill="#3A3029"/>
<path d="M241.877 220.767L237.707 222.768L236.707 225.27C236.707 225.27 239.542 226.104 240.376 225.937C241.21 225.77 248.549 225.27 248.549 225.27C248.549 225.27 249.048 220.6 248.548 220.767C248.048 220.933 241.877 220.767 241.877 220.767Z" fill="#3A3029"/>
<path d="M244.356 137.509L240.822 176.381L241.921 221.026C241.921 221.026 248.409 221.905 248.825 220.658C249.241 219.411 254.75 179.707 254.75 179.707L264.624 140.731L246.85 130.441L244.356 137.509Z" fill="#647380"/>
<path d="M258.71 144.706L268.111 185.478L273.403 221.033L281.254 219.317L280.44 137.479L258.71 144.706Z" fill="#647380"/>
<path d="M288.164 140.382C288.685 144.008 289.138 148.886 287.625 149.235C287.342 149.301 287.051 149.204 286.785 149.109C283.979 148.106 281.879 146.483 279.115 145.519C276.219 144.509 273.014 144.165 269.905 144.026C265.264 143.796 260.58 143.865 255.985 144.326C252.036 144.722 248.129 146.97 244.508 148.367C243.114 148.905 242.06 150.079 240.957 151.03C239.328 152.434 238.608 152.998 238.578 150.496C238.528 146.412 238.494 142.328 238.551 138.244C238.664 130.099 239.138 121.934 240.571 113.905C241.119 110.837 241.805 107.796 242.491 104.757C243.326 101.055 244.161 97.3539 244.997 93.6525C246.035 89.0522 248.263 85.6479 252.593 83.6051C256.335 81.8398 261.125 80.9453 265.113 82.4083C269.545 84.0348 272.321 90.9218 274.779 94.4958C276.932 97.6278 280.18 106.457 281.242 109.971C282.521 114.201 283.735 118.416 284.79 122.639C285.958 127.315 286.933 131.998 287.58 136.689C287.651 137.207 287.915 138.65 288.164 140.382Z" fill="#647380"/>
<path d="M260.509 83.5461L252.752 84.4687C252.752 84.4687 247.602 114.498 247.844 119.55C248.082 124.51 248.158 144.717 248.158 144.717C248.158 144.717 255.551 146.147 265.592 146.272C273.242 147.619 276.38 143.956 277.414 143.804C277.414 143.804 269.892 123.379 269.059 117.365C268.207 111.215 265.191 90.9221 265.191 90.9221L260.509 83.5461Z" fill="white"/>
<path d="M259.436 84.1448L255.613 84.5624C254.721 84.6599 254.327 85.7375 254.946 86.388L256.74 88.2732L255.821 120.45L261.512 124.94L264.39 118.555L260.273 87.8872L260.628 85.3744C260.727 84.6738 260.139 84.0679 259.436 84.1448Z" fill="#9E6652"/>
<path d="M255.817 84.2118C255.916 84.281 256.029 84.3319 256.154 84.3585C256.404 84.4115 256.663 84.354 256.912 84.2966C257.926 84.0627 258.94 83.8291 259.954 83.5952C259.271 80.4867 261.032 79.5743 262.603 77.3555C264.195 75.1059 263.334 72.4018 262.958 69.9032C262.852 69.2074 262.739 68.4909 262.375 67.8891C261.734 66.8331 260.46 66.3504 259.247 66.1143C256.154 65.5114 252.757 66.1143 250.308 68.098C249.657 68.626 249.064 69.2646 248.765 70.0483C248.305 71.2567 248.603 72.6064 248.906 73.8636C249.371 75.7962 250.161 77.6577 251.45 79.1887C252.651 80.6149 254.7 81.1369 255.128 82.9591C255.238 83.4302 255.441 83.9511 255.817 84.2118Z" fill="#E7CAAD"/>
<path d="M248.742 71.5758C249.003 72.3472 249.459 73.1068 249.353 73.9137C248.051 73.6248 247.091 72.4303 246.503 71.1735C246.237 70.604 246.022 69.9934 246.004 69.3617C245.987 68.7302 246.19 68.0714 246.645 67.6636C247.281 67.0944 248.54 67.1532 248.835 68.0263C249.132 68.9069 248.35 70.4154 248.742 71.5758Z" fill="#3A3029"/>
<path d="M241.318 65.361C241.244 64.4106 241.513 63.5249 242.297 62.8607C242.972 62.2882 243.769 61.7877 244.127 60.9558C244.404 60.3101 244.372 59.552 244.647 58.9049C245.143 57.7331 246.448 57.2616 247.572 56.76C250.386 55.5049 251.838 54.2522 255.057 55.1137C257.346 55.7261 260.196 55.5303 262.37 56.5509C263.277 56.9771 264.093 57.7321 264.788 58.5962C267.199 61.5902 268.188 66.0624 267.214 69.5663C266.996 70.3506 266.69 71.0834 266.354 71.7897C265.683 73.202 264.988 74.9253 263.616 75.7308C263.457 75.1174 262.955 74.8239 262.742 74.2273C262.59 73.7978 262.574 73.3318 262.547 72.8753C262.443 71.1002 262.68 68.2501 260.821 67.567C258.471 66.7037 254.398 68.1592 252.354 69.3308C250.545 70.3675 247.456 71.7966 245.334 71.1297C243.363 70.5107 241.475 67.3913 241.318 65.361Z" fill="#3A3029"/>
<path d="M254.438 82.9419L247.95 83.6555L232.294 102.281L222.593 86.0615L217.478 88.6534L226.554 111.637L232.446 114.863L243.769 102.623L252.24 84.3669L254.438 82.9419Z" fill="#647380"/>
<path d="M264.624 82.5261L271.068 84.397L290.608 107.263L312.019 112.876L310.979 118.28L288.737 116.202L276.057 109.134L264.624 82.5261Z" fill="#647380"/>
<path d="M238.024 55.3979L240.371 54.193C240.133 52.4157 239.721 50.6594 239.139 48.9448L236.51 48.9022C233.523 48.8538 231.753 45.5417 233.372 43.0316L234.797 40.8221C233.696 39.3849 232.464 38.0672 231.118 36.8817L228.813 38.1634C226.202 39.6148 223.013 37.6317 223.16 34.6481L223.29 32.0251C222.461 31.6854 221.613 31.3824 220.746 31.1192C219.878 30.856 219.005 30.6367 218.127 30.459L216.778 32.7117C215.242 35.2742 211.489 35.1511 210.125 32.4937L208.92 30.147C207.143 30.385 205.386 30.7962 203.672 31.379L203.629 34.008C203.581 36.9948 200.269 38.765 197.758 37.1457L195.549 35.7205C194.112 36.8222 192.794 38.0539 191.608 39.3994L192.89 41.705C194.342 44.3159 192.359 47.5049 189.375 47.3577L186.752 47.2282C186.412 48.0562 186.109 48.9045 185.846 49.7719C185.583 50.6394 185.364 51.5131 185.186 52.3903L187.439 53.7401C190.001 55.2754 189.878 59.0288 187.22 60.3931L184.874 61.5979C185.112 63.3752 185.523 65.1316 186.106 66.8461L188.735 66.8887C191.722 66.9371 193.492 70.2492 191.872 72.7593L190.447 74.9688C191.549 76.406 192.781 77.7237 194.126 78.9092L196.432 77.6275C199.043 76.1761 202.232 78.1592 202.085 81.1428L201.955 83.7658C202.783 84.1055 203.631 84.4085 204.499 84.6717C205.366 84.9349 206.24 85.1542 207.117 85.3319L208.467 83.0792C210.002 80.5167 213.756 80.6398 215.12 83.297L216.325 85.6437C218.102 85.4057 219.858 84.9945 221.573 84.4117L221.616 81.7827C221.664 78.7959 224.976 77.0257 227.486 78.645L229.696 80.0702C231.133 78.9685 232.451 77.7368 233.636 76.3913L232.354 74.0857C230.903 71.4748 232.886 68.2858 235.869 68.433L238.492 68.5625C238.832 67.7346 239.135 66.8862 239.398 66.0188C239.661 65.1513 239.881 64.2776 240.058 63.4004L237.806 62.0507C235.244 60.5157 235.367 56.7621 238.024 55.3979ZM217.729 46.3472C218.028 45.3631 219.171 44.9183 220.055 45.4446C223.57 47.5394 225.992 51.0138 226.814 54.9226L215.618 55.7573C215.524 55.6265 215.422 55.4999 215.309 55.3793C215.23 55.2945 215.147 55.2149 215.062 55.1393L217.729 46.3472ZM203.849 46.3537C206.532 44.318 209.893 43.2353 213.358 43.4139C214.386 43.4669 215.092 44.4714 214.793 45.4567L212.126 54.2491C211.777 54.2963 211.434 54.3934 211.108 54.5408L203.839 48.8585C203.023 48.2208 203.025 46.9796 203.849 46.3537ZM214.836 57.8957C214.836 59.1182 213.845 60.1093 212.623 60.1093C211.4 60.1093 210.409 59.1182 210.409 57.8957C210.409 56.6732 211.4 55.682 212.623 55.682C213.845 55.6822 214.836 56.6732 214.836 57.8957ZM201.309 63.3609C200.44 63.9695 199.238 63.5665 198.896 62.5626C197.95 59.7896 197.834 56.7045 198.749 53.6868C198.949 53.0283 199.192 52.3945 199.473 51.7873C199.899 50.8674 201.08 50.5958 201.879 51.22L209.091 56.8582C208.981 57.2332 208.932 57.6223 208.944 58.0106L201.309 63.3609ZM214.949 72.2086C212.832 72.5543 210.605 72.434 208.414 71.7692C206.203 71.0984 204.269 69.947 202.693 68.4638C201.962 67.7757 202.048 66.5887 202.871 66.0127L210.337 60.7814C211.031 61.3324 211.881 61.5983 212.727 61.5746L216.157 70.0509C216.538 70.9911 215.95 72.0452 214.949 72.2086ZM226.981 59.9087C226.878 60.6411 226.717 61.3746 226.496 62.1045C225.57 65.1565 223.728 67.6786 221.363 69.4626C220.537 70.0858 219.342 69.7418 218.954 68.7826L215.484 60.2103C215.829 59.785 216.065 59.2994 216.192 58.7912L225.293 58.1127C226.299 58.0379 227.122 58.9101 226.981 59.9087Z" fill="#53C888"/>
<g opacity="0.16">
<path d="M212.622 76.4088C202.414 76.4088 194.109 68.1039 194.109 57.8956C194.109 47.6873 202.414 39.3823 212.622 39.3823C222.831 39.3823 231.136 47.6873 231.136 57.8956C231.135 68.1039 222.83 76.4088 212.622 76.4088ZM212.622 43.0363C204.429 43.0363 197.763 49.7022 197.763 57.8956C197.763 66.0891 204.429 72.7548 212.622 72.7548C220.816 72.7548 227.482 66.0889 227.482 57.8956C227.482 49.7022 220.816 43.0363 212.622 43.0363Z" fill="#53C888"/>
</g>
<path d="M221.251 86.7384L222.871 84.1202L223.271 80.8184L220.107 79.5464L219.963 80.7379L221.42 82.2693L220.057 84.6262L217.48 85.4113L218.194 88.1605L221.251 86.7384Z" fill="#E7CAAD"/>
<path d="M331.266 103.605L331.275 103.612L331.289 103.602L331.266 103.605Z" fill="#2E4661"/>
<path d="M329.339 107.708L331.972 104.313L331.065 103.609L328.158 105.816L324.783 104.398L324.323 100.766L328.031 97.9803L327.72 97.3914L321.589 100.444L321.714 106.396C321.714 106.396 308.483 123.459 308.482 123.46C308.147 123.892 307.687 124.224 307.181 124.426C306.688 124.623 306.121 124.611 305.598 124.719C304.498 124.946 303.503 125.566 302.815 126.454C301.212 128.521 301.588 131.497 303.655 133.1C305.723 134.704 308.698 134.327 310.302 132.26C310.767 131.66 311.085 130.951 311.22 130.203C311.297 129.773 311.297 129.311 311.25 128.867C311.202 128.415 311.066 127.959 311.135 127.502C311.217 126.963 311.458 126.455 311.79 126.025L325.022 108.961L329.339 107.708ZM309.451 130.542L307.092 132.587L304.141 131.566L303.55 128.501L305.909 126.456L308.86 127.476L309.451 130.542Z" fill="#96411B"/>
<path d="M312.019 112.876L315.968 111.421L318.671 112.876L319.294 116.618H317.839L315.823 114.019L313.266 118.696L311.041 117.961L312.019 112.876Z" fill="#E7CAAD"/>
<path d="M319.918 114.539L317.104 115.509L314.929 118.488L315.931 120.953L317.424 120.359L320.75 116.202L319.918 114.539Z" fill="#E7CAAD"/>
<path d="M96.502 219.582L101.407 222.727L103.109 225.226C103.109 225.226 101.365 226.1 100.385 226.344C99.4043 226.587 91.6315 225.757 91.6315 225.757L91.4209 221.205L96.502 219.582Z" fill="#3A3029"/>
<path d="M71.9904 223.015L74.4146 225.733C74.4146 225.733 76.3867 229.417 75.3979 229.361C74.409 229.305 69.0348 229.593 68.6731 228.977C68.3114 228.361 65.4577 226.213 65.0848 225.795C64.7119 225.377 65.0929 221.919 65.0929 221.919L71.9904 223.015Z" fill="#3A3029"/>
<path d="M85.8521 150.709L79.7608 187.742L71.9904 223.015L65.068 222.619L66.402 185.391C66.402 185.391 61.4123 151.174 61.3955 141.053L85.8521 150.709Z" fill="#2E4661"/>
<path d="M101.134 152.534L98.3471 220.885L91.223 221.214L87.4343 186.486L81.9177 155.839L96.641 136.876L101.134 152.534Z" fill="#2E4661"/>
<path d="M97.3989 116.547C93.6634 98.3693 98.4065 89.6051 90.2308 84.5531C90.2308 84.5531 76.9117 80.8937 68.4275 86.9836C68.3098 87.068 68.1932 87.154 68.077 87.2407L64.9934 93.6497L62.6536 122.403C62.6536 122.403 56.108 160.152 59.5822 160.456C63.5189 160.802 81.5888 152.381 85.0204 152.579C88.452 152.778 98.948 154.658 108.856 151.286C117.351 148.394 101.134 134.725 97.3989 116.547Z" fill="#677B91"/>
<path d="M80.835 83.9934L78.2443 84.0905L77.9805 86.6979L87.499 113.316L89.6316 101.781L87.3022 85.0292L80.835 83.9934Z" fill="white"/>
<path d="M89.2415 103.893C89.2218 102.841 89.1723 101.899 89.0856 101.134C88.4872 95.8505 84.7155 88.956 84.7155 88.956C84.7155 88.956 84.4636 87.4491 84.4062 86.1374L81.2712 85.6292L81.4725 88.9019L82.8257 90.3165C82.8257 90.3165 86.1135 102.893 86.1758 107.937C86.1825 108.466 86.1744 109.01 86.1561 109.561L87.4991 113.316L89.2415 103.893Z" fill="#2E4661"/>
<path d="M88.8591 122.546L84.9907 152.528L92.7255 153.619L98.0737 153.203L91.5086 127.06L88.8591 122.546Z" fill="white"/>
<path d="M85.1459 85.1471C83.3703 85.2203 81.5946 85.2932 79.8191 85.3664C79.6044 83.9655 79.5019 82.5474 79.5127 81.1301C77.9809 80.8227 76.1859 80.2905 75.7165 78.8003C75.5687 78.3309 75.5827 77.8281 75.5978 77.336C75.6612 75.3026 75.0904 73.2411 75.788 71.2355C76.0192 70.571 75.8367 69.8077 76.1271 69.1668C76.6368 68.0422 77.8448 67.4115 79.0201 67.0327C82.0191 66.0661 85.4625 66.2601 88.1297 67.9376C88.8396 68.3841 89.504 68.9475 89.8938 69.69C90.4947 70.8348 90.3596 72.2098 90.2089 73.4941C90.0698 74.6794 89.9308 75.8647 89.7915 77.05C89.6314 78.4132 89.3437 79.9781 88.1464 80.6493C87.5107 81.0058 86.706 81.0412 86.1516 81.5143C85.174 82.3487 85.5436 83.9248 85.1459 85.1471Z" fill="#E7CAAD"/>
<path d="M92.7792 58.7258C92.3804 58.689 91.9728 58.6401 91.5519 58.4977C90.2229 58.0485 89.2301 57.006 87.8249 56.5978C84.9826 55.7721 81.5431 56.2184 78.9356 57.5847C76.4402 58.8923 72.9442 59.6103 70.7522 61.2689C69.8369 61.9615 69.1661 62.9369 68.6828 63.9779C67.0084 67.5849 67.6387 72.1442 70.2288 75.1618C70.81 75.8388 71.4756 76.4385 72.1659 77.0037C73.5949 78.1734 75.3115 79.625 77.0869 79.883C76.9127 78.3518 74.8456 73.7376 75.8409 72.3222C77.1609 70.4455 80.0467 70.2462 82.1283 70.2644C84.6087 70.2865 86.5677 69.3246 89.0322 69.2394C90.2876 69.1962 91.7223 69.3276 92.6126 68.4414C93.6418 67.417 95.7339 64.2629 96.1798 62.9188C96.5699 61.742 96.127 60.3709 95.2052 59.5419C94.4095 58.8264 93.614 58.8027 92.7792 58.7258Z" fill="#3A3029"/>
<path d="M91.394 85.3662L96.6614 89.178L104.353 112.46L119.943 125.972L117.033 129.506L100.403 119.528L93.959 111.213L91.394 85.3662Z" fill="#677B91"/>
<path d="M70.8852 85.4363L63.6096 88.7623L43.4458 115.578L45.3167 125.14L79.408 136.365L81.6946 130.961L56.334 116.825L68.1573 105.6L70.8852 85.4363Z" fill="#677B91"/>
<path d="M100.603 98.2153L100.134 96.0412C99.3824 95.9447 98.622 95.8828 97.8547 95.8576C97.0874 95.8325 96.3245 95.8443 95.5681 95.8913L94.9576 98.0299C94.2631 100.462 91.1657 101.184 89.4672 99.3096L87.9674 97.6539C86.5655 98.238 85.2189 98.9593 83.944 99.8118L84.4853 101.972C85.1002 104.426 82.7786 106.6 80.3704 105.825L78.2505 105.143C77.3161 106.36 76.5081 107.656 75.8332 109.016L77.387 110.622C79.1465 112.439 78.2231 115.483 75.75 116.016L73.5758 116.485C73.4794 117.237 73.4174 117.997 73.3923 118.765C73.3671 119.532 73.379 120.295 73.426 121.051L75.5648 121.662C77.9973 122.356 78.7193 125.454 76.8445 127.152L75.1887 128.652C75.7729 130.054 76.4942 131.401 77.3467 132.675L79.5067 132.134C81.9607 131.519 84.1346 133.841 83.3601 136.249L82.6782 138.369C83.8945 139.303 85.1908 140.111 86.5514 140.786L88.1566 139.232C89.9742 137.473 93.0177 138.396 93.5511 140.869L94.0201 143.043C94.7719 143.14 95.5323 143.202 96.2996 143.227C97.0669 143.252 97.8298 143.24 98.5862 143.193L99.1967 141.054C99.8913 138.621 102.989 137.9 104.687 139.775L106.187 141.43C107.589 140.846 108.935 140.125 110.21 139.272L109.669 137.112C109.054 134.658 111.376 132.484 113.784 133.259L115.904 133.941C116.838 132.725 117.646 131.428 118.321 130.068L116.767 128.462C115.008 126.645 115.931 123.601 118.404 123.068L120.578 122.599C120.675 121.847 120.737 121.087 120.762 120.319C120.787 119.552 120.775 118.789 120.728 118.033L118.59 117.422C116.157 116.728 115.435 113.63 117.31 111.932L118.966 110.432C118.381 109.03 117.66 107.684 116.808 106.409L114.648 106.95C112.194 107.565 110.02 105.243 110.794 102.835L111.476 100.715C110.26 99.7808 108.964 98.9728 107.603 98.2981L105.998 99.8519C104.18 101.612 101.137 100.688 100.603 98.2153ZM106.774 119.861C106.598 125.216 102.114 129.415 96.759 129.239C91.4035 129.063 87.2047 124.58 87.3806 119.224C87.5564 113.869 92.0403 109.67 97.3957 109.846C102.751 110.021 106.95 114.505 106.774 119.861Z" fill="#53C888"/>
<g opacity="0.29">
<path d="M97.0773 130.188C91.2071 130.188 86.4314 125.412 86.4314 119.542C86.4314 113.672 91.2071 108.896 97.0773 108.896C102.947 108.896 107.723 113.672 107.723 119.542C107.723 125.412 102.947 130.188 97.0773 130.188ZM97.0773 110.998C92.3658 110.998 88.5326 114.831 88.5326 119.542C88.5326 124.254 92.3656 128.087 97.0773 128.087C101.789 128.087 105.622 124.254 105.622 119.542C105.622 114.831 101.789 110.998 97.0773 110.998Z" fill="#A0A4A9"/>
</g>
<path d="M120.936 118.033L118.797 117.423C116.365 116.729 115.643 113.631 117.518 111.933L119.173 110.433C118.589 109.031 117.868 107.684 117.015 106.409L114.855 106.951C113.82 107.21 112.836 106.946 112.101 106.374L104.919 113.557C106.278 115.288 107.06 117.488 106.982 119.861C106.806 125.216 102.322 129.415 96.9665 129.239C94.8229 129.169 92.8656 128.407 91.2989 127.177L83.6909 134.785C83.7607 135.252 83.7287 135.749 83.5678 136.249L82.886 138.369C84.1023 139.304 85.3986 140.112 86.7591 140.787L88.3643 139.233C90.182 137.473 93.2254 138.397 93.7588 140.87L94.2278 143.044C94.9797 143.14 95.7399 143.202 96.5073 143.227C97.2746 143.253 98.0375 143.241 98.794 143.194L99.4045 141.055C100.099 138.622 103.196 137.9 104.895 139.775L106.395 141.431C107.797 140.847 109.143 140.126 110.418 139.273L109.877 137.113C109.262 134.659 111.583 132.485 113.992 133.26L116.112 133.941C117.046 132.725 117.854 131.429 118.529 130.068L116.975 128.463C115.215 126.646 116.139 123.602 118.612 123.069L120.786 122.6C120.882 121.848 120.944 121.088 120.97 120.32C120.995 119.553 120.983 118.79 120.936 118.033Z" fill="#6DBF92"/>
<path d="M56.334 116.825L43.4458 115.578L45.3167 124.932L79.408 136.365L81.6946 130.961L56.334 116.825Z" fill="#6D8299"/>
<path d="M81.5179 131.378L85.0204 133.039V135.742L81.6944 137.821L80.1196 137.515L79.6699 135.746L81.5179 131.378Z" fill="#E7CAAD"/>
<path d="M120.359 126.595L120.775 123.685L117.033 120.775L115.162 122.854L115.994 128.05L118.441 128.925L120.359 126.595Z" fill="#E7CAAD"/>
<path d="M178.585 161.518H146.343V171.912H178.585V161.518Z" fill="#E0E0E0"/>
<path d="M212.655 161.518H180.414V171.912H212.655V161.518Z" fill="#E0E0E0"/>
</svg>
