<svg width="264" height="264" viewBox="0 0 264 264" fill="none" xmlns="http://www.w3.org/2000/svg">
<path d="M131.495 252.96C199.499 252.96 254.626 221.132 254.626 181.87C254.626 142.608 199.499 110.78 131.495 110.78C63.491 110.78 8.36304 142.608 8.36304 181.87C8.36304 221.132 63.491 252.96 131.495 252.96Z" fill="#343434"/>
<path d="M169.375 212.134L192.374 225.479C193.131 225.918 194.358 225.92 195.117 225.482L228.831 206.044C229.589 205.607 229.589 204.898 228.832 204.46L205.837 191.157C205.08 190.718 203.851 190.717 203.093 191.153L169.378 210.548C168.619 210.985 168.618 211.694 169.375 212.134Z" fill="#E0E0E0"/>
<path d="M53.0719 218.21L53.8977 218.686C54.3021 218.92 54.9584 218.92 55.3629 218.686L189.074 141.489C189.478 141.255 189.478 140.876 189.074 140.643L188.247 140.166C187.842 139.933 187.187 139.933 186.782 140.166L53.0719 217.364C52.6674 217.597 52.6674 217.976 53.0719 218.21Z" fill="#E0E0E0"/>
<path d="M228.322 148.371L229.428 147.051L195.832 127.654L193.556 128.968L205.49 135.857L194.032 142.471L181.996 135.523L179.721 136.837L214.11 156.689L214.471 156.257L214.652 156.361L227.842 148.76L227.946 148.82L228.139 148.589L228.419 148.428L228.322 148.371Z" fill="#E0E0E0"/>
<path d="M220.382 185.409C223.533 187.228 228.642 187.228 231.794 185.409C234.945 183.589 234.945 180.639 231.794 178.82C228.642 177.001 223.533 177.001 220.382 178.82C217.231 180.64 217.231 183.589 220.382 185.409Z" fill="#E0E0E0"/>
<path d="M45.2184 80.1721L45.2189 80.1779C45.0579 80.0812 44.8456 80.0892 44.6281 80.2322L41.7753 82.1098C41.3851 82.3664 40.8983 82.2344 40.6301 81.8516C40.458 81.6056 40.2721 81.3785 40.0741 81.1705C39.752 80.832 39.5778 80.2502 39.7399 79.8114L44.2738 76.9381L40.8893 74.985L40.8867 74.9881C40.8191 74.9491 40.7462 74.9163 40.6628 74.8979L38.5123 74.4168C38.0566 74.3149 37.5107 74.5679 37.2937 74.9813L35.2719 78.8341C35.0549 79.2481 34.5032 79.6377 34.0501 79.7528C34.009 79.7634 33.9667 79.7782 33.9255 79.7892C34.0501 79.4249 34.1024 78.8927 34.1024 78.8927L30.7079 76.9338L30.709 76.9375C30.5273 76.8314 30.2934 76.8515 30.0727 77.0246L26.8498 79.558C26.4823 79.8468 26.2083 80.4588 26.2379 80.925L26.4301 83.9911C26.4596 84.4573 26.2284 85.1162 25.929 85.4748C25.401 86.1062 24.901 86.7694 24.4326 87.4553C24.1692 87.8412 23.5878 88.1433 23.1216 88.12L21.0503 88.0176C20.5835 87.9944 20.0508 88.3217 19.8607 88.7484L17.9129 93.1149C17.7386 93.5056 17.8891 93.9502 18.2455 94.1635L18.2445 94.1672L20.5407 95.4925C20.6147 95.681 20.6395 95.8885 20.5946 96.0865C20.4351 96.7887 20.3142 97.4852 20.2361 98.1695C20.1828 98.6336 19.8818 99.2682 19.5381 99.5845L16.6826 102.21C16.3384 102.526 16.124 103.155 16.2032 103.616L16.7397 106.73C16.7745 106.933 16.8701 107.075 16.9973 107.152L16.9931 107.155L20.3987 109.12L20.4436 105.222C20.8338 104.965 21.3206 105.097 21.5888 105.48C21.7609 105.726 21.9468 105.953 22.1448 106.161C22.4669 106.5 22.6411 107.082 22.479 107.52L21.0239 111.456C20.895 111.805 21.0223 112.15 21.309 112.329L21.3069 112.333L24.7067 114.295L25.6328 111.761L26.947 108.497C27.164 108.083 27.7157 107.693 28.1688 107.578C28.6017 107.468 29.0437 107.322 29.493 107.14C29.9259 106.965 30.3747 107.158 30.5099 107.605L31.237 110.018C31.2913 110.199 31.3911 110.325 31.5142 110.395L31.5115 110.397L34.9213 112.363L34.3247 108.592L35.368 107.772C35.7355 107.483 36.0096 106.871 35.98 106.404L35.7878 103.338C35.7588 102.872 35.9895 102.213 36.2894 101.854C36.8179 101.223 37.6152 100.885 38.0835 100.199C38.347 99.8131 38.6305 99.1859 39.0973 99.2086L41.1686 99.311C41.6354 99.3342 42.1681 99.0069 42.3582 98.5802L44.306 94.2137C44.4961 93.7871 44.3023 93.2923 43.8725 93.1091L42.1988 92.3952C41.769 92.212 41.5208 91.6972 41.6243 91.2421C41.7838 90.5399 41.9047 89.8434 41.9828 89.1591C42.0361 88.695 42.3371 88.0604 42.6808 87.7441L45.5363 85.1184C45.7807 84.894 45.9534 84.5112 46.0083 84.1437L48.6018 82.1214L45.2184 80.1721ZM32.2518 100.309C28.7591 103.055 25.4152 102.307 24.7837 98.6388C24.1523 94.9703 27.0103 90.3091 30.503 87.5635C33.9958 84.8174 36.8005 85.0265 37.432 88.6945C38.064 92.363 35.7445 97.5628 32.2518 100.309Z" fill="#263238"/>
<path d="M19.5037 99.6162L16.6805 102.212C16.4719 102.404 16.3214 102.711 16.2449 103.026L20.4388 105.447L20.4414 105.225C20.8316 104.968 21.3184 105.1 21.5866 105.483C21.5877 105.484 21.5893 105.486 21.5903 105.488L25.6311 103.154L19.5037 99.6162Z" fill="#455A64"/>
<path d="M26.6973 91.7563C27.0157 91.2632 27.3636 90.7832 27.7359 90.3201L23.7115 87.9954C23.514 88.0767 23.3086 88.1305 23.1196 88.121L21.0482 88.0186C20.7541 88.0043 20.4342 88.1289 20.1897 88.3301L26.3842 91.9068L26.6973 91.7563Z" fill="#455A64"/>
<path d="M48.6019 82.122C48.444 82.0317 48.2355 82.0486 48.0211 82.1896L45.1673 84.0677C44.7781 84.3217 44.2929 84.1918 44.022 83.8084C43.8473 83.5603 43.6667 83.3348 43.4634 83.1257C43.1419 82.7873 42.9671 82.2065 43.1308 81.7667L43.4016 81.0391L44.6255 80.2323C44.8457 80.0913 45.0601 80.0802 45.2179 80.1758V80.17L48.6019 82.122Z" fill="#455A64"/>
<path d="M40.1687 81.2867C40.1355 81.2502 40.1075 81.2059 40.0737 81.1705C39.7516 80.832 39.5774 80.2502 39.7395 79.8114L44.2734 76.9381L40.8889 74.985L40.8863 74.9881C40.8187 74.9491 40.7458 74.9163 40.6624 74.8979L38.5119 74.4168C38.0562 74.3149 37.5102 74.5679 37.2932 74.9813L35.2715 78.8341C35.1739 79.02 35.0038 79.1979 34.8101 79.3515L39.3783 81.9889L40.1687 81.2867Z" fill="#455A64"/>
<path d="M26.3191 80.4039L30.5141 82.8258L33.9619 79.6658C34.059 79.3157 34.1013 78.8933 34.1013 78.8933L30.7068 76.9344L30.7078 76.9381C30.5262 76.832 30.2923 76.852 30.0716 77.0252L26.8487 79.5586C26.6105 79.7471 26.4215 80.0718 26.3191 80.4039Z" fill="#455A64"/>
<path d="M49.407 85.6722L48.8706 82.5581C48.7914 82.0977 48.4107 81.9324 48.0205 82.1896L45.1677 84.0671C44.7775 84.3237 44.2907 84.1917 44.0225 83.8089C43.8503 83.5629 43.6645 83.3358 43.4665 83.1278C43.1444 82.7894 42.9702 82.2075 43.1323 81.7687L44.5874 77.833C44.7495 77.3948 44.5109 76.9571 44.0552 76.8546L41.9047 76.3736C41.4485 76.2717 40.903 76.5246 40.686 76.9381L38.6643 80.7909C38.4473 81.2048 37.8956 81.5945 37.4425 81.7096C37.0096 81.82 36.5676 81.9652 36.1183 82.1473C35.6853 82.3226 35.2365 82.1299 35.1014 81.6827L34.3743 79.2692C34.2397 78.822 33.8326 78.6931 33.4651 78.982L30.2427 81.5153C29.8752 81.8041 29.6012 82.4161 29.6302 82.8828L29.8224 85.9489C29.8515 86.4151 29.6207 87.0741 29.3214 87.4326C28.7934 88.0641 28.2933 88.7267 27.825 89.4131C27.5615 89.7991 26.9802 90.1011 26.5135 90.0779L24.4421 89.9754C23.9754 89.9522 23.4426 90.2796 23.2525 90.7062L21.3047 95.0728C21.1141 95.4994 21.3084 95.9941 21.7382 96.1773L23.4115 96.8912C23.8413 97.0744 24.0894 97.5892 23.9859 98.0449C23.8265 98.7471 23.7056 99.4435 23.6274 100.128C23.5741 100.592 23.2731 101.227 22.9294 101.543L20.074 104.168C19.7302 104.484 19.5153 105.114 19.5945 105.575L20.131 108.689C20.2102 109.149 20.5909 109.315 20.9816 109.057L23.8349 107.18C24.2251 106.923 24.7119 107.055 24.9801 107.438C25.1523 107.684 25.3381 107.911 25.5361 108.119C25.8582 108.458 26.0325 109.04 25.8704 109.478L24.4157 113.413C24.2536 113.852 24.4917 114.29 24.9479 114.392L27.098 114.873C27.5541 114.975 28.0996 114.722 28.3166 114.308L30.3388 110.455C30.5558 110.041 31.1076 109.651 31.5606 109.536C31.9936 109.426 32.4355 109.281 32.8848 109.099C33.3178 108.923 33.7666 109.115 33.9018 109.563L34.6288 111.977C34.764 112.424 35.1705 112.553 35.538 112.264L38.7604 109.731C39.1279 109.442 39.4019 108.83 39.3724 108.363L39.1802 105.297C39.1511 104.831 39.3819 104.172 39.6818 103.813C40.2103 103.182 40.7098 102.519 41.1781 101.833C41.4416 101.447 42.0224 101.145 42.4892 101.168L44.561 101.27C45.0278 101.294 45.5605 100.966 45.7506 100.54L47.6984 96.1731C47.889 95.7465 47.6947 95.2517 47.2649 95.0685L45.5912 94.3547C45.1614 94.1715 44.9132 93.6567 45.0167 93.201C45.1761 92.4988 45.2971 91.8023 45.3752 91.118C45.4285 90.6539 45.7295 90.0193 46.0732 89.703L48.9286 87.0773C49.2718 86.7626 49.4862 86.1332 49.407 85.6722ZM35.6442 102.266C32.1514 105.012 28.8076 104.264 28.1761 100.596C27.5446 96.9281 29.8641 91.7279 33.3569 88.9823C36.8496 86.2361 40.1929 86.9838 40.8249 90.6518C41.4564 94.3204 39.1369 99.5206 35.6442 102.266Z" fill="#37474F"/>
<path d="M75.6962 117.776L72.3555 115.85C72.3555 115.85 72.355 115.853 72.355 115.853C72.2172 115.774 72.034 115.769 71.8307 115.861L65.7957 118.581C65.3696 118.773 64.9313 118.561 64.7904 118.116C64.4398 117.007 63.9873 116.008 63.445 115.123C63.2005 114.725 63.1456 114.08 63.3531 113.661L67.3754 105.55C67.5829 105.132 67.4235 104.603 67.0185 104.369L62.6535 101.849C62.2491 101.616 61.7111 101.741 61.4523 102.13L56.44 109.669C56.1813 110.058 55.5942 110.333 55.1274 110.321C54.5598 110.306 53.9748 110.336 53.3766 110.403V104.89L50.0275 102.959C49.8786 102.88 49.6843 102.89 49.4794 103.008L42.6994 106.923C42.2949 107.156 41.9327 107.724 41.891 108.189L41.212 115.733C41.1703 116.198 40.8503 116.825 40.5066 117.141C39.1871 118.357 37.9268 119.695 36.7404 121.128C36.4426 121.487 35.8496 121.659 35.4082 121.505L31.0559 119.985C30.615 119.831 30.068 120.034 29.8341 120.439L24.8498 129.072C24.6159 129.477 24.7136 130.052 25.0679 130.357L28.5601 133.366C28.9138 133.672 29.0617 134.271 28.899 134.709C28.2517 136.453 27.7221 138.214 27.3298 139.965C27.2274 140.421 26.8446 141.01 26.4623 141.279L20.2683 145.639C19.8861 145.907 19.5767 146.505 19.5767 146.972V154.801C19.5767 155.042 19.6696 155.217 19.8174 155.304L19.8158 155.306L23.1554 157.231L28.1155 154.884C28.3071 155.286 28.5109 155.673 28.7338 156.037C28.9777 156.435 29.0331 157.081 28.8256 157.499L24.8033 165.61C24.5958 166.028 24.7553 166.557 25.1603 166.791L29.5252 169.311C29.9297 169.545 30.4677 169.419 30.7264 169.03L35.7387 161.491C35.9975 161.102 36.5846 160.827 37.0513 160.839C38.0883 160.866 39.1797 160.759 40.3154 160.508C40.7716 160.407 41.174 160.681 41.2204 161.146L41.882 167.733C41.9047 167.958 42.0029 168.116 42.1429 168.195L42.1413 168.196L45.4751 170.119L49.4789 164.237C49.8833 164.004 50.2455 163.437 50.2872 162.972L50.9663 155.428C51.008 154.963 51.4029 154.467 51.8338 154.287C53.7705 153.475 55.7288 152.073 57.1 150.592C57.4174 150.25 58.0098 150.077 58.4507 150.232L61.1223 151.173C61.5632 151.328 62.1097 151.126 62.3436 150.721L67.3279 142.088C67.5618 141.683 67.4641 141.108 67.1099 140.803L64.8141 138.825C64.4604 138.52 64.3136 137.92 64.4413 137.47C64.9915 135.539 65.1167 133.012 65.0644 131.214C65.0507 130.747 65.3331 130.151 65.7154 129.882L71.9094 125.522C72.2916 125.253 72.6011 124.656 72.6011 124.189L75.561 120.64L75.6962 117.776ZM46.0896 148.807C39.7637 152.459 35.8317 149.868 35.8317 142.563C35.8317 135.259 41.0594 126.31 47.3854 122.659C53.7113 119.006 57.5435 121.663 57.5435 128.968C57.5435 136.272 52.4151 145.154 46.0896 148.807Z" fill="#263238"/>
<path d="M66.0459 108.233L67.3765 105.551C67.584 105.132 67.4245 104.604 67.0196 104.37L62.6546 101.849C62.2501 101.616 61.7121 101.742 61.4534 102.131L56.4411 109.67C56.3598 109.792 56.2399 109.897 56.1079 109.991L61.719 113.23L66.0459 108.233Z" fill="#455A64"/>
<path d="M26.9413 140.771C26.7966 140.976 26.6314 141.161 26.4629 141.28L20.269 145.64C20.1132 145.75 19.9765 145.92 19.8608 146.108L23.6403 148.29L31.8633 143.612L26.9413 140.771Z" fill="#455A64"/>
<path d="M30.7063 119.936C30.3572 119.949 30.0088 120.138 29.8345 120.44L24.8502 129.074C24.7414 129.262 24.7113 129.486 24.7383 129.704L29.0346 132.185L35.8574 122.955L30.7063 119.936Z" fill="#455A64"/>
<path d="M42.0225 107.74L47.3384 110.81L53.3766 107.323V104.89L50.0275 102.959V102.96C49.8786 102.881 49.6843 102.891 49.4794 103.009L42.6994 106.924C42.4206 107.085 42.1698 107.406 42.0225 107.74Z" fill="#455A64"/>
<path d="M75.9363 126.111V118.281C75.9363 117.814 75.591 117.591 75.1649 117.783L69.1304 120.503C68.7043 120.695 68.2661 120.483 68.1251 120.037C67.774 118.929 67.3215 117.93 66.7798 117.045C66.5358 116.647 66.4804 116.001 66.6879 115.583L70.7102 107.472C70.9177 107.053 70.7582 106.525 70.3533 106.291L65.9878 103.771C65.5833 103.537 65.0453 103.663 64.7866 104.052L59.7737 111.591C59.515 111.98 58.9284 112.255 58.4611 112.243C57.4241 112.216 56.3333 112.323 55.197 112.574C54.7408 112.675 54.3385 112.401 54.292 111.936L53.6305 105.35C53.5835 104.884 53.2176 104.697 52.8131 104.931L46.0331 108.845C45.6286 109.079 45.2664 109.645 45.2247 110.111L44.5457 117.655C44.504 118.12 44.184 118.747 43.8403 119.063C42.5208 120.278 41.261 121.617 40.0741 123.05C39.7757 123.41 39.1833 123.582 38.7419 123.428L34.3896 121.908C33.9487 121.753 33.4017 121.957 33.1678 122.361L28.1835 130.995C27.9496 131.4 28.0473 131.975 28.4016 132.28L31.8938 135.289C32.2475 135.594 32.3954 136.194 32.2327 136.632C31.5854 138.376 31.0563 140.137 30.6635 141.887C30.5611 142.343 30.1783 142.933 29.796 143.201L23.6026 147.561C23.2203 147.83 22.9109 148.427 22.9109 148.894V156.723C22.9109 157.19 23.2562 157.414 23.6823 157.221L29.7173 154.501C30.1434 154.309 30.5817 154.521 30.7226 154.967C31.0738 156.076 31.5257 157.075 32.068 157.959C32.3119 158.358 32.3674 159.003 32.1593 159.422L28.137 167.532C27.9295 167.951 28.089 168.479 28.494 168.713L32.8589 171.233C33.2634 171.467 33.8014 171.341 34.0601 170.951L39.073 163.413C39.3317 163.024 39.9188 162.749 40.3856 162.761C41.4226 162.788 42.5139 162.68 43.6497 162.43C44.1059 162.329 44.5082 162.602 44.5547 163.067L45.2162 169.654C45.2632 170.119 45.6286 170.307 46.0336 170.073L52.8136 166.158C53.2181 165.924 53.5803 165.358 53.622 164.893L54.301 157.349C54.3427 156.883 54.6627 156.257 55.0064 155.94C56.3259 154.725 57.5857 153.386 58.7721 151.954C59.0699 151.594 59.6634 151.422 60.1043 151.576L64.4566 153.096C64.8974 153.25 65.4445 153.046 65.6784 152.641L70.6627 144.008C70.8966 143.604 70.7989 143.028 70.4446 142.723L66.9524 139.714C66.5987 139.409 66.4508 138.809 66.6134 138.371C67.2608 136.627 67.7904 134.866 68.1832 133.116C68.2856 132.66 68.6684 132.071 69.0507 131.802L75.2447 127.442C75.6264 127.175 75.9363 126.578 75.9363 126.111ZM49.4234 150.729C43.0974 154.381 37.9689 151.42 37.9689 144.116C37.9689 136.811 43.0974 127.929 49.4234 124.277C55.7493 120.625 60.8773 123.585 60.8773 130.89C60.8778 138.195 55.7493 147.077 49.4234 150.729Z" fill="#37474F"/>
<path d="M75.6982 117.777V117.783C75.563 117.693 75.3708 117.687 75.1623 117.783L69.1272 120.502C68.7043 120.693 68.2645 120.485 68.1235 120.039C67.8864 119.278 67.5992 118.573 67.2607 117.918L71.8295 115.859C72.0328 115.769 72.2187 115.775 72.3538 115.854V115.848L75.6982 117.777Z" fill="#455A64"/>
<path d="M214.577 77.3407L195.716 128.671L195.711 128.679C195.669 128.811 195.559 128.933 195.381 129.035C194.907 129.31 194.137 129.31 193.663 129.035C193.455 128.916 193.341 128.768 193.312 128.611C193.303 128.565 193.303 128.518 193.312 128.471C193.316 128.357 193.337 128.238 193.379 128.12L212.291 76.5022C212.524 75.8718 213.222 75.5455 213.853 75.7783C214.483 76.0117 214.81 76.7103 214.577 77.3407Z" fill="#37474F"/>
<path d="M189.365 112.658L208.278 123.577" stroke="#37474F" stroke-width="6" stroke-miterlimit="10"/>
<path d="M203.119 104.717L222.033 115.636" stroke="#37474F" stroke-width="6" stroke-miterlimit="10"/>
<path d="M199.187 73.8154L209.273 67.991C210.098 67.5168 211.021 67.445 211.804 67.7919C212.587 68.1388 213.15 68.8712 213.349 69.8025L230.094 148.142C230.106 148.197 230.115 148.248 230.115 148.303C230.123 148.358 230.123 148.417 230.119 148.472C230.089 148.625 229.975 148.773 229.768 148.892C229.294 149.167 228.523 149.167 228.049 148.892C227.871 148.786 227.761 148.659 227.715 148.527C227.706 148.502 227.702 148.477 227.698 148.456L210.97 70.311C210.932 70.1415 210.865 70.0359 210.814 70.0148C210.767 69.9937 210.644 70.0106 210.492 70.0993L200.401 75.9237" fill="#455A64"/>
<path d="M215.648 148.679L209.504 145.131C209.301 145.014 209.137 144.73 209.137 144.496V144.35C209.137 144.116 209.301 143.832 209.504 143.715L224.245 135.204C224.447 135.087 224.776 135.087 224.978 135.204L231.123 138.751C231.325 138.868 231.489 139.153 231.489 139.387V139.533C231.489 139.767 231.325 140.051 231.123 140.168L216.381 148.679C216.179 148.796 215.851 148.796 215.648 148.679Z" fill="#53C888"/>
<path opacity="0.1" d="M209.245 143.989C209.178 144.104 209.138 144.233 209.138 144.35V144.496C209.138 144.73 209.302 145.014 209.504 145.131L215.648 148.678C215.75 148.737 215.882 148.766 216.015 148.766V147.897L209.245 143.989Z" fill="black"/>
<path opacity="0.15" d="M216.014 147.897V148.766C216.147 148.766 216.28 148.737 216.381 148.679L223.751 144.424L231.122 140.168C231.324 140.052 231.488 139.767 231.488 139.533V139.387C231.488 139.27 231.447 139.14 231.381 139.026L216.014 147.897Z" fill="black"/>
<path d="M212.984 136.221L206.84 132.674C206.638 132.557 206.473 132.272 206.473 132.039V131.893C206.473 131.659 206.638 131.375 206.84 131.258L221.581 122.747C221.783 122.63 222.112 122.63 222.314 122.747L228.458 126.295C228.66 126.412 228.825 126.696 228.825 126.929V127.076C228.825 127.31 228.66 127.594 228.458 127.71L213.717 136.221C213.515 136.338 213.186 136.338 212.984 136.221Z" fill="#53C888"/>
<path opacity="0.1" d="M206.581 131.531C206.514 131.647 206.473 131.776 206.473 131.893V132.039C206.473 132.273 206.638 132.557 206.84 132.674L212.984 136.221C213.086 136.28 213.218 136.309 213.351 136.309V135.44L206.581 131.531Z" fill="black"/>
<path opacity="0.15" d="M213.351 135.44V136.309C213.483 136.309 213.616 136.28 213.717 136.222L221.087 131.967L228.458 127.711C228.66 127.595 228.824 127.31 228.824 127.077V126.93C228.824 126.814 228.783 126.684 228.717 126.569L213.351 135.44Z" fill="black"/>
<path d="M210.32 123.764L204.176 120.216C203.973 120.099 203.809 119.815 203.809 119.581V119.435C203.809 119.201 203.973 118.917 204.176 118.8L218.916 110.29C219.118 110.173 219.447 110.173 219.65 110.29L225.794 113.837C225.996 113.954 226.16 114.239 226.16 114.472V114.618C226.16 114.852 225.996 115.136 225.794 115.253L211.053 123.764C210.85 123.881 210.522 123.881 210.32 123.764Z" fill="#53C888"/>
<path opacity="0.1" d="M203.916 119.074C203.85 119.189 203.809 119.318 203.809 119.435V119.581C203.809 119.815 203.973 120.099 204.176 120.216L207.247 121.99L210.32 123.763C210.421 123.822 210.554 123.851 210.686 123.851V122.982L203.916 119.074Z" fill="black"/>
<path opacity="0.15" d="M210.686 122.983V123.851C210.819 123.851 210.952 123.822 211.053 123.764L218.423 119.508L225.793 115.253C225.996 115.136 226.16 114.852 226.16 114.618V114.472C226.16 114.355 226.119 114.225 226.053 114.111L210.686 122.983Z" fill="black"/>
<path d="M207.656 111.306L201.511 107.759C201.309 107.642 201.145 107.358 201.145 107.124V106.978C201.145 106.744 201.309 106.46 201.511 106.343L216.252 97.8324C216.454 97.7157 216.783 97.7157 216.985 97.8324L223.129 101.38C223.331 101.497 223.496 101.781 223.496 102.015V102.161C223.496 102.395 223.331 102.679 223.129 102.796L208.388 111.306C208.186 111.423 207.858 111.423 207.656 111.306Z" fill="#53C888"/>
<path opacity="0.15" d="M208.022 110.525V111.394C208.155 111.394 208.288 111.365 208.388 111.306L215.759 107.051L223.129 102.796C223.331 102.679 223.496 102.394 223.496 102.161V102.015C223.496 101.898 223.454 101.768 223.388 101.654L208.022 110.525Z" fill="black"/>
<path opacity="0.1" d="M201.252 106.616C201.186 106.731 201.145 106.861 201.145 106.977V107.124C201.145 107.358 201.309 107.642 201.512 107.758L207.656 111.306C207.757 111.365 207.89 111.394 208.022 111.394V110.525L201.252 106.616Z" fill="black"/>
<path d="M204.991 98.8489L194.781 92.9548C194.579 92.8381 194.415 92.5536 194.415 92.3202V92.1739C194.415 91.94 194.579 91.6559 194.781 91.5393L209.522 83.0284C209.724 82.9117 210.053 82.9117 210.255 83.0284L220.466 88.922C220.668 89.0387 220.832 89.3232 220.832 89.5571V89.7034C220.832 89.9373 220.668 90.2214 220.466 90.3381L205.725 98.8489C205.523 98.9656 205.194 98.9656 204.991 98.8489Z" fill="#53C888"/>
<path opacity="0.15" d="M205.358 98.0675V98.9366C205.491 98.9366 205.624 98.9075 205.725 98.8489L213.095 94.5938L220.466 90.3386C220.668 90.2219 220.832 89.9373 220.832 89.7039V89.5577C220.832 89.441 220.791 89.3111 220.725 89.1965L205.358 98.0675Z" fill="black"/>
<path opacity="0.1" d="M194.522 91.8127C194.456 91.9278 194.415 92.0572 194.415 92.1739V92.3202C194.415 92.5541 194.579 92.8381 194.781 92.9548L204.992 98.8489C205.093 98.9075 205.226 98.9365 205.358 98.9365V98.0674L194.522 91.8127Z" fill="black"/>
<path d="M200.824 85.2813L181.98 136.552L181.976 136.569L181.934 136.683C181.879 136.789 181.777 136.891 181.629 136.979C181.155 137.25 180.384 137.25 179.906 136.979C179.699 136.856 179.584 136.709 179.555 136.556C179.551 136.509 179.551 136.463 179.555 136.417C179.559 136.294 179.584 136.179 179.627 136.061L198.539 84.4434C198.767 83.813 199.466 83.4909 200.1 83.7195C200.731 83.9524 201.053 84.6509 200.824 85.2813Z" fill="#37474F"/>
<path d="M200.401 75.9231C199.842 76.2489 199.457 77.1127 199.592 77.7431L216.341 156.078C216.358 156.142 216.367 156.206 216.367 156.269C216.371 156.311 216.371 156.358 216.367 156.405C216.341 156.557 216.222 156.709 216.015 156.832C215.541 157.107 214.771 157.107 214.297 156.832C214.123 156.731 214.013 156.608 213.963 156.481C213.963 156.477 213.963 156.473 213.958 156.468L213.937 156.367L197.214 78.2564C196.863 76.6101 197.726 74.6586 199.186 73.8164" fill="#455A64"/>
<path d="M189.805 14.2412C189.805 13.4629 189.531 12.9169 189.09 12.6624C188.679 12.4264 187.206 11.5637 186.792 11.3261C186.351 11.0732 185.743 11.1106 185.071 11.4987L54.7812 86.7387C53.4321 87.5175 52.3386 89.4115 52.3386 90.9691L52.3392 207.024C52.3392 207.804 52.6137 208.35 53.0567 208.604C53.467 208.839 54.9337 209.694 55.3419 209.933C55.7833 210.193 56.3952 210.157 57.0721 209.766L187.362 134.526C188.712 133.748 189.805 131.854 189.805 130.296V14.2412Z" fill="#E0E0E0"/>
<path d="M189.089 12.6604C188.65 12.4012 188.04 12.4402 187.363 12.8299L57.0726 88.0715C56.3957 88.4606 55.7863 89.1317 55.3465 89.8931L53.0508 88.5678C53.4964 87.8006 54.1057 87.1296 54.7821 86.7404L185.074 11.4988C185.745 11.1097 186.354 11.0759 186.794 11.3241C187.206 11.5664 188.678 12.4234 189.089 12.6604Z" fill="#53C888"/>
<path opacity="0.7" d="M189.089 12.6604C188.65 12.4012 188.04 12.4402 187.363 12.8299L57.0726 88.0715C56.3957 88.4606 55.7863 89.1317 55.3465 89.8931L53.0508 88.5678C53.4964 87.8006 54.1057 87.1296 54.7821 86.7404L185.074 11.4988C185.745 11.1097 186.354 11.0759 186.794 11.3241C187.206 11.5664 188.678 12.4234 189.089 12.6604Z" fill="white"/>
<path d="M57.0727 88.0709L187.363 12.8309C188.712 12.0521 189.806 12.6836 189.806 14.2412L189.806 130.296C189.806 131.854 188.713 133.748 187.364 134.526L57.0732 209.766C55.7241 210.545 54.6307 209.914 54.6307 208.356L54.6301 92.3012C54.6301 90.7436 55.7236 88.8497 57.0727 88.0709Z" fill="#F0F0F0"/>
<path d="M55.3468 89.8929C54.9069 90.6601 54.6303 91.5229 54.6303 92.3012V100.062L52.3403 98.7369V90.9701C52.3403 90.1918 52.6112 89.3285 53.051 88.5671L55.3468 89.8929Z" fill="#53C888"/>
<path opacity="0.1" d="M55.3468 89.8929C54.9069 90.6601 54.6303 91.5229 54.6303 92.3012V100.062L52.3403 98.7369V90.9701C52.3403 90.1918 52.6112 89.3285 53.051 88.5671L55.3468 89.8929Z" fill="black"/>
<path d="M189.805 14.2412C189.805 12.6836 188.712 12.0521 187.362 12.8309L57.0722 88.0709C55.7231 88.8496 54.6296 90.7436 54.6296 92.3012V100.064L189.804 22.0049V14.2412H189.805Z" fill="#53C888"/>
<path d="M59.2117 102.706V176.781L109.617 147.68V92.1972L77.5412 92.1228L59.2117 102.706Z" fill="#53C888"/>
<path d="M89.426 112.626C89.426 114.818 90.9651 115.706 92.8628 114.61C94.7609 113.514 96.2995 110.849 96.2995 108.658C96.2995 106.466 94.7609 105.578 92.8628 106.673C90.9646 107.77 89.426 110.434 89.426 112.626Z" stroke="#FAFAFA" stroke-width="1.5" stroke-miterlimit="10" stroke-linecap="round" stroke-linejoin="round"/>
<path d="M63.7952 105.35V168.844L105.035 145.034V94.7685L84.4146 93.4453L63.7952 105.35Z" stroke="#FAFAFA" stroke-width="1.5" stroke-miterlimit="10" stroke-linecap="round" stroke-linejoin="round"/>
<path d="M87.5647 131.31L95.8701 119.901L105.034 126.515" stroke="#FAFAFA" stroke-width="1.5" stroke-miterlimit="10" stroke-linecap="round" stroke-linejoin="round"/>
<path d="M63.7942 150.325L77.5417 123.87L93.5792 135.774" stroke="#FAFAFA" stroke-width="1.5" stroke-miterlimit="10" stroke-linecap="round" stroke-linejoin="round"/>
<path opacity="0.1" d="M77.5413 92.1228C77.5413 92.1228 85.4591 94.5284 87.8737 98.7365C89.9746 102.398 90.0607 104.028 90.0607 104.028C90.0607 104.028 103.615 101.165 109.617 92.1972L77.5413 92.1228Z" fill="black"/>
<path d="M77.5413 92.1228C77.5413 92.1228 89.9292 93.4454 93.5793 104.636C100.452 102.308 105.985 98.3791 109.617 92.1972L77.5413 92.1228Z" fill="#53C888"/>
<path opacity="0.7" d="M77.5413 92.1228C77.5413 92.1228 89.9292 93.4454 93.5793 104.636C100.452 102.308 105.985 98.3791 109.617 92.1972L77.5413 92.1228Z" fill="white"/>
<path d="M161.468 92.3567C161.08 92.6476 160.451 93.636 159.76 95.4022C160.572 95.0479 161.244 94.3789 161.642 93.6751C161.758 93.4676 162.119 92.7675 161.866 92.4126C161.72 92.2078 161.586 92.2669 161.468 92.3567Z" fill="#53C888"/>
<path d="M154.803 90.4489C154.511 90.5973 154.407 90.8053 154.342 91.0714C154.191 91.6834 154.283 92.5013 154.651 93.2837C155.126 92.073 155.313 91.1137 155.221 90.6253C155.181 90.412 155.094 90.3005 154.803 90.4489Z" fill="#53C888"/>
<path d="M147.555 99.4261C147.529 99.4324 147.502 99.4419 147.473 99.4567C147.375 99.5064 147.265 99.6178 147.128 99.9018C146.822 100.541 147.126 100.903 147.226 101.001C147.568 101.328 148.199 101.337 149.022 100.859C148.487 99.7154 147.931 99.3295 147.555 99.4261Z" fill="#53C888"/>
<path d="M155.642 74.7669C147.95 78.6751 141.283 89.9078 140.751 99.8558C139.986 114.155 148.981 111.894 148.673 117.658C148.624 118.576 149.043 119.256 149.944 119.479C151.746 119.927 154.788 118.381 156.739 116.027C157.715 114.849 158.233 113.693 158.282 112.774C158.591 107.011 167.84 100.002 168.605 85.7023C169.137 75.7542 163.333 70.8586 155.642 74.7669ZM162.43 94.2575C161.718 95.5194 160.549 96.6472 159.16 97.1028C158.808 98.2032 158.453 99.5021 158.118 101.007C156.542 108.102 156.316 113.675 156.315 113.729C156.3 114.137 156.029 114.604 155.711 114.774C155.707 114.777 155.703 114.778 155.7 114.78C155.388 114.939 155.149 114.747 155.164 114.345C155.172 114.11 155.399 108.52 157.021 101.22C157.336 99.8041 157.683 98.492 158.051 97.3088C157.592 97.3304 157.116 97.276 156.631 97.1266C155.766 96.8631 155.061 96.399 154.515 95.823C153.876 97.0009 153.08 98.228 152.138 99.4102C151.61 100.074 151.101 100.629 150.618 101.087C150.878 101.951 151.099 102.974 151.276 104.14C152.186 110.153 151.81 115.819 151.794 116.058C151.765 116.473 151.501 116.888 151.168 117.084C150.851 117.236 150.617 117.024 150.646 116.61C150.649 116.554 151.023 110.896 150.14 105.061C149.952 103.822 149.721 102.821 149.469 102.027C148.051 103 146.942 103.028 146.329 102.439C145.716 101.852 145.683 100.669 146.246 99.4963C146.674 98.6066 147.256 98.0068 147.856 97.8537C148.75 97.6256 149.568 98.3806 150.221 99.9588C150.652 99.5617 151.114 99.0644 151.6 98.454C152.543 97.2686 153.298 96.0748 153.872 94.9771C153.172 93.8145 152.964 92.4168 153.257 91.2251C153.511 90.1966 154.118 89.3502 154.882 88.9616C155.646 88.5735 156.194 88.8333 156.348 89.6543C156.527 90.6063 156.154 92.2986 155.286 94.2585C155.771 94.8187 156.438 95.2892 157.303 95.5558C157.75 95.692 158.183 95.7348 158.594 95.7036C159.457 93.3567 160.404 91.703 161.323 91.0097C161.935 90.5562 162.488 90.5699 162.841 91.063C163.307 91.7141 163.142 92.9971 162.43 94.2575Z" fill="#53C888"/>
<path d="M155.821 71.405C155.299 71.67 154.906 71.3384 154.942 70.6631L155.319 63.6212C155.355 62.9459 155.807 62.184 156.329 61.9189C156.851 61.6533 157.245 61.9854 157.209 62.6613L156.832 69.7032C156.796 70.378 156.343 71.1399 155.821 71.405Z" fill="#53C888"/>
<path d="M147.071 78.7485C146.601 79.3155 146.034 79.4095 145.804 78.957L143.408 74.242C143.178 73.7895 143.373 72.9637 143.843 72.3966C144.313 71.8295 144.88 71.7356 145.11 72.1881L147.506 76.9031C147.736 77.3551 147.541 78.1809 147.071 78.7485Z" fill="#53C888"/>
<path d="M140.346 90.0787C140.054 90.7957 139.466 91.2899 139.032 91.1817L134.505 90.057C134.07 89.9493 133.956 89.2804 134.248 88.5633C134.54 87.8463 135.129 87.3521 135.563 87.4598L140.09 88.585C140.524 88.6927 140.638 89.3617 140.346 90.0787Z" fill="#53C888"/>
<path d="M137.449 102.361C137.413 103.036 136.961 103.798 136.439 104.063L130.994 106.83C130.472 107.095 130.079 106.763 130.115 106.087C130.15 105.412 130.602 104.651 131.125 104.385L136.57 101.618C137.092 101.353 137.485 101.686 137.449 102.361Z" fill="#53C888"/>
<path d="M139.157 112.303C139.387 112.755 139.193 113.581 138.722 114.148L133.819 120.065C133.348 120.632 132.781 120.725 132.551 120.273C132.322 119.821 132.516 118.996 132.986 118.428L137.89 112.511C138.36 111.944 138.927 111.851 139.157 112.303Z" fill="#53C888"/>
<path d="M168.919 97.1793C169.211 96.4623 169.799 95.9681 170.233 96.0758L174.76 97.2009C175.194 97.3087 175.309 97.9776 175.017 98.6947C174.724 99.4117 174.136 99.9059 173.702 99.7982L169.175 98.6735C168.741 98.5653 168.626 97.8968 168.919 97.1793Z" fill="#53C888"/>
<path d="M171.816 84.8976C171.851 84.2228 172.303 83.4609 172.826 83.1953L178.271 80.4286C178.793 80.163 179.186 80.4957 179.151 81.171C179.115 81.8458 178.663 82.6077 178.14 82.8738L172.695 85.64C172.173 85.905 171.779 85.5729 171.816 84.8976Z" fill="#53C888"/>
<path d="M170.108 74.9553C169.878 74.5033 170.073 73.6776 170.543 73.11L175.446 67.1932C175.917 66.6256 176.483 66.5327 176.713 66.9846C176.943 67.4366 176.748 68.2624 176.278 68.83L171.375 74.7468C170.905 75.3144 170.338 75.4073 170.108 74.9553Z" fill="#53C888"/>
<path d="M164.254 70.0164C163.82 69.9087 163.705 69.2402 163.997 68.5227L167.046 61.0409C167.339 60.3228 167.927 59.8297 168.361 59.9374C168.795 60.0451 168.909 60.7135 168.617 61.4316L165.569 68.9134C165.276 69.6309 164.688 70.1246 164.254 70.0164Z" fill="#53C888"/>
<path d="M155.821 71.405C155.299 71.67 154.906 71.3384 154.942 70.6631L155.319 63.6212C155.355 62.9459 155.807 62.184 156.329 61.9189C156.851 61.6533 157.245 61.9854 157.209 62.6613L156.832 69.7032C156.796 70.378 156.343 71.1399 155.821 71.405Z" fill="#455A64"/>
<path d="M147.071 78.7485C146.601 79.3155 146.034 79.4095 145.804 78.957L143.408 74.242C143.178 73.7895 143.373 72.9637 143.843 72.3966C144.313 71.8295 144.88 71.7356 145.11 72.1881L147.506 76.9031C147.736 77.3551 147.541 78.1809 147.071 78.7485Z" fill="#455A64"/>
<path d="M140.346 90.0787C140.054 90.7957 139.466 91.2899 139.032 91.1817L134.505 90.057C134.07 89.9493 133.956 89.2804 134.248 88.5633C134.54 87.8463 135.129 87.3521 135.563 87.4598L140.09 88.585C140.524 88.6927 140.638 89.3617 140.346 90.0787Z" fill="#455A64"/>
<path d="M137.449 102.361C137.413 103.036 136.961 103.798 136.439 104.063L130.994 106.83C130.472 107.095 130.079 106.763 130.115 106.087C130.15 105.412 130.602 104.651 131.125 104.385L136.57 101.618C137.092 101.353 137.485 101.686 137.449 102.361Z" fill="#455A64"/>
<path d="M139.157 112.303C139.387 112.755 139.193 113.581 138.722 114.148L133.819 120.065C133.348 120.632 132.781 120.725 132.551 120.273C132.322 119.821 132.516 118.996 132.986 118.428L137.89 112.511C138.36 111.944 138.927 111.851 139.157 112.303Z" fill="#455A64"/>
<path d="M168.919 97.1793C169.211 96.4623 169.799 95.9681 170.233 96.0758L174.76 97.2009C175.194 97.3087 175.309 97.9776 175.017 98.6947C174.724 99.4117 174.136 99.9059 173.702 99.7982L169.175 98.6735C168.741 98.5653 168.626 97.8968 168.919 97.1793Z" fill="#455A64"/>
<path d="M171.816 84.8976C171.851 84.2228 172.303 83.4609 172.826 83.1953L178.271 80.4286C178.793 80.163 179.186 80.4957 179.151 81.171C179.115 81.8458 178.663 82.6077 178.14 82.8738L172.695 85.64C172.173 85.905 171.779 85.5729 171.816 84.8976Z" fill="#455A64"/>
<path d="M170.108 74.9553C169.878 74.5033 170.073 73.6776 170.543 73.11L175.446 67.1932C175.917 66.6256 176.483 66.5327 176.713 66.9846C176.943 67.4366 176.748 68.2624 176.278 68.83L171.375 74.7468C170.905 75.3144 170.338 75.4073 170.108 74.9553Z" fill="#455A64"/>
<path d="M164.254 70.0164C163.82 69.9087 163.705 69.2402 163.997 68.5227L167.046 61.0409C167.339 60.3228 167.927 59.8297 168.361 59.9374C168.795 60.0451 168.909 60.7135 168.617 61.4316L165.569 68.9134C165.276 69.6309 164.688 70.1246 164.254 70.0164Z" fill="#455A64"/>
<path d="M158.332 114.59L158.087 119.174C158.037 120.115 157.504 121.313 156.492 122.529C154.487 124.951 151.34 126.55 149.489 126.087C148.518 125.855 148.099 125.093 148.2 124.079L148.42 119.96C148.488 120.734 148.927 121.296 149.734 121.504C151.585 121.966 154.732 120.367 156.737 117.946C157.749 116.729 158.282 115.543 158.332 114.59Z" fill="#53C888"/>
<path opacity="0.35" d="M158.332 114.59L158.087 119.174C158.037 120.115 157.504 121.313 156.492 122.529C154.487 124.951 151.34 126.55 149.489 126.087C148.518 125.855 148.099 125.093 148.2 124.079L148.42 119.96C148.488 120.734 148.927 121.296 149.734 121.504C151.585 121.966 154.732 120.367 156.737 117.946C157.749 116.729 158.282 115.543 158.332 114.59Z" fill="black"/>
<path d="M232.977 170.539L219.495 170.355L219.378 181.365H219.379C219.368 182.362 220.015 183.365 221.323 184.14C223.939 185.689 228.207 185.735 230.857 184.243C232.194 183.491 232.861 182.49 232.86 181.485L232.977 170.539Z" fill="#37474F"/>
<path d="M221.502 167.627C218.854 169.119 218.827 171.584 221.443 173.132C224.058 174.68 228.327 174.726 230.977 173.235C233.627 171.743 233.653 169.278 231.036 167.73C228.419 166.181 224.151 166.135 221.502 167.627Z" fill="#455A64"/>
<path d="M232.398 170.495C232.398 170.671 232.362 170.847 232.303 171.023C232.097 171.654 231.547 172.241 230.689 172.725C229.494 173.392 227.902 173.752 226.2 173.737C224.506 173.715 222.921 173.326 221.74 172.629C220.911 172.138 220.368 171.544 220.178 170.927C220.112 170.744 220.082 170.553 220.082 170.362C220.097 169.541 220.698 168.749 221.791 168.14C222.979 167.465 224.578 167.105 226.273 167.127C227.975 167.142 229.559 167.538 230.74 168.235C231.818 168.874 232.406 169.673 232.398 170.495Z" fill="#263238"/>
<path d="M232.302 171.023C232.097 171.654 231.547 172.241 230.689 172.725C229.494 173.392 227.902 173.752 226.2 173.737C224.506 173.715 222.921 173.326 221.74 172.629C220.911 172.138 220.368 171.544 220.177 170.928C220.383 170.297 220.933 169.71 221.791 169.233C222.979 168.558 224.578 168.199 226.273 168.214C227.974 168.236 229.559 168.632 230.74 169.329C231.569 169.82 232.104 170.407 232.302 171.023Z" fill="#53C888"/>
<path d="M229.111 174.664C229.407 174.498 229.643 174.638 229.639 174.977C229.636 175.316 229.393 175.726 229.097 175.893C228.801 176.06 228.565 175.92 228.569 175.58C228.572 175.241 228.815 174.83 229.111 174.664Z" fill="#263238"/>
<path d="M219.474 172.292C218.733 173.752 217.259 177.229 219.173 178.644C219.254 178.703 219.327 178.754 219.408 178.806L219.4 179.51C219.21 179.392 219.012 179.26 218.821 179.121C215.96 177.001 219.188 171.558 219.327 171.331C219.363 171.265 219.423 171.228 219.489 171.206L219.474 172.292Z" fill="#E0E0E0"/>
<path d="M229.362 175.417C229.281 175.585 227.198 179.569 223.772 180.368C223.376 180.464 222.987 180.507 222.591 180.507C221.528 180.507 220.464 180.177 219.4 179.51L219.408 178.806C220.823 179.789 222.246 180.126 223.64 179.803C226.801 179.062 228.826 175.182 228.841 175.145C228.914 174.998 229.097 174.947 229.237 175.021C229.383 175.094 229.442 175.27 229.362 175.417Z" fill="#E0E0E0"/>
<path d="M227.254 202.747C227.254 202.46 227.065 202.173 226.686 201.955L205.837 189.917C205.079 189.48 203.851 189.48 203.094 189.917L171.521 208.146C171.143 208.364 170.953 208.651 170.953 208.938C170.953 209.224 170.953 211.127 170.953 211.414C170.953 211.701 171.143 211.987 171.521 212.206L192.37 224.243C193.128 224.68 194.356 224.68 195.114 224.243L226.686 206.015C227.065 205.796 227.254 205.509 227.254 205.223C227.255 204.937 227.254 203.034 227.254 202.747Z" fill="#F0F0F0"/>
<path d="M193.744 222.094V224.571C193.247 224.571 192.751 224.46 192.371 224.243L171.52 212.205C171.14 211.988 170.955 211.703 170.955 211.413V208.937C170.955 209.222 171.14 209.512 171.52 209.729L192.371 221.767C192.751 221.989 193.247 222.094 193.744 222.094Z" fill="#E6E6E6"/>
<path d="M171.522 208.147L203.094 189.918C203.852 189.481 205.08 189.481 205.837 189.918L226.687 201.956C227.444 202.393 227.444 203.103 226.687 203.54L195.114 221.768C194.357 222.205 193.128 222.205 192.371 221.768L171.522 209.731C170.764 209.293 170.765 208.584 171.522 208.147Z" fill="white"/>
<path d="M205.838 189.917C205.08 189.48 203.852 189.48 203.094 189.917L171.522 208.146C170.764 208.583 170.764 209.292 171.522 209.73L178.989 214.041H178.99C178.99 214.041 186.853 215.933 190.197 213.741C193.541 211.55 192.142 206.208 196.406 204.759C200.671 203.309 207.154 205.185 213.046 203.138C218.938 201.09 219.042 197.54 219.042 197.54L205.838 189.917Z" fill="#53C888"/>
<path d="M205.838 189.917C205.08 189.48 203.852 189.48 203.094 189.917L171.522 208.146C170.764 208.583 170.764 209.292 171.522 209.73L178.989 214.041H178.99C178.99 214.041 186.853 215.933 190.197 213.741C193.541 211.55 192.142 206.208 196.406 204.759C200.671 203.309 207.154 205.185 213.046 203.138C218.938 201.09 219.042 197.54 219.042 197.54L205.838 189.917Z" fill="#53C888"/>
<path d="M170.955 208.937V211.413C170.955 211.703 171.14 211.988 171.52 212.205L178.989 216.517V214.041V214.041L171.52 209.729C171.14 209.512 170.955 209.222 170.955 208.937Z" fill="#53C888"/>
<path opacity="0.1" d="M170.955 208.937V211.413C170.955 211.703 171.14 211.988 171.52 212.205L178.989 216.517V214.041V214.041L171.52 209.729C171.14 209.512 170.955 209.222 170.955 208.937Z" fill="black"/>
<path d="M154.727 187.527C154.356 186.7 156.261 185.962 157.618 186.101C158.241 186.165 159.047 186.671 159.663 186.7C160.596 186.745 161.724 186.444 162.737 186.473C164.223 186.515 164.43 187.58 164.168 188.396C163.905 189.212 162.055 189.904 162.055 189.904L158.408 188.997C156.625 188.815 155.282 188.389 154.727 187.527Z" fill="#455A64"/>
<path d="M163.136 187.98C162.655 187.986 162.949 189.711 162.375 190.112C162.073 190.322 160.185 188.955 159.15 188.644C158.115 188.332 155.645 188.73 154.727 187.527C154.727 187.527 154.793 187.838 155.336 188.368C155.667 188.692 157.891 190.254 159.341 190.962C160.791 191.671 164.101 192.89 164.101 192.89L163.136 187.98Z" fill="#263238"/>
<path d="M179.471 195.769C179.597 198.865 174.525 199.471 170.071 197.346C166.711 195.744 165.206 194.588 162.152 192.304C158.362 189.47 157.13 184.085 159.93 180.079L172.82 179.416C175.063 182.01 183.138 185.464 185.834 191.613C187.136 194.865 182.664 196.575 179.471 195.769Z" fill="#53C888"/>
<path opacity="0.35" d="M179.471 195.769C179.597 198.865 174.525 199.471 170.071 197.346C166.711 195.744 165.206 194.588 162.152 192.304C158.362 189.47 157.226 185.178 159.93 180.079L172.82 179.416C175.063 182.01 183.138 185.464 185.834 191.613C187.136 194.865 182.664 196.575 179.471 195.769Z" fill="black"/>
<path opacity="0.22" d="M179.472 195.769C179.133 192.851 176.917 191.411 175.01 189.999C173.104 188.587 169.101 186.135 169.101 186.135C169.101 186.135 171.092 186.599 172.92 184.72C172.92 184.72 172.846 185.895 171.635 186.695C171.635 186.695 177.177 189.866 178.835 192.552C179.86 194.214 179.472 195.769 179.472 195.769Z" fill="black"/>
<path d="M190.733 163.721C189.505 161.952 188.867 162.443 188.388 164.061C188.034 165.254 187.398 166.151 187.398 166.151C187.383 165.623 186.053 166.412 185.966 167.528C185.94 167.866 185.861 168.195 185.651 168.461C184.583 169.81 181.524 172.119 179.363 173.786C178.016 172.057 175.002 168.188 173.559 166.341C171.579 163.806 170.937 162.822 168.634 162.577C168.634 162.577 169.511 162.893 170.408 163.971C171.306 165.049 170.156 170.111 170.156 170.111C170.156 170.111 176.997 177.104 177.708 177.78C177.813 177.879 177.921 177.972 178.03 178.056C178.742 178.613 179.75 178.586 180.455 178.019C182.463 176.402 185.573 172.975 187.182 171.132C188.27 169.885 188.837 169.396 189.537 168.701C191.047 167.2 191.503 164.828 190.733 163.721Z" fill="#A66868"/>
<path d="M163.928 162.715C160.898 162.924 160.686 164.387 159.928 165.987C159.35 167.205 159.344 168.618 159.784 169.891L161.895 175.999C161.895 175.999 161.078 177.821 159.931 180.079C165.229 183.036 171.673 182.048 173.266 179.891C173.334 179.433 172.924 175.855 172.672 173.517C173.605 171.176 173.852 169.693 173.458 168.145C172.727 165.273 169.89 162.475 168.635 162.577L163.928 162.715Z" fill="#53C888"/>
<path opacity="0.1" d="M161.467 176.929C161.285 177.318 161.051 177.812 160.778 178.373C160.731 178.471 160.682 178.571 160.632 178.673C160.57 178.8 160.506 178.93 160.44 179.063C160.279 179.388 160.11 179.728 159.931 180.08C160.126 180.188 160.324 180.289 160.521 180.389C164.069 182.151 168.017 182.24 170.646 181.452C168.604 181.712 166.72 181.56 165.283 181.219C163.543 180.808 162.439 179.047 162.899 177.319C162.916 177.253 162.934 177.197 162.953 177.152C163.293 176.333 164.025 176.441 164.025 176.441C163.339 175.986 162.862 175.275 162.701 174.467L162.422 173.618C161.786 171.688 161.748 169.606 162.328 167.658C162.334 167.639 162.339 167.621 162.344 167.603L160.091 166.319C160.091 166.319 159.938 166.425 159.697 166.593C159.697 166.594 159.697 166.595 159.696 166.597C159.573 166.994 159.503 167.405 159.482 167.819C159.482 167.821 159.481 167.823 159.481 167.825C159.476 167.932 159.477 168.039 159.479 168.146C159.48 168.196 159.479 168.246 159.481 168.296C159.485 168.385 159.492 168.475 159.5 168.564C159.507 168.635 159.514 168.706 159.524 168.777C159.534 168.852 159.544 168.927 159.557 169.002C159.573 169.093 159.592 169.184 159.613 169.275C159.626 169.333 159.637 169.39 159.652 169.448C159.691 169.597 159.734 169.746 159.785 169.892L161.896 176C161.896 176 161.739 176.348 161.467 176.929Z" fill="black"/>
<path d="M173.332 161.737H166.683C163.138 161.737 160.263 158.862 160.263 155.317V153.976C160.263 150.232 163.299 147.196 167.043 147.196C170.516 147.196 173.332 150.012 173.332 153.485V161.737Z" fill="#263238"/>
<path d="M171.164 150.851C171.5 151.026 172.406 152.753 172.319 156.529C172.245 159.729 171.208 160.519 170.687 160.747C170.166 160.975 169.162 160.837 168.185 160.674V162.595C168.185 162.595 169.534 164.163 169.449 165.043C169.364 165.924 167.5 166.132 166.237 165.272C164.974 164.411 164.165 163.102 164.165 163.102V158.459C164.165 158.459 163.505 159.339 162.427 158.623C161.349 157.907 161.308 156.135 161.934 155.498C162.561 154.862 163.913 155.063 164.165 155.943C164.165 155.943 165.747 156.222 167.868 154.857C170.159 153.382 170.865 152.208 171.164 150.851Z" fill="#A66868"/>
<path d="M171.686 154.428L170.792 154.002C170.902 153.748 171.191 153.638 171.438 153.757C171.685 153.874 171.796 154.175 171.686 154.428Z" fill="#263238"/>
<path d="M167.986 154.145L167.148 154.673C166.992 154.446 167.053 154.143 167.284 153.996C167.516 153.851 167.829 153.917 167.986 154.145Z" fill="#263238"/>
<path d="M164.128 155.06L164.183 157.019C164.735 157.021 165.17 156.585 165.155 156.044C165.14 155.503 164.68 155.062 164.128 155.06Z" fill="#263238"/>
<path d="M163.197 148.777L162.353 147.008C161.847 147.23 161.626 147.805 161.859 148.293C162.093 148.782 162.692 148.999 163.197 148.777Z" fill="#263238"/>
<path d="M162.746 148.667L160.794 148.496C160.728 149.044 161.111 149.527 161.65 149.574C162.19 149.621 162.68 149.215 162.746 148.667Z" fill="#263238"/>
<path d="M168.387 155.602C168.399 155.833 168.228 156.029 168.007 156.039C167.784 156.05 167.595 155.871 167.584 155.64C167.572 155.41 167.743 155.214 167.965 155.204C168.186 155.193 168.376 155.372 168.387 155.602Z" fill="#263238"/>
<path d="M168.853 158.438L169.788 158.736C169.71 159.004 169.438 159.154 169.18 159.072C168.922 158.989 168.775 158.705 168.853 158.438Z" fill="#854848"/>
<path d="M171.5 155.434C171.511 155.665 171.341 155.86 171.118 155.871C170.897 155.881 170.707 155.703 170.695 155.472C170.684 155.242 170.854 155.046 171.077 155.036C171.298 155.025 171.488 155.204 171.5 155.434Z" fill="#263238"/>
<path d="M169.534 155.203L169.598 157.626L170.873 157.231L169.534 155.203Z" fill="#854848"/>
<path d="M168.185 160.674C167.156 160.539 165.038 159.931 164.708 159.094C164.708 159.094 164.818 159.62 165.45 160.162C166.083 160.704 168.184 161.315 168.184 161.315V160.674H168.185Z" fill="#854848"/>
<path d="M166.71 187.651C168.504 186.459 168.026 185.812 166.419 185.299C165.233 184.92 164.507 184.405 164.507 184.405C165.036 184.401 165.277 184.402 165.554 184.322C166.106 184.162 166.205 183.727 166.164 183.525C166.131 183.367 165.748 183.478 165.116 183.329C164.306 183.139 163.907 182.786 163.003 182.806C162.664 182.814 162.338 182.687 162.077 182.471C160.75 181.375 158.577 178.078 156.955 175.882C158.525 174.107 162.081 168.695 162.081 168.695C164.272 165.821 162.482 162.963 162.482 162.963C160.96 163.119 159.486 164.643 157.62 167.524C153.438 173.976 151.787 175.296 152.96 176.983C154.433 179.1 157.469 182.285 159.139 184.073C159.921 184.912 161.043 185.795 161.756 186.352C164.23 188.288 165.586 188.397 166.71 187.651Z" fill="#A66868"/>
<path d="M188.794 162.208V167.518C188.794 167.62 188.726 167.724 188.59 167.803C188.317 167.96 187.875 167.96 187.603 167.803C187.467 167.724 187.399 167.621 187.399 167.518V162.208H188.794Z" fill="#455A64"/>
<path d="M187.399 163.575L188.794 164.381V162.208H187.399V163.575Z" fill="#37474F"/>
<path d="M186.697 157.95L186.695 159.031L185.761 158.491L185.757 160.712C185.755 161.382 186.224 162.196 186.804 162.531L188.447 163.479C188.719 163.636 188.972 163.659 189.157 163.57C189.177 163.56 189.983 163.102 190.153 162.991C190.328 162.877 190.435 162.651 190.435 162.332L190.438 160.11L186.697 157.95Z" fill="#37474F"/>
<path d="M188.447 163.479L186.804 162.531C186.224 162.196 185.755 161.382 185.757 160.713L185.761 158.491L189.502 160.651L189.499 162.873C189.498 163.543 189.027 163.814 188.447 163.479Z" fill="#455A64"/>
<path d="M189.503 160.651L185.761 158.491L185.762 155.25L189.504 157.41L189.503 160.651Z" fill="#F0F0F0"/>
<path d="M189.502 160.651L189.503 157.41L190.438 156.87V160.11L189.502 160.651Z" fill="#E0E0E0"/>
<path d="M189.5 161.615L185.759 159.455L185.758 159.897L189.5 162.08L189.5 161.615Z" fill="#53C888"/>
<path d="M189.5 161.615L190.436 161.075L190.436 161.539L189.5 162.08L189.5 161.615Z" fill="#53C888"/>
<path opacity="0.1" d="M189.5 161.615L190.436 161.075L190.436 161.539L189.5 162.08L189.5 161.615Z" fill="black"/>
<path d="M190.438 157.86C190.438 157.86 190.123 158.633 189.503 158.673L189.503 157.411L190.438 156.87V157.86Z" fill="#53C888"/>
<path opacity="0.1" d="M190.438 157.86C190.438 157.86 190.123 158.633 189.503 158.673L189.503 157.411L190.438 156.87V157.86Z" fill="black"/>
<path d="M189.503 158.673C189.503 158.673 188.835 158.973 188.229 158.523C187.783 158.191 187.632 157.029 186.774 157.005C186.171 156.989 185.761 157.624 185.761 157.624V155.25L189.503 157.41L189.503 158.673Z" fill="#53C888"/>
<path d="M185.762 155.25L186.697 154.71L190.439 156.87L189.504 157.41L185.762 155.25Z" fill="#53C888"/>
<path opacity="0.7" d="M185.762 155.25L186.697 154.71L190.439 156.87L189.504 157.41L185.762 155.25Z" fill="white"/>
<path d="M185.943 167.73C185.936 167.215 185.83 166.203 186.071 165.569C186.313 164.935 187.445 164.072 187.831 163.824C188.217 163.576 188.594 163.847 188.397 164.572C188.201 165.297 187.859 165.508 187.629 166.007C187.398 166.505 187.398 166.822 187.398 166.822L185.943 167.73Z" fill="#A66868"/>
<path opacity="0.1" d="M104.578 108.977C103.939 108.608 103.363 108.578 102.947 108.825L91.5156 115.425C91.0937 115.662 90.8313 116.176 90.8313 116.914C90.8313 118.375 91.8572 120.151 93.1223 120.882C93.7649 121.253 94.3441 121.28 94.7601 121.028L106.177 114.437C106.603 114.202 106.869 113.687 106.869 112.946C106.87 111.484 105.844 109.707 104.578 108.977Z" fill="black"/>
<path d="M120.617 155.461C120.617 155.461 116.969 155.611 115.938 155.594C113.294 152.872 109.447 148.949 108.625 147.834C107.5 145.752 106.539 143.824 105.577 143.664C104.593 143.501 102.527 144.029 102.023 144.934C101.674 145.561 102.458 147.369 103.141 146.922C103.469 147.509 103.828 149.043 105.577 149.594C108.296 152.849 111.398 157.064 113.094 159.054C113.69 159.753 115.164 160.091 116.373 159.234L120.617 155.461Z" fill="#FFA8A7"/>
<path d="M131.512 215.376C131.737 215.467 131.785 215.901 131.8 216.762C131.811 217.414 131.925 218.552 131.158 218.762C130.391 218.972 129.276 218.831 128.801 218.206C128.209 217.427 127.812 216.744 126.963 215.789C126.226 214.962 125.427 214.187 125.148 213.044C124.895 212.011 125.135 211.57 125.842 211.287C126.814 210.898 128.298 212.274 129.048 212.502C129.695 212.7 131.287 215.285 131.512 215.376Z" fill="#3B6860"/>
<path d="M131.53 214.58L131.506 215.636C131.506 215.636 130.389 216.455 128.836 215.648C128.792 215.545 128.593 214.131 128.593 214.131L131.53 214.58Z" fill="#FFA8A7"/>
<path d="M122.823 221.269C122.823 221.269 123.105 222.194 123.251 223.001C123.366 223.642 123.528 224.714 123.293 225.189C123.059 225.664 122.18 225.954 120.828 225.914C119.953 225.887 118.575 226.451 117.628 226.952C116.651 227.469 114.639 227.638 113.621 227.495C112.422 227.327 111.191 226.601 111.008 226.099C110.825 225.596 111.094 225.084 113.957 223.941C113.983 223.93 117.927 222.745 119.332 221.263L122.823 221.269Z" fill="#3B6860"/>
<path d="M122.849 220.127C122.849 220.127 122.827 220.911 122.821 221.359C122.815 221.807 122.271 222.463 120.903 222.383C119.942 222.327 119.277 222.053 119.333 221.262L119.359 220.121L122.849 220.127Z" fill="#FFA8A7"/>
<path d="M132.532 200.581C132.127 197.119 131.409 195.053 131.409 195.053C131.409 195.053 131.893 190.316 132.175 185.821C132.48 180.966 132.412 174.853 132.532 173.643C132.532 173.643 116.922 170.117 116.516 175.728C116.109 181.339 116.686 195.659 116.816 198.131C116.946 200.604 117.324 202.796 117.743 206.807C118.157 210.766 119.358 220.12 119.358 220.12C121.127 221.129 122.849 220.127 122.849 220.127C122.849 220.127 124.205 208.919 124.153 206.069C124.09 202.589 123.214 199.829 123.214 199.829C123.214 199.829 123.615 195.204 123.969 191.18C124.322 187.157 124.643 185.228 124.744 183.477L125.085 183.317C125.085 183.317 125.272 190.276 125.402 192.748C125.532 195.22 125.87 197.595 126.481 202.195C127.011 206.186 128.666 214.641 128.666 214.641C130.436 215.65 131.53 214.579 131.53 214.579C131.53 214.579 132.938 204.042 132.532 200.581Z" fill="#37474F"/>
<path d="M124.744 183.478C124.744 183.478 128.59 181.689 130.532 180.041C130.532 180.041 128.708 182.492 126.363 183.544C126.363 183.544 125.343 192.16 125.351 191.989L125.066 183.472L124.744 183.478Z" fill="#263238"/>
<path d="M122.023 151.274L122.898 156.414L127.743 155.993L126.738 150.36L122.023 151.274Z" fill="#FFA8A7"/>
<path d="M132.392 156.084C131.966 154.685 130.239 153.134 128.468 153.422C128.057 153.489 127.709 153.547 127.319 153.616C127.322 154.513 124.844 155.157 122.58 154.624C121.898 154.803 121.273 154.987 120.705 155.176C119.078 155.716 117.576 157.078 117.323 162.384C117.323 162.384 116.503 174.748 116.44 177.141C120.456 178.836 124.673 178.881 127.014 178.425C131.888 177.475 132.518 175.476 132.518 175.476C132.518 175.476 132.781 166.578 132.722 162.731C132.673 159.462 132.684 157.044 132.392 156.084Z" fill="#53C888"/>
<path d="M118.785 144.583C118.785 144.583 117.362 146.264 117.478 146.46C117.594 146.655 118.459 146.924 118.459 146.924L118.785 144.583Z" fill="#F28F8F"/>
<path d="M122.732 139.933C120.236 140.155 119.029 141.041 118.583 144.997C118.126 149.049 118.465 150.475 118.931 151.083C119.245 151.493 121.009 151.637 122.047 151.481C123.346 151.285 126.309 150.62 127.884 148.746C129.737 146.542 130.538 143.351 129.022 141.819C126.887 139.665 123.749 139.843 122.732 139.933Z" fill="#FFA8A7"/>
<path d="M118.361 141.346C118.386 141.371 118.41 141.395 118.435 141.419C118.907 141.866 119.511 142.15 120.004 142.574C120.548 143.042 120.92 143.661 121.118 144.347C121.281 144.911 121.345 145.58 121.958 145.841C121.958 145.841 122.345 144.336 123.613 144.525C124.89 144.716 125.062 146.343 124.258 147.332C123.453 148.32 122.704 147.942 122.704 147.942C122.704 147.942 122.743 150.092 123.696 151.31C123.696 151.31 124.78 151.661 126.775 151.236C128.001 150.974 129.734 149.442 130.463 147.82C132.004 144.387 132.112 141.299 129.92 140.373C129.683 138.791 128.438 138.082 127.019 137.756C124.895 137.269 122.91 138.529 120.81 138.059C120.37 137.96 119.943 137.803 119.496 137.747C119.444 137.741 119.39 137.737 119.344 137.76C119.236 137.813 119.244 137.967 119.275 138.083C119.387 138.503 119.6 138.895 119.892 139.216C119.073 139.273 118.299 139.154 117.513 138.916C117.419 139.798 117.741 140.714 118.361 141.346Z" fill="#263238"/>
<path d="M129.958 140.903L131.425 140.038C131.187 139.633 130.664 139.498 130.259 139.737C129.854 139.975 129.719 140.497 129.958 140.903Z" fill="#263238"/>
<path d="M121.931 146.7L121.977 144.997C121.506 144.984 121.115 145.355 121.103 145.826C121.09 146.296 121.461 146.687 121.931 146.7Z" fill="#263238"/>
<path d="M108.487 161.05L106.748 149.879L104.405 150.255L106.147 161.446C106.164 161.546 106.225 161.64 106.333 161.72C106.688 161.979 107.416 161.979 107.96 161.72C108.339 161.538 108.528 161.279 108.487 161.05Z" fill="#37474F"/>
<path d="M104.593 150.54C104.947 150.8 105.676 150.8 106.219 150.54C106.762 150.281 106.915 149.861 106.56 149.601C106.206 149.342 105.478 149.342 104.934 149.601C104.391 149.86 104.238 150.281 104.593 150.54Z" fill="#455A64"/>
<path d="M105.008 108.315L105.753 107.884L106.498 112.744" stroke="#37474F" stroke-miterlimit="10" stroke-linecap="round" stroke-linejoin="round"/>
<path d="M107.299 109.638C107.299 108.177 106.273 106.4 105.008 105.669C104.369 105.3 103.793 105.271 103.377 105.518L91.9324 112.125L95.169 117.732L106.607 111.128C107.033 110.895 107.299 110.38 107.299 109.638Z" fill="#53C888"/>
<path d="M107.299 109.638C107.299 108.177 106.273 106.4 105.008 105.669C104.369 105.3 103.793 105.271 103.377 105.518L91.9324 112.125L95.169 117.732L106.607 111.128C107.033 110.895 107.299 110.38 107.299 109.638Z" fill="#53C888"/>
<path opacity="0.8" d="M107.299 109.638C107.299 108.177 106.273 106.4 105.008 105.669C104.369 105.3 103.793 105.271 103.377 105.518L91.9324 112.125L95.169 117.732L106.607 111.128C107.033 110.895 107.299 110.38 107.299 109.638Z" fill="white"/>
<path opacity="0.6" d="M105.946 106.452L94.4968 113.063C94.209 112.747 93.8933 112.476 93.5548 112.285C92.974 111.946 92.4434 111.89 92.0374 112.064L103.375 105.516C103.792 105.274 104.367 105.302 105.01 105.668C105.343 105.866 105.659 106.137 105.946 106.452Z" fill="white"/>
<path d="M93.5527 112.283C94.8178 113.014 95.8437 114.791 95.8437 116.252C95.8437 117.713 94.8178 118.305 93.5527 117.575C92.2876 116.844 91.2617 115.067 91.2617 113.606C91.2617 112.145 92.2871 111.553 93.5527 112.283Z" fill="#53C888"/>
<path opacity="0.6" d="M93.5527 112.283C94.8178 113.014 95.8437 114.791 95.8437 116.252C95.8437 117.713 94.8178 118.305 93.5527 117.575C92.2876 116.844 91.2617 115.067 91.2617 113.606C91.2617 112.145 92.2871 111.553 93.5527 112.283Z" fill="white"/>
<path opacity="0.5" d="M92.0405 112.064C92.0016 112.081 91.9718 112.114 91.935 112.135L91.9307 112.128L92.0405 112.064Z" fill="white"/>
<path d="M106.498 112.744L93.5526 120.22L92.8076 115.36L93.5526 114.929" stroke="#37474F" stroke-miterlimit="10" stroke-linecap="round" stroke-linejoin="round"/>
<path d="M105.566 149.867L100.426 116.251" stroke="#37474F" stroke-miterlimit="10" stroke-linecap="round" stroke-linejoin="round"/>
<path d="M120.083 155.434C118.128 155.72 116.792 157.236 114.604 159.916C112.654 162.303 110.865 165.06 110.865 165.06C110.865 165.06 107.544 159.144 107.238 157.863C106.933 156.582 107.501 156.216 107.831 154.418C108.16 152.62 107.057 151.892 107.057 151.892L107.182 152.7C107.091 153.36 106.484 153.893 105.9 154.052C105.9 154.052 104.993 154.038 104.793 152.751L104.494 150.832C104.494 150.832 103.248 150.916 103.148 153.878C103.071 156.162 103.608 157.24 103.988 158.769C104.319 160.099 105.997 166.436 107.898 169.54C108.631 170.736 109.6 172.147 111.945 170.199C114.29 168.252 119.344 162.81 119.344 162.81C119.344 162.81 121.932 160.335 120.083 155.434Z" fill="#FFA8A7"/>
<path d="M120.704 155.176C119.294 155.36 117.893 155.859 116.44 157.445C114.986 159.032 111.945 163.059 111.945 163.059C111.945 163.059 112.07 165.913 115.288 167.418L120.036 162.737C120.036 162.737 121.589 161.129 121.762 158.768C121.986 155.715 120.704 155.176 120.704 155.176Z" fill="#37474F"/>
<path d="M103.729 144.563C103.979 144.922 104.208 145.29 104.401 145.964C104.527 146.402 104.56 147.666 106.108 147.834C106.108 147.834 105.986 145.857 105.312 145.183C104.637 144.508 103.729 144.563 103.729 144.563Z" fill="#F28F8F"/>
<path d="M106.301 147.942C104.744 147.129 105.142 146.305 104.315 145.336C103.57 144.463 103.498 144.192 103.588 143.867C103.645 143.658 103.849 143.621 104.246 143.71C105.258 143.938 105.92 144.996 106.432 145.802L106.301 147.942Z" fill="#FFA8A7"/>
<path d="M103.141 146.923C103.141 146.923 103.252 146.81 103.252 146.673C103.252 146.673 103.468 146.898 103.728 146.798C103.989 146.698 104.089 146.498 104.101 146.323C104.101 146.323 104.142 146.799 103.728 146.923C103.315 147.047 103.302 146.863 103.302 146.863C103.302 146.863 103.281 146.983 103.204 147.047" fill="#F28F8F"/>
</svg>
