<svg width="452" height="494" viewBox="0 0 452 494" fill="none" xmlns="http://www.w3.org/2000/svg">
<path d="M0 30C0 13.4314 13.4315 0 30 0H246.376C254.872 0 262.93 3.55742 268.563 9.91789C306.694 52.9704 455.033 223.381 451.953 265.511C448.419 313.844 141.699 496.866 103.889 493.966C73.551 491.639 25.013 439.731 7.01371 419.306C2.39961 414.07 0 407.337 0 400.358V30Z" fill="#D9D9D9" fill-opacity="0.3"/>
<path d="M314 355.055V80.3723C314 70.1164 303.941 62.7869 294.106 65.6944C265.747 74.0776 212.94 88 175 88C137.06 88 84.2525 74.0776 55.8943 65.6944C46.0592 62.7869 36 70.1164 36 80.3723V355.055C36 364.73 45.0075 371.93 54.4786 369.956C82.4646 364.122 136.419 354.039 175 354.039C213.581 354.039 267.535 364.122 295.521 369.956C304.992 371.93 314 364.73 314 355.055Z" fill="#4A8B68"/>
<path d="M172.996 347.512C235.627 347.512 286.4 341.895 286.4 334.965C286.4 328.036 235.627 322.418 172.996 322.418C110.364 322.418 59.5908 328.036 59.5908 334.965C59.5908 341.895 110.364 347.512 172.996 347.512Z" fill="#1E2322"/>
<path d="M229.823 221.387C229.173 219.33 228.417 217.212 228.688 215.072C229.046 212.235 231.163 209.815 231.342 206.962C231.516 204.175 229.775 201.592 227.653 199.778C223.951 196.614 218.761 195.147 214.022 196.266C209.283 197.385 205.192 201.202 204.091 205.946C203.699 207.631 203.667 209.393 203.171 211.05C201.362 217.101 194.264 219.812 190.74 225.053C187.744 229.511 187.707 235.587 190.007 240.442C192.308 245.296 196.696 248.965 201.617 251.119C207.416 253.656 214.948 253.908 219.369 249.378C223.735 244.905 221.948 238.662 225.006 233.874C228.133 228.975 232.031 228.38 229.823 221.387Z" fill="white"/>
<path d="M225.181 229.361C227.686 231.476 228.784 236.581 229.448 242.554C230.111 248.526 229.898 258.902 230.893 261.557C230.893 261.557 227.559 263.992 226.563 263.661C225.568 263.329 223.206 246.74 222.211 241.597C221.216 236.453 225.181 229.361 225.181 229.361Z" fill="#ECD0A1"/>
<path d="M224.698 205.943C221.551 206.49 218.358 202.676 215.906 203.73C213.454 204.785 213.002 211.402 211.193 211.395C207.628 207.637 207.675 212.459 208.784 214.382C209.355 215.372 210.808 215.346 210.808 215.346C210.808 215.346 211.712 221.243 215.903 223.466C218.157 224.661 221.565 223.34 223.728 220.007C225.89 216.674 227.334 206.74 227.334 206.74C227.334 206.74 227.211 205.505 224.698 205.943Z" fill="#ECD0A1"/>
<path d="M217.744 221.66C217.407 223.346 218.194 226.942 218.194 226.942C218.194 226.942 210.989 225.925 208.854 225.475C208.854 225.475 211.995 219.628 212.244 217.259L217.744 221.66Z" fill="#ECD0A1"/>
<path d="M214.036 225.369L211.137 223.602C211.137 223.602 207.987 225.036 205.178 225.597C202.368 226.159 201.738 226.542 201.738 226.542C201.738 226.542 204.709 238.067 213.25 238.18C221.791 238.292 223.476 227.167 223.476 227.167L217.97 225.144L214.036 225.369Z" fill="#ECD0A1"/>
<path d="M223.49 247.077C219.558 253.893 222.122 256.74 222.785 260.389C223.72 265.532 226.354 268.182 228.146 271.536C222.781 272.46 220.448 278.042 215.534 277.319C207.359 276.117 201.76 277.72 196.94 277.4C198.011 266.223 197.636 261.758 198.703 253.755C199.772 245.738 202.215 236.284 202.215 236.284C202.215 236.284 202.572 233.612 202.393 231.296C202.215 228.98 200.61 226.542 200.61 226.542L207.145 224.971C207.145 224.971 211.866 229.692 215.608 228.801C219.349 227.91 220.203 225.452 220.203 225.452C225.013 226.699 226.215 227.914 226.215 227.914C227.006 229.329 223.893 236.752 223.893 236.752C224.427 239.069 225.979 242.764 223.49 247.077Z" fill="#9092EC"/>
<path d="M200.076 228.001C200.076 228.001 196.312 230.15 196.852 233.902C197.392 237.653 212.636 257.237 212.636 257.237C212.636 257.237 212.412 259.617 219.013 260.69C225.758 261.786 235.871 260.637 235.871 260.637L237.331 256.57C237.331 256.57 227.835 255.703 224.672 254.452C219.879 252.554 216.498 252.295 216.498 252.295C216.498 252.295 206.959 237.52 205.737 235.287C204.516 233.053 204.517 228.923 200.076 228.001Z" fill="#ECD0A1"/>
<path d="M221.769 212.973C221.93 214.42 222.668 215.672 222.67 217.159C222.67 217.264 222.6 217.355 222.501 217.385C221.83 217.596 221.066 217.743 220.422 217.4C220.304 217.337 220.366 217.175 220.483 217.164C220.919 217.125 221.568 217.291 221.969 217.074C222.418 216.83 222.073 215.901 221.964 215.483C221.747 214.648 221.497 213.842 221.44 212.976C221.426 212.763 221.746 212.767 221.769 212.973Z" fill="#303534"/>
<path d="M217.722 218.092C218.818 219.117 220.458 219.647 221.92 219.322C222.126 219.276 222.235 219.54 222.062 219.657C220.711 220.564 218.347 219.441 217.475 218.283C217.363 218.135 217.596 217.974 217.722 218.092Z" fill="#303534"/>
<path d="M218.902 212.584C218.91 212.585 218.917 212.587 218.925 212.588C218.796 212.36 218.666 212.132 218.537 211.904C218.531 211.925 218.524 211.947 218.518 211.968C218.566 211.886 218.614 211.803 218.663 211.72C218.646 211.736 218.629 211.751 218.612 211.766C218.695 211.717 218.779 211.669 218.862 211.621C218.84 211.627 218.819 211.633 218.797 211.638C218.898 211.638 218.999 211.638 219.101 211.638C219.08 211.633 219.058 211.626 219.037 211.62C219.037 211.991 219.037 212.362 219.037 212.733C219.044 212.731 219.052 212.729 219.06 212.727C219.391 212.648 219.507 212.317 219.464 212.016C219.432 211.788 219.218 211.617 219.013 211.554C218.687 211.454 218.418 211.676 218.301 211.958C218.298 211.965 218.295 211.972 218.292 211.979C218.184 212.241 218.388 212.563 218.626 212.659C218.906 212.771 219.177 212.665 219.346 212.423C219.35 212.417 219.355 212.41 219.359 212.404C219.096 212.473 218.831 212.542 218.567 212.611C218.542 212.593 218.516 212.575 218.491 212.556C218.442 212.471 218.392 212.386 218.342 212.3C218.345 212.308 218.347 212.316 218.349 212.323C218.484 212.086 218.619 211.849 218.754 211.612C218.747 211.615 218.739 211.618 218.732 211.621C218.114 211.874 218.228 212.667 218.885 212.754C219.324 212.812 219.581 212.432 219.631 212.053C219.671 211.755 219.347 211.497 219.075 211.497C218.794 211.497 218.494 211.752 218.519 212.053C218.526 212.104 218.528 212.154 218.525 212.205C218.521 212.425 218.699 212.562 218.902 212.584Z" fill="#303534"/>
<path d="M223.427 213.674C223.427 213.682 223.427 213.691 223.427 213.699C223.528 213.566 223.629 213.433 223.73 213.3C223.747 213.296 223.764 213.293 223.78 213.289C223.922 213.397 224.064 213.506 224.207 213.615C224.2 213.596 224.193 213.578 224.187 213.559C224.187 213.64 224.187 213.72 224.187 213.8C224.191 213.779 224.195 213.757 224.2 213.736C224.051 213.849 223.902 213.962 223.754 214.076C223.843 214.067 223.93 214.06 224.02 214.058C224.848 214.049 224.532 212.702 223.762 213.104C223.72 213.128 223.676 213.15 223.631 213.167C223.457 213.24 223.269 213.396 223.291 213.613C223.31 213.799 223.354 213.902 223.466 214.046C223.563 214.171 223.756 214.19 223.897 214.16C223.909 214.158 223.921 214.155 223.933 214.152C224.115 214.113 224.258 213.913 224.254 213.73C224.254 213.72 224.253 213.71 224.253 213.7C224.25 213.556 224.178 213.413 224.048 213.343C224.04 213.338 224.033 213.334 224.026 213.33C223.763 213.188 223.427 213.365 223.427 213.674Z" fill="#303534"/>
<path d="M207.935 238.766L200.774 242.916C200.774 242.916 192.702 235.122 198.658 228.055C204.614 220.988 207.935 238.766 207.935 238.766Z" fill="#9092EC"/>
<path d="M223.093 239.157L230.066 237.389C230.066 237.389 230.319 228.106 224.427 226.759C218.534 225.413 223.093 239.157 223.093 239.157Z" fill="#9092EC"/>
<path d="M225.767 210.155C225.342 209.941 224.9 209.786 224.453 209.624C224.129 209.505 223.753 209.756 223.666 210.071C223.569 210.423 223.785 210.744 224.113 210.858C224.512 210.997 224.901 211.139 225.314 211.229C225.933 211.365 226.391 210.469 225.767 210.155Z" fill="white"/>
<path d="M220.071 208.689C219.458 208.662 218.681 208.517 218.118 208.797C217.731 208.99 217.731 209.628 218.118 209.821C218.682 210.101 219.458 209.956 220.071 209.93C220.87 209.896 220.871 208.722 220.071 208.689Z" fill="white"/>
<path d="M224.543 294.594H180.546C178.913 294.594 177.576 293.258 177.576 291.624V289.53C177.576 287.897 178.913 286.56 180.546 286.56H224.543C226.177 286.56 227.513 287.897 227.513 289.53V291.624C227.513 293.258 226.177 294.594 224.543 294.594Z" fill="white"/>
<path d="M190.481 327.245C190.481 328.694 189.306 329.868 187.857 329.868C186.408 329.868 185.233 328.693 185.233 327.245C185.233 325.795 186.408 324.621 187.857 324.621C189.306 324.621 190.481 325.796 190.481 327.245Z" fill="white"/>
<path d="M222.063 327.245C222.063 328.694 220.888 329.868 219.439 329.868C217.99 329.868 216.815 328.693 216.815 327.245C216.815 325.795 217.99 324.621 219.439 324.621C220.888 324.621 222.063 325.796 222.063 327.245Z" fill="white"/>
<path d="M205.603 327.245C205.603 328.694 204.428 329.868 202.979 329.868C201.53 329.868 200.355 328.693 200.355 327.245C200.355 325.795 201.53 324.621 202.979 324.621C204.429 324.621 205.603 325.796 205.603 327.245Z" fill="white"/>
<path d="M188.251 327.245H187.462V325.885C187.462 322.634 190.106 319.991 193.356 319.991H203.283V293.655H204.071V320.779H193.356C190.541 320.779 188.251 323.069 188.251 325.885V327.245Z" fill="white"/>
<path d="M219.542 327.245H218.753V325.885C218.753 323.07 216.463 320.779 213.647 320.779H202.932V293.655H203.72V319.991H213.647C216.898 319.991 219.542 322.634 219.542 325.885V327.245Z" fill="white"/>
<path d="M203.374 320.385H202.585V327.245H203.374V320.385Z" fill="white"/>
<path d="M206.006 306.877H200.185V320.152H206.006V306.877Z" fill="white"/>
<path d="M204.842 290.938H201.116V308.974H204.842V290.938Z" fill="white"/>
<path d="M214.171 282.615C214.171 282.615 231.292 282.25 234 286.807C239.418 295.922 223.569 328.817 223.569 328.817L220.661 327.144L223.286 290.049L205.337 286.04C205.337 286.04 214.445 289.508 215.974 292.169C220.148 299.439 216.379 326.843 216.379 326.843H212.29C212.29 326.843 203.618 290.447 202.717 290.447C201.815 290.447 186.588 282.795 186.588 282.795L214.171 282.615Z" fill="#ECD0A1"/>
<path d="M225.372 325.756C225.372 325.756 227.873 331.542 231.351 332.227C234.83 332.912 235.669 335.63 229.673 335.063C223.678 334.497 222.222 330.36 222.222 330.36L221.635 334.298L220.585 334.243L220.351 325.742L225.372 325.756Z" fill="#7D82E2"/>
<path d="M216.917 326.235C216.917 326.235 219.881 331.9 223.369 332.534C226.858 333.168 227.42 335.527 221.416 335.049C215.413 334.57 213.836 330.885 213.836 330.885L213.307 334.831L212.257 334.791L211.897 326.295L216.917 326.235Z" fill="#9092EC"/>
<path d="M126.294 327.35C126.294 328.799 125.119 329.973 123.671 329.973C122.222 329.973 121.047 328.798 121.047 327.35C121.047 325.901 122.222 324.726 123.671 324.726C125.119 324.726 126.294 325.901 126.294 327.35Z" fill="white"/>
<path d="M158.611 327.245C158.611 328.694 157.436 329.868 155.987 329.868C154.538 329.868 153.363 328.693 153.363 327.245C153.363 325.795 154.538 324.621 155.987 324.621C157.436 324.621 158.611 325.796 158.611 327.245Z" fill="white"/>
<path d="M142.152 327.245C142.152 328.694 140.977 329.868 139.528 329.868C138.079 329.868 136.904 328.693 136.904 327.245C136.904 325.795 138.079 324.621 139.528 324.621C140.977 324.621 142.152 325.796 142.152 327.245Z" fill="white"/>
<path d="M124.8 327.245H124.011V325.885C124.011 322.634 126.655 319.991 129.905 319.991H139.831V293.655H140.62V320.779H129.904C127.089 320.779 124.799 323.069 124.799 325.885L124.8 327.245Z" fill="white"/>
<path d="M156.09 327.245H155.301V325.885C155.301 323.07 153.011 320.779 150.195 320.779H139.479V293.655H140.268V319.991H150.195C153.445 319.991 156.089 322.634 156.089 325.885L156.09 327.245Z" fill="white"/>
<path d="M139.922 320.385H139.133V327.245H139.922V320.385Z" fill="white"/>
<path d="M142.555 306.877H136.733V320.152H142.555V306.877Z" fill="white"/>
<path d="M141.391 290.938H137.665V308.974H141.391V290.938Z" fill="white"/>
<path d="M157.918 294.594H113.921C112.288 294.594 110.951 293.258 110.951 291.624V289.53C110.951 287.897 112.288 286.56 113.921 286.56H157.918C159.552 286.56 160.888 287.897 160.888 289.53V291.624C160.888 293.258 159.552 294.594 157.918 294.594Z" fill="white"/>
<path d="M89.1885 248.759L94.6313 249.27C97.4605 248.045 98.4483 247.935 104.244 245.445C109.138 243.341 114.585 239.817 114.585 239.817L117.793 231.868C120.64 231.687 127.014 233.833 127.014 233.833C127.014 233.833 120.653 246.062 118.476 247.185C116.297 248.307 101.105 252.603 95.0958 252.844C93.2033 252.92 89.2586 251.517 89.2586 251.517L89.1885 248.759Z" fill="#ECD0A1"/>
<path d="M120.175 223.577C120.175 223.577 127.788 224.851 127.658 231.696C127.574 236.154 121.459 244.482 121.459 244.482C121.459 244.482 118.101 239.833 113.969 238.541C113.969 238.541 116.653 230.667 117.474 228.205C118.506 225.109 120.175 223.577 120.175 223.577Z" fill="white"/>
<path d="M118.243 215.675C118.711 217.448 119.543 219.401 121.283 219.979C122.883 220.509 124.582 219.653 126.03 218.791C127.734 217.776 129.462 216.664 130.551 215.007C132.204 212.493 133.542 209.422 133.357 206.419C133.291 205.358 131.737 204.055 131.093 203.21C130.638 202.612 129.958 202.232 129.28 201.909C127.67 201.143 125.951 200.605 124.19 200.318C121.251 199.839 117.983 200.496 117.395 203.724C116.697 207.565 117.259 211.94 118.243 215.675Z" fill="#ECD0A1"/>
<path d="M122.54 208.832C122.54 209.276 122.9 209.636 123.344 209.636C123.787 209.636 124.147 209.276 124.147 208.832C124.147 208.388 123.787 208.029 123.344 208.029C122.9 208.028 122.54 208.388 122.54 208.832Z" fill="#303534"/>
<path d="M117.978 208.832C117.978 209.276 118.337 209.636 118.781 209.636C119.224 209.636 119.584 209.276 119.584 208.832C119.584 208.388 119.224 208.029 118.781 208.029C118.338 208.028 117.978 208.388 117.978 208.832Z" fill="#303534"/>
<path d="M124.06 211.755C122.514 211.755 121.257 210.5 121.257 208.957C121.257 207.413 122.514 206.158 124.06 206.158C125.606 206.158 126.863 207.413 126.863 208.957C126.863 210.5 125.606 211.755 124.06 211.755ZM124.06 206.676C122.799 206.676 121.774 207.699 121.774 208.957C121.774 210.214 122.799 211.237 124.06 211.237C125.32 211.237 126.346 210.214 126.346 208.957C126.346 207.699 125.32 206.676 124.06 206.676Z" fill="white"/>
<path d="M119.841 207.466L119.428 207.154C119.772 206.699 120.281 206.43 120.862 206.397C121.488 206.362 122.123 206.615 122.56 207.075L122.184 207.432C121.85 207.081 121.362 206.886 120.891 206.914C120.464 206.938 120.091 207.134 119.841 207.466Z" fill="white"/>
<path d="M117.879 211.755C116.334 211.755 115.076 210.5 115.076 208.957C115.076 207.413 116.334 206.158 117.879 206.158C119.425 206.158 120.682 207.413 120.682 208.957C120.682 210.5 119.425 211.755 117.879 211.755ZM117.879 206.676C116.619 206.676 115.594 207.699 115.594 208.957C115.594 210.214 116.619 211.237 117.879 211.237C119.14 211.237 120.165 210.214 120.165 208.957C120.165 207.699 119.14 206.676 117.879 206.676Z" fill="white"/>
<path d="M138.97 220.509C138.97 220.509 138.938 219.93 136.871 219.413C136.278 219.265 135.537 219.264 135.065 218.851C133.393 217.388 131.857 214.667 131.287 212.661C131.203 212.364 131.12 212.05 131.198 211.751C129.801 212.935 128.452 214.174 127.153 215.464C126.708 215.905 124.018 215.656 124.344 216.254C124.435 216.422 127.293 218.273 126.297 219.602C125.936 220.083 123.052 221.479 123.052 221.479L121.244 231.552L126.539 234.523C126.539 234.523 132.48 233.232 136.354 231.165C140.229 229.099 138.97 220.509 138.97 220.509Z" fill="#ECD0A1"/>
<path d="M136.871 219.413C136.871 219.413 135.321 222.254 131.446 223.933C127.572 225.612 124.085 220.575 124.085 220.575L120.175 223.577C120.175 223.577 119.823 237.309 121.502 244.799C123.181 252.29 124.731 262.807 124.731 262.807C124.731 262.807 126.463 265.346 128.676 265.495C131.383 265.678 135.113 263.558 141.004 264.614C147.54 265.786 152.406 264.758 152.406 264.758C152.406 264.758 147.378 240.187 146.216 235.279C145.053 230.371 142.037 220.317 142.037 220.317C142.037 220.317 139.454 219.671 136.871 219.413Z" fill="#EDEDED"/>
<path d="M120.878 207.096C120.907 208.644 120.285 209.808 119.637 211.164C119.354 211.758 119.114 212.57 119.347 213.223C119.381 213.317 119.463 213.395 119.569 213.391C120.169 213.374 120.858 212.96 121.403 212.716C121.626 212.616 121.467 212.234 121.235 212.317C120.978 212.411 120.717 212.546 120.455 212.617C119.896 212.769 119.801 212.859 119.778 212.268C119.75 211.538 120.401 210.743 120.675 210.081C121.076 209.109 121.225 208.141 121.136 207.095C121.122 206.933 120.875 206.927 120.878 207.096Z" fill="#303534"/>
<path d="M122.956 205.668C123.271 205.771 123.611 205.764 123.939 205.794C124.286 205.824 124.631 205.872 124.977 205.913C125.421 205.965 125.529 205.197 125.083 205.126C124.428 205.023 123.608 204.859 122.956 205.021C122.621 205.104 122.654 205.569 122.956 205.668Z" fill="#9092EC"/>
<path d="M117.804 205.679C118.352 205.769 118.91 205.675 119.467 205.713C119.985 205.748 119.968 204.968 119.467 204.914C118.891 204.853 118.219 204.866 117.745 205.229C117.6 205.34 117.569 205.641 117.804 205.679Z" fill="#9092EC"/>
<path d="M126.671 208.727C127.22 208.664 127.914 208.522 128.438 208.357C128.958 208.193 129.531 208.076 129.999 207.793C130.153 207.7 130.093 207.444 129.906 207.448C129.359 207.458 128.813 207.675 128.298 207.847C127.777 208.021 127.049 208.108 126.586 208.411C126.459 208.494 126.668 208.814 126.848 208.793L126.671 208.727Z" fill="white"/>
<path d="M122.587 204.394C120.074 204.228 117.431 204.213 115.233 203.069C114.165 202.513 113.207 201.625 113.003 200.506C112.799 199.386 113.618 198.086 114.84 198.006C115.092 197.99 115.366 198.017 115.576 197.889C115.846 197.723 115.89 197.381 115.931 197.084C116.204 195.091 117.88 193.081 120.045 193.131C121.811 193.17 123.455 194.53 125.164 194.118C125.691 193.991 126.152 193.706 126.635 193.473C128.085 192.772 129.793 192.54 131.399 192.825C133.094 193.126 134.892 194.463 134.477 196.017C134.338 196.536 133.966 196.987 133.867 197.514C133.513 199.393 136.507 200.329 137.099 202.156C137.637 203.818 135.994 205.473 136.12 207.205C136.19 208.167 136.751 209.298 136.019 209.982C135.628 210.348 134.961 210.439 134.698 210.892C134.341 211.51 135.006 212.212 135.064 212.911C135.137 213.777 134.147 214.505 133.213 214.431C132.279 214.357 131.502 213.667 131.135 212.867C130.767 212.068 130.74 211.172 130.769 210.303C132.35 209.859 133.324 207.253 131.836 206.587C131.043 206.231 130.198 207.093 129.897 207.824C128.327 205.333 125.819 204.394 122.587 204.394Z" fill="#9092EC"/>
<path d="M119.373 215.264C119.125 215.8 119.252 216.487 119.676 216.898C119.868 217.084 120.129 217.219 120.394 217.189C120.659 217.159 120.906 216.923 120.885 216.657C120.877 216.559 120.837 216.452 120.889 216.369C120.94 216.288 121.05 216.274 121.146 216.269C121.503 216.25 121.938 216.272 122.106 216.588C122.157 216.683 122.174 216.796 122.232 216.888C122.369 217.106 122.674 217.134 122.931 217.112C123.302 217.082 123.669 217.001 124.017 216.87C124.194 216.805 124.372 216.723 124.501 216.585C124.63 216.447 124.702 216.241 124.638 216.064C124.585 215.916 124.451 215.815 124.323 215.724C123.206 214.93 120.272 213.32 119.373 215.264Z" fill="#ECD0A1"/>
<path d="M119.927 215.252C120.517 215.622 121.74 215.636 122.309 215.213C122.445 215.112 122.415 214.868 122.217 214.872C121.846 214.878 121.489 215.021 121.112 215.04C120.738 215.059 120.368 214.982 119.995 215C119.862 215.006 119.811 215.179 119.927 215.252Z" fill="#303534"/>
<path d="M99.9158 253.204L105.738 250.78L111.123 251.725C114.041 250.73 115.034 250.699 121.01 248.679C126.056 246.974 131.767 243.896 131.767 243.896L137.726 233.38C140.579 233.427 144.634 238.923 144.634 238.923C144.634 238.923 137.318 250.606 135.057 251.551C132.796 252.496 115.264 255.862 109.255 255.622C107.363 255.547 103.891 253.739 103.891 253.739L100.934 254.668L97.4454 257.421L96.7646 256.938L98.1071 255.228L99.9158 253.204Z" fill="#ECD0A1"/>
<path d="M142.036 220.317C142.036 220.317 150.043 221.608 149.915 228.453C149.83 232.911 143.716 241.239 143.716 241.239C143.716 241.239 140.358 236.59 136.225 235.299C136.225 235.299 139.454 228.97 139.711 226.387C139.97 223.804 142.036 220.317 142.036 220.317Z" fill="white"/>
<path d="M121.034 325.643L121.652 331.204L117.214 330.989L117.494 325.588L121.034 325.643Z" fill="#ECD0A1"/>
<path d="M115.905 330.79C115.905 330.79 101.789 335.273 102.998 337.413C104.208 339.553 122.325 333.924 122.325 333.924L121.653 331.204L115.905 330.79Z" fill="#73FA9D"/>
<path d="M102.96 337.256C102.933 337.261 103.103 337.57 103.643 337.681C103.905 337.738 104.228 337.736 104.585 337.727C104.932 337.719 105.351 337.74 105.807 337.719C106.265 337.7 106.772 337.652 107.305 337.536C107.828 337.414 108.381 337.286 108.96 337.152C110.129 336.87 111.402 336.562 112.738 336.239C115.427 335.613 117.806 334.861 119.546 334.305C120.41 333.973 121.045 333.63 121.516 333.467C121.983 333.294 122.258 333.249 122.254 333.209C122.253 333.178 121.962 333.155 121.458 333.275C120.953 333.384 120.268 333.687 119.43 333.959C117.7 334.414 115.3 335.114 112.614 335.739C111.281 336.076 110.011 336.396 108.846 336.691C108.272 336.841 107.724 336.984 107.207 337.119C106.705 337.247 106.226 337.314 105.782 337.355C105.341 337.386 104.935 337.414 104.567 337.439C104.209 337.476 103.911 337.505 103.671 337.483C103.189 337.446 102.989 337.219 102.96 337.256Z" fill="#F2F2F4"/>
<path d="M111.163 334.867C111.314 334.867 111.323 334.178 110.898 333.541C110.49 332.907 109.994 332.563 109.894 332.654C109.782 332.752 110.097 333.245 110.462 333.815C110.838 334.381 111.023 334.875 111.163 334.867Z" fill="white"/>
<path d="M112.076 333.972C112.198 333.926 112.143 333.312 111.752 332.623C111.552 332.283 111.28 332.02 111.049 331.892C110.816 331.761 110.645 331.747 110.613 331.807C110.55 331.938 110.977 332.288 111.309 332.887C111.65 333.482 111.934 334.028 112.076 333.972Z" fill="white"/>
<path d="M113.364 333.963C113.428 333.97 113.523 333.786 113.519 333.464C113.519 333.143 113.384 332.703 113.115 332.31C112.563 331.519 111.85 331.202 111.78 331.312C111.688 331.433 112.22 331.919 112.688 332.599C113.179 333.271 113.223 333.94 113.364 333.963Z" fill="white"/>
<path d="M113.552 331.389C113.56 331.425 113.725 331.404 113.978 331.309C114.233 331.222 114.594 331.057 115.031 330.951C115.235 330.902 115.519 330.883 115.576 330.988C115.599 330.992 115.612 331.072 115.617 331.064C115.63 330.929 115.625 331.001 115.583 331.015C115.492 331.074 115.353 331.13 115.215 331.18C114.932 331.277 114.615 331.36 114.29 331.418C114.144 331.447 113.924 331.47 113.87 331.464C113.881 331.477 113.764 331.363 113.722 331.212C113.519 330.612 113.492 329.854 113.631 329.351C113.652 329.292 113.675 329.245 113.694 329.221C113.706 329.202 113.722 329.212 113.649 329.198C113.586 329.161 113.63 329.174 113.641 329.225C113.659 329.27 113.67 329.334 113.681 329.394C113.717 329.647 113.716 329.91 113.715 330.145C113.691 331.093 113.652 331.698 113.734 331.705C113.794 331.71 113.96 331.14 114.079 330.167C114.103 329.922 114.129 329.656 114.106 329.345C114.097 329.265 114.089 329.185 114.061 329.091C114.028 329.007 114.007 328.867 113.801 328.77C113.577 328.704 113.446 328.823 113.353 328.906C113.269 329 113.224 329.094 113.188 329.185C113.058 329.545 113.043 329.895 113.046 330.263C113.061 330.63 113.095 331.004 113.243 331.399C113.326 331.58 113.394 331.834 113.756 331.964C114.06 331.995 114.19 331.943 114.385 331.915C114.74 331.843 115.069 331.746 115.383 331.625C115.541 331.558 115.691 331.496 115.849 331.384C115.893 331.343 115.928 331.325 115.975 331.262C115.998 331.229 116.019 331.194 116.036 331.159C116.053 331.113 116.059 331.04 116.05 330.982C116.002 330.845 115.974 330.772 115.882 330.689C115.719 330.525 115.5 330.502 115.352 330.514C115.191 330.52 115.059 330.561 114.935 330.6C114.449 330.77 114.121 330.986 113.89 331.129C113.663 331.28 113.545 331.355 113.552 331.389Z" fill="white"/>
<path d="M136.764 327.216L137.383 332.777L132.944 332.561L133.224 327.161L136.764 327.216Z" fill="#ECD0A1"/>
<path d="M131.636 332.363C131.636 332.363 117.519 336.846 118.729 338.986C119.938 341.125 138.055 335.496 138.055 335.496L137.383 332.777L131.636 332.363Z" fill="#73FA9D"/>
<path d="M118.69 338.829C118.663 338.833 118.833 339.143 119.374 339.254C119.635 339.311 119.959 339.309 120.316 339.3C120.662 339.291 121.082 339.313 121.538 339.291C121.996 339.273 122.502 339.225 123.036 339.108C123.558 338.987 124.111 338.86 124.691 338.725C125.859 338.443 127.132 338.135 128.469 337.812C131.157 337.186 133.537 336.434 135.276 335.878C136.141 335.546 136.775 335.203 137.247 335.04C137.713 334.867 137.988 334.822 137.984 334.782C137.983 334.751 137.692 334.728 137.189 334.848C136.684 334.956 135.999 335.26 135.161 335.532C133.431 335.987 131.031 336.687 128.345 337.311C127.012 337.648 125.742 337.969 124.577 338.263C124.003 338.413 123.455 338.557 122.938 338.691C122.437 338.819 121.957 338.886 121.513 338.927C121.072 338.958 120.667 338.986 120.298 339.012C119.94 339.048 119.642 339.078 119.402 339.055C118.919 339.019 118.72 338.792 118.69 338.829Z" fill="white"/>
<path d="M126.893 336.441C127.045 336.44 127.054 335.751 126.628 335.115C126.221 334.481 125.725 334.137 125.624 334.228C125.513 334.326 125.828 334.819 126.192 335.389C126.568 335.954 126.753 336.448 126.893 336.441Z" fill="white"/>
<path d="M127.807 335.545C127.928 335.499 127.873 334.885 127.483 334.196C127.283 333.856 127.011 333.593 126.779 333.465C126.547 333.334 126.376 333.32 126.343 333.379C126.281 333.511 126.707 333.861 127.04 334.46C127.38 335.055 127.665 335.601 127.807 335.545Z" fill="white"/>
<path d="M129.094 335.536C129.159 335.543 129.253 335.359 129.25 335.037C129.249 334.716 129.115 334.276 128.845 333.882C128.293 333.092 127.58 332.775 127.51 332.885C127.418 333.006 127.95 333.492 128.419 334.172C128.91 334.844 128.953 335.513 129.094 335.536Z" fill="white"/>
<path d="M129.283 332.962C129.29 332.998 129.455 332.977 129.708 332.882C129.963 332.794 130.324 332.63 130.762 332.524C130.965 332.475 131.249 332.456 131.306 332.561C131.329 332.565 131.343 332.645 131.347 332.637C131.36 332.502 131.356 332.574 131.313 332.588C131.222 332.647 131.083 332.703 130.945 332.753C130.662 332.849 130.345 332.933 130.02 332.991C129.874 333.02 129.654 333.043 129.6 333.037C129.611 333.05 129.494 332.936 129.452 332.785C129.249 332.185 129.222 331.427 129.362 330.924C129.382 330.865 129.405 330.817 129.424 330.794C129.436 330.775 129.452 330.785 129.379 330.77C129.316 330.734 129.36 330.747 129.371 330.798C129.389 330.843 129.4 330.906 129.411 330.967C129.447 331.22 129.446 331.483 129.445 331.718C129.422 332.666 129.382 333.271 129.464 333.278C129.523 333.283 129.689 332.713 129.808 331.74C129.833 331.495 129.858 331.228 129.836 330.918C129.827 330.838 129.819 330.759 129.791 330.664C129.757 330.58 129.736 330.44 129.53 330.343C129.307 330.277 129.176 330.396 129.083 330.479C128.998 330.573 128.953 330.666 128.917 330.757C128.787 331.118 128.772 331.468 128.776 331.836C128.791 332.203 128.825 332.577 128.972 332.972C129.055 333.153 129.123 333.407 129.486 333.537C129.789 333.568 129.92 333.516 130.114 333.487C130.469 333.416 130.798 333.319 131.113 333.198C131.271 333.131 131.421 333.069 131.578 332.956C131.622 332.915 131.657 332.898 131.704 332.835C131.727 332.802 131.748 332.767 131.765 332.732C131.782 332.686 131.788 332.612 131.78 332.555C131.732 332.418 131.704 332.346 131.611 332.262C131.448 332.097 131.229 332.075 131.081 332.087C130.92 332.093 130.788 332.134 130.664 332.173C130.178 332.343 129.85 332.559 129.62 332.702C129.393 332.852 129.276 332.928 129.283 332.962Z" fill="white"/>
<path d="M128.274 282.615C128.274 282.615 110.43 283.286 107.722 287.843C102.304 296.958 115.992 327.656 115.992 327.656L121.784 327.144L120.646 292.928C120.596 291.416 121.601 290.07 123.065 289.69L132.118 284.124C132.118 284.124 127.924 287.185 126.395 289.846C122.22 297.116 131.259 328.955 131.259 328.955L137.813 328.431C137.813 328.431 138.73 290.325 139.631 290.325C140.533 290.325 155.857 282.796 155.857 282.796L128.274 282.615Z" fill="#9092EC"/>
<path opacity="0.4" d="M84.1953 240.084L117.627 193.484L155.318 207.318L162.423 235.601C162.423 235.601 121.63 258.738 119.968 258.508C118.308 258.279 88.8143 256.676 88.8143 256.676L84.1953 240.084Z" fill="url(#paint0_linear_47_2)"/>
<path d="M159.166 250.637C159.651 252.971 160.273 255.326 161.625 257.396C162.977 259.466 165.161 261.243 167.858 261.801C169.081 262.054 170.354 262.05 171.612 262.021C172.992 261.99 174.433 261.915 175.623 261.316C177.173 260.536 177.986 259.031 178.616 257.591C179.682 255.154 180.491 252.636 181.03 250.076C181.341 248.598 181.542 246.996 180.734 245.662C179.64 243.856 177.077 243.129 174.728 242.801C170.823 242.257 165.447 241.979 161.706 243.337C158.439 244.523 158.636 248.089 159.166 250.637Z" fill="white"/>
<path d="M167.987 245.58C171.086 245.735 174.443 245.329 176.394 244.431C176.784 244.251 177.131 244.021 176.947 243.801C176.729 243.542 175.904 243.435 175.184 243.371C171.46 243.043 167.335 242.895 163.69 243.423C158.348 244.196 165.153 245.438 167.987 245.58Z" fill="#303534"/>
<path d="M158.946 201.169C149.859 203.16 153.632 220.327 161.889 233.132C169.599 245.089 169.449 244.21 169.723 245.533C169.723 245.533 177.983 196.996 158.946 201.169Z" fill="#73FA9D"/>
<path d="M169.521 196.289C155.013 195.652 164.757 232.075 169.835 245.604C169.835 245.604 180.905 196.789 169.521 196.289Z" fill="#64E88C"/>
<path d="M168.98 245.605C168.98 245.605 169.465 245.612 169.628 245.61C169.791 245.608 170.281 245.587 170.281 245.587C173.359 238.688 194.312 206.773 181.352 205.16C170.377 203.793 166.731 234.317 168.2 241.362C168.54 243.204 168.81 244.684 168.98 245.605Z" fill="#73FA9D"/>
<path d="M93.2806 268.641H89.7314V326.953H93.2806V268.641Z" fill="white"/>
<path d="M259.496 268.641H255.947V326.953H259.496V268.641Z" fill="white"/>
<path d="M278.185 262.67H67.3232V291.215H278.185V262.67Z" fill="#EDEDED"/>
<path d="M70.4935 262.894H66.9443V335.67H70.4935V262.894Z" fill="white"/>
<path d="M280.569 262.894H277.02V335.67H280.569V262.894Z" fill="white"/>
<path d="M276.985 279.524L67.0664 262.853H276.985V279.524Z" fill="url(#paint1_linear_47_2)"/>
<path d="M288.376 259.862H59.1074V264.713H288.376V259.862Z" fill="white"/>
<path d="M127.319 259.862H95.7207V257.545H127.319C127.959 257.545 128.477 258.064 128.477 258.703C128.477 259.343 127.959 259.862 127.319 259.862Z" fill="#64E88C"/>
<path d="M118.651 259.862H88.1803C86.8325 259.862 85.6534 258.955 85.3077 257.652L79.9302 237.391C79.4295 235.505 80.8515 233.657 82.8028 233.657H109.41C110.758 233.657 111.937 234.564 112.282 235.867L118.651 259.862Z" fill="#73FA9D"/>
<path d="M82.8016 233.656C80.8504 233.656 79.4289 235.505 79.9291 237.391L85.3071 257.652C85.4729 258.277 85.834 258.807 86.3104 259.194L104.833 233.656H82.8016Z" fill="#64E88C"/>
<path d="M100.706 248.553C101.04 249.875 100.209 250.946 98.8489 250.946C97.4893 250.946 96.1165 249.875 95.7827 248.553C95.4489 247.231 96.2805 246.16 97.6401 246.16C98.9998 246.16 100.373 247.231 100.706 248.553Z" fill="white"/>
<path d="M127.319 259.862H95.7207V257.545H127.319C127.959 257.545 128.477 258.064 128.477 258.703C128.477 259.343 127.959 259.862 127.319 259.862Z" fill="#64E88C"/>
<path d="M118.651 259.862H88.1803C86.8325 259.862 85.6534 258.955 85.3077 257.652L79.9302 237.391C79.4295 235.505 80.8515 233.657 82.8028 233.657H109.41C110.758 233.657 111.937 234.564 112.282 235.867L118.651 259.862Z" fill="#73FA9D"/>
<path d="M82.8016 233.656C80.8504 233.656 79.4289 235.505 79.9291 237.391L85.3071 257.652C85.4729 258.277 85.834 258.807 86.3104 259.194L104.833 233.656H82.8016Z" fill="#64E88C"/>
<path d="M100.706 248.553C101.04 249.875 100.209 250.946 98.8489 250.946C97.4893 250.946 96.1165 249.875 95.7827 248.553C95.4489 247.231 96.2805 246.16 97.6401 246.16C98.9998 246.16 100.373 247.231 100.706 248.553Z" fill="white"/>
<path opacity="0.4" d="M259.567 240.084L226.135 193.484L188.444 207.318L181.339 235.601C181.339 235.601 222.132 258.738 223.794 258.508C225.455 258.279 254.947 256.676 254.947 256.676L259.567 240.084Z" fill="url(#paint2_linear_47_2)"/>
<path d="M215.211 259.862H246.809V257.545H215.211C214.571 257.545 214.053 258.064 214.053 258.703C214.053 259.343 214.571 259.862 215.211 259.862Z" fill="#64E88C"/>
<path d="M223.881 259.862H254.351C255.699 259.862 256.878 258.955 257.224 257.652L262.601 237.391C263.102 235.505 261.68 233.657 259.729 233.657H233.122C231.774 233.657 230.595 234.564 230.249 235.867L223.881 259.862Z" fill="#73FA9D"/>
<path d="M259.729 233.656C261.68 233.656 263.101 235.505 262.601 237.391L257.223 257.652C257.058 258.277 256.696 258.807 256.22 259.194L237.697 233.656H259.729Z" fill="#64E88C"/>
<path d="M241.825 248.553C241.491 249.875 242.322 250.946 243.682 250.946C245.042 250.946 246.415 249.875 246.748 248.553C247.082 247.232 246.251 246.16 244.89 246.16C243.531 246.16 242.159 247.232 241.825 248.553Z" fill="white"/>
<path d="M65.292 171.305V187.185C65.292 190.2 67.7363 192.644 70.7508 192.644H82.5192L87.5694 200.033L92.0903 192.166H103.38C106.395 192.166 108.839 189.722 108.839 186.707V171.305C108.839 168.291 106.395 165.846 103.38 165.846H70.7508C67.7357 165.846 65.292 168.29 65.292 171.305Z" fill="#EDEDED"/>
<path d="M79.5932 181.711H78.71V179.061H79.5932V181.711ZM81.3598 179.061H79.5932V178.177H81.3598V179.061ZM81.3598 182.594H79.5932V181.711H81.3598V182.594ZM82.2431 179.944H81.3598V179.061H82.2431V179.944ZM82.2431 181.711H81.3598V180.828H82.2431V181.711Z" fill="#303534"/>
<path d="M84.752 179.061H85.6352V179.944H84.752V179.061ZM84.752 182.594V181.711H87.4018V182.594H84.752ZM85.6352 179.061V178.177H88.2851V179.061H85.6352ZM85.6352 180.828H87.4018V179.944H85.6352V180.828ZM87.4018 180.828H88.2851V181.711H87.4018V180.828Z" fill="#303534"/>
<path d="M90.793 179.061H91.6762V179.944H90.793V179.061ZM90.793 182.594V181.711H93.4428V182.594H90.793ZM91.6762 179.061V178.177H94.3261V179.061H91.6762ZM91.6762 180.828H93.4428V179.944H91.6762V180.828ZM93.4428 180.828H94.3261V181.711H93.4428V180.828Z" fill="#303534"/>
<path d="M122.802 145.961V161.842C122.802 164.857 125.246 167.301 128.261 167.301H140.029L145.079 174.689L149.6 166.822H160.89C163.905 166.822 166.349 164.379 166.349 161.364V145.962C166.349 142.947 163.905 140.503 160.89 140.503H128.261C125.245 140.503 122.802 142.947 122.802 145.961Z" fill="#EDEDED"/>
<path d="M127.292 153.668H128.143V154.519H127.292V153.668ZM128.144 152.816H128.995V153.668H128.144V152.816ZM128.144 154.519H128.995V155.37H128.144V154.519ZM128.995 151.965H129.846V152.816H128.995V151.965ZM128.995 155.37H129.846V156.221H128.995V155.37Z" fill="#303534"/>
<path d="M133.115 156.222H132.264V154.519H133.115V156.222ZM133.966 154.519L133.115 154.519V153.668H133.966V154.519ZM134.817 153.668H133.966V151.965H134.817V153.668Z" fill="#303534"/>
<path d="M138.087 155.37H137.235V152.816H138.087V155.37ZM139.789 152.816H138.087V151.965H139.789V152.816ZM139.789 156.222H138.087V155.37L139.789 155.371V156.222ZM140.641 153.668H139.79V152.816H140.641V153.668ZM140.641 155.37H139.79V154.519H140.641V155.37Z" fill="#303534"/>
<path d="M143.909 155.37H143.058V152.816H143.909V155.37ZM145.611 152.816H143.909V151.965H145.611V152.816ZM145.611 156.222H143.909V155.37L145.611 155.371V156.222ZM146.462 155.37L145.611 155.371V152.816H146.462V155.37Z" fill="#303534"/>
<path d="M148.88 156.222V151.966H151.433V152.817H149.731V155.371H151.433V156.222H148.88ZM152.285 152.816V155.37L151.433 155.371V152.817L152.285 152.816Z" fill="#303534"/>
<path d="M157.257 152.816H155.554V153.668H157.257V154.519H155.554V155.37H157.257V156.221H154.703V151.965H157.257V152.816Z" fill="#303534"/>
<path d="M159.675 151.965H160.526V152.816H159.675V151.965ZM159.675 155.37H160.526V156.221H159.675V155.37ZM160.526 152.816H161.378V153.668H160.527L160.526 152.816ZM160.527 154.519H161.378V155.37H160.526L160.527 154.519ZM161.378 153.668H162.229V154.519H161.378V153.668Z" fill="#303534"/>
<path d="M240.462 182.443V198.324C240.462 201.339 242.906 203.783 245.921 203.783H257.689L262.739 211.172L267.26 203.305H278.55C281.565 203.305 284.009 200.861 284.009 197.846V182.444C284.009 179.429 281.565 176.985 278.55 176.985H245.921C242.906 176.985 240.462 179.428 240.462 182.443Z" fill="#EDEDED"/>
<path d="M255.977 189.945H256.859V190.828H255.977V189.945ZM256.859 189.062H257.743V189.945H256.859V189.062ZM256.859 190.828H257.743V191.712H256.859V190.828ZM257.743 188.178H258.626V189.062H257.743V188.178ZM257.743 191.712H258.626V192.595H257.743V191.712Z" fill="#303534"/>
<path d="M262.018 192.595H261.136V190.828H262.018V192.595ZM262.902 190.828H262.018V189.945H262.902V190.828ZM263.785 189.945H262.902V188.178H263.785V189.945Z" fill="#303534"/>
<path d="M266.293 188.178H267.176V189.062H266.293V188.178ZM266.293 191.712H267.176V192.595H266.293V191.712ZM267.176 189.062H268.059V189.945H267.176V189.062ZM267.176 190.828H268.059V191.712H267.176V190.828ZM268.06 189.945H268.943V190.828H268.06V189.945Z" fill="#303534"/>
<path d="M186.373 152.745V168.626C186.373 171.641 188.817 174.085 191.832 174.085H203.6L208.65 181.473L213.171 173.606H224.461C227.476 173.606 229.92 171.163 229.92 168.148V152.746C229.92 149.731 227.476 147.287 224.461 147.287H191.832C188.817 147.286 186.373 149.731 186.373 152.745Z" fill="#EDEDED"/>
<path d="M198.132 163.425V159.008H199.015V160.775H200.782V159.008H201.665V163.425H200.782V161.658H199.015V163.425H198.132Z" fill="#303534"/>
<path d="M205.057 163.425V159.892H204.174V159.008H206.824V159.892H205.94V163.425H205.057Z" fill="#303534"/>
<path d="M209.332 163.425V159.008H210.215V163.425H209.332ZM210.215 159.892H211.098V160.775H210.215V159.892ZM211.098 160.775H211.981V161.658H211.098V160.775ZM211.982 159.892H212.865V160.775H211.981L211.982 159.892ZM212.865 163.425V159.008H213.748V163.425H212.865Z" fill="#303534"/>
<path d="M217.14 162.541H218.907V163.425H216.257V159.008H217.14V162.541Z" fill="#303534"/>
<path d="M85.974 116V101.3H92.022C93.324 101.3 94.437 101.51 95.361 101.93C96.299 102.35 97.02 102.952 97.524 103.736C98.028 104.52 98.28 105.451 98.28 106.529C98.28 107.607 98.028 108.538 97.524 109.322C97.02 110.106 96.299 110.708 95.361 111.128C94.437 111.548 93.324 111.758 92.022 111.758H87.486L88.704 110.477V116H85.974ZM88.704 110.771L87.486 109.448H91.896C93.1 109.448 94.003 109.196 94.605 108.692C95.221 108.174 95.529 107.453 95.529 106.529C95.529 105.591 95.221 104.87 94.605 104.366C94.003 103.862 93.1 103.61 91.896 103.61H87.486L88.704 102.266V110.771ZM101.006 116V101.3H107.054C108.356 101.3 109.469 101.51 110.393 101.93C111.331 102.35 112.052 102.952 112.556 103.736C113.06 104.52 113.312 105.451 113.312 106.529C113.312 107.607 113.06 108.538 112.556 109.322C112.052 110.092 111.331 110.687 110.393 111.107C109.469 111.513 108.356 111.716 107.054 111.716H102.518L103.736 110.477V116H101.006ZM110.624 116L106.907 110.666H109.826L113.564 116H110.624ZM103.736 110.771L102.518 109.469H106.928C108.132 109.469 109.035 109.21 109.637 108.692C110.253 108.174 110.561 107.453 110.561 106.529C110.561 105.591 110.253 104.87 109.637 104.366C109.035 103.862 108.132 103.61 106.928 103.61H102.518L103.736 102.266V110.771ZM123.255 116.21C122.107 116.21 121.05 116.021 120.084 115.643C119.118 115.265 118.278 114.74 117.564 114.068C116.85 113.382 116.297 112.584 115.905 111.674C115.513 110.75 115.317 109.742 115.317 108.65C115.317 107.558 115.513 106.557 115.905 105.647C116.297 104.723 116.85 103.925 117.564 103.253C118.278 102.567 119.118 102.035 120.084 101.657C121.05 101.279 122.1 101.09 123.234 101.09C124.382 101.09 125.432 101.279 126.384 101.657C127.35 102.035 128.19 102.567 128.904 103.253C129.618 103.925 130.171 104.723 130.563 105.647C130.955 106.557 131.151 107.558 131.151 108.65C131.151 109.742 130.955 110.75 130.563 111.674C130.171 112.598 129.618 113.396 128.904 114.068C128.19 114.74 127.35 115.265 126.384 115.643C125.432 116.021 124.389 116.21 123.255 116.21ZM123.234 113.816C123.976 113.816 124.662 113.69 125.292 113.438C125.922 113.186 126.468 112.829 126.93 112.367C127.392 111.891 127.749 111.345 128.001 110.729C128.267 110.099 128.4 109.406 128.4 108.65C128.4 107.894 128.267 107.208 128.001 106.592C127.749 105.962 127.392 105.416 126.93 104.954C126.468 104.478 125.922 104.114 125.292 103.862C124.662 103.61 123.976 103.484 123.234 103.484C122.492 103.484 121.806 103.61 121.176 103.862C120.56 104.114 120.014 104.478 119.538 104.954C119.076 105.416 118.712 105.962 118.446 106.592C118.194 107.208 118.068 107.894 118.068 108.65C118.068 109.392 118.194 110.078 118.446 110.708C118.712 111.338 119.076 111.891 119.538 112.367C120 112.829 120.546 113.186 121.176 113.438C121.806 113.69 122.492 113.816 123.234 113.816ZM140.911 116.21C139.763 116.21 138.706 116.028 137.74 115.664C136.788 115.286 135.955 114.761 135.241 114.089C134.527 113.403 133.974 112.598 133.582 111.674C133.19 110.75 132.994 109.742 132.994 108.65C132.994 107.558 133.19 106.55 133.582 105.626C133.974 104.702 134.527 103.904 135.241 103.232C135.969 102.546 136.816 102.021 137.782 101.657C138.748 101.279 139.805 101.09 140.953 101.09C142.199 101.09 143.319 101.293 144.313 101.699C145.321 102.105 146.168 102.7 146.854 103.484L145.132 105.164C144.558 104.59 143.935 104.17 143.263 103.904C142.605 103.624 141.877 103.484 141.079 103.484C140.309 103.484 139.595 103.61 138.937 103.862C138.279 104.114 137.712 104.471 137.236 104.933C136.76 105.395 136.389 105.941 136.123 106.571C135.871 107.201 135.745 107.894 135.745 108.65C135.745 109.392 135.871 110.078 136.123 110.708C136.389 111.338 136.76 111.891 137.236 112.367C137.712 112.829 138.272 113.186 138.916 113.438C139.56 113.69 140.274 113.816 141.058 113.816C141.786 113.816 142.486 113.704 143.158 113.48C143.844 113.242 144.495 112.85 145.111 112.304L146.665 114.341C145.895 114.957 144.999 115.426 143.977 115.748C142.969 116.056 141.947 116.21 140.911 116.21ZM144.082 113.984V108.482H146.665V114.341L144.082 113.984ZM150.266 116V101.3H156.314C157.616 101.3 158.729 101.51 159.653 101.93C160.591 102.35 161.312 102.952 161.816 103.736C162.32 104.52 162.572 105.451 162.572 106.529C162.572 107.607 162.32 108.538 161.816 109.322C161.312 110.092 160.591 110.687 159.653 111.107C158.729 111.513 157.616 111.716 156.314 111.716H151.778L152.996 110.477V116H150.266ZM159.884 116L156.167 110.666H159.086L162.824 116H159.884ZM152.996 110.771L151.778 109.469H156.188C157.392 109.469 158.295 109.21 158.897 108.692C159.513 108.174 159.821 107.453 159.821 106.529C159.821 105.591 159.513 104.87 158.897 104.366C158.295 103.862 157.392 103.61 156.188 103.61H151.778L152.996 102.266V110.771ZM163.547 116L170.162 101.3H172.85L179.486 116H176.63L170.939 102.749H172.031L166.361 116H163.547ZM166.592 112.598L167.327 110.456H175.265L176 112.598H166.592ZM181.356 116V101.3H183.603L190.029 112.031H188.853L195.174 101.3H197.421L197.442 116H194.859L194.838 105.353H195.384L190.008 114.32H188.79L183.33 105.353H183.96V116H181.356ZM201.412 116V101.3H203.659L210.085 112.031H208.909L215.23 101.3H217.477L217.498 116H214.915L214.894 105.353H215.44L210.064 114.32H208.846L203.386 105.353H204.016V116H201.412ZM223.989 107.411H231.297V109.658H223.989V107.411ZM224.199 113.711H232.494V116H221.469V101.3H232.2V103.589H224.199V113.711ZM235.537 116V101.3H241.585C242.887 101.3 244 101.51 244.924 101.93C245.862 102.35 246.583 102.952 247.087 103.736C247.591 104.52 247.843 105.451 247.843 106.529C247.843 107.607 247.591 108.538 247.087 109.322C246.583 110.092 245.862 110.687 244.924 111.107C244 111.513 242.887 111.716 241.585 111.716H237.049L238.267 110.477V116H235.537ZM245.155 116L241.438 110.666H244.357L248.095 116H245.155ZM238.267 110.771L237.049 109.469H241.459C242.663 109.469 243.566 109.21 244.168 108.692C244.784 108.174 245.092 107.453 245.092 106.529C245.092 105.591 244.784 104.87 244.168 104.366C243.566 103.862 242.663 103.61 241.459 103.61H237.049L238.267 102.266V110.771ZM255.455 116.21C254.307 116.21 253.208 116.049 252.158 115.727C251.108 115.391 250.275 114.964 249.659 114.446L250.604 112.325C251.192 112.787 251.92 113.172 252.788 113.48C253.656 113.788 254.545 113.942 255.455 113.942C256.225 113.942 256.848 113.858 257.324 113.69C257.8 113.522 258.15 113.298 258.374 113.018C258.598 112.724 258.71 112.395 258.71 112.031C258.71 111.583 258.549 111.226 258.227 110.96C257.905 110.68 257.485 110.463 256.967 110.309C256.463 110.141 255.896 109.987 255.266 109.847C254.65 109.707 254.027 109.546 253.397 109.364C252.781 109.168 252.214 108.923 251.696 108.629C251.192 108.321 250.779 107.915 250.457 107.411C250.135 106.907 249.974 106.263 249.974 105.479C249.974 104.681 250.184 103.953 250.604 103.295C251.038 102.623 251.689 102.091 252.557 101.699C253.439 101.293 254.552 101.09 255.896 101.09C256.778 101.09 257.653 101.202 258.521 101.426C259.389 101.65 260.145 101.972 260.789 102.392L259.928 104.513C259.27 104.121 258.591 103.834 257.891 103.652C257.191 103.456 256.519 103.358 255.875 103.358C255.119 103.358 254.503 103.449 254.027 103.631C253.565 103.813 253.222 104.051 252.998 104.345C252.788 104.639 252.683 104.975 252.683 105.353C252.683 105.801 252.837 106.165 253.145 106.445C253.467 106.711 253.88 106.921 254.384 107.075C254.902 107.229 255.476 107.383 256.106 107.537C256.736 107.677 257.359 107.838 257.975 108.02C258.605 108.202 259.172 108.44 259.676 108.734C260.194 109.028 260.607 109.427 260.915 109.931C261.237 110.435 261.398 111.072 261.398 111.842C261.398 112.626 261.181 113.354 260.747 114.026C260.327 114.684 259.676 115.216 258.794 115.622C257.912 116.014 256.799 116.21 255.455 116.21Z" fill="#64E88C"/>
<path d="M130.104 136.165C128.651 136.165 127.41 135.911 126.381 135.404C125.366 134.896 124.585 134.19 124.036 133.285C123.502 132.366 123.234 131.304 123.234 130.097C123.234 128.904 123.44 127.786 123.851 126.744C124.263 125.688 124.852 124.763 125.62 123.967C126.402 123.172 127.327 122.555 128.397 122.116C129.48 121.664 130.701 121.437 132.058 121.437C133.251 121.437 134.307 121.629 135.226 122.013C136.144 122.397 136.851 122.953 137.344 123.679L135.863 124.955C135.438 124.406 134.897 123.988 134.238 123.7C133.58 123.412 132.805 123.268 131.914 123.268C130.886 123.268 129.96 123.446 129.137 123.803C128.328 124.146 127.636 124.632 127.06 125.263C126.484 125.88 126.045 126.593 125.743 127.402C125.442 128.211 125.291 129.068 125.291 129.973C125.291 130.837 125.476 131.598 125.846 132.257C126.23 132.901 126.786 133.408 127.512 133.779C128.253 134.149 129.165 134.334 130.248 134.334C131.126 134.334 131.928 134.19 132.655 133.902C133.395 133.614 134.046 133.189 134.609 132.627L135.802 133.984C135.143 134.711 134.321 135.26 133.333 135.63C132.346 135.986 131.27 136.165 130.104 136.165ZM144.564 136.165C143.138 136.165 141.917 135.911 140.903 135.404C139.888 134.896 139.113 134.19 138.578 133.285C138.057 132.366 137.797 131.304 137.797 130.097C137.797 128.904 138.003 127.786 138.414 126.744C138.825 125.688 139.415 124.763 140.183 123.967C140.951 123.172 141.869 122.555 142.939 122.116C144.009 121.664 145.208 121.437 146.539 121.437C147.978 121.437 149.206 121.691 150.22 122.198C151.235 122.706 152.003 123.419 152.524 124.338C153.059 125.243 153.326 126.298 153.326 127.505C153.326 128.698 153.12 129.823 152.709 130.878C152.298 131.921 151.708 132.839 150.94 133.635C150.172 134.43 149.247 135.054 148.163 135.506C147.094 135.945 145.894 136.165 144.564 136.165ZM144.749 134.334C145.736 134.334 146.634 134.163 147.444 133.82C148.253 133.463 148.938 132.976 149.5 132.359C150.063 131.729 150.495 131.009 150.796 130.2C151.098 129.391 151.249 128.534 151.249 127.629C151.249 126.765 151.064 126.011 150.693 125.366C150.323 124.708 149.775 124.194 149.048 123.823C148.321 123.453 147.43 123.268 146.374 123.268C145.373 123.268 144.468 123.446 143.659 123.803C142.864 124.146 142.178 124.632 141.602 125.263C141.04 125.88 140.608 126.593 140.306 127.402C140.005 128.211 139.854 129.068 139.854 129.973C139.854 130.837 140.039 131.598 140.409 132.257C140.793 132.901 141.342 133.408 142.055 133.779C142.781 134.149 143.679 134.334 144.749 134.334ZM154.907 136L157.786 121.602H159.473L166.384 133.491L165.767 133.408L168.112 121.602H170.169L167.289 136H165.602L158.691 124.111L159.308 124.194L156.964 136H154.907ZM178.633 136.165C177.18 136.165 175.939 135.911 174.91 135.404C173.895 134.896 173.114 134.19 172.565 133.285C172.031 132.366 171.763 131.304 171.763 130.097C171.763 128.904 171.969 127.786 172.38 126.744C172.792 125.688 173.381 124.763 174.149 123.967C174.931 123.172 175.856 122.555 176.926 122.116C178.009 121.664 179.23 121.437 180.587 121.437C181.78 121.437 182.836 121.629 183.755 122.013C184.673 122.397 185.38 122.953 185.873 123.679L184.392 124.955C183.967 124.406 183.426 123.988 182.767 123.7C182.109 123.412 181.334 123.268 180.443 123.268C179.415 123.268 178.489 123.446 177.666 123.803C176.857 124.146 176.165 124.632 175.589 125.263C175.013 125.88 174.574 126.593 174.273 127.402C173.971 128.211 173.82 129.068 173.82 129.973C173.82 130.837 174.005 131.598 174.375 132.257C174.759 132.901 175.315 133.408 176.041 133.779C176.782 134.149 177.694 134.334 178.777 134.334C179.655 134.334 180.457 134.19 181.184 133.902C181.924 133.614 182.575 133.189 183.138 132.627L184.331 133.984C183.672 134.711 182.85 135.26 181.862 135.63C180.875 135.986 179.799 136.165 178.633 136.165ZM189.98 127.814H197.385L197.035 129.562H189.63L189.98 127.814ZM188.869 134.211H197.282L196.932 136H186.463L189.342 121.602H199.503L199.153 123.391H191.029L188.869 134.211ZM200.242 136L203.122 121.602H208.469C210.156 121.602 211.459 121.972 212.377 122.713C213.296 123.453 213.756 124.488 213.756 125.819C213.756 127.039 213.481 128.088 212.933 128.966C212.398 129.829 211.623 130.494 210.609 130.961C209.594 131.413 208.394 131.639 207.009 131.639H202.278L203.368 130.652L202.299 136H200.242ZM203.327 130.878L202.607 129.85H207.05C208.517 129.85 209.656 129.528 210.465 128.883C211.287 128.225 211.699 127.265 211.699 126.004C211.699 125.14 211.404 124.488 210.814 124.05C210.225 123.611 209.381 123.391 208.284 123.391H203.944L205.034 122.342L203.327 130.878ZM217.282 136L219.791 123.391H214.876L215.225 121.602H227.134L226.764 123.391H221.848L219.318 136H217.282Z" fill="#9092EC"/>
<defs>
<linearGradient id="paint0_linear_47_2" x1="87.0298" y1="250.878" x2="140.764" y2="214.036" gradientUnits="userSpaceOnUse">
<stop stop-color="white"/>
<stop offset="1" stop-color="#1EA19F" stop-opacity="0"/>
</linearGradient>
<linearGradient id="paint1_linear_47_2" x1="170.668" y1="277.456" x2="185.34" y2="209.741" gradientUnits="userSpaceOnUse">
<stop stop-color="#676475" stop-opacity="0"/>
<stop offset="1" stop-color="#524F63" stop-opacity="0.7"/>
</linearGradient>
<linearGradient id="paint2_linear_47_2" x1="256.732" y1="250.878" x2="202.998" y2="214.036" gradientUnits="userSpaceOnUse">
<stop stop-color="white"/>
<stop offset="1" stop-color="#1EA19F" stop-opacity="0"/>
</linearGradient>
</defs>
</svg>
