<svg width="452" height="494" viewBox="0 0 452 494" fill="none" xmlns="http://www.w3.org/2000/svg">
<path d="M0 30C0 13.4314 13.4315 0 30 0H246.376C254.872 0 262.93 3.55742 268.563 9.91789C306.694 52.9704 455.033 223.381 451.953 265.511C448.419 313.844 141.699 496.866 103.889 493.966C73.551 491.639 25.013 439.731 7.01371 419.306C2.39961 414.07 0 407.337 0 400.358V30Z" fill="#D9D9D9" fill-opacity="0.3"/>
<path d="M314 355.055V80.3723C314 70.1164 303.941 62.7869 294.106 65.6944C265.747 74.0776 212.94 88 175 88C137.06 88 84.2525 74.0776 55.8943 65.6944C46.0592 62.7869 36 70.1164 36 80.3723V355.055C36 364.73 45.0075 371.93 54.4786 369.956C82.4646 364.122 136.419 354.039 175 354.039C213.581 354.039 267.535 364.122 295.521 369.956C304.992 371.93 314 364.73 314 355.055Z" fill="#526954"/>
<g opacity="0.66">
<path d="M213.907 357V84" stroke="#9F9F9F" stroke-miterlimit="10"/>
<path d="M288.613 67.9994V368.001" stroke="#9F9F9F" stroke-miterlimit="10"/>
<path d="M60.4634 324.894V101.703H178.136V324.894H60.4634Z" fill="#096E69" stroke="#9F9F9F"/>
<path d="M179.13 106.263V101.703H289.536V106.263H179.13Z" fill="#096E69" stroke="#9F9F9F"/>
<path d="M179.13 160.924V156.364H289.536V160.924H179.13Z" fill="#096E69" stroke="#9F9F9F"/>
<path d="M179.13 215.579V211.019H289.536V215.579H179.13Z" fill="#096E69" stroke="#9F9F9F"/>
<path d="M179.13 270.239V265.679H289.536V270.239H179.13Z" fill="#096E69" stroke="#9F9F9F"/>
<path d="M179.13 324.894V320.334H289.536V324.894H179.13Z" fill="#096E69" stroke="#9F9F9F"/>
<path d="M59.9814 369V67" stroke="#9F9F9F" stroke-miterlimit="10"/>
<path d="M126.899 357L127 83" stroke="#9F9F9F" stroke-miterlimit="10"/>
</g>
<path d="M186.398 250.161H168.939V260.169H186.398V250.161Z" fill="#242021"/>
<path d="M151.954 246.97V249.133C151.954 251.068 153.522 252.636 155.457 252.636H201.065C203 252.636 204.568 251.068 204.568 249.133V246.97H151.948H151.954Z" fill="white"/>
<path d="M201.069 214.817H155.461C153.526 214.817 151.958 216.384 151.958 218.319V246.97H204.578V218.319C204.578 216.384 203.01 214.817 201.075 214.817H201.069Z" fill="#242021"/>
<path d="M201.894 218.014H154.628V245.48H201.894V218.014Z" fill="#959E9A"/>
<path d="M186.398 258.935H168.939V260.164H186.398V258.935Z" fill="#CFCCDF"/>
<path d="M194.21 221.161H160.905V242.077H194.21V221.161Z" fill="#FAFAFA"/>
<path d="M182.561 236.328C185.093 233.796 185.093 229.692 182.561 227.16C180.029 224.628 175.924 224.628 173.393 227.16C170.861 229.692 170.861 233.796 173.393 236.328C175.924 238.86 180.029 238.86 182.561 236.328Z" fill="#238C53"/>
<path d="M177.975 231.747L175.006 237.512C172.854 236.4 171.492 234.171 171.492 231.747C171.492 228.199 174.4 225.28 177.947 225.264L177.975 231.747Z" fill="#53C888"/>
<path d="M246.068 330.676C246.068 330.676 246.09 330.676 246.101 330.676C246.629 328.229 248.803 326.389 251.405 326.383L257.06 326.372L257.032 314.268H258.105L258.049 288.303H258.761V288.086H259.084H259.489H259.812V288.303H261.485L261.541 314.263H262.403L262.431 326.367L268.736 326.356C271.343 326.35 273.534 328.19 274.062 330.642C275.285 330.765 276.247 331.782 276.247 333.033C276.247 334.373 275.169 335.457 273.829 335.463C272.489 335.463 271.405 334.384 271.399 333.044C271.399 331.877 272.216 330.904 273.312 330.67C272.806 328.607 270.943 327.073 268.73 327.078L260.212 327.095V330.676C261.385 330.848 262.281 331.843 262.281 333.055C262.281 334.395 261.202 335.48 259.862 335.485C258.522 335.485 257.438 334.407 257.432 333.067C257.432 331.854 258.322 330.854 259.484 330.676V327.095H258.833L251.394 327.112C249.153 327.112 247.274 328.696 246.807 330.798C247.775 331.115 248.481 332.01 248.481 333.083C248.481 334.423 247.402 335.507 246.062 335.513C244.722 335.513 243.638 334.434 243.632 333.094C243.632 331.754 244.711 330.67 246.051 330.665L246.068 330.676Z" fill="#242021"/>
<path d="M272.411 282.265L253.44 282.309C248.03 282.321 244.477 277.945 245.512 272.535L252.784 234.46C253.301 231.758 255.914 229.556 258.616 229.551L284.493 229.489C287.2 229.484 288.974 231.669 288.457 234.377L280.634 275.343C279.906 279.157 276.225 282.254 272.411 282.259V282.265Z" fill="#B2826F"/>
<path d="M229.032 281.281C229.043 286.735 233.474 291.144 238.923 291.133L268.458 291.066C273.912 291.055 278.321 286.624 278.31 281.175L229.032 281.286V281.281Z" fill="#B2826F"/>
<path d="M231.473 287.747C233.285 289.826 235.954 291.144 238.929 291.133L268.463 291.066C271.438 291.061 274.096 289.732 275.903 287.647L231.478 287.747H231.473Z" fill="#242021"/>
<path d="M257.054 323.259V326.384L251.411 326.395C248.809 326.4 246.635 328.241 246.107 330.687C246.096 330.687 246.084 330.687 246.073 330.687C244.733 330.687 243.655 331.777 243.655 333.117C243.655 334.457 244.745 335.535 246.085 335.535C247.424 335.535 248.503 334.446 248.503 333.106C248.503 332.032 247.797 331.132 246.83 330.82C247.297 328.719 249.176 327.14 251.417 327.134L258.856 327.117H259.501L259.506 330.698C258.344 330.876 257.449 331.877 257.455 333.089C257.455 334.429 258.544 335.507 259.884 335.507C261.224 335.507 262.303 334.418 262.303 333.078C262.303 331.866 261.402 330.87 260.24 330.698V327.117L268.753 327.101C270.965 327.101 272.828 328.63 273.334 330.693C272.239 330.926 271.416 331.899 271.421 333.067C271.421 334.407 272.511 335.485 273.851 335.485C275.191 335.485 276.27 334.395 276.27 333.056C276.27 331.799 275.308 330.781 274.085 330.665C273.551 328.213 271.366 326.372 268.758 326.378L262.453 326.389V323.264L257.071 323.275L257.054 323.259Z" fill="#242021"/>
<path d="M275.897 287.647C277.398 285.912 278.315 283.649 278.31 281.175L252.478 281.286C252.478 283.766 253.407 286.018 254.919 287.747C255.141 287.997 255.369 288.236 255.614 288.464C255.636 288.481 255.653 288.498 255.675 288.52C255.897 288.726 256.131 288.92 256.376 289.109C256.414 289.143 256.459 289.17 256.498 289.198C256.72 289.365 256.954 289.521 257.193 289.665C257.254 289.704 257.315 289.737 257.376 289.776C257.599 289.91 257.827 290.027 258.066 290.143C258.144 290.182 258.221 290.221 258.305 290.26C258.527 290.36 258.755 290.449 258.989 290.533C259.083 290.566 259.178 290.605 259.278 290.638C259.5 290.71 259.734 290.772 259.962 290.833C260.067 290.861 260.173 290.888 260.284 290.916C260.523 290.966 260.768 291.005 261.013 291.038C261.113 291.055 261.213 291.072 261.318 291.083C261.669 291.122 262.019 291.139 262.38 291.139L268.469 291.072C268.824 291.072 269.18 291.05 269.531 291.011C269.636 291 269.731 290.977 269.836 290.961C270.081 290.927 270.326 290.888 270.565 290.838C270.67 290.816 270.776 290.783 270.882 290.755C271.11 290.694 271.343 290.633 271.566 290.56C271.666 290.527 271.76 290.488 271.855 290.455C272.083 290.371 272.311 290.282 272.533 290.182C272.616 290.143 272.694 290.104 272.772 290.065C273.006 289.949 273.233 289.826 273.456 289.699C273.517 289.66 273.578 289.626 273.639 289.587C273.878 289.437 274.112 289.282 274.334 289.115C274.373 289.087 274.418 289.054 274.457 289.026C274.701 288.837 274.935 288.642 275.157 288.436C275.174 288.42 275.196 288.403 275.213 288.381C275.458 288.153 275.691 287.908 275.908 287.658L275.897 287.647Z" fill="#242021"/>
<path d="M288.518 233.159C288.507 232.981 288.49 232.803 288.457 232.631C288.435 232.503 288.402 232.381 288.363 232.258C288.324 232.13 288.279 232.003 288.229 231.88C288.174 231.741 288.112 231.608 288.04 231.48C287.996 231.402 287.946 231.335 287.901 231.263C287.417 230.518 286.683 229.956 285.766 229.69C283.498 230.196 281.502 232.136 281.057 234.46L271.927 282.265H272.422C276.231 282.243 279.9 279.151 280.629 275.348L288.452 234.382C288.513 234.071 288.535 233.771 288.535 233.47C288.535 233.365 288.524 233.265 288.513 233.159H288.518Z" fill="#242021"/>
<path d="M211.446 233.982C209.589 232.508 207.693 231.063 205.613 229.923C203.534 228.783 201.243 227.96 198.88 227.816C198.652 227.805 198.519 228.216 198.613 228.427C198.708 228.633 198.913 228.767 199.108 228.883L201.004 230.023C201.643 230.407 201.971 231.113 202.049 231.852C202.133 232.653 201.838 233.481 202.06 234.254C202.316 235.144 203.206 235.728 204.107 235.939C205.007 236.156 205.947 236.078 206.875 236.111C207.904 236.145 208.933 236.311 209.922 236.601C211.351 237.018 212.791 237.707 214.254 237.429C214.415 236.623 214.003 235.783 213.403 235.222C212.802 234.66 212.096 234.493 211.451 233.982H211.446Z" fill="#EDB091"/>
<path d="M255.503 319.995L257.571 323.209C257.571 323.209 251.244 330.164 249.415 331.499C247.585 332.833 246.896 332.055 247.079 329.831C247.263 327.607 251.844 322.013 251.844 322.013L253.59 320.718L255.508 319.995H255.503Z" fill="#3F3938"/>
<path d="M252.049 322.687L255.253 320.723L250.022 312.19L246.818 314.155L252.049 322.687Z" fill="#EDB091"/>
<path d="M245.734 322.18L242.042 317.243C241.976 317.154 235.52 308.525 229.455 299.746C225.841 294.519 223.055 290.243 221.165 287.024C218.752 282.915 215.104 276.705 219.975 272.646C221.487 271.384 224.017 269.277 254.163 267.737L260.318 267.42L260.946 279.735L254.791 280.052C247.057 280.447 238.167 281.131 232.407 281.826C236.499 288.525 244.606 300.079 251.917 309.848L255.614 314.785L245.74 322.175L245.734 322.18Z" fill="#525654"/>
<path d="M223.8 328.719L223.472 332.527C223.472 332.527 214.214 334.167 211.946 334.112C209.677 334.051 209.61 333.017 211.117 331.365C212.624 329.714 219.663 328.085 219.663 328.085L221.837 328.124L223.794 328.724L223.8 328.719Z" fill="#3F3938"/>
<path d="M243.565 256.694C243.565 258.718 245.278 260.353 247.391 260.353C249.504 260.353 251.216 258.713 251.216 256.694C251.216 254.676 249.504 253.036 247.391 253.036C245.278 253.036 243.565 254.676 243.565 256.694Z" fill="#A0616B"/>
<path d="M251.611 231.029C249.031 231.346 235.12 237.184 232.651 236.956C230.183 236.734 210.439 232.692 210.439 232.692L209.989 236.956C209.989 236.956 224.795 245.035 230.855 245.708C236.916 246.381 250.821 244.362 250.821 244.362L258.672 236.061L251.605 231.029H251.611Z" fill="#3F3938"/>
<path d="M219.399 328.753L223.136 329.155L224.204 319.204L220.467 318.803L219.399 328.753Z" fill="#EDB091"/>
<path d="M242.848 281.053L255.241 281.486C260.507 281.486 264.777 277.216 264.777 271.951V261.743L242.848 261.309V281.053Z" fill="#959E9A"/>
<path d="M231.178 325.972L218.868 325.438V319.161C221.109 282.543 225.34 278.312 226.73 276.922C231.623 272.029 245.006 269.666 250.527 268.871C253.896 268.387 257.021 270.728 257.499 274.103L258.233 279.985C258.255 280.146 258.138 280.297 257.977 280.319L252.273 281.081C245.556 282.042 238.117 284.016 235.821 285.39C235.754 285.428 235.704 285.49 235.676 285.562C233.98 289.71 232.012 306.24 231.172 319.912V325.972H231.178Z" fill="#959E9A"/>
<path d="M245.667 240.153C247.552 236.762 246.112 232.798 251.617 231.035C252.306 230.813 255.214 229.967 255.214 229.967C255.214 229.967 258.15 227.571 260.09 227.288C261.424 227.093 263.443 226.609 263.443 226.609C263.443 226.609 264.021 228.45 264.56 228.7C265.183 228.989 267.457 229.473 267.98 229.879C270.76 232.03 271.41 234.771 271.716 237.529C272.222 242.06 266.362 266.958 266.362 266.958L265.467 268.871H240.402L240.08 266.958C240.08 266.958 243.154 244.679 245.667 240.153Z" fill="#4D4543"/>
<path d="M261.83 232.314H257.126C256.27 232.314 255.58 231.619 255.58 230.768V217.713H263.375V230.768C263.375 231.624 262.68 232.314 261.83 232.314Z" fill="#EDB091"/>
<path d="M263.381 220.688C262.346 223.362 260.095 227.488 255.585 228.505V217.713H262.63L263.381 218.041V220.688Z" fill="#EDB091"/>
<path d="M253.801 206.182H255.597C259.161 206.182 262.052 209.073 262.052 212.637V218.747C262.052 222.356 259.128 225.275 255.525 225.275H252.339C249.581 225.275 247.346 223.04 247.346 220.282V212.637C247.346 209.073 250.237 206.182 253.801 206.182Z" fill="#EDB091"/>
<path d="M259.384 217.335C259.384 219.253 260.941 220.81 262.859 220.81C264.777 220.81 266.334 219.253 266.334 217.335C266.334 215.417 264.777 213.86 262.859 213.86C260.941 213.86 259.384 215.417 259.384 217.335Z" fill="#EDB091"/>
<path d="M246.701 204.369C246.74 205.237 246.779 206.121 247.085 206.938C247.385 207.755 247.997 208.5 248.831 208.751C249.42 208.923 250.048 208.834 250.654 208.739C251.583 208.595 252.511 208.456 253.44 208.311C253.874 208.245 254.318 208.178 254.741 208.289C255.564 208.506 256.059 209.312 256.648 209.924C257.588 210.902 258.933 211.469 260.29 211.464C260.94 212.798 261.424 214.416 261.213 215.884H262.002C262.091 214.911 263.198 213.977 264.171 213.971C264.788 213.01 265.361 211.909 265.978 210.947C266.267 210.496 266.562 210.029 266.706 209.512C266.845 209.001 266.828 208.456 266.767 207.928C266.628 206.66 266.245 205.398 265.494 204.364C264.743 203.33 263.598 202.551 262.33 202.418C261.313 202.307 260.935 201.189 260.051 200.661C258.427 199.693 256.248 199.754 254.68 200.811C254.157 200.377 253.562 199.999 252.951 199.693C251.327 198.876 249.214 199.154 247.858 200.366C247.641 200.561 247.441 200.778 247.285 201.022C246.751 201.856 246.635 203.38 246.679 204.364L246.701 204.369Z" fill="#D7914E"/>
<path d="M251.639 219.932L255.397 218.975C255.397 218.975 254.797 221.022 253.596 221.227C252.395 221.433 251.633 219.932 251.633 219.932H251.639Z" fill="white"/>
<path d="M252.806 214.405C252.806 214.794 253.118 215.106 253.507 215.106C253.896 215.106 254.207 214.794 254.207 214.405C254.207 214.016 253.896 213.704 253.507 213.704C253.118 213.704 252.806 214.016 252.806 214.405Z" fill="#242021"/>
<path d="M247.902 214.405C247.902 214.794 248.214 215.106 248.603 215.106C248.992 215.106 249.303 214.794 249.303 214.405C249.303 214.016 248.992 213.704 248.603 213.704C248.214 213.704 247.902 214.016 247.902 214.405Z" fill="#242021"/>
<path d="M256.876 228.361L263.926 228.672L263.643 232.053L254.041 236.934L254.174 231.952L256.876 228.361Z" fill="#959E9A"/>
<path d="M226.463 258.763H200.381V256.85H226.463C226.991 256.85 227.42 257.278 227.42 257.806C227.42 258.335 226.991 258.763 226.463 258.763Z" fill="#242021"/>
<path d="M219.307 258.763L214.048 238.958C213.764 237.885 212.791 237.134 211.679 237.134H207.904H189.717C188.511 237.134 187.549 237.991 187.315 239.08C187.237 239.442 187.243 239.831 187.343 240.22L191.78 256.945C191.78 256.945 191.796 256.984 191.802 257.006C191.835 257.111 191.869 257.217 191.913 257.317C191.958 257.417 192.013 257.512 192.069 257.606C192.08 257.623 192.086 257.64 192.097 257.656C192.236 257.868 192.408 258.057 192.603 258.218C193.031 258.563 193.565 258.768 194.148 258.768H219.302L219.307 258.763Z" fill="#242021"/>
<path d="M204.496 249.428C204.774 250.517 204.084 251.401 202.961 251.401C201.838 251.401 200.704 250.517 200.431 249.428C200.153 248.338 200.843 247.454 201.966 247.454C203.089 247.454 204.223 248.338 204.496 249.428Z" fill="white"/>
<path d="M263.448 226.52C263.448 226.52 259.595 229.056 255.603 227.671L255.403 229.651L254.141 232.058L256.67 228.861L258.483 232.642L264.327 228.55L263.448 226.52Z" fill="white"/>
<path d="M231.239 256.617C232.507 256.872 233.897 256.961 235.02 256.316C236.137 255.671 234.897 253.814 234.102 252.797C232.54 253.03 231.156 251.863 229.693 251.262C228.804 250.901 227.847 250.74 226.897 250.629C225.673 250.484 224.428 250.406 223.221 250.64C222.015 250.873 220.836 251.446 220.069 252.408C219.891 252.636 219.958 252.919 220.236 253.003C220.514 253.086 220.803 252.958 221.07 252.847C221.904 252.502 222.804 252.319 223.711 252.308C223.872 252.308 223.916 252.591 223.755 252.619C221.392 253.014 220.525 254.192 220.525 254.32C220.525 254.459 220.675 254.554 220.808 254.593C221.053 254.66 221.559 254.404 221.804 254.326C222.827 254.003 223.638 254.115 223.638 254.115C223.638 254.115 224.511 254.42 222.026 254.893C221.72 254.954 221.392 255.054 221.22 255.316C221.192 255.36 221.164 255.41 221.159 255.466C221.153 255.532 221.175 255.594 221.209 255.655C221.309 255.827 221.503 255.933 221.704 255.966C221.898 256.005 222.104 255.988 222.304 255.966C223.283 255.877 224.267 255.788 225.245 255.699C224.967 255.783 223.138 256.122 222.905 256.294C222.816 256.361 222.721 256.444 222.71 256.555C222.699 256.722 222.877 256.828 223.027 256.889C224.061 257.295 226.752 257.111 227.859 257.006C228.965 256.9 230.149 256.389 231.239 256.606V256.617Z" fill="#EDB091"/>
<path d="M255.658 232.286C255.658 232.286 254.602 234.788 254.041 236.934L256.07 235.906L256.176 232.597L258.438 230.852L257.482 228.394L256.887 228.366C256.854 228.672 254.936 231.002 254.936 231.002L255.664 232.286H255.658Z" fill="#242021"/>
<path d="M266.4 229.306C264.682 232.675 263.559 236.223 263.081 239.976C262.709 242.878 262.803 247.098 261.402 249.728C260.562 251.307 256.52 250.578 254.741 250.779C247.93 251.546 241.542 250.879 234.686 251.096C233.986 251.118 233.196 251.179 232.751 251.718C232.518 252.002 232.423 252.374 232.357 252.741C232.079 254.17 232.04 255.649 232.245 257.095C233.469 257.845 235.081 257.59 236.51 257.74C245.278 258.668 253.034 259.847 261.157 259.524C263.815 259.419 266.662 259.246 268.758 257.617C271.015 255.866 271.571 250.095 271.96 247.27C272.289 244.935 272.405 242.566 272.322 240.209C272.238 237.957 271.955 235.678 271.043 233.62C270.126 231.563 268.908 229.779 266.4 229.317V229.306Z" fill="#3F3938"/>
<path d="M94.8516 176.553C103.212 175.855 109.423 168.513 108.726 160.153C108.028 151.793 100.685 145.581 92.3253 146.278C83.9652 146.976 77.7535 154.319 78.4511 162.679C79.1487 171.039 86.4915 177.251 94.8516 176.553Z" fill="#242021"/>
<path d="M93.5848 174.406C100.758 174.406 106.573 168.591 106.573 161.418C106.573 154.245 100.758 148.43 93.5848 148.43C86.4117 148.43 80.5967 154.245 80.5967 161.418C80.5967 168.591 86.4117 174.406 93.5848 174.406Z" fill="#FAFAFA"/>
<path d="M94.3357 150.198V148.452C94.0855 148.436 93.8408 148.43 93.5851 148.43C93.3293 148.43 93.0847 148.441 92.8345 148.452V150.198H94.3301H94.3357Z" fill="#242021"/>
<path d="M92.8345 172.644V174.39C93.0847 174.406 93.3293 174.412 93.5851 174.412C93.8408 174.412 94.0855 174.401 94.3357 174.39V172.644H92.84H92.8345Z" fill="#242021"/>
<path d="M84.2497 155.186L82.7652 154.229C82.6929 154.34 82.6206 154.452 82.5483 154.568L84.0329 155.525L84.2497 155.186Z" fill="#242021"/>
<path d="M102.92 167.657L104.405 168.613C104.477 168.502 104.549 168.391 104.622 168.274L103.137 167.318L102.92 167.657Z" fill="#242021"/>
<path d="M87.3469 170.754L86.3906 172.238C86.5018 172.31 86.613 172.383 86.7298 172.455L87.6861 170.97L87.3469 170.754Z" fill="#242021"/>
<path d="M99.8235 152.089L100.78 150.604C100.669 150.532 100.557 150.46 100.441 150.387L99.4844 151.872L99.8235 152.089Z" fill="#242021"/>
<path d="M88.4141 151.455L87.5746 149.904C87.4578 149.965 87.3355 150.031 87.2188 150.093L88.0583 151.644L88.4141 151.455Z" fill="#242021"/>
<path d="M98.756 171.382L99.5956 172.933C99.7124 172.872 99.8347 172.805 99.9459 172.744L99.1063 171.193L98.7505 171.382H98.756Z" fill="#242021"/>
<path d="M83.6216 166.589L82.0703 167.429C82.1315 167.545 82.1982 167.668 82.2594 167.785L83.8106 166.945L83.6216 166.589Z" fill="#242021"/>
<path d="M103.548 156.248L105.1 155.408C105.038 155.291 104.972 155.169 104.911 155.058L103.359 155.897L103.548 156.253V156.248Z" fill="#242021"/>
<path d="M82.3594 160.673H80.6135C80.5969 160.924 80.5913 161.168 80.5913 161.424C80.5913 161.68 80.6024 161.924 80.6135 162.175H82.3594V160.679V160.673Z" fill="#242021"/>
<path d="M104.811 162.169H106.556C106.573 161.919 106.579 161.674 106.579 161.418C106.579 161.163 106.568 160.918 106.556 160.668H104.811V162.163V162.169Z" fill="#242021"/>
<path d="M93.5907 161.735L93.0903 161.235L100.129 154.557L93.5907 161.735Z" fill="#242021"/>
<path d="M92.9845 161.624L89.3594 157.56L93.4793 161.129L92.9845 161.624Z" fill="#242021"/>
<path d="M92.6508 160.451C91.9113 160.951 91.9113 162.024 92.6508 162.525C93.0622 162.803 93.6238 162.803 94.0352 162.525C94.7747 162.024 94.7747 160.951 94.0352 160.451C93.6238 160.173 93.0622 160.173 92.6508 160.451Z" fill="#242021"/>
<path d="M93.0287 161.174C92.8563 161.346 92.8563 161.624 93.0287 161.796C93.201 161.969 93.479 161.969 93.6514 161.796C93.8238 161.624 93.8238 161.346 93.6514 161.174C93.479 161.001 93.201 161.001 93.0287 161.174Z" fill="#FAFAFA"/>
<path d="M103.237 330.676C103.237 330.676 103.215 330.676 103.203 330.676C102.675 328.229 100.501 326.389 97.8992 326.383L92.2447 326.372L92.2725 314.268H91.1994L91.255 288.303H90.5433V288.086H90.2208H89.815H89.4925V288.303H87.8189L87.7633 314.263H86.9015L86.8737 326.367L80.5687 326.356C77.9611 326.35 75.7704 328.19 75.2422 330.642C74.019 330.765 73.0571 331.782 73.0571 333.033C73.0571 334.373 74.1358 335.457 75.4757 335.463C76.8157 335.463 77.8999 334.384 77.9054 333.044C77.9054 331.877 77.0881 330.904 75.9928 330.67C76.4988 328.607 78.3614 327.073 80.5742 327.078L89.0922 327.095V330.676C87.919 330.848 87.0238 331.843 87.0238 333.055C87.0238 334.395 88.1025 335.48 89.4424 335.485C90.7824 335.485 91.8666 334.407 91.8722 333.067C91.8722 331.854 90.9826 330.854 89.8205 330.676V327.095H90.471L97.9103 327.112C100.151 327.112 102.03 328.696 102.497 330.798C101.53 331.115 100.824 332.01 100.824 333.083C100.824 334.423 101.902 335.507 103.242 335.513C104.582 335.513 105.667 334.434 105.672 333.094C105.672 331.754 104.593 330.67 103.253 330.665L103.237 330.676Z" fill="#242021"/>
<path d="M76.8989 282.265L95.8697 282.309C101.28 282.321 104.832 277.945 103.798 272.535L96.5257 234.46C96.0087 231.758 93.3955 229.556 90.6933 229.551L64.8171 229.489C62.1093 229.484 60.3357 231.669 60.8528 234.377L68.6757 275.343C69.4041 279.157 73.0848 282.254 76.8989 282.259V282.265Z" fill="#B2826F"/>
<path d="M120.272 281.281C120.261 286.735 115.83 291.144 110.381 291.133L80.8465 291.066C75.3921 291.055 70.983 286.624 70.9942 281.175L120.272 281.286V281.281Z" fill="#B2826F"/>
<path d="M117.837 287.747C116.025 289.826 113.356 291.144 110.381 291.133L80.8465 291.066C77.8719 291.061 75.2142 289.732 73.4072 287.647L117.832 287.747H117.837Z" fill="#242021"/>
<path d="M92.2559 323.259V326.384L97.8993 326.395C100.501 326.4 102.675 328.241 103.204 330.687C103.215 330.687 103.226 330.687 103.237 330.687C104.577 330.687 105.655 331.777 105.655 333.117C105.655 334.457 104.566 335.535 103.226 335.535C101.886 335.535 100.807 334.446 100.807 333.106C100.807 332.032 101.513 331.132 102.481 330.82C102.014 328.719 100.134 327.14 97.8937 327.134L90.4544 327.117H89.8095L89.8039 330.698C90.966 330.876 91.8611 331.877 91.8556 333.089C91.8556 334.429 90.7658 335.507 89.4258 335.507C88.0859 335.507 87.0072 334.418 87.0072 333.078C87.0072 331.866 87.908 330.87 89.07 330.698V327.117L80.5576 327.101C78.3448 327.101 76.4822 328.63 75.9762 330.693C77.0715 330.926 77.8944 331.899 77.8888 333.067C77.8888 334.407 76.7991 335.485 75.4591 335.485C74.1192 335.485 73.0405 334.395 73.0405 333.056C73.0405 331.799 74.0024 330.781 75.2256 330.665C75.7594 328.213 77.9444 326.372 80.5521 326.378L86.8571 326.389V323.264L92.2392 323.275L92.2559 323.259Z" fill="#242021"/>
<path d="M73.4072 287.647C71.906 285.912 70.9886 283.649 70.9942 281.175L96.8259 281.286C96.8259 283.766 95.8974 286.018 94.3851 287.747C94.1627 287.997 93.9347 288.236 93.6901 288.464C93.6679 288.481 93.6512 288.498 93.6289 288.52C93.4065 288.726 93.173 288.92 92.9284 289.109C92.8894 289.143 92.845 289.17 92.806 289.198C92.5836 289.365 92.3501 289.521 92.111 289.665C92.0499 289.704 91.9887 289.737 91.9276 289.776C91.7052 289.91 91.4772 290.027 91.2381 290.143C91.1603 290.182 91.0824 290.221 90.999 290.26C90.7766 290.36 90.5487 290.449 90.3152 290.533C90.2206 290.566 90.1261 290.605 90.026 290.638C89.8036 290.71 89.5701 290.772 89.3422 290.833C89.2365 290.861 89.1309 290.888 89.0197 290.916C88.7806 290.966 88.536 291.005 88.2913 291.038C88.1912 291.055 88.0912 291.072 87.9855 291.083C87.6352 291.122 87.285 291.139 86.9236 291.139L80.8354 291.072C80.4795 291.072 80.1237 291.05 79.7734 291.011C79.6678 291 79.5732 290.977 79.4676 290.961C79.223 290.927 78.9783 290.888 78.7392 290.838C78.6336 290.816 78.528 290.783 78.4223 290.755C78.1944 290.694 77.9608 290.633 77.7384 290.56C77.6384 290.527 77.5438 290.488 77.4493 290.455C77.2214 290.371 76.9934 290.282 76.771 290.182C76.6876 290.143 76.6098 290.104 76.5319 290.065C76.2984 289.949 76.0704 289.826 75.848 289.699C75.7869 289.66 75.7257 289.626 75.6646 289.587C75.4255 289.437 75.192 289.282 74.9696 289.115C74.9306 289.087 74.8862 289.054 74.8472 289.026C74.6026 288.837 74.3691 288.642 74.1467 288.436C74.13 288.42 74.1078 288.403 74.0911 288.381C73.8464 288.153 73.6129 287.908 73.3961 287.658L73.4072 287.647Z" fill="#242021"/>
<path d="M60.7862 233.159C60.7973 232.981 60.814 232.803 60.8474 232.631C60.8752 232.503 60.903 232.381 60.9419 232.258C60.9808 232.13 61.0253 232.003 61.0753 231.88C61.1309 231.741 61.1921 231.608 61.2644 231.48C61.3089 231.402 61.3589 231.335 61.4034 231.263C61.8871 230.518 62.621 229.956 63.5384 229.69C65.8069 230.196 67.8029 232.136 68.2477 234.46L77.3773 282.265H76.8824C73.0738 282.243 69.4042 279.151 68.6759 275.348L60.8529 234.382C60.7918 234.071 60.7695 233.771 60.7695 233.47C60.7695 233.365 60.7807 233.265 60.7918 233.159H60.7862Z" fill="#242021"/>
<path d="M128.034 329.681L128.362 333.489C128.362 333.489 137.62 335.129 139.888 335.074C142.157 335.013 142.223 333.978 140.717 332.327C139.21 330.676 132.171 329.047 132.171 329.047L129.997 329.086L128.04 329.686L128.034 329.681Z" fill="white"/>
<path d="M156.368 233.431C158.225 231.958 160.121 230.512 162.2 229.373C164.28 228.233 166.57 227.41 168.933 227.265C169.161 227.254 169.295 227.666 169.2 227.877C169.106 228.083 168.9 228.216 168.706 228.333C168.072 228.711 167.438 229.095 166.81 229.473C166.17 229.856 165.842 230.562 165.764 231.302C165.681 232.103 165.97 232.931 165.753 233.704C165.497 234.593 164.613 235.177 163.707 235.389C162.806 235.605 161.867 235.528 160.938 235.561C159.91 235.594 158.881 235.761 157.891 236.05C156.462 236.467 155.022 237.157 153.56 236.879C153.399 236.072 153.81 235.233 154.411 234.671C155.011 234.11 155.717 233.943 156.362 233.431H156.368Z" fill="#9B5E49"/>
<path d="M132.432 329.708L128.696 330.109L126.706 316.948L130.442 316.548L132.432 329.708Z" fill="#9B5E49"/>
<path d="M114.446 214.527C114.446 218.408 111.299 221.555 107.418 221.555C103.537 221.555 100.39 218.408 100.39 214.527C100.39 210.647 103.537 207.5 107.418 207.5C111.299 207.5 114.446 210.647 114.446 214.527Z" fill="#242021"/>
<path d="M151.097 327.601L152.954 330.943C152.954 330.943 162.073 328.658 164.119 327.673C166.165 326.695 165.798 325.716 163.752 324.827C161.706 323.937 154.611 325.327 154.611 325.327L152.643 326.25L151.097 327.596V327.601Z" fill="white"/>
<path d="M155.123 325.827L151.876 327.723L145.07 315.753L148.317 313.857L155.123 325.827Z" fill="#9B5E49"/>
<path d="M116.886 233.715C116.886 233.715 125.782 240.999 133.06 239.281C138.504 237.996 135.862 239.025 158.064 231.235L160.632 236.556L136.335 249.744C136.335 249.744 117.12 247.27 116.586 246.347C116.052 245.424 113.912 238.102 113.912 238.102L116.892 233.721L116.886 233.715Z" fill="#1C7745"/>
<path d="M145.42 322.191L142.546 316.737C135.334 303.043 126.944 287.769 124.125 283.516C120.017 282.615 107.473 281.553 97.0426 281.02L90.8877 280.703L91.516 268.387L97.6709 268.704C127.812 270.239 130.347 272.351 131.859 273.614C132.877 274.464 135.262 276.455 153.454 310.988L156.329 316.442L145.42 322.191Z" fill="#3F3938"/>
<path d="M121.14 319.873L120.662 313.723C119.828 303.026 117.893 289.916 116.253 286.568C113.561 285.045 103.209 282.649 93.3731 281.303L87.2627 280.469L88.9307 268.254L95.0411 269.088C106.272 270.622 120.606 273.391 125.098 277.884C128.801 281.587 131.442 293.324 132.955 312.773L133.433 318.922L121.14 319.878V319.873Z" fill="#4D4543"/>
<path d="M114.701 222.095C117.569 222.095 119.894 219.77 119.894 216.902C119.894 214.033 117.569 211.708 114.701 211.708C111.833 211.708 109.508 214.033 109.508 216.902C109.508 219.77 111.833 222.095 114.701 222.095Z" fill="#53C888"/>
<path d="M114.612 281.77C113.639 276.838 107.823 268.826 109.831 265.123C112.889 259.491 120.928 259.78 122.163 250.117C122.541 247.17 121.768 244.991 121.735 241.972C121.718 240.404 119.855 236.473 119.082 235.111C114.429 226.943 107.145 228.466 103.464 233.053C100.379 236.895 98.8996 250.017 95.7805 253.826C93.7233 256.339 93.1895 256.505 90.8543 258.757C87.1347 262.349 85.1664 269.516 84.2935 275.943C83.8765 279.023 86.2618 281.764 89.3698 281.764H114.618L114.612 281.77Z" fill="#53C888"/>
<path d="M114.791 221.118L121.861 224.4L116.364 236.241C116.004 237.018 115.083 237.351 114.312 236.992L110.045 235.012C109.269 234.652 108.936 233.731 109.294 232.959L114.791 221.118Z" fill="#9B5E49"/>
<path opacity="0.5" d="M113.556 223.818C113.367 226.682 113.673 231.369 117.337 234.188L121.879 224.396L115.485 221.427L114.668 221.411L113.556 223.813V223.818Z" fill="#9B5E49"/>
<path d="M122.007 211.797H120.212C116.648 211.797 113.756 214.689 113.756 218.253V224.363C113.756 227.972 116.681 230.891 120.284 230.891H123.47C126.227 230.891 128.463 228.655 128.463 225.898V218.253C128.463 214.689 125.571 211.797 122.007 211.797Z" fill="#9B5E49"/>
<path d="M116.425 222.951C116.425 224.869 114.868 226.426 112.95 226.426C111.032 226.426 109.475 224.869 109.475 222.951C109.475 221.033 111.032 219.476 112.95 219.476C114.868 219.476 116.425 221.033 116.425 222.951Z" fill="#9B5E49"/>
<path d="M143.752 244.518C142.857 245.28 141.79 245.964 140.616 245.947C139.443 245.93 139.616 243.906 139.793 242.744C141.139 242.244 141.723 240.704 142.624 239.581C143.168 238.902 143.863 238.352 144.57 237.846C145.476 237.196 146.438 236.584 147.5 236.239C148.562 235.895 149.751 235.833 150.786 236.256C151.03 236.356 151.097 236.612 150.913 236.801C150.73 236.99 150.446 237.012 150.185 237.045C149.368 237.14 148.573 237.39 147.85 237.779C147.716 237.852 147.811 238.096 147.95 238.046C150.002 237.318 151.214 237.874 151.269 237.979C151.33 238.091 151.253 238.23 151.164 238.319C150.997 238.48 150.485 238.502 150.257 238.547C149.301 238.741 148.706 239.186 148.706 239.186C148.706 239.186 148.145 239.809 150.335 239.097C150.602 239.008 150.913 238.947 151.164 239.08C151.208 239.103 151.247 239.136 151.275 239.175C151.308 239.225 151.319 239.286 151.319 239.347C151.319 239.531 151.208 239.698 151.064 239.814C150.919 239.931 150.752 240.009 150.585 240.081C149.768 240.443 148.951 240.804 148.128 241.165C148.384 241.11 149.991 240.576 150.246 240.609C150.346 240.62 150.458 240.648 150.513 240.732C150.597 240.86 150.502 241.021 150.408 241.138C149.768 241.916 147.544 242.956 146.616 243.356C145.693 243.762 144.525 243.873 143.752 244.524V244.518Z" fill="#9B5E49"/>
<path d="M113.695 261.17C111.232 260.036 109.414 257.768 108.335 255.277C107.245 252.747 106.839 249.989 106.556 247.248C106.172 243.556 105.983 239.842 106.016 236.128C106.05 232.336 108.007 231.597 111.599 233.064C113.99 234.049 113.756 236.039 116.008 237.312C116.586 237.64 115.885 240.109 116.436 240.504C117.164 242.116 117.704 241.666 117.715 242.633C117.743 245.174 118.832 246.709 118.777 249.022C118.499 250.656 121.657 252.046 121.251 253.653C119.633 257.612 116.458 259.235 113.695 261.165V261.17Z" fill="#1C7745"/>
<path d="M113.839 219.904C114.112 221.155 114.284 222.423 114.362 223.701C114.507 223.568 114.773 223.507 114.957 223.574" fill="#9B5E49"/>
<path d="M125.882 225.753L121.312 224.591C121.312 224.591 122.04 227.076 123.503 227.327C124.965 227.577 125.888 225.753 125.888 225.753H125.882Z" fill="white"/>
<path d="M126.594 220.076C126.594 220.465 126.283 220.777 125.893 220.777C125.504 220.777 125.193 220.465 125.193 220.076C125.193 219.687 125.504 219.376 125.893 219.376C126.283 219.376 126.594 219.687 126.594 220.076Z" fill="#242021"/>
<path d="M112.238 228.839C110.153 228.472 108.641 229.145 107.685 230.896C106.728 232.653 106.578 234.694 106.701 236.656C107.195 244.646 111.766 251.852 116.214 258.702C117.02 259.947 118.805 260.097 120.362 259.953C121.918 259.803 123.392 259.219 124.793 258.568C131.648 255.393 137.436 250.567 143.124 245.808C142.579 244.829 142.007 243.717 141.462 242.739C141.117 242.116 140.416 241.382 139.76 241.732C135.991 243.74 132.004 245.441 128.184 247.365C126.528 248.199 124.854 249.038 123.069 249.6C120.323 242.739 116.492 229.578 112.233 228.828L112.238 228.839Z" fill="#53C888"/>
<path d="M84.2882 275.949C83.8712 279.029 86.2564 281.77 89.3644 281.77L115.485 282.265C114.79 278.757 110.787 273.202 109.753 269.232H85.6059C85.0221 271.445 84.5884 273.741 84.2882 275.949Z" fill="#4D4543"/>
<path d="M114.123 210.346C108.635 213.694 110.036 218.486 110.898 220.176C111.321 219.721 111.921 219.587 112.561 219.598C113.2 219.609 113.817 219.793 114.423 219.976C115.502 220.304 116.931 219.932 118.026 219.671C120.172 219.159 122.291 218.408 124.059 217.124C124.865 216.54 126.916 213.933 126.916 213.933C126.916 213.933 125.515 211.859 124.615 211.297C122.591 210.029 118.443 207.705 114.123 210.341V210.346Z" fill="#242021"/>
<path d="M122.007 211.798H120.212C116.648 211.798 113.756 214.689 113.756 218.253V219.793C113.979 219.854 114.207 219.91 114.424 219.976C115.502 220.304 116.931 219.932 118.026 219.671C120.173 219.159 122.291 218.408 124.059 217.124C125.115 216.357 126.355 215.512 127.256 214.511C126.083 212.871 124.176 211.792 122.007 211.792V211.798Z" fill="#242021"/>
<path d="M136.941 262.366H132.833V335.524H136.941V262.366Z" fill="#242021"/>
<path d="M213.942 262.366H209.833V335.524H213.942V262.366Z" fill="#242021"/>
<path d="M234.681 258.868H112.033V265.446H234.681V258.868Z" fill="#B2826F"/>
<path d="M245.65 122.782C243.726 118.111 239.128 114.825 233.768 114.825H116.23C110.864 114.825 106.272 118.111 104.348 122.782H245.65Z" fill="#242021"/>
<path d="M104.349 122.782H245.651C245.384 122.126 245.056 121.503 244.683 120.908H105.311C104.944 121.503 104.616 122.126 104.343 122.782H104.349Z" fill="white"/>
<path d="M132.75 84H132V117.544H132.75V84Z" fill="#242021"/>
<path d="M218.04 84H217.29V117.544H218.04V84Z" fill="#242021"/>
</svg>
