<svg width="440" height="396" viewBox="0 0 440 396" fill="none" xmlns="http://www.w3.org/2000/svg">
<path d="M372.636 150.828C371.62 151.578 370.516 152.314 369.25 152.462C368.117 152.594 366.999 152.226 365.909 151.873C360.508 150.077 355.106 148.281 349.704 146.486C347.187 148.296 346.554 152.226 348.365 154.728C349.748 156.642 352.103 157.539 354.311 158.334C358.02 159.659 361.715 160.998 365.424 162.323C367.646 163.118 369.898 163.927 372.253 164.074C375.521 164.295 378.715 163.25 381.82 162.205C385.132 161.101 388.782 159.733 390.357 156.612C392.02 153.33 390.799 149.371 391.27 145.72C391.579 143.351 392.624 141.069 392.579 138.67C392.535 136.624 390.902 133.533 388.458 133.96C386.354 134.328 384.955 137.993 383.837 139.524C380.716 143.836 376.919 147.663 372.636 150.813V150.828Z" fill="white"/>
<path d="M347.67 145.543C347.464 145.116 347.258 144.689 346.905 144.38C346.552 144.071 346.037 143.894 345.61 144.1C345.153 144.321 344.977 144.88 344.992 145.381C344.992 145.557 345.006 145.749 344.889 145.881C344.756 145.999 344.565 145.97 344.388 145.94C342.548 145.587 340.694 145.307 338.824 145.131C338.663 145.116 338.515 145.101 338.353 145.131C337.721 145.248 337.411 146.043 337.544 146.676C337.676 147.309 338.118 147.839 338.456 148.383C339.413 149.944 339.766 152.004 341.297 153.005C342.18 153.594 343.314 153.697 344.373 153.653C345.433 153.609 346.493 153.403 347.553 153.447C348.274 153.476 349.069 153.623 349.672 153.211C350.187 152.873 350.408 152.225 350.393 151.607C350.364 150.577 349.849 149.782 349.378 148.928C348.789 147.809 348.215 146.691 347.67 145.557V145.543Z" fill="#FFB4A3"/>
<path d="M392.87 267.516C386.659 266.117 387.881 274.905 386.247 278.187C385.378 279.938 383.818 281.204 382.42 282.588C381.022 283.956 379.712 285.634 379.623 287.592C379.594 287.96 379.668 288.328 379.844 288.652C380.153 289.034 380.595 289.299 381.081 289.402C384.628 290.433 388.425 290.065 391.707 288.357C393.238 287.621 394.504 286.444 395.358 284.972C396.035 283.397 396.359 281.675 396.3 279.968C396.432 276.303 398.066 268.693 392.885 267.545L392.87 267.516Z" fill="#FFB4A3"/>
<path d="M387.378 285.62C387.378 285.62 369.716 286.371 377.193 291.92C384.67 297.469 395.841 290.566 396.93 289.3C398.02 288.034 397.137 285.87 397.137 285.87L387.378 285.62Z" fill="#53C888"/>
<path d="M396.155 288.063C394.58 289.976 386.279 292.552 382.614 292.302C378.949 292.037 375.638 290.33 376.006 287.96C376.359 285.59 382.85 280.056 384.071 280.071C385.293 280.086 386.264 282.912 388.708 283.5C390.93 283.868 393.197 283.059 394.683 281.366C395.14 280.733 395.979 280.512 396.7 280.836C397.539 282.058 397.745 286.15 396.155 288.078V288.063Z" fill="white"/>
<path d="M414.155 270.99C407.943 269.548 409.165 278.35 407.531 281.617C406.678 283.369 405.103 284.649 403.704 286.018C402.306 287.387 400.996 289.065 400.923 291.022C400.878 291.39 400.952 291.758 401.129 292.082C401.438 292.465 401.879 292.73 402.365 292.833C405.912 293.863 409.71 293.48 412.992 291.788C414.523 291.052 415.788 289.874 416.642 288.403C417.319 286.828 417.643 285.106 417.584 283.398C417.717 279.689 419.35 272.109 414.169 271.005L414.155 270.99Z" fill="#FFB4A3"/>
<path d="M408.665 289.02C408.665 289.02 391.003 289.77 398.48 295.319C405.957 300.883 417.128 293.965 418.218 292.699C419.307 291.433 418.424 289.255 418.424 289.255L408.665 289.005V289.02Z" fill="#53C888"/>
<path d="M417.449 291.419C415.874 293.347 407.573 295.923 403.908 295.658C400.243 295.393 396.932 293.686 397.299 291.316C397.667 288.946 404.144 283.412 405.365 283.427C406.587 283.442 407.558 286.268 410.002 286.842C412.224 287.21 414.491 286.4 415.977 284.707C416.434 284.074 417.287 283.868 417.994 284.192C418.833 285.429 419.039 289.491 417.449 291.419Z" fill="white"/>
<path d="M398.155 190.891L406.457 278.202L418.423 276.73C423.147 255.432 421.985 191.686 421.985 191.686L398.17 190.891H398.155Z" fill="#473F47"/>
<path d="M406.439 188.52L398.137 275.831L386.156 274.359C379.312 219.106 384.949 184.723 384.949 184.723L406.439 188.535V188.52Z" fill="#473F47"/>
<path d="M386.013 156.95C385.866 155.346 385.439 153.756 385.262 152.122C384.865 148.825 384.939 145.499 385.454 142.217C386.013 138.728 387.058 135.328 388.574 132.134C389.958 129.367 392.445 128.19 395.256 126.806C397.597 125.541 400.143 124.672 402.778 124.245C404.632 124.069 406.516 124.186 408.341 124.554C413.978 125.629 421.411 128.528 425.253 132.973C428.152 136.315 428.491 141.098 428.579 145.514C428.697 151.622 428.579 157.715 428.197 163.794C428.152 164.677 428.094 165.56 428.02 166.444C427.505 173.126 426.96 180.058 425.047 186.52C424.443 188.551 423.81 190.582 421.941 191.671C417.54 194.232 410.784 192.819 406.03 192.157C399.701 191.259 393.21 190.317 387.617 187.256C386.455 186.755 385.498 185.843 384.953 184.695C384.468 183.326 385.056 181.839 385.483 180.441C387.382 174.2 385.91 167.65 385.91 161.277C385.91 160.129 386.057 158.952 386.057 157.789C386.057 157.509 386.013 157.215 386.013 156.921V156.95Z" fill="white"/>
<path d="M405.929 168.224C407.136 169.21 409.359 169.666 410.831 170.093C415.982 171.594 421.296 172.404 426.477 173.905C426.815 174.008 427.168 174.111 427.404 174.391C427.639 174.685 427.684 175.083 427.684 175.465C427.713 176.967 427.477 178.468 427.021 179.896C426.8 180.573 426.491 181.294 425.858 181.662C425.167 182.059 424.313 181.912 423.533 181.75C417.086 180.396 410.639 179.057 404.178 177.703C402.78 177.408 401.367 177.114 399.954 177.202C398.261 177.291 396.642 177.909 395.023 178.424C392.064 179.381 389.003 180.043 385.912 180.396C386.427 176.569 386.207 173.155 387.266 169.431C387.59 168.371 387.914 167.297 388.473 166.355C389.047 165.368 389.871 164.529 390.666 163.705C393.787 160.452 395.95 156.375 399.1 153.123C400.748 151.415 402.824 150.326 404.281 148.486C404.855 147.765 409.933 141.377 409.447 140.774C410.419 141.981 412.832 140.759 413.716 142.025C414.26 142.805 413.716 143.865 413.2 144.659C409.094 151.018 407.239 157.656 405.503 164.912C405.12 166.517 404.531 167.091 405.929 168.239V168.224Z" fill="url(#paint0_linear_368_2357)"/>
<path d="M390.193 88.2877C395.167 91.4522 396.639 98.0756 393.475 103.051C391.841 105.612 389.295 107.245 386.513 107.805C386.513 107.805 375.459 111.97 381.656 121.596L412.403 141.157L392.842 171.904C383.216 178.101 379.051 167.047 379.051 167.047C378.491 164.265 376.857 161.719 374.296 160.085C369.322 156.921 362.698 158.392 359.534 163.367C356.369 168.342 357.841 174.966 362.816 178.13C365.377 179.764 368.38 180.161 371.132 179.499C381.832 179.293 381.361 189.934 381.361 189.934L361.8 220.682L282.261 170.05L301.645 139.612C311.271 133.415 315.437 144.469 315.437 144.469C315.996 147.251 317.63 149.797 320.191 151.431C325.166 154.595 331.789 153.123 334.954 148.148C338.118 143.173 336.646 136.55 331.671 133.386C329.11 131.752 326.108 131.354 323.355 132.017C312.655 132.223 313.126 121.581 313.126 121.581L332.878 90.5397L363.64 110.115C363.64 110.115 374.282 110.586 374.076 99.886C373.413 97.1336 373.811 94.131 375.444 91.57C378.609 86.5951 385.232 85.1232 390.207 88.2877H390.193Z" fill="#53C888"/>
<path d="M437.602 151.253C438.338 152.666 439.045 154.109 439.471 155.64C440.207 158.274 440.075 161.071 439.677 163.779C439.295 166.384 438.618 169.063 436.925 171.094C433.643 175.039 427.755 175.363 422.648 174.877C416.864 174.332 411.138 173.184 405.589 171.447C405.089 171.285 404.574 171.124 404.191 170.77C403.69 170.314 403.47 169.637 403.293 168.975C402.866 167.37 402.587 165.722 402.454 164.059C408.386 162.381 414.759 163.75 420.852 162.852C421.353 162.778 421.853 162.69 422.265 162.41C423.207 161.792 423.399 160.497 423.296 159.378C422.987 155.949 420.882 152.961 419.881 149.649C418.924 146.514 419.013 143.07 420.131 139.994C420.867 137.948 422.398 135.696 424.576 134.989C427.019 134.195 427.947 136.108 429.271 137.889C432.392 142.113 435.188 146.573 437.617 151.239L437.602 151.253Z" fill="white"/>
<path d="M400.08 161.879C399.845 161.717 399.58 161.54 399.285 161.54C398.829 161.525 398.461 161.893 398.255 162.306C398.049 162.718 397.931 163.159 397.666 163.527C397.151 164.234 396.195 164.469 395.326 164.484C394.458 164.499 393.56 164.366 392.706 164.557C392.382 164.631 392.059 164.749 391.823 164.984C391.588 165.205 391.44 165.514 391.352 165.838C390.984 167.133 391.485 168.576 392.397 169.577C393.31 170.577 394.546 171.21 395.812 171.681C397.151 172.182 398.623 172.52 400.007 172.182C400.787 171.99 401.508 171.593 402.214 171.196C403.156 170.666 404.113 170.136 405.055 169.606C405.291 169.474 405.526 169.341 405.688 169.135C406.306 168.355 405.438 166.029 404.879 165.264C403.848 163.866 401.537 162.85 400.095 161.879H400.08Z" fill="#FFB4A3"/>
<path d="M398.169 115.487C398.199 113.809 398.302 112.117 398.478 110.483C398.64 109.026 398.861 107.569 399.155 106.126C399.347 105.199 399.45 104.478 400.274 103.918C402.511 102.535 405.102 101.828 407.736 101.873C409.723 101.873 411.858 102.344 413.168 103.83C414.065 104.978 414.595 106.362 414.669 107.804C415.066 111.469 414.11 115.119 413.58 118.784C413.168 121.61 413.02 124.466 413.123 127.321C411.74 128.234 410.165 128.793 408.516 128.955C407.751 128.955 406.986 128.822 406.25 128.572C405.838 128.484 405.484 128.248 405.234 127.91C405.116 127.601 405.087 127.277 405.146 126.968C405.175 126.659 405.234 126.364 405.234 126.07C405.352 124.407 405.323 122.729 405.131 121.066C405.131 120.918 405.087 120.786 404.984 120.683C404.881 120.624 404.763 120.609 404.645 120.624H404.174C403.336 120.683 402.511 120.668 401.672 120.58C400.671 120.477 399.759 120.006 399.067 119.285C398.199 118.313 398.11 116.827 398.155 115.487H398.169Z" fill="#FFB4A3"/>
<path d="M401.552 104.743C400.964 104.846 400.449 105.052 399.933 104.699C399.448 104.375 398.918 103.654 398.565 103.183C397.637 101.961 397.152 100.401 397.269 98.8702C397.328 98.1637 397.505 97.4572 397.932 96.8979C398.344 96.3533 398.932 95.9854 399.551 95.7057C400.758 95.1464 402.097 94.8373 403.422 94.9404C405.35 95.1023 407.131 96.1326 408.588 97.3984C408.912 97.678 409.25 97.9871 409.662 98.1196C410.03 98.2226 410.413 98.1932 410.796 98.1637C413.239 98.0018 415.785 98.6642 417.64 100.268C418.729 101.21 419.539 102.447 420.716 103.286C421.702 103.992 422.953 104.434 423.542 105.494C424.087 106.465 423.866 107.746 423.189 108.614C422.512 109.497 421.452 110.027 420.363 110.248C420.922 111.499 420.157 113.162 418.847 113.559C418.42 113.692 417.934 113.707 417.566 113.986C417.301 114.192 417.169 114.516 416.904 114.752C416.271 115.267 415.432 115.458 415.167 116.341C415.049 116.709 415.094 117.107 415.049 117.489C414.99 118.063 414.784 118.593 414.387 119.02C414.137 119.3 413.695 119.977 413.327 120.05C412.915 120.124 412.621 119.697 412.503 119.3C412.047 117.651 412.165 115.885 412.842 114.31C413.313 113.545 413.592 112.676 413.666 111.764C413.578 110.866 412.371 110.174 411.782 110.689C411.208 111.219 411.09 112.5 410.384 112.235C411.208 109.688 410.133 106.494 407.69 105.479C406.41 104.949 404.997 105.023 403.642 104.92C403.01 104.875 402.259 104.61 401.67 104.699C401.626 104.699 401.597 104.699 401.552 104.714V104.743Z" fill="#473F47"/>
<path d="M404.205 120.624C406.133 120.257 408.032 119.697 409.857 118.947C410.019 124.834 405.235 126.056 405.235 126.056C405.353 124.392 405.324 122.715 405.132 121.051C405.132 120.904 405.088 120.772 404.985 120.669C404.882 120.61 404.765 120.595 404.647 120.61H404.176H404.205V120.624Z" fill="#FFB4A3"/>
<path d="M343.138 134.637C343.771 135.446 343.83 136.594 343.55 137.58C343.271 138.567 342.682 139.435 342.093 140.289C341.078 141.79 340.047 143.291 339.032 144.793C338.237 145.97 337.163 147.28 335.735 147.192C332.379 146.956 330.922 138.257 332.143 135.682C333.674 132.488 341.004 131.884 343.138 134.637Z" fill="#FFB4A3"/>
<path d="M77.8756 0.624077C75.4029 -0.332633 72.5769 -0.126565 70.1042 0.815426C66.925 2.00763 64.1284 4.45092 62.9362 7.64486C62.7596 8.10114 62.583 8.61628 62.1562 8.83706C61.8765 8.98425 61.538 8.96954 61.2289 8.96954C58.4176 8.9401 55.6211 10.044 53.5458 11.928C51.0142 14.2241 51.1613 16.9176 50.7639 20.1262C49.9986 19.67 48.9977 19.7288 48.1735 20.0821C47.3492 20.4353 46.6574 21.0388 45.9951 21.6423C44.9795 22.5695 43.9639 23.5704 43.4929 24.8509C42.7129 26.9704 43.5812 29.3107 43.6254 31.5773C43.6254 31.7834 43.6254 32.0041 43.4635 32.1366C43.331 32.2544 43.125 32.2397 42.9484 32.2102C42.3449 32.0925 41.8003 31.7834 41.1968 31.7245C39.7986 31.5773 38.5769 32.8578 38.2384 34.2267C37.8999 35.5955 38.209 37.0232 38.4592 38.4068C38.7094 39.7903 38.886 41.2769 38.3267 42.5574C37.9293 43.4699 37.2081 44.1912 36.531 44.9124C34.5735 47.0024 32.7925 49.5046 32.6012 52.36C32.5129 53.7435 32.8072 55.186 33.6462 56.2899C34.4851 57.3938 35.8834 58.1002 37.2523 57.9236C40.4756 57.4968 41.5942 52.9635 44.6704 51.889C47.9674 50.741 51.2055 47.1938 53.1778 44.3384C54.7821 42.0275 56.3276 39.3635 58.9916 38.4215C59.8453 38.1271 60.7873 38.0241 61.5232 37.4942C62.0678 37.1115 62.4505 36.5375 62.8038 35.9635C63.8635 34.2855 64.8497 32.534 65.3501 30.6206C66.3215 26.8821 65.3795 22.6726 67.1605 19.2431C68.1908 17.2708 70.0895 15.7548 72.2531 15.2249C73.1657 14.9894 74.1224 14.9306 75.0349 14.6951C76.0947 14.4154 77.0808 13.8708 78.0081 13.2674C80.2159 11.7955 82.2765 9.54356 82.5267 6.79118C82.7769 4.0388 80.3042 1.59551 77.8756 0.65352V0.624077Z" fill="#FFB4A3"/>
<path d="M85.8377 5.24599C87.7511 6.08495 89.2083 8.29275 88.5459 10.2798C88.2663 11.1187 87.6628 11.8105 87.0741 12.4728C85.8966 13.7975 84.7191 15.1222 83.5563 16.4469C83.0706 14.6512 82.5849 12.8408 82.0992 11.0451C81.8342 10.059 81.5104 8.99923 80.6862 8.41049C79.7442 7.74815 78.4195 7.92478 77.3892 8.43993C76.3589 8.95508 75.5052 9.7646 74.5338 10.3975C74.2689 10.5741 73.9304 10.736 73.6507 10.5741C73.2827 10.3828 73.3416 9.85291 73.4741 9.45551C75.1373 4.7014 81.5693 3.39144 85.8377 5.26071V5.24599Z" fill="#FFB4A3"/>
<path d="M88.2524 151.769C88.4437 153.565 88.8853 155.405 89.9892 156.847C91.5788 158.893 94.2134 159.761 96.3771 161.189C96.8039 161.469 97.2454 161.837 97.2749 162.337C97.3043 162.808 96.9216 163.235 96.4801 163.412C96.0385 163.588 95.5381 163.559 95.0671 163.515C92.8151 163.309 90.5926 162.808 88.326 162.867C87.2074 162.896 85.8974 162.985 85.1762 162.131C84.6169 161.469 84.6758 160.497 84.7346 159.629C84.9407 156.406 84.6758 153.167 83.9546 150.018C83.7779 149.238 83.5719 148.443 83.7043 147.648C83.9693 146.058 86.0152 145.352 87.2368 146.412C88.5173 147.53 88.0905 150.283 88.2524 151.784V151.769Z" fill="#FFB4A3"/>
<path d="M52.2073 163.825C52.0306 165.636 52.0895 167.52 52.8843 169.153C54.0177 171.479 56.4315 172.862 58.2713 174.687C58.6246 175.041 58.9925 175.497 58.919 175.997C58.8454 176.468 58.3891 176.807 57.9181 176.881C57.4471 176.954 56.9761 176.836 56.5198 176.689C54.3562 176.042 52.2809 175.1 50.0584 174.702C48.9545 174.511 47.6592 174.32 47.1293 173.333C46.7172 172.568 46.9674 171.641 47.2029 170.802C48.0419 167.681 48.4393 164.458 48.3804 161.22C48.3657 160.425 48.3216 159.601 48.6012 158.85C49.1752 157.334 51.3242 157.055 52.3103 158.35C53.3406 159.704 52.3692 162.309 52.222 163.81L52.2073 163.825Z" fill="#FFB4A3"/>
<path d="M45.1281 76.1749C45.1281 76.1749 63.703 103.758 75.8606 112C75.684 114.694 75.6545 117.593 76.0372 120.272C76.6701 124.732 78.8337 128.647 79.5255 133.033C80.3056 137.949 81.0709 142.85 81.851 147.766C81.9541 148.443 82.1454 149.223 82.793 149.459C83.1757 149.606 83.6026 149.503 84 149.385C85.7073 148.914 87.4147 148.443 89.122 147.972C88.8129 139.126 89.0043 130.251 89.6961 121.42C89.9757 117.829 90.3437 114.223 89.961 110.646C89.122 102.816 82.7194 95.8831 78.3038 89.6424C75.6398 85.8745 72.7697 80.2225 69.0311 77.3524C65.9108 74.968 61.5099 76.1013 57.6095 76.484C54.6805 76.7636 51.7073 76.5576 48.8519 75.8658C47.4831 75.5273 46.232 75.2623 45.1281 76.1602V76.1749Z" fill="#473F47"/>
<path d="M38.0631 75.9985C38.0631 75.9985 45.2752 108.468 53.5913 120.566C52.4432 123.01 51.354 125.689 50.7358 128.323C50.2207 130.501 50.0882 132.753 49.941 134.991C49.3965 144.013 48.8519 153.05 48.3073 162.073C50.883 162.22 53.4882 161.896 55.9462 161.116C59.1255 153.153 62.29 145.191 65.4692 137.213C67.0146 133.342 68.5748 129.368 68.6042 125.203C68.6631 117.063 60.8034 87.3465 59.8908 85.8305C57.8597 82.4747 53.3558 81.9154 49.5731 80.8409C46.7471 80.0314 44.0536 78.7508 41.6397 77.0729C40.4917 76.2634 39.4172 75.5569 38.0631 75.9837V75.9985Z" fill="#473F47"/>
<path d="M104.768 50.7115C108.742 52.4336 113.158 53.3755 117.441 52.6985C118.707 52.4924 120.016 52.1539 121.238 52.5072C120.664 53.302 120.119 54.5383 120.914 55.1418C121.15 55.3184 121.459 55.3773 121.739 55.4067C122.784 55.5392 123.858 55.4067 124.844 55.0682C125.345 54.8916 125.845 54.6708 126.375 54.7297C127.317 54.8474 127.891 55.9808 127.7 56.9227C127.508 57.8647 126.772 58.586 125.977 59.1305C123.343 60.9409 119.693 61.147 116.867 59.6457C116.042 59.2041 115.277 58.6301 114.453 58.1885C112.893 57.3643 111.112 57.0405 109.39 56.6725C104.268 55.6128 99.2338 54.1556 94.3325 52.3305C92.9047 51.8007 91.3446 51.1089 90.7705 49.6959C89.7697 47.2379 91.5948 43.1167 94.5238 44.721C98.0121 46.6344 101.059 49.1071 104.753 50.6968L104.768 50.7115Z" fill="#FFB4A3"/>
<path d="M80.5691 36.7284C86.1916 40.7024 92.8591 42.9543 99.5708 44.5439C99.8799 44.6175 100.233 44.7353 100.307 45.0297C100.351 45.221 100.263 45.4123 100.174 45.6037C98.776 48.3708 97.0245 50.976 94.9639 53.3015C94.7136 53.5812 94.4634 53.8608 94.1249 54.008C93.5067 54.2729 92.8149 54.0227 92.182 53.7725C87.8106 52.021 83.5128 50.0634 79.3327 47.8998C75.7414 46.0452 72.1206 43.9552 69.6331 40.7613C68.3673 39.1275 67.4106 37.1699 67.3959 35.1093C67.3665 32.7985 69.5007 28.6626 72.3855 29.8106C73.6807 30.3258 74.8288 31.9301 75.8297 32.8574C77.331 34.2409 78.9058 35.5656 80.5691 36.7431V36.7284Z" fill="#53C888"/>
<path d="M80.5691 36.7284C86.1916 40.7024 92.8591 42.9543 99.5708 44.5439C99.8799 44.6175 100.233 44.7353 100.307 45.0297C100.351 45.221 100.263 45.4123 100.174 45.6037C98.776 48.3708 97.0245 50.976 94.9639 53.3015C94.7136 53.5812 94.4634 53.8608 94.1249 54.008C93.5067 54.2729 92.8149 54.0227 92.182 53.7725C87.8106 52.021 83.5128 50.0634 79.3327 47.8998C75.7414 46.0452 72.1206 43.9552 69.6331 40.7613C68.3673 39.1275 67.4106 37.1699 67.3959 35.1093C67.3665 32.7985 69.5007 28.6626 72.3855 29.8106C73.6807 30.3258 74.8288 31.9301 75.8297 32.8574C77.331 34.2409 78.9058 35.5656 80.5691 36.7431V36.7284Z" fill="url(#paint1_linear_368_2357)"/>
<path d="M162.125 25.116C164.981 28.7368 164.348 33.9766 160.742 36.832C158.887 38.3039 156.591 38.8484 154.398 38.5541C154.398 38.5541 145.184 38.7749 147.274 47.4588L164.878 69.7723L142.564 87.3757C133.88 89.4657 133.66 80.2519 133.66 80.2519C133.969 78.0588 133.409 75.7627 131.938 73.9082C129.082 70.2874 123.842 69.6692 120.222 72.5246C116.601 75.38 115.983 80.6199 118.838 84.2407C120.31 86.0952 122.4 87.1697 124.608 87.3904C132.541 89.9956 129.45 97.7082 129.45 97.7082L107.137 115.312L61.5973 57.5705L83.7046 40.1437C92.3886 38.0536 92.6094 47.2675 92.6094 47.2675C92.3003 49.4606 92.8596 51.7567 94.3315 53.6112C97.1869 57.232 102.427 57.8502 106.047 54.9948C109.668 52.1394 110.286 46.8995 107.431 43.2788C105.959 41.4242 103.869 40.3498 101.661 40.129C93.728 37.5238 96.8189 29.8112 96.8189 29.8112L119.353 12.0459L136.957 34.374C136.957 34.374 144.669 37.4649 147.274 29.5316C147.495 27.3238 148.555 25.2338 150.424 23.7619C154.045 20.9065 159.285 21.5394 162.14 25.1454L162.125 25.116Z" fill="#53C888"/>
<path d="M162.125 25.116C164.981 28.7368 164.348 33.9766 160.742 36.832C158.887 38.3039 156.591 38.8484 154.398 38.5541C154.398 38.5541 145.184 38.7749 147.274 47.4588L164.878 69.7723L142.564 87.3757C133.88 89.4657 133.66 80.2519 133.66 80.2519C133.969 78.0588 133.409 75.7627 131.938 73.9082C129.082 70.2874 123.842 69.6692 120.222 72.5246C116.601 75.38 115.983 80.6199 118.838 84.2407C120.31 86.0952 122.4 87.1697 124.608 87.3904C132.541 89.9956 129.45 97.7082 129.45 97.7082L107.137 115.312L61.5973 57.5705L83.7046 40.1437C92.3886 38.0536 92.6094 47.2675 92.6094 47.2675C92.3003 49.4606 92.8596 51.7567 94.3315 53.6112C97.1869 57.232 102.427 57.8502 106.047 54.9948C109.668 52.1394 110.286 46.8995 107.431 43.2788C105.959 41.4242 103.869 40.3498 101.661 40.129C93.728 37.5238 96.8189 29.8112 96.8189 29.8112L119.353 12.0459L136.957 34.374C136.957 34.374 144.669 37.4649 147.274 29.5316C147.495 27.3238 148.555 25.2338 150.424 23.7619C154.045 20.9065 159.285 21.5394 162.14 25.1454L162.125 25.116Z" fill="url(#paint2_linear_368_2357)"/>
<path d="M88.3407 75.9102C93.1095 79.7224 97.9667 84.0055 103.987 85.0064C106.253 85.389 108.77 85.2124 110.595 83.8141C111.213 83.3431 111.773 82.6072 111.596 81.8566C111.375 80.8998 110.213 80.5613 109.256 80.3847C104.84 79.5752 100.395 78.383 96.6862 75.8661C95.2437 74.8799 93.9338 73.7172 92.6385 72.5544C89.474 69.7284 86.3243 66.9172 83.1597 64.0912C82.8801 63.841 82.5563 63.5908 82.203 63.6349C81.8204 63.6938 81.5701 64.0912 81.4082 64.4444C80.8342 65.6367 80.3632 66.9024 80.0836 68.1977C79.7745 69.6107 80.1424 69.8167 81.3052 70.641C83.7043 72.3189 86.0446 74.0704 88.326 75.8955L88.3407 75.9102Z" fill="url(#paint3_linear_368_2357)"/>
<path d="M92.7421 68.7853C96.0832 71.5524 100.057 73.7013 104.355 74.2312C105.621 74.3931 106.975 74.4225 108.064 75.1143C107.284 75.7177 106.43 76.7628 107.019 77.5428C107.196 77.7783 107.475 77.9255 107.74 78.0286C108.712 78.4407 109.771 78.632 110.817 78.5731C111.346 78.5437 111.891 78.4701 112.377 78.6762C113.26 79.0589 113.481 80.2952 113.039 81.1489C112.597 82.0026 111.685 82.4883 110.772 82.7974C107.74 83.7983 104.178 82.974 101.882 80.7368C101.205 80.0744 100.646 79.3238 99.9689 78.6615C98.7031 77.4251 97.084 76.6156 95.5239 75.7913C90.9022 73.3333 86.4719 70.5368 82.2771 67.4164C81.0555 66.5039 79.7602 65.4 79.5983 63.8987C79.3187 61.2493 82.2329 57.8052 84.5879 60.1749C87.3992 62.9861 89.6364 66.2095 92.7421 68.7705V68.7853Z" fill="#FFB4A3"/>
<path d="M38.0479 80.1645C38.357 80.6061 38.8427 80.8857 39.3284 81.1359C41.3154 82.2104 43.3171 83.2848 45.4366 84.0649C50.8236 86.0519 56.9171 85.9342 62.2894 83.9325C64.4531 83.1377 66.4989 82.0191 68.3241 80.6355C68.9864 80.1351 69.6487 79.561 70.0461 78.8251C70.6643 77.7065 70.6055 76.3377 70.5024 75.0719C70.0314 68.5221 69.2955 61.7368 70.4288 55.3784C70.8115 53.2 71.415 51.0805 72.3128 49.0199C73.5933 46.1056 75.4479 43.4121 76.1249 40.3212C76.9197 36.671 75.9336 32.7264 73.6375 29.7827C71.1206 26.5446 66.4842 23.6892 62.3925 25.1463C57.6089 26.8537 53.6349 30.1065 50.5881 34.1541C47.2176 38.6139 44.9951 43.8243 43.008 49.0494C42.228 51.1247 41.4479 53.2147 40.8444 55.3489C39.402 60.4857 38.8868 65.8286 38.3717 71.142C38.1509 73.3645 37.9448 75.587 37.7241 77.8095C37.6505 78.6043 37.5769 79.5022 38.0479 80.1645Z" fill="#53C888"/>
<path d="M62.2748 83.9313C64.4384 83.1365 66.4843 82.0179 68.3094 80.6344C68.9718 80.1339 69.6341 79.5599 70.0315 78.824C70.6497 77.7054 70.5908 76.3365 70.4878 75.0707C70.0168 68.521 69.2808 61.7357 70.4142 55.3772C69.6341 54.5971 68.7657 53.8907 67.8973 53.1989C65.925 51.5946 63.1285 48.4448 60.3172 48.6508C61.009 51.6534 61.5389 54.6707 61.9363 57.7175C62.3337 60.7495 62.2012 63.8993 62.6869 66.9019C63.5553 72.3919 62.9813 77.3374 62.3189 82.8569C62.2748 83.2396 62.2454 83.5928 62.2601 83.9313H62.2748Z" fill="url(#paint4_linear_368_2357)"/>
<path d="M85.984 58.5706C86.2637 58.7619 86.558 58.9974 86.6169 59.3212C86.6611 59.6303 86.4844 59.9394 86.2931 60.1897C84.5269 62.6771 82.2896 64.8407 79.7433 66.5186C79.4784 66.6953 79.1987 66.8572 78.8896 66.8572C78.5364 66.8572 78.2126 66.6217 77.9329 66.4156C74.0619 63.4425 70.1762 60.4693 66.3347 57.452C63.9797 55.5975 61.5953 53.684 59.9173 51.1966C58.4896 49.0771 57.6507 46.6338 56.8706 44.2052C54.545 36.9048 61.5511 33.7403 66.2464 39.0684C72.5018 46.1775 78.1537 53.0364 85.984 58.5559V58.5706Z" fill="#53C888"/>
<path d="M85.0147 162.368C84.897 161.852 84.8234 161.249 85.206 160.881C85.6329 160.469 86.3394 160.66 86.884 160.881C88.1203 161.396 89.342 161.97 90.6519 162.265C91.9619 162.544 93.3896 162.515 94.5524 161.852C95.2147 161.47 95.8623 160.866 96.6277 160.94C97.0104 160.969 97.3636 161.175 97.7022 161.352C98.8649 161.955 100.116 162.397 101.411 162.632C101.956 162.736 102.53 162.809 102.957 163.148C103.089 163.251 103.207 163.383 103.236 163.545C103.31 163.942 102.883 164.237 102.5 164.384C98.4528 165.959 93.9195 165.37 89.5922 164.899C89.1065 164.84 88.6061 164.796 88.1203 164.884C87.4138 165.017 86.5307 165.385 85.9273 164.796C85.368 164.266 85.1766 163.089 85.0147 162.382V162.368Z" fill="#473F47"/>
<path d="M46.5535 173.479C46.4946 172.964 46.5094 172.346 46.9362 172.037C47.4219 171.683 48.0843 171.963 48.5994 172.257C49.7622 172.92 50.8955 173.641 52.1613 174.097C53.4271 174.539 54.8548 174.686 56.0912 174.171C56.7977 173.876 57.5042 173.361 58.2548 173.508C58.6375 173.582 58.9466 173.832 59.2704 174.053C60.3449 174.804 61.5371 175.392 62.7882 175.775C63.318 175.937 63.8773 176.084 64.26 176.467C64.3778 176.585 64.4808 176.732 64.4955 176.894C64.525 177.291 64.0539 177.527 63.6565 177.63C59.4323 178.689 55.0167 177.541 50.7925 176.54C50.3068 176.423 49.821 176.32 49.3353 176.334C48.6141 176.379 47.7016 176.629 47.157 175.981C46.6566 175.378 46.6271 174.2 46.5535 173.479Z" fill="#473F47"/>
<path d="M82.6298 18.6103C82.2913 19.6701 81.9675 20.7445 81.6878 21.8337C81.2904 23.438 81.0549 25.1012 80.422 26.6172C79.7891 28.1333 78.6411 29.561 77.0514 30.032C75.4618 30.503 73.4601 29.6934 73.0627 28.0891C72.1354 28.3099 71.7969 29.4727 71.8116 30.4294C71.8263 31.3861 71.9441 32.4605 71.3112 33.1965C70.4281 34.2415 68.7207 33.8147 67.5727 33.064C64.0696 30.7973 62.2004 26.2346 63.0982 22.1575C64.0549 17.8302 64.0255 12.6199 66.4982 8.85189C67.3813 7.58609 68.5147 6.49691 69.8099 5.67267C70.9579 4.84842 72.2826 4.30384 73.6809 4.1125C74.667 4.05362 75.6679 4.1125 76.6393 4.33328C80.7753 5.03977 84.2636 5.62852 84.293 10.3826C84.3077 13.2675 83.454 15.9168 82.6151 18.5956L82.6298 18.6103Z" fill="#FFB4A3"/>
<path d="M77.5522 10.941C76.8899 10.941 76.1687 10.7791 75.6388 11.1765C75.0501 11.6033 75.0206 12.4423 74.6821 13.0899C73.9903 14.3704 72.2683 14.547 70.973 15.2094C69.3834 16.0189 68.3237 17.7999 68.3973 19.5956C68.3678 19.0215 68.3237 18.4181 67.9851 17.9618C67.6466 17.5055 66.896 17.2994 66.4986 17.6968C66.3072 17.8882 66.2336 18.1678 66.2042 18.4328C66.0865 19.5367 66.5869 20.6847 67.4847 21.3471C66.7046 23.025 64.8795 24.1583 63.025 24.0994C62.451 24.0847 61.8475 23.9523 61.4207 23.5549C61.1116 23.2752 60.9202 22.8925 60.7877 22.4951C59.6691 19.3895 61.3765 16.0484 61.7886 12.7661C61.9358 11.6181 61.9211 10.4111 62.3626 9.33667C62.6865 8.54187 63.231 7.85009 63.8051 7.21719C65.689 5.11243 68.0146 3.30204 70.7375 2.55139C73.3574 1.83018 78.5531 2.19814 80.5696 4.27347C82.8951 6.65788 80.7167 10.9557 77.5522 10.9263V10.941Z" fill="#C14834"/>
<path d="M6.57922 304.665H0L67.3818 126.746C67.8381 125.554 68.9862 124.759 70.252 124.759C72.4009 124.759 73.8875 126.908 73.1221 128.924L6.56451 304.665H6.57922Z" fill="#53C888"/>
<path d="M46.0545 304.666H39.4753L107.608 124.746H114.187L46.0545 304.666Z" fill="#53C888"/>
<path d="M96.9672 152.844H62.143L63.9092 148.207H98.7187L96.9672 152.844Z" fill="#53C888"/>
<path d="M86.2684 181.104H51.4442L53.2104 176.467H88.0199L86.2684 181.104Z" fill="#53C888"/>
<path d="M75.5639 209.347H40.7397L42.5059 204.71H77.3154L75.5639 209.347Z" fill="#53C888"/>
<path d="M64.8638 237.608H30.0395L31.8057 232.971H66.6153L64.8638 237.608Z" fill="#53C888"/>
<path d="M54.165 265.851H19.3408L21.107 261.215H55.9313L54.165 265.851Z" fill="#53C888"/>
<path d="M64.0701 152.844L55.1065 176.467H88.0173L86.2658 181.103H53.355L44.4208 204.712H77.3169L75.5654 209.348H42.6693L33.7351 232.972H66.6312L64.8797 237.608H31.9836L23.0199 261.231H55.9307L54.1645 265.868H21.2684L6.57922 304.666H0L67.3818 126.733C67.8234 125.541 68.9714 124.746 70.252 124.746C72.0182 124.746 73.3281 126.188 73.3281 127.822C73.3281 128.175 73.2693 128.543 73.1368 128.911L65.8364 148.207H98.7325L96.9809 152.844H64.0849H64.0701Z" fill="url(#paint5_linear_368_2357)"/>
<path d="M46.0545 304.666H39.4753L107.608 124.746H114.187L46.0545 304.666Z" fill="url(#paint6_linear_368_2357)"/>
<path d="M76.3299 306.61V270.166C81.1134 259.76 90.5628 266.855 90.5628 266.855C92.5351 268.9 95.2728 270.166 98.3195 270.166C104.222 270.166 109.005 265.383 109.005 259.48C109.005 253.578 104.222 248.795 98.3195 248.795C95.2875 248.795 92.5351 250.061 90.5628 252.106C81.6433 258.023 76.3299 248.795 76.3299 248.795V212.337H112.773C112.773 212.337 122.002 207.023 116.085 198.104C114.039 196.132 112.773 193.394 112.773 190.347C112.773 184.445 117.571 179.661 123.459 179.661C129.361 179.661 134.145 184.46 134.145 190.347C134.145 193.379 132.879 196.132 130.833 198.104C130.833 198.104 123.739 207.553 134.145 212.337H170.588V306.624H76.3299V306.61Z" fill="url(#paint7_linear_368_2357)"/>
<path d="M358.988 212.323V306.61H264.73V270.152C264.73 270.152 270.044 260.923 278.963 266.84C280.936 268.886 283.673 270.152 286.72 270.152C292.622 270.152 297.406 265.368 297.406 259.466C297.406 253.564 292.607 248.781 286.72 248.781C283.688 248.781 280.936 250.046 278.963 252.092C278.963 252.092 269.514 259.187 264.73 248.781V212.337H301.174C311.58 207.554 304.485 198.104 304.485 198.104C302.439 196.132 301.174 193.394 301.174 190.348C301.174 184.445 305.957 179.662 311.859 179.662C317.762 179.662 322.545 184.445 322.545 190.348C322.545 193.38 321.279 196.132 319.233 198.104C313.317 207.024 322.545 212.337 322.545 212.337H358.988V212.323Z" fill="#53C888"/>
<path d="M358.988 212.323V306.61H264.73V270.152C264.73 270.152 270.044 260.923 278.963 266.84C280.936 268.886 283.673 270.152 286.72 270.152C292.622 270.152 297.406 265.368 297.406 259.466C297.406 253.564 292.607 248.781 286.72 248.781C283.688 248.781 280.936 250.046 278.963 252.092C278.963 252.092 269.514 259.187 264.73 248.781V212.337H301.174C311.58 207.554 304.485 198.104 304.485 198.104C302.439 196.132 301.174 193.394 301.174 190.348C301.174 184.445 305.957 179.662 311.859 179.662C317.762 179.662 322.545 184.445 322.545 190.348C322.545 193.38 321.279 196.132 319.233 198.104C313.317 207.024 322.545 212.337 322.545 212.337H358.988V212.323Z" fill="url(#paint8_linear_368_2357)"/>
<path d="M203.148 165.178C203.148 171.08 198.364 175.864 192.462 175.864C189.43 175.864 186.678 174.598 184.705 172.552C175.786 166.635 170.472 175.864 170.472 175.864V212.322H264.73V118.034H170.472V154.477C175.256 164.884 184.705 157.789 184.705 157.789C186.678 155.743 189.415 154.477 192.462 154.477C198.364 154.477 203.148 159.261 203.148 165.163V165.178Z" fill="#53C888"/>
<path d="M210.213 226.568C208.167 228.54 206.901 231.278 206.901 234.325C206.901 240.227 211.699 245.011 217.587 245.011C223.474 245.011 228.272 240.212 228.272 234.325C228.272 231.293 227.007 228.54 224.961 226.568C224.961 226.568 217.866 217.119 228.272 212.335H206.886C206.886 212.335 216.115 217.649 210.198 226.568H210.213Z" fill="#53C888"/>
<path d="M170.457 118.049V154.492C175.24 164.898 184.69 157.804 184.69 157.804C186.662 155.758 189.4 154.492 192.446 154.492C198.349 154.492 203.132 159.276 203.132 165.178C203.132 171.08 198.349 175.864 192.446 175.864C189.414 175.864 186.662 174.598 184.69 172.552C175.77 166.635 170.457 175.864 170.457 175.864V212.322H206.9C206.9 212.322 216.129 217.635 210.212 226.554C208.166 228.527 206.9 231.264 206.9 234.311C206.9 240.213 211.698 244.997 217.586 244.997C223.473 244.997 228.272 240.199 228.272 234.311C228.272 231.279 227.006 228.527 224.96 226.554C224.96 226.554 217.865 217.105 228.272 212.322H264.715V118.034H170.457V118.049Z" fill="url(#paint9_linear_368_2357)"/>
<path d="M170.457 212.321V306.609H264.715V270.151C264.715 270.151 270.028 260.922 278.948 266.839C280.92 268.885 283.658 270.151 286.705 270.151C292.607 270.151 297.39 265.367 297.39 259.465C297.39 253.563 292.607 248.779 286.705 248.779C283.672 248.779 280.92 250.045 278.948 252.091C278.948 252.091 269.498 259.185 264.715 248.779V212.336H228.272C217.866 217.134 224.96 226.569 224.96 226.569C227.006 228.541 228.272 231.279 228.272 234.325C228.272 240.228 223.488 245.011 217.586 245.011C211.684 245.011 206.9 240.213 206.9 234.325C206.9 231.293 208.166 228.541 210.212 226.569C216.129 217.649 206.9 212.336 206.9 212.336H170.457V212.321Z" fill="#53C888"/>
<path d="M76.3299 306.61V270.166C81.1134 259.76 90.5628 266.855 90.5628 266.855C92.5351 268.9 95.2728 270.166 98.3195 270.166C104.222 270.166 109.005 265.383 109.005 259.48C109.005 253.578 104.222 248.795 98.3195 248.795C95.2875 248.795 92.5351 250.061 90.5628 252.106C81.6433 258.023 76.3299 248.795 76.3299 248.795V212.337H112.773C112.773 212.337 122.002 207.023 116.085 198.104C114.039 196.132 112.773 193.394 112.773 190.347C112.773 184.445 117.571 179.661 123.459 179.661C129.361 179.661 134.145 184.46 134.145 190.347C134.145 193.379 132.879 196.132 130.833 198.104C130.833 198.104 123.739 207.553 134.145 212.337H170.588V306.624H76.3299V306.61Z" fill="#53C888"/>
<path d="M76.3299 306.61V270.166C81.1134 259.76 90.5628 266.855 90.5628 266.855C92.5351 268.9 95.2728 270.166 98.3195 270.166C104.222 270.166 109.005 265.383 109.005 259.48C109.005 253.578 104.222 248.795 98.3195 248.795C95.2875 248.795 92.5351 250.061 90.5628 252.106C81.6433 258.023 76.3299 248.795 76.3299 248.795V212.337H112.773C112.773 212.337 122.002 207.023 116.085 198.104C114.039 196.132 112.773 193.394 112.773 190.347C112.773 184.445 117.571 179.661 123.459 179.661C129.361 179.661 134.145 184.46 134.145 190.347C134.145 193.379 132.879 196.132 130.833 198.104C130.833 198.104 123.739 207.553 134.145 212.337H170.588V306.624H76.3299V306.61Z" fill="url(#paint10_linear_368_2357)"/>
<path d="M203.263 165.192C203.263 171.095 198.48 175.878 192.578 175.878C189.546 175.878 186.793 174.612 184.821 172.566C184.821 172.566 175.372 165.472 170.588 175.878V212.321H134.145C123.739 207.538 130.833 198.089 130.833 198.089C132.879 196.116 134.145 193.379 134.145 190.332C134.145 184.43 129.346 179.646 123.459 179.646C117.572 179.646 112.773 184.43 112.773 190.332C112.773 193.364 114.039 196.116 116.085 198.089C122.002 207.008 112.773 212.321 112.773 212.321H76.33V118.034H112.42C122.826 122.832 115.732 132.267 115.732 132.267C113.686 134.239 112.42 136.977 112.42 140.024C112.42 145.926 117.204 150.709 123.106 150.709C129.008 150.709 133.791 145.926 133.791 140.024C133.791 136.992 132.526 134.239 130.48 132.267C124.563 123.347 133.791 118.034 133.791 118.034H170.588V154.492C170.588 154.492 175.901 163.721 184.821 157.804C186.793 155.758 189.531 154.492 192.578 154.492C198.48 154.492 203.263 159.29 203.263 165.178V165.192Z" fill="#53C888"/>
<path d="M226.342 346.364C226.43 352.266 221.706 357.124 215.804 357.212C212.771 357.256 210.004 356.034 208.003 354.018C208.003 354.018 198.45 347.071 193.814 357.536L194.344 393.964L157.915 394.494C147.45 389.858 154.397 380.305 154.397 380.305C156.414 378.304 157.636 375.551 157.591 372.504C157.503 366.602 152.646 361.878 146.744 361.966C140.842 362.054 136.117 366.911 136.205 372.814C136.249 375.846 137.559 378.583 139.635 380.511C145.684 389.343 136.529 394.788 136.529 394.788L100.101 395.318L98.7464 301.046L134.836 300.53C145.301 305.167 138.354 314.719 138.354 314.719C136.338 316.721 135.116 319.473 135.16 322.52C135.249 328.422 140.106 333.147 146.008 333.059C151.91 332.97 156.635 328.113 156.546 322.211C156.502 319.179 155.192 316.441 153.117 314.513C147.068 305.682 156.223 300.236 156.223 300.236L193.004 299.706L193.534 336.164C193.534 336.164 198.98 345.319 207.811 339.27C209.754 337.195 212.477 335.885 215.509 335.84C221.411 335.752 226.268 340.477 226.357 346.379L226.342 346.364Z" fill="#53C888"/>
<defs>
<linearGradient id="paint0_linear_368_2357" x1="353.678" y1="52.8594" x2="480.759" y2="351.206" gradientUnits="userSpaceOnUse">
<stop stop-color="#231F20"/>
<stop offset="0.08" stop-color="#231F20" stop-opacity="0.69"/>
<stop offset="0.11" stop-color="#231F20" stop-opacity="0.58"/>
<stop offset="0.25" stop-color="#231F20" stop-opacity="0.25"/>
<stop offset="0.45" stop-color="#231F20" stop-opacity="0.05"/>
<stop offset="1" stop-color="#231F20" stop-opacity="0"/>
</linearGradient>
<linearGradient id="paint1_linear_368_2357" x1="43.9157" y1="32.9431" x2="88.3142" y2="43.2922" gradientUnits="userSpaceOnUse">
<stop stop-color="#231F20"/>
<stop offset="0.08" stop-color="#231F20" stop-opacity="0.69"/>
<stop offset="0.21" stop-color="#231F20" stop-opacity="0.32"/>
<stop offset="1" stop-color="#231F20" stop-opacity="0"/>
</linearGradient>
<linearGradient id="paint2_linear_368_2357" x1="183.717" y1="185.538" x2="14.8311" y2="-157.31" gradientUnits="userSpaceOnUse">
<stop stop-color="#231F20"/>
<stop offset="0.08" stop-color="#231F20" stop-opacity="0.69"/>
<stop offset="0.11" stop-color="#231F20" stop-opacity="0.58"/>
<stop offset="0.25" stop-color="#231F20" stop-opacity="0.25"/>
<stop offset="0.45" stop-color="#231F20" stop-opacity="0.05"/>
<stop offset="1" stop-color="#231F20" stop-opacity="0"/>
</linearGradient>
<linearGradient id="paint3_linear_368_2357" x1="88.1788" y1="38.1128" x2="105.709" y2="124.084" gradientUnits="userSpaceOnUse">
<stop stop-color="#231F20"/>
<stop offset="0.08" stop-color="#231F20" stop-opacity="0.69"/>
<stop offset="0.11" stop-color="#231F20" stop-opacity="0.58"/>
<stop offset="0.25" stop-color="#231F20" stop-opacity="0.25"/>
<stop offset="0.45" stop-color="#231F20" stop-opacity="0.05"/>
<stop offset="1" stop-color="#231F20" stop-opacity="0"/>
</linearGradient>
<linearGradient id="paint4_linear_368_2357" x1="105.465" y1="32.316" x2="52.5681" y2="74.0471" gradientUnits="userSpaceOnUse">
<stop stop-color="#231F20"/>
<stop offset="0.08" stop-color="#231F20" stop-opacity="0.69"/>
<stop offset="0.21" stop-color="#231F20" stop-opacity="0.32"/>
<stop offset="1" stop-color="#231F20" stop-opacity="0"/>
</linearGradient>
<linearGradient id="paint5_linear_368_2357" x1="112.391" y1="172.051" x2="-29.4225" y2="253.372" gradientUnits="userSpaceOnUse">
<stop stop-color="#231F20"/>
<stop offset="0.08" stop-color="#231F20" stop-opacity="0.69"/>
<stop offset="0.11" stop-color="#231F20" stop-opacity="0.58"/>
<stop offset="0.25" stop-color="#231F20" stop-opacity="0.25"/>
<stop offset="0.45" stop-color="#231F20" stop-opacity="0.05"/>
<stop offset="1" stop-color="#231F20" stop-opacity="0"/>
</linearGradient>
<linearGradient id="paint6_linear_368_2357" x1="117.145" y1="191.583" x2="-131.437" y2="334.148" gradientUnits="userSpaceOnUse">
<stop stop-color="#231F20"/>
<stop offset="0.08" stop-color="#231F20" stop-opacity="0.69"/>
<stop offset="0.11" stop-color="#231F20" stop-opacity="0.58"/>
<stop offset="0.25" stop-color="#231F20" stop-opacity="0.25"/>
<stop offset="0.45" stop-color="#231F20" stop-opacity="0.05"/>
<stop offset="1" stop-color="#231F20" stop-opacity="0"/>
</linearGradient>
<linearGradient id="paint7_linear_368_2357" x1="124.695" y1="113.119" x2="121.766" y2="461.14" gradientUnits="userSpaceOnUse">
<stop stop-color="#231F20"/>
<stop offset="0.08" stop-color="#231F20" stop-opacity="0.69"/>
<stop offset="0.11" stop-color="#231F20" stop-opacity="0.58"/>
<stop offset="0.25" stop-color="#231F20" stop-opacity="0.25"/>
<stop offset="0.45" stop-color="#231F20" stop-opacity="0.05"/>
<stop offset="1" stop-color="#231F20" stop-opacity="0"/>
</linearGradient>
<linearGradient id="paint8_linear_368_2357" x1="123.873" y1="126.675" x2="586.141" y2="450.749" gradientUnits="userSpaceOnUse">
<stop stop-color="#231F20"/>
<stop offset="0.08" stop-color="#231F20" stop-opacity="0.69"/>
<stop offset="0.11" stop-color="#231F20" stop-opacity="0.58"/>
<stop offset="0.25" stop-color="#231F20" stop-opacity="0.25"/>
<stop offset="0.45" stop-color="#231F20" stop-opacity="0.05"/>
<stop offset="1" stop-color="#231F20" stop-opacity="0"/>
</linearGradient>
<linearGradient id="paint9_linear_368_2357" x1="181.893" y1="357.123" x2="269.086" y2="-111.709" gradientUnits="userSpaceOnUse">
<stop stop-color="#231F20"/>
<stop offset="0.08" stop-color="#231F20" stop-opacity="0.69"/>
<stop offset="0.11" stop-color="#231F20" stop-opacity="0.58"/>
<stop offset="0.25" stop-color="#231F20" stop-opacity="0.25"/>
<stop offset="0.45" stop-color="#231F20" stop-opacity="0.05"/>
<stop offset="1" stop-color="#231F20" stop-opacity="0"/>
</linearGradient>
<linearGradient id="paint10_linear_368_2357" x1="252.983" y1="333.397" x2="-239.958" y2="39.923" gradientUnits="userSpaceOnUse">
<stop stop-color="#231F20"/>
<stop offset="0.08" stop-color="#231F20" stop-opacity="0.69"/>
<stop offset="0.11" stop-color="#231F20" stop-opacity="0.58"/>
<stop offset="0.25" stop-color="#231F20" stop-opacity="0.25"/>
<stop offset="0.45" stop-color="#231F20" stop-opacity="0.05"/>
<stop offset="1" stop-color="#231F20" stop-opacity="0"/>
</linearGradient>
</defs>
</svg>
