<svg width="553" height="535" viewBox="0 0 553 535" fill="none" xmlns="http://www.w3.org/2000/svg">
<path d="M0 34C0 15.2223 15.2223 0 34 0H240.21C250.381 0 259.917 4.42927 266.301 12.3466C305.879 61.4265 448.959 242.229 445.953 287.307C442.467 339.608 139.818 537.655 102.51 534.517C72.6179 532.002 24.8193 475.992 6.99772 453.824C2.3696 448.067 0 440.912 0 433.526V34Z" fill="#151515"/>
<path d="M431.28 197.416C419.247 195.449 419.478 193.714 418.205 186.772C416.007 174.391 409.875 164.094 403.395 153.565C379.329 114.572 398.073 62.5058 449.908 61.4645C484.966 60.7703 510.653 83.4482 511.116 117.581C511.347 134.474 505.215 149.515 493.76 161.895C485.892 170.342 479.297 179.019 475.594 190.127C473.28 197.185 473.049 201.697 460.206 199.615C455.578 198.921 450.834 198.805 446.09 198.458C441.23 198.226 436.255 198.226 431.28 197.416Z" fill="#F5F5F5"/>
<path d="M465.643 200.772C463.792 200.772 461.94 200.541 460.089 200.309C456.965 199.847 453.725 199.615 450.601 199.5C449.097 199.384 447.593 199.384 446.089 199.268C444.353 199.152 442.734 199.037 440.998 199.037C437.758 198.921 434.403 198.69 431.163 198.227C419.593 196.376 418.899 194.64 417.742 187.929L417.626 187.119C415.427 174.623 409.064 164.21 402.931 154.144C390.32 133.664 389.047 108.903 399.576 89.5809C409.411 71.7626 427.229 61.5806 449.907 61.2335C467.841 60.8864 483.924 66.6716 495.147 77.5477C505.792 87.8454 511.462 101.846 511.693 117.928C511.924 134.59 505.676 150.673 494.106 162.706C487.28 169.995 479.874 179.02 476.056 190.706C475.825 191.285 475.709 191.863 475.478 192.442C473.974 197.185 472.817 200.772 465.643 200.772ZM451.411 62.1591H449.907C427.692 62.622 410.105 72.4568 400.617 89.928C390.204 108.903 391.477 133.201 403.973 153.334C410.221 163.516 416.7 173.929 418.899 186.772L419.014 187.582C420.056 193.599 420.287 195.103 431.395 196.838C434.634 197.301 437.874 197.533 441.114 197.648C442.849 197.764 444.469 197.764 446.205 197.88C447.709 197.995 449.213 198.111 450.717 198.111C453.957 198.227 457.197 198.574 460.436 199.037C471.66 200.888 472.585 197.764 474.552 191.747C474.668 191.169 474.899 190.59 475.131 190.012C479.065 178.094 486.585 168.954 493.412 161.549C505.098 148.937 510.883 134.127 510.652 117.581C510.42 101.73 504.866 88.0768 494.453 78.0106C483.577 67.7129 468.42 62.1591 451.411 62.1591Z" fill="#231F20"/>
<path d="M467.958 214.656L422.371 211.069C421.098 210.953 420.057 209.796 420.173 208.524L420.867 198.92C420.983 197.648 422.14 196.606 423.413 196.722L469 200.309C470.273 200.424 471.314 201.581 471.198 202.854L470.504 212.458C470.388 213.846 469.231 214.772 467.958 214.656Z" fill="#F5F5F5"/>
<path d="M467.264 215.235H466.917L423.181 211.879C420.983 211.763 419.478 209.797 419.594 207.714L420.173 199.962C420.288 197.763 422.255 196.259 424.338 196.375L468.074 199.73C470.272 199.846 471.777 201.813 471.661 203.896L471.082 211.648C470.967 213.615 469.231 215.235 467.264 215.235ZM424.107 197.532C423.412 197.532 422.834 197.763 422.371 198.226C421.792 198.689 421.445 199.383 421.445 200.077L420.867 207.83C420.867 208.524 421.098 209.218 421.561 209.797C422.024 210.375 422.718 210.722 423.412 210.722L467.148 214.078C468.653 214.193 469.925 213.036 470.041 211.648L470.62 203.896C470.735 202.391 469.578 201.119 468.074 201.003L424.338 197.648H424.107V197.532Z" fill="#231F20"/>
<path d="M466.799 229.004L421.212 225.417C419.939 225.301 418.898 224.144 419.014 222.872L419.708 213.268C419.824 211.995 420.981 210.954 422.253 211.07L467.841 214.657C469.113 214.772 470.155 215.929 470.039 217.202L469.345 226.806C469.229 228.078 468.072 229.12 466.799 229.004Z" fill="#F5F5F5"/>
<path d="M466.106 229.467H465.759L422.023 226.111C419.825 225.995 418.32 224.028 418.436 221.946L419.015 214.194C419.13 211.995 421.097 210.491 423.18 210.607L466.916 213.962C469.114 214.078 470.618 216.045 470.503 218.128L469.924 225.764C469.809 226.805 469.346 227.731 468.536 228.425C467.957 229.235 467.032 229.467 466.106 229.467ZM422.948 211.764C421.56 211.764 420.403 212.805 420.287 214.309L419.709 222.062C419.709 222.756 419.825 223.45 420.287 224.028C420.75 224.607 421.444 224.954 422.139 224.954L465.875 228.31C467.379 228.425 468.651 227.268 468.767 225.88L469.346 218.128C469.461 217.433 469.114 216.739 468.651 216.161C468.189 215.582 467.494 215.235 466.8 215.235L423.064 211.88L422.948 211.764Z" fill="#231F20"/>
<path d="M424.452 225.648C423.989 231.087 432.435 236.062 443.196 236.872C453.956 237.682 463.097 233.979 463.444 228.657L424.452 225.648Z" fill="#231F20"/>
<path d="M446.321 237.682C445.279 237.682 444.238 237.682 443.197 237.566C438.337 237.335 433.593 235.946 429.312 233.517C425.61 231.318 423.643 228.426 423.874 225.649C423.874 225.302 424.221 225.07 424.568 225.07L463.56 228.079C463.908 228.079 464.139 228.426 464.139 228.657C463.908 231.434 461.593 233.979 457.544 235.599C453.841 237.103 450.139 237.682 446.321 237.682ZM425.031 226.343C425.147 228.541 426.882 230.74 429.891 232.591C438.221 236.988 448.056 237.682 456.965 234.674C460.321 233.285 462.288 231.434 462.75 229.351L425.031 226.343Z" fill="#231F20"/>
<path d="M425.724 103.58C429.75 103.58 433.013 100.317 433.013 96.2909C433.013 92.2651 429.75 89.0016 425.724 89.0016C421.698 89.0016 418.435 92.2651 418.435 96.2909C418.435 100.317 421.698 103.58 425.724 103.58Z" fill="#C99B45"/>
<path d="M453.148 115.15C457.174 115.15 460.437 111.887 460.437 107.861C460.437 103.835 457.174 100.572 453.148 100.572C449.122 100.572 445.858 103.835 445.858 107.861C445.858 111.887 449.122 115.15 453.148 115.15Z" fill="#C99B45"/>
<path d="M435.676 132.97C439.702 132.97 442.965 129.706 442.965 125.68C442.965 121.654 439.702 118.391 435.676 118.391C431.65 118.391 428.387 121.654 428.387 125.68C428.387 129.706 431.65 132.97 435.676 132.97Z" fill="#C99B45"/>
<path d="M455.462 151.598C459.488 151.598 462.752 148.335 462.752 144.309C462.752 140.283 459.488 137.02 455.462 137.02C451.436 137.02 448.173 140.283 448.173 144.309C448.173 148.335 451.436 151.598 455.462 151.598Z" fill="#C99B45"/>
<path d="M468.653 171.615C472.678 171.615 475.942 168.352 475.942 164.326C475.942 160.3 472.678 157.036 468.653 157.036C464.627 157.036 461.363 160.3 461.363 164.326C461.363 168.352 464.627 171.615 468.653 171.615Z" fill="#C99B45"/>
<path d="M468.885 134.01C472.911 134.01 476.174 130.747 476.174 126.721C476.174 122.695 472.911 119.432 468.885 119.432C464.859 119.432 461.596 122.695 461.596 126.721C461.596 130.747 464.859 134.01 468.885 134.01Z" fill="#C99B45"/>
<path d="M490.403 140.258C494.429 140.258 497.693 136.995 497.693 132.969C497.693 128.943 494.429 125.68 490.403 125.68C486.378 125.68 483.114 128.943 483.114 132.969C483.114 136.995 486.378 140.258 490.403 140.258Z" fill="#C99B45"/>
<path d="M445.512 171.73C449.538 171.73 452.801 168.467 452.801 164.441C452.801 160.415 449.538 157.152 445.512 157.152C441.486 157.152 438.223 160.415 438.223 164.441C438.223 168.467 441.486 171.73 445.512 171.73Z" fill="#C99B45"/>
<path d="M425.724 158.425C429.75 158.425 433.013 155.161 433.013 151.136C433.013 147.11 429.75 143.846 425.724 143.846C421.698 143.846 418.435 147.11 418.435 151.136C418.435 155.161 421.698 158.425 425.724 158.425Z" fill="#C99B45"/>
<path d="M472.238 105.895C476.264 105.895 479.528 102.631 479.528 98.6056C479.528 94.5798 476.264 91.3162 472.238 91.3162C468.213 91.3162 464.949 94.5798 464.949 98.6056C464.949 102.631 468.213 105.895 472.238 105.895Z" fill="#C99B45"/>
<path d="M453.147 109.134C453.032 109.134 452.8 109.134 452.685 109.019L423.874 97.564C423.18 97.3326 422.833 96.6384 422.949 95.9441C423.18 95.2499 423.874 94.9028 424.569 95.0185C424.684 95.0185 424.684 95.0185 424.8 95.1342L453.032 106.357L475.015 97.7954C475.71 97.564 476.404 97.9111 476.635 98.6053C476.867 99.2995 476.52 99.9938 475.941 100.225L453.494 109.019C453.379 109.134 453.263 109.134 453.147 109.134Z" fill="#C99B45"/>
<path d="M445.512 165.713C445.281 165.713 445.05 165.598 444.818 165.598C444.24 165.251 444.008 164.441 444.355 163.862L455.463 144.54L434.752 126.721C434.52 126.49 434.289 126.143 434.289 125.796C434.289 125.449 434.405 125.101 434.636 124.754L451.992 106.936C452.57 106.473 453.38 106.473 453.843 107.052C454.306 107.514 454.306 108.324 453.843 108.787L437.413 125.68L457.893 143.267C458.355 143.73 458.471 144.424 458.124 144.887L446.669 165.135C446.438 165.482 445.975 165.829 445.512 165.713Z" fill="#C99B45"/>
<path d="M424.337 152.523C423.759 152.523 423.18 152.06 423.065 151.482C422.949 150.788 423.296 150.093 424.106 149.862L454.767 143.035L467.842 125.796C468.189 125.333 468.768 125.217 469.23 125.333L489.479 131.581C490.173 131.812 490.52 132.506 490.404 133.201C490.289 133.895 489.479 134.242 488.784 134.126L469.462 128.11L456.503 145.118C456.272 145.349 456.04 145.581 455.693 145.581L424.569 152.523C424.569 152.523 424.453 152.523 424.337 152.523Z" fill="#C99B45"/>
<path d="M447.246 166.986C446.552 166.87 445.973 166.291 446.089 165.597C446.205 165.019 446.668 164.44 447.246 164.44L468.767 163.977C469.461 163.977 470.04 164.44 470.155 165.134V165.25C470.155 165.944 469.577 166.523 468.883 166.638L447.246 166.986Z" fill="#C99B45"/>
<path d="M378.519 85.993H378.288L347.742 77.8937C347.279 77.778 347.048 77.3152 347.279 76.8524C347.395 76.5052 347.858 76.2738 348.205 76.2738L378.751 84.3731C379.213 84.4888 379.445 84.9516 379.329 85.2987C379.213 85.7615 378.866 85.993 378.519 85.993Z" fill="#53C888"/>
<path d="M368.221 202.739C367.758 202.739 367.411 202.392 367.411 201.929C367.411 201.698 367.527 201.351 367.758 201.235L389.626 186.193C389.974 185.962 390.552 186.078 390.783 186.425C391.015 186.772 390.899 187.35 390.552 187.582L368.684 202.623C368.568 202.739 368.337 202.739 368.221 202.739Z" fill="#53C888"/>
<path d="M352.253 140.837C351.79 140.837 351.443 140.49 351.443 140.027C351.443 139.68 351.79 139.333 352.138 139.218C355.262 138.87 370.997 136.903 372.386 137.135C372.849 137.251 373.08 137.713 372.964 138.06C372.849 138.408 372.501 138.755 372.154 138.639C371.113 138.639 359.427 139.912 352.253 140.837Z" fill="#53C888"/>
<path d="M522.22 87.6132C521.873 87.6132 521.641 87.4975 521.526 87.1504C521.294 86.8033 521.526 86.2247 521.873 86.109L543.741 74.8858C544.088 74.6544 544.666 74.8858 544.898 75.2329C545.129 75.58 544.898 76.1585 544.551 76.2742L522.683 87.4975C522.451 87.6132 522.336 87.6132 522.22 87.6132Z" fill="#53C888"/>
<path d="M552.19 159.35H552.074L522.107 153.68C521.644 153.564 521.413 153.217 521.413 152.755C521.529 152.292 521.876 152.06 522.339 152.06L552.306 157.73C552.769 157.846 553 158.193 553 158.655C552.884 159.118 552.537 159.35 552.19 159.35Z" fill="#53C888"/>
<path d="M514.127 216.16C514.011 216.16 513.895 216.16 513.78 216.045L492.721 204.706C492.374 204.474 492.143 204.011 492.374 203.664C492.606 203.317 493.069 203.086 493.531 203.317L514.59 214.656C514.937 214.888 515.168 215.35 514.937 215.698C514.705 216.045 514.358 216.16 514.127 216.16Z" fill="#53C888"/>
<path d="M500.122 104.39C499.775 104.39 499.428 104.159 499.312 103.812C491.328 77.3155 457.312 69.1005 456.964 68.9848C456.502 68.8691 456.27 68.4063 456.386 67.9435C456.502 67.5964 456.849 67.365 457.312 67.365C457.659 67.4807 492.601 75.8114 500.816 103.233C500.932 103.696 500.7 104.159 500.238 104.274C500.353 104.274 500.238 104.39 500.122 104.39Z" fill="#D1D3D4"/>
<path d="M501.744 115.961C501.397 115.961 501.05 115.729 500.935 115.382L499.546 109.713C499.43 109.25 499.662 108.903 500.125 108.787C500.587 108.671 500.935 108.903 501.05 109.366L502.439 115.035C502.554 115.498 502.323 115.845 501.86 115.961H501.744Z" fill="#D1D3D4"/>
<path d="M244.301 64.3568C241.293 57.0675 232.268 53.8278 224.4 55.1005C216.532 56.3733 209.822 61.0014 203.574 65.7453C192.466 74.0759 181.706 83.2165 174.763 95.2497C167.937 107.052 163.309 119.2 155.788 130.771C146.416 145.234 136.003 160.507 120.035 166.986C109.044 171.499 94.812 172.54 89.2582 183.069C83.2416 194.639 92.7293 209.912 86.7127 221.483C83.0102 228.656 74.6795 231.78 68.2001 236.755C55.8198 246.127 50.266 262.557 50.7288 278.062C51.1916 293.566 57.0925 308.492 63.6876 322.492C69.1257 334.062 75.3737 345.633 84.7457 354.195C96.3161 364.724 111.705 370.162 126.862 373.98C145.027 378.608 163.887 381.501 182.631 379.534C201.375 377.567 219.888 370.509 233.194 357.319C251.012 339.847 257.839 313.698 274.384 294.954C286.186 281.417 303.079 272.045 312.566 256.425C323.096 238.954 330.732 219.978 335.36 200.193C343.459 164.556 332.93 127.647 322.517 92.5886C320.319 85.4149 318.12 78.1256 313.839 71.9933C301.343 54.2906 275.773 52.0922 254.483 56.3733C249.855 57.4146 244.301 59.7287 244.301 64.3568Z" fill="#F5F5F5"/>
<path d="M170.367 381.039C157.293 381.039 143.177 378.956 126.747 374.906C112.631 371.319 96.548 366.113 84.2834 355.005C74.68 346.212 68.432 334.41 62.9939 323.071C56.8616 309.996 50.4979 294.492 50.0351 278.294C49.4566 260.822 56.0517 245.087 67.8535 236.293C69.8205 234.789 71.9031 233.516 73.9858 232.243C78.9611 229.119 83.7049 226.227 86.1347 221.367C89.0273 215.814 88.2174 209.334 87.4074 202.623C86.5975 195.912 85.6719 188.97 88.7959 182.954C92.9612 174.97 101.986 172.193 110.664 169.532C113.788 168.606 117.028 167.565 119.92 166.408C134.962 160.16 144.797 146.391 155.21 130.424C159.259 124.06 162.846 117.35 165.97 110.523C168.516 105.432 171.061 100.11 174.07 94.9031C181.243 82.5228 192.814 72.9194 203.111 65.1672C209.475 60.4234 216.301 55.6795 224.285 54.4068C231.112 53.3654 239.905 55.6795 243.955 62.1589C245.69 57.9936 251.475 56.3737 254.252 55.9109C264.318 53.8283 298.335 48.9687 314.418 71.7623C318.815 78.0103 321.013 85.4154 323.212 92.589C333.162 126.027 344.501 163.863 336.055 200.656C331.542 220.557 323.79 239.649 313.261 257.12C307.476 266.607 299.03 273.897 290.815 280.839C285.261 285.467 279.939 290.327 275.079 295.649C267.443 304.327 261.773 314.74 256.335 324.922C249.971 336.608 243.492 348.641 233.888 358.129C221.392 370.509 203.227 378.493 182.863 380.576C178.582 380.807 174.532 381.039 170.367 381.039ZM227.64 55.6795C226.599 55.6795 225.558 55.7952 224.632 55.9109C216.996 57.068 210.285 61.6961 204.153 66.3243C193.508 74.3078 182.632 83.4484 175.574 95.4816C172.565 100.573 170.02 105.895 167.474 110.986C164.235 117.928 160.648 124.639 156.598 131.118C146.069 147.433 136.119 161.433 120.614 167.796C117.606 169.069 114.366 169.995 111.242 170.92C102.449 173.582 94.1183 176.127 90.3 183.532C87.4074 189.086 88.2174 195.45 89.143 202.276C90.0686 209.103 90.8786 215.929 87.7546 221.946C84.9777 227.153 79.8867 230.392 74.9114 233.4C72.8288 234.673 70.7461 235.946 68.8948 237.334C57.5559 245.896 51.1922 261.169 51.655 278.062C52.2335 294.029 58.4815 309.302 64.4981 322.261C69.7048 333.484 75.9528 345.055 85.3248 353.732C97.2423 364.724 113.209 369.815 127.094 373.286C148.615 378.724 166.317 380.46 182.516 378.84C202.533 376.757 220.351 368.89 232.616 356.856C241.988 347.6 248.583 335.567 254.831 323.997C260.385 313.815 266.054 303.286 273.806 294.492C278.781 289.054 284.104 284.079 289.773 279.451C297.873 272.508 306.319 265.335 311.873 256.078C322.402 238.723 330.038 219.863 334.551 200.078C342.766 163.747 331.542 126.143 321.708 92.9361C319.625 85.8782 317.427 78.5889 313.146 72.5723C297.525 50.5886 264.434 55.3324 254.599 57.2994C251.822 57.8779 245.227 59.7292 245.112 64.3573C245.112 64.7044 244.88 65.0515 244.417 65.1672C244.07 65.2829 243.608 65.0515 243.492 64.7044C240.946 58.5721 233.888 55.6795 227.64 55.6795Z" fill="#231F20"/>
<path d="M349.938 231.203C406.286 264.757 464.485 419.105 464.485 419.105H194.432C194.432 419.105 107.307 265.798 145.952 231.781C171.638 209.219 326.219 217.087 349.938 231.203Z" fill="#53C888"/>
<path d="M331.427 419.916C331.079 419.916 330.848 419.684 330.732 419.453L310.716 369.237C310.6 368.774 310.716 368.312 311.178 368.196C311.641 368.08 312.104 368.196 312.22 368.659L332.236 418.874C332.352 419.337 332.236 419.8 331.774 419.916C331.542 419.916 331.427 419.916 331.427 419.916Z" fill="#231F20"/>
<path d="M412.535 419.916C412.188 419.916 411.957 419.801 411.841 419.454C410.916 417.834 405.94 408.346 399.114 395.272C377.94 354.891 333.973 270.89 330.849 268.229C330.501 267.997 330.27 267.65 330.501 267.187C330.501 267.187 330.501 267.187 330.501 267.072C330.733 266.609 331.196 266.493 331.659 266.725C333.51 267.65 352.254 302.246 400.502 394.346C407.329 407.42 412.304 416.792 413.23 418.412C413.461 418.759 413.23 419.338 412.883 419.454C412.767 419.801 412.651 419.916 412.535 419.916Z" fill="#231F20"/>
<path d="M282.367 237.566L311.293 369.006C311.293 369.006 220.928 254.228 215.027 219.864C234.581 199.847 282.367 237.566 282.367 237.566Z" fill="#231F20"/>
<path d="M311.295 369.699C311.063 369.699 310.832 369.583 310.716 369.352C310.485 369.121 287.807 340.31 264.782 307.566C233.773 263.714 216.765 234.21 214.335 219.863C214.335 219.631 214.335 219.284 214.566 219.168C222.781 210.722 237.244 211.185 256.451 220.441C265.823 225.069 274.617 230.507 282.947 236.871C283.063 236.987 283.179 237.103 283.179 237.334L312.105 368.773C312.22 369.121 311.989 369.468 311.642 369.699C311.526 369.699 311.41 369.699 311.295 369.699ZM215.955 220.094C221.856 251.218 296.022 347.947 309.791 365.649L281.675 238.028C278.088 235.251 234.236 202.276 215.955 220.094Z" fill="#231F20"/>
<path d="M283.987 199.615L282.367 237.45C282.367 237.45 268.367 259.318 244.763 250.64C221.16 241.962 215.027 219.747 215.027 219.747L223.242 151.366C223.242 151.366 243.143 133.895 242.334 94.2086C262.003 105.085 284.103 110.639 306.433 110.639C306.433 110.639 309.557 163.862 304.466 182.259C299.376 200.656 283.987 199.615 283.987 199.615Z" fill="#F5F5F5"/>
<path d="M255.641 253.533C251.823 253.533 248.12 252.839 244.534 251.45C220.93 242.773 214.335 220.21 214.335 219.979C214.335 219.863 214.335 219.748 214.335 219.632L222.55 151.367C222.55 151.135 222.666 151.02 222.781 150.904C223.013 150.788 242.335 133.085 241.641 94.4404C241.641 94.0933 241.757 93.8619 242.104 93.7462C242.335 93.6305 242.682 93.6305 242.914 93.7462C262.468 104.507 284.336 110.06 306.667 110.06C307.129 110.06 307.477 110.408 307.477 110.755C307.592 112.953 310.601 164.326 305.51 182.607C300.997 198.921 288.385 200.425 285.03 200.425L283.41 237.566C283.41 237.682 283.41 237.797 283.294 238.029C282.947 238.145 272.765 253.533 255.641 253.533ZM215.839 219.748C216.418 221.715 223.128 241.963 244.996 249.946C266.517 257.93 280.17 239.302 281.559 237.219L283.179 199.615C283.179 199.384 283.294 199.152 283.41 199.037C283.526 198.921 283.757 198.805 283.989 198.805C284.567 198.805 298.799 199.731 303.658 182.144C308.286 165.251 305.972 118.16 305.625 111.565H305.047C273.691 111.565 248.815 98.9529 243.03 95.7132C243.145 115.614 238.054 129.73 233.657 138.061C231.112 143.152 227.872 147.78 223.823 151.829L215.839 219.748Z" fill="#231F20"/>
<path d="M232.385 150.904C231.923 147.433 230.418 144.309 227.989 141.763C225.675 139.565 222.898 137.829 220.005 136.556C218.501 135.631 216.765 135.168 215.03 135.052C213.757 135.168 212.6 135.399 211.443 135.862C208.666 136.788 206.352 138.755 204.848 141.3C203.922 143.499 203.459 145.813 203.691 148.127C203.691 150.672 204.038 153.218 204.732 155.763C207.74 165.945 218.501 171.846 228.683 168.838C228.799 168.838 228.914 168.722 229.03 168.722" fill="#F5F5F5"/>
<path d="M223.361 170.458C214.452 170.458 206.584 164.673 204.039 156.111C203.345 153.565 202.997 150.904 202.997 148.359C202.766 145.929 203.229 143.383 204.154 141.069C205.659 138.408 208.204 136.325 211.097 135.284C212.369 134.706 213.642 134.358 215.031 134.358C216.882 134.474 218.733 135.053 220.353 135.978C223.361 137.251 226.138 139.102 228.568 141.416C231.113 143.962 232.733 147.317 233.196 151.02C233.196 151.483 232.965 151.83 232.502 151.945C232.039 152.061 231.692 151.714 231.576 151.251C231.113 148.011 229.725 145.003 227.411 142.689C225.097 140.606 222.551 138.871 219.659 137.598C218.27 136.788 216.651 136.325 215.031 136.21C213.874 136.21 212.832 136.557 211.791 137.02C209.245 137.945 207.047 139.681 205.659 142.111C204.849 144.193 204.502 146.392 204.617 148.59C204.617 151.135 204.964 153.565 205.659 155.995C208.551 165.83 218.849 171.384 228.684 168.491C228.799 168.491 228.799 168.491 228.915 168.375C229.378 168.144 229.841 168.375 229.956 168.838C230.072 169.301 229.956 169.764 229.494 169.879H229.378C227.295 170.227 225.328 170.458 223.361 170.458Z" fill="#231F20"/>
<path d="M278.781 164.788C276.352 164.672 273.922 164.325 271.724 163.515C271.261 163.4 271.029 162.937 271.261 162.474C271.492 162.011 271.839 161.78 272.302 162.011C274.5 162.706 280.633 164.21 283.063 162.011C284.798 160.391 280.286 149.284 274.963 139.912C274.732 139.565 274.963 138.986 275.31 138.871C275.657 138.755 276.12 138.871 276.352 139.218C279.013 144.077 287.575 160.044 284.104 163.284C282.484 164.325 280.633 164.904 278.781 164.788Z" fill="#231F20"/>
<path d="M250.087 343.436C249.856 343.436 249.625 343.32 249.393 343.088C249.162 342.741 223.476 307.22 193.74 262.212C193.508 261.864 193.74 261.286 194.087 261.17C194.434 260.939 194.897 261.055 195.128 261.402C224.864 306.295 250.435 341.816 250.666 342.163C250.897 342.51 250.897 342.973 250.55 343.32C250.319 343.436 250.203 343.436 250.087 343.436Z" fill="#231F20"/>
<path d="M274.616 185.847C273.227 185.847 271.955 185.731 270.682 185.384C255.062 181.681 255.178 162.59 255.178 162.359C255.178 161.896 255.525 161.549 255.988 161.549C256.45 161.549 256.797 161.896 256.797 162.359C256.797 162.59 256.682 180.293 271.029 183.764C274.384 184.69 277.971 184.227 280.98 182.376C287.228 178.442 289.195 169.185 289.195 169.185C289.195 168.723 289.657 168.375 290.12 168.491C290.583 168.491 290.93 168.954 290.814 169.417C290.814 169.532 290.814 169.532 290.814 169.648C290.699 170.111 288.616 179.599 281.79 183.88C279.707 185.152 277.161 185.962 274.616 185.847Z" fill="#231F20"/>
<path d="M283.986 199.615C283.986 199.615 260.498 200.078 246.15 181.565C246.15 181.565 253.44 219.285 282.944 222.293L283.986 199.615Z" fill="#231F20"/>
<path d="M283.063 223.104C253.211 220.095 245.575 182.144 245.459 181.682C245.343 181.334 245.575 180.987 245.922 180.756C246.269 180.64 246.616 180.756 246.847 180.987C260.732 199.037 283.757 198.69 283.988 198.69C284.22 198.69 284.451 198.806 284.567 198.921C284.682 199.037 284.798 199.269 284.798 199.5L283.757 222.178C283.872 222.756 283.525 223.104 283.063 223.104ZM247.889 184.806C250.434 193.946 259.575 218.475 282.253 221.484L283.178 200.541C279.013 200.31 260.732 198.921 247.889 184.806Z" fill="#231F20"/>
<path d="M218.154 406.957C217.922 406.957 217.807 406.842 217.575 406.726C217.228 406.379 178.467 372.478 153.128 323.651C152.897 323.303 153.128 322.725 153.475 322.609C153.822 322.378 154.401 322.609 154.517 322.956C179.74 371.552 218.154 405.222 218.617 405.569C218.964 405.916 218.964 406.379 218.732 406.726C218.617 406.842 218.385 406.957 218.154 406.957Z" fill="#231F20"/>
<path d="M260.036 130.772C261.634 130.772 262.929 128.13 262.929 124.871C262.929 121.612 261.634 118.97 260.036 118.97C258.439 118.97 257.144 121.612 257.144 124.871C257.144 128.13 258.439 130.772 260.036 130.772Z" fill="#231F20"/>
<path d="M295.488 130.854C295.625 127.598 294.442 124.904 292.846 124.837C291.25 124.77 289.845 127.355 289.708 130.611C289.571 133.867 290.754 136.561 292.35 136.628C293.946 136.695 295.351 134.11 295.488 130.854Z" fill="#231F20"/>
<path d="M211.558 366.574C230.07 346.441 357.46 287.201 369.03 277.945C380.601 268.688 380.717 261.399 396.105 257.118C411.494 252.837 436.023 244.391 438.337 247.052C440.651 249.713 439.147 256.424 435.444 259.664C431.742 262.903 422.138 265.102 418.667 268.341C418.667 268.341 438.684 271.928 445.164 268.573C451.643 265.217 462.635 256.54 468.304 255.614C471.891 255.151 475.594 255.73 478.833 257.349C478.833 257.349 486.007 252.374 488.668 256.192C490.404 258.738 489.015 261.63 486.933 263.482C491.676 261.978 488.437 268.11 487.511 269.845C462.635 314.854 404.436 304.788 395.758 305.251C395.758 305.251 367.873 329.664 361.857 335.449C346.815 349.797 331.427 363.797 315.46 377.103C297.988 391.566 278.666 408.111 257.029 415.864C211.789 431.715 192.929 386.706 211.558 366.574Z" fill="#F5F5F5"/>
<path d="M238.746 419.916C226.366 419.916 215.953 414.709 209.358 404.759C201.143 392.263 201.721 375.949 210.862 365.998C222.779 353.039 279.821 323.766 321.475 302.477C344.384 290.675 364.285 280.609 368.335 277.253C371.574 274.592 374.583 271.584 377.36 268.344C381.872 263.137 385.459 259.088 395.756 256.311C399.343 255.27 403.509 253.997 407.79 252.724C427.344 246.823 436.831 244.278 438.798 246.476C439.84 247.865 440.302 249.6 440.071 251.336C439.84 254.691 438.335 257.931 435.79 260.245C433.939 261.865 430.699 263.137 427.344 264.642C425.029 265.567 422.715 266.609 420.517 267.881C425.608 268.691 439.608 270.542 444.583 267.881C446.898 266.724 449.674 264.873 452.683 262.906C458.352 259.204 464.137 255.501 467.956 254.807C471.542 254.344 475.245 254.922 478.485 256.427C479.757 255.617 483.46 253.534 486.468 253.997C487.51 254.228 488.435 254.807 489.014 255.732C490.286 257.815 490.171 260.592 488.551 262.559C488.898 262.675 489.245 262.906 489.477 263.137C490.402 264.295 489.939 266.493 487.857 270.195C465.989 309.997 418.666 307.221 400.963 306.295C398.649 306.179 396.913 306.064 395.756 306.064C393.211 308.378 367.756 330.593 362.087 336.031C345.194 352.229 330.037 365.882 315.689 377.8L313.375 379.651C296.714 393.536 277.854 409.156 256.912 416.676C251.127 418.643 244.994 419.8 238.746 419.916ZM436.253 247.286C431.74 247.286 417.856 251.451 408.252 254.344C403.856 255.617 399.806 256.889 396.104 257.931C386.384 260.708 382.913 264.526 378.517 269.501C375.74 272.741 372.616 275.865 369.376 278.526C365.095 281.881 346.235 291.601 322.285 303.865C280.747 325.155 223.821 354.312 212.135 367.039C203.457 376.411 202.878 391.916 210.746 403.718C219.887 417.602 237.011 421.767 256.449 414.825C277.16 407.536 295.904 391.916 312.45 378.147L314.648 376.296C328.995 364.378 344.037 350.841 360.93 334.642C366.946 328.973 394.599 304.675 394.831 304.444C394.947 304.328 395.178 304.212 395.294 304.212C396.451 304.097 398.302 304.212 400.963 304.444C418.434 305.485 465.063 308.031 486.352 269.27C488.782 264.873 488.204 264.063 488.204 263.947C488.204 263.832 487.741 263.716 486.815 264.063C486.468 264.179 486.005 264.063 485.89 263.716C485.658 263.369 485.774 262.906 486.121 262.675C487.972 261.17 489.129 258.625 487.741 256.542C487.394 255.964 486.815 255.617 486.121 255.501C483.807 255.038 480.22 257.121 479.063 257.931C478.832 258.047 478.485 258.047 478.253 257.931C475.129 256.427 471.658 255.848 468.303 256.311C464.832 256.889 458.931 260.708 453.608 264.179C450.6 266.146 447.707 267.997 445.393 269.27C439.261 272.509 421.79 269.617 418.897 269.154L417.624 270.311C417.277 270.658 416.815 270.658 416.467 270.311C416.352 270.195 416.236 269.964 416.236 269.733C416.236 269.501 416.352 269.27 416.467 269.154L417.972 267.766C419.823 266.03 423.41 264.526 426.765 263.137C429.889 261.865 433.013 260.476 434.749 259.088C436.947 257.121 438.22 254.344 438.451 251.336C438.683 250.063 438.335 248.79 437.526 247.749C437.178 247.286 436.716 247.286 436.253 247.286Z" fill="#231F20"/>
<path d="M478.602 257.35C478.602 257.35 469.23 269.383 450.255 277.945L478.602 257.35Z" fill="#F5F5F5"/>
<path d="M450.371 278.758C450.024 278.758 449.792 278.527 449.677 278.295C449.445 277.832 449.677 277.369 450.139 277.254C468.652 268.923 478.024 257.006 478.14 256.89C478.371 256.543 478.95 256.427 479.297 256.659C479.644 256.89 479.76 257.468 479.528 257.816C479.528 257.816 479.528 257.931 479.412 257.931C479.297 258.047 469.693 270.196 450.834 278.758C450.602 278.758 450.487 278.758 450.371 278.758Z" fill="#231F20"/>
<path d="M486.703 263.483C486.703 263.483 470.042 284.888 458.009 286.855L486.703 263.483Z" fill="#F5F5F5"/>
<path d="M458.122 287.551C457.66 287.551 457.312 287.204 457.312 286.741C457.312 286.394 457.544 286.047 458.007 285.931C469.461 284.08 486.007 263.137 486.123 262.906C486.354 262.559 486.933 262.443 487.28 262.79C487.627 263.137 487.743 263.6 487.395 263.947C486.701 264.873 470.387 285.699 458.238 287.551H458.122Z" fill="#231F20"/>
<path d="M349.707 347.367C349.36 347.367 349.013 347.136 348.897 346.789C348.781 346.557 338.252 317.284 315.806 306.871C315.343 306.639 315.227 306.177 315.458 305.829C315.69 305.482 316.153 305.251 316.5 305.482C339.525 316.243 350.285 346.094 350.401 346.326C350.517 346.789 350.285 347.251 349.938 347.367C349.822 347.367 349.823 347.367 349.707 347.367Z" fill="#231F20"/>
<path d="M258.65 140.144C258.071 140.144 257.492 140.144 257.03 140.028L244.649 138.524C236.781 137.599 231.228 130.541 232.153 122.673L232.963 115.499C233.079 114.111 233.773 112.838 234.93 112.028C235.972 111.103 237.36 110.755 238.748 110.987L269.063 114.458C271.955 114.805 274.038 117.351 273.691 120.127C273.691 120.127 273.691 120.127 273.691 120.243L272.881 127.417C272.071 134.59 265.939 140.144 258.65 140.144ZM238.17 112.722C236.434 112.722 234.93 113.995 234.699 115.846L233.889 123.02C233.079 129.847 238.054 136.095 244.881 136.904L257.261 138.293C264.088 139.103 270.336 134.128 271.146 127.301L271.955 120.127C272.187 118.276 270.798 116.541 268.947 116.309L238.633 112.838C238.401 112.722 238.286 112.722 238.17 112.722Z" fill="#53C888"/>
<path d="M298.914 144.887C298.336 144.887 297.873 144.887 297.294 144.771L284.914 143.383C277.046 142.457 271.492 135.399 272.418 127.647L273.228 120.473C273.575 117.581 276.121 115.498 279.013 115.845L309.328 119.316C312.22 119.663 314.303 122.209 313.956 125.101L313.146 132.275C312.336 139.449 306.204 144.887 298.914 144.887ZM297.41 143.035C304.237 143.845 310.485 138.87 311.294 132.044L312.104 124.87C312.336 123.019 310.947 121.283 309.096 121.052L278.782 117.581C276.93 117.349 275.195 118.738 274.964 120.589L274.154 127.763C273.344 134.589 278.319 140.837 285.145 141.647L297.41 143.035Z" fill="#53C888"/>
</svg>
